<?xml version="1.0" encoding="UTF-8"?>
<svg width="1013px" height="1013px" viewBox="0 0 1013 1013" version="1.1" xmlns="http://www.w3.org/2000/svg" xmlns:xlink="http://www.w3.org/1999/xlink">
    <title>biwabits-icons</title>
    <g id="Page-1" stroke="none" stroke-width="1" fill="none" fill-rule="evenodd">
        <circle id="Oval" fill="#000000" cx="513" cy="513" r="500"></circle>
        <circle id="Oval" stroke="#32FF32" stroke-width="20" cx="513" cy="513" r="490"></circle>
        <g id="biwabits-logo" fill-rule="nonzero">
            <rect id="background" x="0" y="0" width="1000" height="1000"></rect>
            <path d="M497.670226,228.531915 L516.745302,253.02594 L555.40231,253.02643 L555.40233,438.055781 C588.03427,401.064028 635.72735,377.740882 688.853119,377.740882 C787.217421,377.740882 866.957447,457.697008 866.957447,556.327888 C866.957447,653.972457 788.804246,733.313903 691.798397,734.890971 L688.853119,734.914894 L688.853119,734.914894 C635.72735,734.914894 588.034275,711.591749 555.402335,674.599997 L555.40231,734.914894 L510.748791,734.914894 L510.748766,674.599997 C478.116824,711.591749 430.423748,734.914894 377.297982,734.914894 C278.933679,734.914894 199.193655,654.958768 199.193655,556.327888 C199.193655,541.344566 201.033863,526.79221 204.50002,512.885662 L159.301755,548.316399 L132.914894,514.433333 L497.670226,228.531915 Z M377.297982,422.387633 C303.524755,422.387633 243.719737,482.354728 243.719737,556.327888 C243.719737,630.301049 303.524755,690.268142 377.297982,690.268142 C449.128952,690.268142 507.717524,633.417041 510.752713,562.140489 L510.752713,550.515467 C507.717624,479.238833 449.129013,422.387633 377.297982,422.387633 Z M688.853119,422.387633 C617.022085,422.387633 558.433476,479.238833 555.398387,550.515467 L555.398387,562.140489 C558.433576,633.417041 617.02215,690.268142 688.853119,690.268142 C762.626345,690.268142 822.431364,630.301049 822.431364,556.327888 C822.431364,482.354728 762.626345,422.387633 688.853119,422.387633 Z M510.748771,272.84593 L376.918741,377.743764 L377.297982,377.740882 C430.42375,377.740882 478.116828,401.064028 510.748771,438.055781 L510.748771,272.84593 Z" id="Combined-Shape" fill="#FFFFFF"></path>
        </g>
    </g>
</svg>