<?xml version="1.0" encoding="UTF-8"?>
<svg width="1000px" height="1000px" viewBox="0 0 1000 1000" version="1.1" xmlns="http://www.w3.org/2000/svg" xmlns:xlink="http://www.w3.org/1999/xlink">
    <title>email-icons</title>
    <g id="Page-1" stroke="none" stroke-width="1" fill="none" fill-rule="evenodd">
        <circle id="Oval" fill="#000000" cx="500" cy="500" r="500"></circle>
        <circle id="Oval" stroke="#32FF32" stroke-width="20" cx="500" cy="500" r="490"></circle>
        <g id="email-icons" transform="translate(185.000000, 194.000000)" fill="#FFFFFF" fill-rule="nonzero">
            <path d="M316.60425,612 C111.187458,612 0,483.904533 0,318.531078 C0,141.808723 125.200917,0 349.048167,0 C512.424583,0 631,106.080701 631,252.224073 C631,481.093578 359.407083,541.515968 373.026167,410.951065 C354.359083,440.058894 324.281417,472.792067 266.466042,472.792067 C200.316208,472.792067 159.196042,424.401614 159.196042,346.509272 C159.196042,229.762706 235.994,131.116587 326.910583,131.116587 C370.528458,131.116587 400.52725,154.129636 413.068375,189.463599 L425.267708,146.589973 L486.737625,146.589973 C480.322458,168.447115 425.714667,370.599416 425.714667,370.599416 C408.677667,440.636848 461.208417,441.871566 507.79725,404.67239 C595.322208,336.894231 599.844375,159.646463 481.558167,85.7209821 C354.806042,9.77266484 66.2812917,56.7707761 66.2812917,314.091346 C66.2812917,461.495707 170.133375,560.535886 324.702083,560.535886 C415.04025,560.535886 470.4105,536.104224 516.499792,509.360749 L547.445083,553.968235 C502.460042,579.345639 430.157958,612 316.60425,612 Z M254.976583,236.199004 C236.178042,271.401614 224.031292,317.007383 224.031292,352.420158 C224.031292,447.25704 316.630542,447.861264 362.115125,358.698832 C380.834792,322.07761 392.902667,275.394746 392.902667,239.719265 C392.902667,163.087912 301.013292,149.50601 254.976583,236.199004 L254.976583,236.199004 Z" id="Shape"></path>
        </g>
    </g>
</svg>