<?xml version="1.0" encoding="UTF-8"?>
<svg width="1000px" height="1000px" viewBox="0 0 1000 1000" version="1.1" xmlns="http://www.w3.org/2000/svg" xmlns:xlink="http://www.w3.org/1999/xlink">
    <title>github-icons</title>
    <g id="Page-1" stroke="none" stroke-width="1" fill="none" fill-rule="evenodd">
        <circle id="Oval" fill="#000000" cx="500" cy="500" r="500"></circle>
        <circle id="Oval" stroke="#32FF32" stroke-width="20" cx="500" cy="500" r="490"></circle>
        <g id="github-logo" transform="translate(144.000000, 144.000000)" fill="#FFFFFF" fill-rule="nonzero">
            <path d="M358.935125,0 C160.726254,0 0,160.664457 0,358.859974 C0,517.416388 102.84566,651.931533 245.462587,699.383627 C263.400194,702.70471 269.987451,691.598781 269.987451,682.119621 C269.987451,673.563609 269.652458,645.29218 269.500445,615.306735 C169.641571,637.014802 148.570794,572.965734 148.570794,572.965734 C132.243405,531.485962 108.71789,520.458838 108.71789,520.458838 C76.153194,498.185062 111.172628,498.641007 111.172628,498.641007 C147.216747,501.174037 166.195929,535.623244 166.195929,535.623244 C198.208871,590.485857 250.163749,574.623461 270.646177,565.456707 C273.866614,542.259782 283.17041,526.43116 293.434145,517.469863 C213.711446,508.393173 129.901269,477.622488 129.901269,340.118368 C129.901269,300.940839 143.923118,268.926155 166.88562,243.795684 C163.158472,234.755582 150.873519,198.257435 170.362228,148.826764 C170.362228,148.826764 200.503151,139.181549 269.095075,185.611987 C297.724307,177.658273 328.431058,173.672973 358.935125,173.537878 C389.439192,173.672973 420.168464,177.658273 448.853997,185.611987 C517.364284,139.181549 547.462981,148.826764 547.462981,148.826764 C566.999546,198.257435 554.708964,234.755582 550.981815,243.795684 C573.994988,268.926155 587.921125,300.938024 587.921125,340.118368 C587.921125,477.948968 503.953305,508.300295 424.027921,517.182786 C436.901222,528.319674 448.372621,550.160021 448.372621,583.638233 C448.372621,631.653222 447.955991,670.298815 447.955991,682.119621 C447.955991,691.669143 454.41657,702.859507 472.613163,699.335781 C615.151268,651.830212 717.867435,517.362913 717.867435,358.859974 C717.867435,160.664457 557.163702,0 358.935125,0" id="Path"></path>
            <path d="M137.396467,512.679634 C136.608982,514.46895 133.802159,515.006027 131.251269,513.779229 C128.649755,512.603312 127.187282,510.161023 128.031016,508.363227 C128.80444,506.520204 131.611262,506.00574 134.207151,507.243845 C136.81429,508.416935 138.299263,510.881838 137.396467,512.679634 M155.036139,528.497978 C153.32617,530.09225 149.98217,529.351648 147.712525,526.833038 C145.366944,524.320081 144.928202,520.961933 146.663482,519.342221 C148.426887,517.750776 151.669639,518.494204 154.020845,521.009988 C156.366426,523.551212 156.822043,526.889572 155.033326,528.500805 M167.138101,548.737317 C164.938767,550.272228 161.344459,548.833426 159.125437,545.627922 C156.928916,542.425244 156.928916,538.5809 159.173249,537.040336 C161.400708,535.499772 164.938767,536.884866 167.188725,540.06493 C169.382434,543.324142 169.382434,547.168486 167.135288,548.740144 M187.60147,572.179334 C185.635569,574.355911 181.450647,573.773606 178.385079,570.799893 C175.252012,567.894021 174.377341,563.769832 176.348867,561.590428 C178.337267,559.408198 182.547501,560.021597 185.635569,562.969869 C188.748948,565.870088 189.699556,570.025371 187.604282,572.179334 M214.049727,580.094159 C213.186306,582.915229 209.153256,584.198562 205.092081,583.000031 C201.036532,581.764753 198.381581,578.457487 199.200004,575.605323 C200.043738,572.764466 204.093662,571.427426 208.185774,572.710758 C212.235698,573.940383 214.896274,577.222209 214.05254,580.094159 M244.154166,583.44948 C244.255415,586.423193 240.810166,588.888096 236.546496,588.941804 C232.257513,589.035085 228.789765,586.629544 228.744766,583.706712 C228.744766,580.704732 232.111266,578.262443 236.397436,578.191775 C240.661106,578.106973 244.154166,580.495554 244.154166,583.44948 M273.724241,582.310311 C274.236106,585.210529 271.271786,588.189895 267.039053,588.981378 C262.87663,589.744593 259.023577,587.955277 258.492024,585.080499 C257.974534,582.106787 260.995103,579.130247 265.149088,578.358551 C269.390259,577.61795 273.184251,579.362038 273.724241,582.310311" id="Shape"></path>
        </g>
    </g>
</svg>