<?xml version="1.0" encoding="UTF-8"?>
<svg width="380px" height="480px" viewBox="0 0 380 480" version="1.1" xmlns="http://www.w3.org/2000/svg" xmlns:xlink="http://www.w3.org/1999/xlink">
    <title>julianda-arts</title>
    <g id="Page-1" stroke="none" stroke-width="1" fill="none" fill-rule="evenodd">
        <g id="julianda-art" transform="translate(1.000000, 1.000000)">
            <polygon id="p153" stroke="#212121" stroke-width="0.5" fill="#A17C73" fill-rule="nonzero" stroke-linecap="round" stroke-linejoin="round" points="175.960476 5.23875321 144.836118 9.3247519 171.224185 60.3997429"></polygon>
            <path d="M175.805197,5.23875321 C175.805197,5.23875321 171.029884,60.2591423 171.029884,60.2591423 L171.029884,60.2591423 L208.933805,63.4813625 L175.805197,5.23875321" id="p152" stroke="#212121" stroke-width="0.5" fill="#906A67" fill-rule="nonzero" stroke-linecap="round" stroke-linejoin="round"></path>
            <polygon id="p150" stroke="#212121" stroke-width="0.5" fill="#805D5B" fill-rule="nonzero" stroke-linecap="round" stroke-linejoin="round" points="175.960476 5.28579282 202.212125 4.93059126 208.933805 63.4813625"></polygon>
            <path d="M202.462404,4.93059126 C248.994859,13.0893059 248.994859,13.0893059 248.994859,13.0893059 L209.178444,63.4813625 L202.462404,4.93059126" id="p149" stroke="#212121" stroke-width="0.5" fill="#816164" fill-rule="nonzero" stroke-linecap="round" stroke-linejoin="round"></path>
            <polygon id="p148" stroke="#212121" stroke-width="0.5" fill="#2E254D" fill-rule="nonzero" stroke-linecap="round" stroke-linejoin="round" points="209.241967 63.4874082 245.163228 86.593509 248.994859 12.9428021"></polygon>
            <path d="M249.065035,12.9428021 C283.609102,34.9935037 284.568658,34.5141408 283.609102,34.9935037 C282.649547,35.4728666 282.649547,35.4728666 282.649547,35.4728666 L247.145887,49.6140746 L249.065035,12.9428021 Z" id="p147" stroke="#212121" stroke-width="0.5" fill="#9C776B" fill-rule="nonzero" stroke-linecap="round" stroke-linejoin="round"></path>
            <path d="M246.837725,49.8230546 C290.596722,77.0404884 290.596722,77.0404884 290.596722,77.0404884 L283.383719,35.1304627 L246.837725,49.8230546 Z" id="p146" stroke="#212121" stroke-width="0.5" fill="#745760" fill-rule="nonzero" stroke-linecap="round" stroke-linejoin="round"></path>
            <path d="M283.508997,35.1304627 C311.243573,71.7415178 311.243573,73.1866906 311.243573,73.1866906 L290.681713,77.0404884 L283.508997,35.1304627 Z" id="p145" stroke="#212121" stroke-width="0.5" fill="#CAA9A0" fill-rule="nonzero" stroke-linecap="round" stroke-linejoin="round"></path>
            <polygon id="p144" stroke="#212121" stroke-width="0.5" fill="#3C3054" fill-rule="nonzero" stroke-linecap="round" stroke-linejoin="round" points="246.909084 49.9222365 244.988753 86.593509 290.596722 77.0062516"></polygon>
            <path d="M244.988753,86.6829717 L251.719031,95.8433346 L305.080334,106.932198 C305.080334,106.932198 290.658353,77.0404884 290.658353,77.0404884 L290.658353,77.0404884 L244.988753,86.6829717 Z" id="p143" stroke="#212121" stroke-width="0.5" fill="#694C5D" fill-rule="nonzero" stroke-linecap="round" stroke-linejoin="round"></path>
            <path d="M311.243573,73.034383 C305.001487,106.624036 305.001487,106.624036 305.001487,106.624036 L305.001487,106.624036 C305.001487,106.624036 290.596722,76.8732025 290.596722,76.8732025 L290.596722,76.8732025 L311.243573,73.034383 Z" id="p142" stroke="#212121" stroke-width="0.5" fill="#7F615D" fill-rule="nonzero" stroke-linecap="round" stroke-linejoin="round"></path>
            <polygon id="p141" stroke="#212121" stroke-width="0.5" fill="#6C5358" fill-rule="nonzero" stroke-linecap="round" stroke-linejoin="round" points="305.080334 106.624036 324.802699 105.18448 311.333781 73.034383"></polygon>
            <polygon id="p140" stroke="#212121" stroke-width="0.5" fill="#282045" fill-rule="nonzero" stroke-linecap="round" stroke-linejoin="round" points="251.768316 95.8383676 288.750561 129.428021 305.080334 106.874972"></polygon>
            <path d="M288.747751,129.428021 C319.872108,129.428021 319.872108,129.428021 319.872108,129.428021 L305.028164,106.932198 L288.747751,129.428021 Z" id="p139" stroke="#212121" stroke-width="0.5" fill="#5B4358" fill-rule="nonzero" stroke-linecap="round" stroke-linejoin="round"></path>
            <path d="M305.080334,106.833586 C324.802699,105.391388 324.802699,105.391388 324.802699,105.391388 L319.992347,129.428021 L305.080334,106.833586 Z" id="p138" stroke="#212121" stroke-width="0.5" fill="#574353" fill-rule="nonzero" stroke-linecap="round" stroke-linejoin="round"></path>
            <path d="M288.747751,129.428021 C309.816558,148.534062 309.816558,148.534062 309.816558,148.534062 L319.872108,129.428021 L288.747751,129.428021 Z" id="p137" stroke="#212121" stroke-width="0.5" fill="#61444D" fill-rule="nonzero" stroke-linecap="round" stroke-linejoin="round"></path>
            <path d="M310.010925,148.534062 C319.987636,129.428021 319.987636,129.428021 319.987636,129.428021 L319.987636,129.428021 L321.412918,146.62345 L310.010925,148.534062" id="p136" stroke="#212121" stroke-width="0.5" fill="#231B33" fill-rule="nonzero" stroke-linecap="round" stroke-linejoin="round"></path>
            <path d="M288.747751,129.393795 L288.747751,129.393795 L277.71428,130.352506 C277.71428,130.352506 242.215296,98.2351793 242.215296,98.7145462 C242.215296,99.193913 242.215296,99.193913 242.215296,99.193913 L251.809623,95.8383676 L288.747751,129.393795 Z" id="p135" stroke="#212121" stroke-width="0.5" fill="#624C68" fill-rule="nonzero" stroke-linecap="round" stroke-linejoin="round"></path>
            <path d="M242.142571,98.9199871 L208.933805,63.4813625 C208.933805,63.4813625 245.030283,86.4685749 245.030283,86.4685749 L245.030283,86.4685749 L251.768316,95.5676821 L242.142571,98.9199871 Z" id="p134" stroke="#212121" stroke-width="0.5" fill="#5C4559" fill-rule="nonzero" stroke-linecap="round" stroke-linejoin="round"></path>
            <path d="M171.338046,60.3997429 C209.026841,63.6160142 209.026841,63.6160142 209.026841,63.6160142 C209.026841,63.6160142 209.026841,63.6160142 209.026841,63.6160142 C209.026841,63.6160142 225.57455,81.3547558 225.57455,81.3547558 L225.57455,81.3547558 L176.890671,74.1633756 L171.338046,60.3997429 Z" id="p133" stroke="#212121" stroke-width="0.5" fill="#2D244D" fill-rule="nonzero" stroke-linecap="round" stroke-linejoin="round"></path>
            <path d="M144.847433,9.24485861 C104.853302,27.3535305 104.373,27.3535305 104.853302,27.3535305 C105.333604,27.3535305 171.338046,60.091581 171.338046,60.091581 L144.847433,9.24485861 Z" id="p132" stroke="#212121" stroke-width="0.5" fill="#A98575" fill-rule="nonzero" stroke-linecap="round" stroke-linejoin="round"></path>
            <polygon id="p131" stroke="#212121" stroke-width="0.5" fill="#B08981" fill-rule="nonzero" stroke-linecap="round" stroke-linejoin="round" points="104.775064 27.4264139 105.736792 72.1098972 171.338046 60.2382219"></polygon>
            <path d="M176.720088,73.9588689 C176.720088,73.9588689 161.791027,83.5592961 162.754189,83.5592961 C163.71736,83.5592961 163.71736,83.5592961 163.71736,83.5592961 L242.215296,98.9199871 L225.600684,81.1591893 L176.720088,73.9588689 Z" id="p130" stroke="#212121" stroke-width="0.5" fill="#2A244A" fill-rule="nonzero" stroke-linecap="round" stroke-linejoin="round"></path>
            <polygon id="p129" stroke="#212121" stroke-width="0.5" fill="#221D31" fill-rule="nonzero" stroke-linecap="round" stroke-linejoin="round" points="277.65392 130.383308 310.010925 148.534062 288.761561 129.428021"></polygon>
            <polygon id="p128" stroke="#212121" stroke-width="0.5" fill="#45426A" fill-rule="nonzero" stroke-linecap="round" stroke-linejoin="round" points="105.69955 72.0067568 111.954345 89.3669666 171.338046 60.091581"></polygon>
            <path d="M111.862789,89.3669666 C162.917231,83.5802312 162.917231,83.5802312 162.917231,83.5802312 L176.884961,73.9356723 L171.309169,60.091581 L111.862789,89.3669666 Z" id="p127" stroke="#212121" stroke-width="0.5" fill="#494664" fill-rule="nonzero" stroke-linecap="round" stroke-linejoin="round"></path>
            <polygon id="p126" stroke="#212121" stroke-width="0.5" fill="#36365E" fill-rule="nonzero" stroke-linecap="round" stroke-linejoin="round" points="111.862789 89.5844913 115.697695 100.152635 163.633997 83.8200514"></polygon>
            <polygon id="p125" stroke="#212121" stroke-width="0.5" fill="#271E39" fill-rule="nonzero" stroke-linecap="round" stroke-linejoin="round" points="115.868895 100.152635 203.078728 91.5059751 163.918395 83.8200514"></polygon>
            <path d="M105.69955,72.1098972 C66.2548201,54.3325996 66.2548201,54.3325996 66.2548201,54.3325996 C66.2548201,54.3325996 104.737486,27.4264139 104.737486,27.4264139 C104.737486,27.4264139 104.737486,27.4264139 104.737486,27.4264139 L105.69955,72.1098972 Z" id="p124" stroke="#212121" stroke-width="0.5" fill="#826267" fill-rule="nonzero" stroke-linecap="round" stroke-linejoin="round"></path>
            <polygon id="p123" stroke="#212121" stroke-width="0.5" fill="#302E58" fill-rule="nonzero" stroke-linecap="round" stroke-linejoin="round" points="105.610266 72.1098972 70.98093 87.9692299 60.3997429 112.479113 111.862789 89.410987"></polygon>
            <polygon id="p122" stroke="#212121" stroke-width="0.5" fill="#9A7A82" fill-rule="nonzero" stroke-linecap="round" stroke-linejoin="round" points="66.2548201 54.5446658 71.0651561 88.1343188 105.69955 72.2991964"></polygon>
            <polygon id="p121" stroke="#212121" stroke-width="0.5" fill="#2D2851" fill-rule="nonzero" stroke-linecap="round" stroke-linejoin="round" points="60.3997429 112.508944 72.8709181 119.258676 72.8709181 119.258676 115.560733 99.9737046 111.723445 89.3669666"></polygon>
            <path d="M36.0549486,87.8261568 C71.1854113,87.8261568 71.1854113,87.8261568 71.1854113,87.8261568 L60.5981494,112.479113 L36.0549486,87.8261568 Z" id="p120" stroke="#212121" stroke-width="0.5" fill="#584A64" fill-rule="nonzero" stroke-linecap="round" stroke-linejoin="round"></path>
            <path d="M66.3730165,54.5446658 C36.0549486,88.1343188 36.0549486,88.1343188 36.0549486,88.1343188 L71.1854113,88.1343188 L66.3730165,54.5446658 Z" id="p119" stroke="#212121" stroke-width="0.5" fill="#6A566C" fill-rule="nonzero" stroke-linecap="round" stroke-linejoin="round"></path>
            <path d="M60.5582306,112.479113 C39.9245811,140.863865 39.4447301,139.901648 39.4447301,139.901648 L73.034383,119.214468 L60.5582306,112.479113 Z" id="p118" stroke="#212121" stroke-width="0.5" fill="#2E2753" fill-rule="nonzero" stroke-linecap="round" stroke-linejoin="round"></path>
            <polygon id="p117" stroke="#212121" stroke-width="0.5" fill="#5C4E66" fill-rule="nonzero" stroke-linecap="round" stroke-linejoin="round" points="35.8113992 87.8261568 30.5080334 102.3279 60.3997429 112.479113"></polygon>
            <path d="M30.5080334,102.617931 C30.9901528,117.409704 30.9901528,117.409704 30.9901528,117.409704 L60.3997429,112.638162 L30.5080334,102.617931 Z" id="p116" stroke="#212121" stroke-width="0.5" fill="#503E58" fill-rule="nonzero" stroke-linecap="round" stroke-linejoin="round"></path>
            <polygon id="p115" stroke="#212121" stroke-width="0.5" fill="#7C697C" fill-rule="nonzero" stroke-linecap="round" stroke-linejoin="round" points="31.1243573 117.29077 39.2830719 139.905527 60.3997429 112.479113"></polygon>
            <polygon id="p114" stroke="#212121" stroke-width="0.5" fill="#281F3A" fill-rule="nonzero" stroke-linecap="round" stroke-linejoin="round" points="35.120188 128.503535 32.0488432 156.238111 39.1365681 139.838518"></polygon>
            <polygon id="p113" stroke="#212121" stroke-width="0.5" fill="#5E5375" fill-rule="nonzero" stroke-linecap="round" stroke-linejoin="round" points="32.0488432 156.238111 32.0488432 156.238111 43.1426735 155.757731 39.2839478 139.905527"></polygon>
            <polygon id="p112" stroke="#212121" stroke-width="0.5" fill="#261F3D" fill-rule="nonzero" stroke-linecap="round" stroke-linejoin="round" points="43.0348172 155.621787 51.1548843 165.791131 32.0488432 156.106052"></polygon>
            <polygon id="p111" stroke="#212121" stroke-width="0.5" fill="#1A1A1A" fill-rule="nonzero" stroke-linecap="round" stroke-linejoin="round" points="51.4630463 165.791131 66.8979428 166.272061 73.6507069 229.272494"></polygon>
            <path d="M83.1941022,153.772815 L85.3608612,131.97103 C85.3608612,131.97103 81.4574764,127.733579 73.6507069,119.258676 C72.1520629,127.669383 70.9194151,135.500541 69.9527635,142.752148 L83.1941022,153.772815 Z" id="p110" stroke="#212121" stroke-width="0.5" fill="#2A2141" fill-rule="nonzero" stroke-linecap="round" stroke-linejoin="round"></path>
            <path d="M97.6873393,144.674296 L83.1856043,153.772815 C83.1856043,153.772815 85.3608589,131.984205 85.3608589,131.984205 C85.3608589,131.984205 73.034386,119.294152 97.6873393,144.674296 L97.6873393,144.674296 Z" id="p109" stroke="#212121" stroke-width="0.5" fill="#2A2043" fill-rule="nonzero" stroke-linecap="round" stroke-linejoin="round"></path>
            <polygon id="p108" stroke="#212121" stroke-width="0.5" fill="#212121" fill-rule="nonzero" stroke-linecap="round" stroke-linejoin="round" points="83.2037275 153.980354 66.871144 166.407455 69.9935493 142.987147"></polygon>
            <path d="M97.3791774,144.836118 C130.660668,128.500226 130.660668,128.500226 130.660668,128.500226 L115.708114,100.152635 L97.3791774,144.836118 Z" id="p107" stroke="#212121" stroke-width="0.5" fill="#2B223E" fill-rule="nonzero" stroke-linecap="round" stroke-linejoin="round"></path>
            <path d="M130.660668,128.503535 C182.431877,113.612055 182.431877,113.612055 182.431877,113.612055 L159.302617,95.8383676 L130.660668,128.503535 Z" id="p106" stroke="#212121" stroke-width="0.5" fill="#1F1831" fill-rule="nonzero" stroke-linecap="round" stroke-linejoin="round"></path>
            <path d="M182.740039,113.403599 C242.215296,98.9333866 242.215296,98.9333866 242.215296,98.9333866 L203.124708,91.2159383 L182.740039,113.403599 Z" id="p105" stroke="#212121" stroke-width="0.5" stroke-linecap="round" stroke-linejoin="round"></path>
            <polygon id="p104" stroke="#212121" stroke-width="0.5" fill="#212121" fill-rule="nonzero" stroke-linecap="round" stroke-linejoin="round" points="182.431877 113.593244 277.65392 130.352506 242.065869 99.2281491"></polygon>
            <polygon id="p103" stroke="#212121" stroke-width="0.5" fill="#25213B" fill-rule="nonzero" stroke-linecap="round" stroke-linejoin="round" points="182.740039 113.403599 203.124708 91.2159383 242.215296 98.9333866"></polygon>
            <polygon id="p102" stroke="#212121" stroke-width="0.5" fill="#212121" fill-rule="nonzero" stroke-linecap="round" stroke-linejoin="round" points="230.196979 122.032134 264.231723 147.609576 277.65392 130.398558"></polygon>
            <polygon id="p101" stroke="#212121" stroke-width="0.5" fill="#251D35" fill-rule="nonzero" stroke-linecap="round" stroke-linejoin="round" points="264.402956 147.577153 310.010925 148.534062 277.845336 130.352506"></polygon>
            <path d="M43.2835494,155.929949 C73.034383,119.258676 73.034383,119.258676 73.034383,119.258676 L39.4447301,140.006875 L43.2835494,155.929949 Z" id="p100" stroke="#212121" stroke-width="0.5" fill="#221C37" fill-rule="nonzero" stroke-linecap="round" stroke-linejoin="round"></path>
            <polygon id="p99" stroke="#212121" stroke-width="0.5" fill="#26213A" fill-rule="nonzero" stroke-linecap="round" stroke-linejoin="round" points="73.034383 119.258676 66.7667702 166.407455 51.3387866 165.926334 43.1426735 155.823054"></polygon>
            <polyline id="p98" stroke="#212121" stroke-width="0.5" fill="#201932" fill-rule="nonzero" stroke-linecap="round" stroke-linejoin="round" points="73.034383 119.380813 97.5529161 144.836118 115.821622 100.169287 130.72504 128.506314 159.450178 95.8466936 159.450178 95.8466936 182.646617 113.617363 182.646617 113.617363 203.078728 91.5241003 159.450178 95.8466936 115.821622 100.169287 73.034383 119.380813"></polyline>
            <polygon id="p97" stroke="#212121" stroke-width="0.5" fill="#251D34" fill-rule="nonzero" stroke-linecap="round" stroke-linejoin="round" points="264.402956 147.609576 295.128336 174.111504 310.010925 148.573267"></polygon>
            <polygon id="p96" stroke="#212121" stroke-width="0.5" fill="#212121" fill-rule="nonzero" stroke-linecap="round" stroke-linejoin="round" points="294.964591 174.075965 297.376285 210.166452 264.094794 147.609576"></polygon>
            <path d="M294.91099,174.111504 C321.412918,146.68509 321.412918,146.68509 321.412918,146.68509 L309.848435,148.609755 L294.91099,174.111504 Z" id="p95" stroke="#212121" stroke-width="0.5" fill="#945759" fill-rule="nonzero" stroke-linecap="round" stroke-linejoin="round"></path>
            <polyline id="p94" stroke="#212121" stroke-width="0.5" fill="#BC7C5D" fill-rule="nonzero" stroke-linecap="round" stroke-linejoin="round" points="297.594559 210.166452 297.594559 210.166452 297.594559 210.166452 306.621144 200.551794 295.219152 174.111504 297.594559 210.166452"></polyline>
            <polygon id="p93" stroke="#212121" stroke-width="0.5" fill="#CF9379" fill-rule="nonzero" stroke-linecap="round" stroke-linejoin="round" points="66.562982 166.241195 81.1336378 154.697301 97.355321 144.527956 141.138175 172.996439 128.195373 176.576799 116.600529 177.821607 87.2515844 181.199229"></polygon>
            <path d="M97.3791774,144.836118 L130.826218,128.272428 L182.695758,113.403599 L187.978792,156.091508 C174.932956,161.478425 165.123134,165.379317 158.549325,167.794184 C151.975517,170.20905 146.217742,172.026863 141.276,173.247622 L97.3791774,144.836118 Z" id="p92" stroke="#212121" stroke-width="0.5" fill="#CF9379" fill-rule="nonzero" stroke-linecap="round" stroke-linejoin="round"></path>
            <polygon id="p91" stroke="#212121" stroke-width="0.5" fill="#CF9379" fill-rule="nonzero" stroke-linecap="round" stroke-linejoin="round" points="187.72705 156.238111 219.873554 150.383033 256.082584 140.35563 230.088208 121.826126 182.431877 113.403599"></polygon>
            <polygon id="p90" stroke="#212121" stroke-width="0.5" fill="#212121" fill-rule="nonzero" stroke-linecap="round" stroke-linejoin="round" points="187.830778 156.238111 164.454748 164.667295 162.40135 179.350257 162.40135 179.350257 184.792448 176.717718 200.30527 168.088796"></polygon>
            <polyline id="p89" stroke="#212121" stroke-width="0.5" fill="#212121" fill-rule="nonzero" stroke-linecap="round" stroke-linejoin="round" points="187.978792 156.385464 216.364631 150.383033 242.523458 165.912376 217.679885 163.275333 200.435481 168.256427 187.978792 156.385464"></polyline>
            <polygon id="p88" stroke="#212121" stroke-width="0.5" fill="#CF9379" fill-rule="nonzero" stroke-linecap="round" stroke-linejoin="round" points="116.79338 178.036746 121.117 192.989263 147.06257 196.915488 162.5133 179.465567 164.558483 164.866645 141.276 173.247622"></polygon>
            <polygon id="p87" stroke="#212121" stroke-width="0.5" fill="#CF9379" fill-rule="nonzero" stroke-linecap="round" stroke-linejoin="round" points="146.993252 196.966841 173.921159 208.317481 184.897172 176.884961 162.506056 179.504322"></polygon>
            <polygon id="p86" stroke="#212121" stroke-width="0.5" fill="#AC7067" fill-rule="nonzero" stroke-linecap="round" stroke-linejoin="round" points="180.891067 188.903278 200.118623 179.104753 215.413255 178.519796 237.991043 185.247106 242.215296 165.650094 217.452549 163.017674 200.26425 167.990037 184.823954 176.618571"></polygon>
            <polygon id="p85" stroke="#212121" stroke-width="0.5" fill="#D6D6D6" fill-rule="nonzero" stroke-linecap="round" stroke-linejoin="round" points="181.199229 199.072622 194.314006 187.362468 194.314006 187.362468 199.997108 198.779845"></polygon>
            <path d="M207.392995,183.048201 C212.333591,193.525707 212.333591,193.525707 212.333591,193.525707 L225.266388,187.327756 L207.392995,183.048201 Z" id="p84" stroke="#212121" stroke-width="0.5" fill="#D6D6D6" fill-rule="nonzero" stroke-linecap="round" stroke-linejoin="round"></path>
            <path d="M194.450193,187.413845 C196.966812,185.801738 198.969864,184.743497 200.459351,184.239121 C201.948837,183.734745 204.243218,183.337771 207.342493,183.048201 L212.323586,193.380218 L200.163843,198.76446 L194.450193,187.413845 Z" id="p83" stroke="#212121" stroke-width="0.5" fill="#212121" fill-rule="nonzero" stroke-linecap="round" stroke-linejoin="round"></path>
            <polygon id="p82" stroke="#212121" stroke-width="0.5" fill="#472241" fill-rule="nonzero" stroke-linecap="round" stroke-linejoin="round" points="181.343361 199.068702 175.652314 201.537918 180.905588 189.046559 200.167521 179.314899 215.489498 178.733933 225.266388 187.303587 207.317774 183.091362 194.476473 187.448829"></polygon>
            <path d="M215.405206,178.425771 C237.946026,185.191313 237.946026,185.191313 237.946026,185.191313 L241.29081,191.368573 L225.148668,187.103342 L215.405206,178.425771 Z" id="p81" stroke="#212121" stroke-width="0.5" fill="#653E59" fill-rule="nonzero" stroke-linecap="round" stroke-linejoin="round"></path>
            <polygon id="p80" stroke="#212121" stroke-width="0.5" fill="#6C3450" fill-rule="nonzero" stroke-linecap="round" stroke-linejoin="round" points="175.549563 201.556889 173.803342 208.317481 198.396371 202.732661 199.997108 198.76446 181.224903 199.058309"></polygon>
            <polygon id="p79" stroke="#212121" stroke-width="0.5" fill="#B6736B" fill-rule="nonzero" stroke-linecap="round" stroke-linejoin="round" points="198.456298 202.770566 200.058957 198.845828 225.1186 187.362468 241.29081 191.577873"></polygon>
            <polygon id="p78" stroke="#212121" stroke-width="0.5" fill="#D6D6D6" fill-rule="nonzero" stroke-linecap="round" stroke-linejoin="round" points="125.545182 206.776671 125.113753 215.097044 133.742288 213.088665"></polygon>
            <polygon id="p77" stroke="#212121" stroke-width="0.5" fill="#D6D6D6" fill-rule="nonzero" stroke-linecap="round" stroke-linejoin="round" points="107.889996 207.701157 108.473008 216.02153 97.6873393 214.981493"></polygon>
            <polyline id="p76" stroke="#212121" stroke-width="0.5" fill="#212121" fill-rule="nonzero" stroke-linecap="round" stroke-linejoin="round" points="107.856684 207.574729 114.882776 205.235861 125.421915 206.551486 124.982783 215.029885 116.639296 216.637853 108.442194 215.760745 107.856684 207.574729"></polyline>
            <polygon id="p75" stroke="#212121" stroke-width="0.5" fill="#212121" fill-rule="nonzero" stroke-linecap="round" stroke-linejoin="round" points="117.467547 181.507391 87.473122 184.144029 79.1736922 189.710292 76.2616072 197.03435 76.1160026 206.702063 79.9017078 214.172558 81.0665411 205.530198 83.1049946 199.524515 90.3851995 196.155433 103.489559 194.690621 121.107648 192.786389"></polygon>
            <polygon id="p74" stroke="#212121" stroke-width="0.5" fill="#CF9379" fill-rule="nonzero" stroke-linecap="round" stroke-linejoin="round" points="117.409704 181.687855 87.4221739 184.310644 79.1246518 189.847668 76.2132362 197.133256 76.0676651 206.750187 79.8525001 214.181442 73.5830502 229.272494 68.6435848 182.270672 66.871144 166.407455 87.486291 181.283914 116.731031 177.924713"></polygon>
            <polygon id="p73" stroke="#212121" stroke-width="0.5" fill="#CF9379" fill-rule="nonzero" stroke-linecap="round" stroke-linejoin="round" points="121.107648 192.909383 125.470386 206.553376 133.759597 212.93991 146.993252 196.828396"></polygon>
            <path d="M125.421915,206.675996 L114.842376,205.357906 L107.78935,207.701157 C107.78935,207.701157 103.234254,194.813258 103.234254,194.813258 L103.234254,194.813258 L121.013762,192.909383 L125.421915,206.675996 Z" id="p72" stroke="#212121" stroke-width="0.5" fill="#472241" fill-rule="nonzero" stroke-linecap="round" stroke-linejoin="round"></path>
            <polygon id="p71" stroke="#212121" stroke-width="0.5" fill="#AC7067" fill-rule="nonzero" stroke-linecap="round" stroke-linejoin="round" points="103.547453 194.758355 90.3621715 196.209586 83.0370137 199.547431 80.9859648 205.497433 79.813946 214.059665 88.0181301 219.719473 93.5852504 207.819395 106.624036 203.755971"></polygon>
            <path d="M97.6221127,214.928943 C97.6221127,214.928943 87.8261568,220.027635 87.8261568,220.027635 L87.8261568,220.027635 L93.3820688,208.082144 L106.394603,204.003213 L107.856684,207.790805 L97.6221127,214.928943 Z" id="p70" stroke="#212121" stroke-width="0.5" fill="#472241" fill-rule="nonzero" stroke-linecap="round" stroke-linejoin="round"></path>
            <path d="M146.955143,196.915488 C137.769208,260.464168 138.592599,260.876269 137.769208,260.464168 C136.945825,260.052067 160.82406,272.415167 160.82406,272.415167 L179.350257,257.167324 L146.955143,196.915488" id="p69" stroke="#212121" stroke-width="0.5" fill="#CF9379" fill-rule="nonzero" stroke-linecap="round" stroke-linejoin="round"></path>
            <path d="M192.865376,261.321337 C193.278073,261.321337 193.278073,261.321337 193.278073,261.321337 L202.770566,250.590692 C202.770566,250.590692 198.867181,246.874407 191.060411,239.441838 L179.658419,257.194157 C192.865376,261.321337 192.452641,261.321337 192.865376,261.321337 Z" id="p68" stroke="#212121" stroke-width="0.5" fill="#CF9379" fill-rule="nonzero" stroke-linecap="round" stroke-linejoin="round"></path>
            <polygon id="p67" stroke="#212121" stroke-width="0.5" fill="#CF9379" fill-rule="nonzero" stroke-linecap="round" stroke-linejoin="round" points="191.060411 239.551282 146.993252 196.915488 179.495008 257.315231"></polygon>
            <path d="M179.658404,257.007069 C179.658404,257.007069 161.168702,272.374498 161.168702,272.374498 L161.168702,272.374498 C161.168702,272.374498 162.735581,277.103979 162.877066,277.533031 C163.018533,277.962082 163.018533,277.962082 163.018533,277.962082 L177.59122,263.517469 L193.217545,261.160436 L179.658404,257.007069" id="p66" stroke="#212121" stroke-width="0.5" fill="#A76562" fill-rule="nonzero" stroke-linecap="round" stroke-linejoin="round"></path>
            <polyline id="p65" stroke="#212121" stroke-width="0.5" fill="#CF9379" fill-rule="nonzero" stroke-linecap="round" stroke-linejoin="round" points="160.86054 272.47531 140.228032 272.198281 135.38757 275.496787 125.421915 266.318296 137.707308 260.396851 160.86054 272.475121"></polyline>
            <polygon id="p64" stroke="#212121" stroke-width="0.5" fill="#7D415A" fill-rule="nonzero" stroke-linecap="round" stroke-linejoin="round" points="163.017674 277.962082 135.59126 275.391539 140.448023 272.107005 161.150017 272.382861"></polygon>
            <path d="M163.017674,277.962082 C163.017674,277.962082 177.590778,263.655797 177.590778,263.655797 L177.590778,263.655797 L193.217545,261.321337 L163.017674,277.962082 Z" id="p63" stroke="#212121" stroke-width="0.5" fill="#5F2B4F" fill-rule="nonzero" stroke-linecap="round" stroke-linejoin="round"></path>
            <polygon id="p62" stroke="#212121" stroke-width="0.5" stroke-linecap="round" stroke-linejoin="round" points="146.993252 196.915488 191.025577 239.441838 220.027635 214.3847 219.953102 197.134003 173.842593 208.278814"></polygon>
            <polygon id="p61" stroke="#212121" stroke-width="0.5" fill="#CF9379" fill-rule="nonzero" stroke-linecap="round" stroke-linejoin="round" points="146.993252 196.915488 191.025577 239.441838 220.027635 214.3847 219.953102 197.134003 173.842593 208.278814"></polygon>
            <path d="M87.8261568,219.728063 C115.276792,221.260283 115.276792,221.260283 115.276792,221.260283 L133.742288,212.93991 L116.633409,216.550638 L97.6235541,214.673045 L87.8261568,219.728063 Z" id="p60" stroke="#212121" stroke-width="0.5" fill="#4A2D56" fill-rule="nonzero" stroke-linecap="round" stroke-linejoin="round"></path>
            <polyline id="p59" stroke="#212121" stroke-width="0.5" fill="#DDA788" fill-rule="nonzero" stroke-linecap="round" stroke-linejoin="round" points="146.993252 196.915488 133.697005 213.088174 115.246301 221.481776 87.8176544 219.936071 79.6353426 214.253753 73.342545 229.343615 75.9704108 242.483265 120.938452 245.605077 141.714831 235.246267 146.993252 196.915488"></polyline>
            <polygon id="p58" stroke="#212121" stroke-width="0.5" fill="#CF9379" fill-rule="nonzero" stroke-linecap="round" stroke-linejoin="round" points="191.060411 239.386639 202.770566 250.535668 231.845901 237.168464 241.598972 191.368573 220.080242 196.989251"></polygon>
            <path d="M306.627708,200.613432 C306.627708,200.613432 304.821148,213.776739 305.108304,214.061411 C305.395498,214.346084 305.395498,214.346084 305.395498,214.346084 L309.702763,222.316125 L307.979865,238.825514 L297.068123,226.016491 L297.402994,210.238849 L306.627708,200.613432 Z" id="p57" stroke="#212121" stroke-width="0.5" fill="#C57F5E" fill-rule="nonzero" stroke-linecap="round" stroke-linejoin="round"></path>
            <polygon id="p56" stroke="#212121" stroke-width="0.5" fill="#CF9379" fill-rule="nonzero" stroke-linecap="round" stroke-linejoin="round" points="231.566754 237.364064 268.287018 256.698907 307.853792 238.785769 297.036958 225.990649 297.368916 210.23013 264.160315 147.733069 255.978513 140.521851 216.02153 150.405824 242.179836 165.878943 237.94188 185.439292 241.303018 191.570154"></polygon>
            <polygon id="p55" stroke="#212121" stroke-width="0.5" fill="#CF9379" fill-rule="nonzero" stroke-linecap="round" stroke-linejoin="round" points="106.587796 204.003213 123.264781 199.861525 121.089528 192.909383 103.542416 194.832297"></polygon>
            <polyline id="p54" stroke="#212121" stroke-width="0.5" fill="#CF9379" fill-rule="nonzero" stroke-linecap="round" stroke-linejoin="round" points="125.421915 266.251928 128.177728 251.151992 137.748393 260.424244 125.421915 266.251928"></polyline>
            <polygon id="p53" stroke="#212121" stroke-width="0.5" fill="#CF9379" fill-rule="nonzero" stroke-linecap="round" stroke-linejoin="round" points="128.195373 251.055612 141.754499 235.127571 137.787884 260.396851"></polygon>
            <polygon id="p52" stroke="#212121" stroke-width="0.5" fill="#DDA788" fill-rule="nonzero" stroke-linecap="round" stroke-linejoin="round" points="121.107648 245.570464 128.361294 251.151992 141.754499 235.127571"></polygon>
            <polygon id="p51" stroke="#212121" stroke-width="0.5" fill="#CF9379" fill-rule="nonzero" stroke-linecap="round" stroke-linejoin="round" points="202.770566 250.673982 241.422349 266.551839 243.433158 307.237468 271.182519 295.55546 268.568516 256.654005 231.884374 237.284704"></polygon>
            <path d="M268.409062,256.416731 C268.409062,256.416731 308.008183,238.517352 308.008183,238.517352 L308.008183,238.517352 L320.18027,240.574016 L305.676273,283.566884 L271.027778,295.219152 L268.409062,256.416731" id="p50" stroke="#212121" stroke-width="0.5" fill="#CF9379" fill-rule="nonzero" stroke-linecap="round" stroke-linejoin="round"></path>
            <polygon id="p49" stroke="#212121" stroke-width="0.5" fill="#CF9379" fill-rule="nonzero" stroke-linecap="round" stroke-linejoin="round" points="162.709512 277.906626 193.090866 261.244637 202.598242 250.535668 241.29081 266.347284 232.836432 275.172554 210.69408 283.195478 190.564621 287.206941"></polygon>
            <polygon id="p48" stroke="#212121" stroke-width="0.5" fill="#CF9379" fill-rule="nonzero" stroke-linecap="round" stroke-linejoin="round" points="162.709512 277.912398 149.515862 296.890118 137.854286 302.118779 124.986344 302.923201 110.912029 299.303343 110.912029 299.303343 109.705656 271.551266 125.460457 266.251928 135.412498 275.352761"></polygon>
            <polygon id="p47" stroke="#212121" stroke-width="0.5" fill="#DDA788" fill-rule="nonzero" stroke-linecap="round" stroke-linejoin="round" points="128.195373 251.200691 125.459818 266.41482 109.747067 271.71453 110.950221 299.468553 99.7208217 315.557841 92.1404242 297.376285 85.4272072 281.660026 79.813946 261.321337 76.1160026 242.523458 120.92245 245.65206"></polygon>
            <path d="M241.310376,266.251928 L232.887264,275.103762 L226.870766,286.772013 L217.244385,299.647384 L210.42567,312.120395 L202.403685,320.972192 L199.997108,323.386321 C199.997108,323.386321 202.403697,335.725199 207.216876,360.402954 L225.667497,372.071242 C225.400079,372.607723 225.266369,372.875964 225.266369,372.875964 L250.535668,341.894638 L243.315863,306.889774 L241.310376,266.251928 Z" id="p46" stroke="#212121" stroke-width="0.5" fill="#CF9379" fill-rule="nonzero" stroke-linecap="round" stroke-linejoin="round"></path>
            <path d="M111.086462,299.533419 C111.086462,299.533419 99.844473,315.591152 99.844473,315.591152 L99.844473,315.591152 L110.684968,329.240224 L123.131448,342.086433 L144.410923,359.348516 L163.281405,373.80045 L183.356362,364.56729 L176.93238,330.846023 L165.690398,330.846023 L153.243918,325.2258 L139.99443,312.781078 L137.986933,311.576728 L137.986933,302.343531 L125.138949,303.146431 L111.086462,299.533419 Z" id="p45" stroke="#212121" stroke-width="0.5" fill="#DDA788" fill-rule="nonzero" stroke-linecap="round" stroke-linejoin="round"></path>
            <polygon id="p44" stroke="#212121" stroke-width="0.5" fill="#8D5060" fill-rule="nonzero" stroke-linecap="round" stroke-linejoin="round" points="137.748393 307.014546 148.040858 305.080334 153.772815 312.393205 146.462573 318.947622 137.748393 311.588907"></polygon>
            <path d="M146.68509,318.794546 C146.68509,318.794546 153.940269,312.168059 153.940269,312.168059 L153.940269,312.168059 L164.18008,315.011654 L176.979831,314.44292 L178.117609,320.130072 L177.055543,330.657776 L165.792332,330.657776 L153.322347,325.027764 L146.68509,318.794546 Z" id="p43" stroke="#212121" stroke-width="0.5" fill="#814254" fill-rule="nonzero" stroke-linecap="round" stroke-linejoin="round"></path>
            <polygon id="p42" stroke="#212121" stroke-width="0.5" fill="#884259" fill-rule="nonzero" stroke-linecap="round" stroke-linejoin="round" points="176.96096 330.657776 199.976395 323.411906 210.474614 312.140565 199.155124 304.46401 189.733145 311.864781 176.884961 314.426571 178.027042 320.119457"></polygon>
            <path d="M199.072622,304.502903 C199.072622,304.502903 207.059191,297.11312 207.059191,297.397333 C207.059191,297.681582 207.059191,297.681582 207.059191,297.681582 L213.904838,293.418285 L219.609524,288.018026 L232.970437,275.188625 L226.919696,286.84515 L217.238526,299.707583 L210.381002,312.168059 L199.072622,304.502903 Z" id="p41" stroke="#212121" stroke-width="0.5" fill="#884259" fill-rule="nonzero" stroke-linecap="round" stroke-linejoin="round"></path>
            <polygon id="p40" stroke="#212121" stroke-width="0.5" fill="#743155" fill-rule="nonzero" stroke-linecap="round" stroke-linejoin="round" points="138.056555 302.324333 149.719706 297.118976 172.241642 295.91776 190.741798 287.509097 210.850699 283.504994 232.970437 275.496787 226.30994 281.886907 217.687696 284.105602 208.638702 289.310959 198.785373 289.911567 195.769042 292.914682 189.334174 293.71548 186.518964 295.717532 178.274305 297.719621 175.257973 299.921863 168.420957 300.322281 165.002446 301.323307 160.377411 301.123341 157.562167 302.524784 148.269456 304.982208 138.056555 306.929306"></polygon>
            <polygon id="p39" stroke="#212121" stroke-width="0.5" fill="#CC9A91" fill-rule="nonzero" stroke-linecap="round" stroke-linejoin="round" points="149.304467 297.376285 162.877066 277.533031 190.752249 287.34995 172.268578 295.853371"></polygon>
            <polygon id="p38" stroke="#212121" stroke-width="0.5" fill="#C0C0C0" fill-rule="nonzero" stroke-linecap="round" stroke-linejoin="round" points="148.2259 304.790615 157.462825 302.34324 160.261169 300.947527 164.858439 301.146676 168.256427 300.149743 170.874795 315.011654 164.18008 315.011654 153.879402 312.121741"></polygon>
            <polygon id="p37" stroke="#212121" stroke-width="0.5" fill="#C0C0C0" fill-rule="nonzero" stroke-linecap="round" stroke-linejoin="round" points="168.256427 300.149743 174.997923 299.722342 178.012254 297.524973 186.251406 295.527314 189.712974 311.859897 176.730867 314.376484 170.874795 315.011654"></polygon>
            <polygon id="p36" stroke="#212121" stroke-width="0.5" fill="#B3B3B3" fill-rule="nonzero" stroke-linecap="round" stroke-linejoin="round" points="186.437982 295.488403 189.257213 293.482834 195.701184 292.680628 198.721783 289.672237 207.084833 297.394674 199.11086 304.485475 189.712974 311.859897"></polygon>
            <polygon id="p35" stroke="#212121" stroke-width="0.5" fill="#B3B3B3" fill-rule="nonzero" stroke-linecap="round" stroke-linejoin="round" points="198.76446 289.675866 208.582652 289.075918 213.091015 286.476081 217.599377 283.876282 226.190874 281.660026 213.886768 293.41683 207.085914 297.376285"></polygon>
            <polygon id="p34" stroke="#212121" stroke-width="0.5" fill="#C3877C" fill-rule="nonzero" stroke-linecap="round" stroke-linejoin="round" points="176.884961 330.820685 199.997108 323.386321 207.084833 360.628823 197.309532 374.108612 183.327591 364.656978"></polygon>
            <path d="M163.325835,373.756802 C163.325835,373.756802 183.512654,364.555591 183.512654,364.555591 C183.512654,364.555591 183.512654,364.555591 183.512654,364.555591 L197.531812,373.942501 L185.826935,382.428985 L174.693038,379.883028 L163.325835,373.756802 Z" id="p33" stroke="#212121" stroke-width="0.5" fill="#1A1A1A" fill-rule="nonzero" stroke-linecap="round" stroke-linejoin="round"></path>
            <polygon id="p32" stroke="#212121" stroke-width="0.5" fill="#1A1A1A" fill-rule="nonzero" stroke-linecap="round" stroke-linejoin="round" points="197.22365 373.925983 218.903456 378.731041 225.667497 372.071242 207.216876 360.402954"></polygon>
            <polygon id="p31" stroke="#212121" stroke-width="0.5" fill="#1A1A1A" fill-rule="nonzero" stroke-linecap="round" stroke-linejoin="round" points="197.484388 373.80045 185.821658 382.429022 185.821658 382.429022 194.924265 386.743252 200.044511 386.743252 203.457984 385.305175 213.129553 382.429022 219.103149 378.689971"></polygon>
            <path d="M212.93991,382.428985 C218.901443,378.731019 218.901443,378.731019 218.901443,378.731019 L225.540319,372.099373 L250.431474,341.92816 L288.452658,336.346934 L304.066191,326.959833 L306.621144,329.804419 L305.48563,336.915829 L283.910527,348.009652 L269.14862,357.396753 L240.760396,373.041884 L229.688957,376.739812 L218.901443,378.731019 L218.901443,378.731019 L218.901443,378.731019 L212.93991,382.428985 Z" id="p30" stroke="#212121" stroke-width="0.5" fill="#C3877C" fill-rule="nonzero" stroke-linecap="round" stroke-linejoin="round"></path>
            <polygon id="p29" stroke="#212121" stroke-width="0.5" fill="#B97E6C" fill-rule="nonzero" stroke-linecap="round" stroke-linejoin="round" points="243.139781 307.160427 270.874357 295.527314 250.37489 342.059769"></polygon>
            <polygon id="p28" stroke="#212121" stroke-width="0.5" fill="#C68B83" fill-rule="nonzero" stroke-linecap="round" stroke-linejoin="round" points="270.874357 295.219152 305.696658 283.837743 304.325925 327.114128 288.667113 336.487002 250.535668 342.059769"></polygon>
            <polygon id="p27" stroke="#212121" stroke-width="0.5" fill="#424242" fill-rule="nonzero" stroke-linecap="round" stroke-linejoin="round" points="87.5179949 184.280848 117.51571 181.68836 124.189267 176.576799 116.836795 177.968694 87.5821225 181.289087"></polygon>
            <polygon id="p26" stroke="#212121" stroke-width="0.5" fill="#A95E4C" fill-rule="nonzero" stroke-linecap="round" stroke-linejoin="round" points="324.340456 152.848329 321.15101 157.655405 320.18027 163.011895 323.092416 170.15387 325.865873 175.922383 333.354193 189.519602 334.047558 175.647713 330.026059 158.891512"></polygon>
            <polygon id="p25" stroke="#212121" stroke-width="0.5" fill="#CA8B79" fill-rule="nonzero" stroke-linecap="round" stroke-linejoin="round" points="321.412918 146.68509 325.408699 146.850168 329.696617 149.614126 333.431234 154.727426 329.973248 159.011568 324.302136 152.930868"></polygon>
            <polygon id="p24" stroke="#212121" stroke-width="0.5" fill="#C87F71" fill-rule="nonzero" stroke-linecap="round" stroke-linejoin="round" points="321.609023 146.68509 312.476221 156.371115 316.89676 170.721722 320.350275 163.132453 321.317299 157.750951 324.494537 152.92143"></polygon>
            <polygon id="p23" stroke="#212121" stroke-width="0.5" fill="#C68570" fill-rule="nonzero" stroke-linecap="round" stroke-linejoin="round" points="294.91099 174.111504 316.790488 170.617192 312.369204 156.238111"></polygon>
            <polygon id="p22" stroke="#212121" stroke-width="0.5" fill="#C6856E" fill-rule="nonzero" stroke-linecap="round" stroke-linejoin="round" points="294.91099 174.182962 300.712985 187.362468 306.704409 180.582289 310.71119 177.021551 316.790488 170.721722"></polygon>
            <polygon id="p21" stroke="#212121" stroke-width="0.5" fill="#CE8C72" fill-rule="nonzero" stroke-linecap="round" stroke-linejoin="round" points="320.102014 163.017674 316.66916 170.593309 310.627249 176.929296 321.749832 196.350537 335.206736 199.380784 337.129177 190.290006 333.147001 189.601309 325.731971 175.965142"></polygon>
            <path d="M330.041452,158.943068 C330.041452,158.943068 333.520703,154.697301 333.520703,154.697301 L333.520703,154.697301 L335.329921,159.901812 L337.417472,166.475935 L338.669987,173.186989 L334.077368,175.652314 L330.041452,158.943068 Z" id="p20" stroke="#212121" stroke-width="0.5" fill="#CB9789" fill-rule="nonzero" stroke-linecap="round" stroke-linejoin="round"></path>
            <polygon id="p19" stroke="#212121" stroke-width="0.5" fill="#CC9482" fill-rule="nonzero" stroke-linecap="round" stroke-linejoin="round" points="334.102724 175.647372 338.535535 173.187018 338.669987 179.201155 338.132692 183.848441 337.326713 190.135925 333.431234 189.4525"></polygon>
            <polygon id="p18" stroke="#212121" stroke-width="0.5" fill="#B46F66" fill-rule="nonzero" stroke-linecap="round" stroke-linejoin="round" points="321.890813 196.299165 318.885031 203.712756 312.736827 206.870438 310.550784 213.048431 311.370559 217.853528 309.702763 222.184769 330.361627 217.853528 335.280206 199.319512"></polygon>
            <polygon id="p17" stroke="#212121" stroke-width="0.5" fill="#A05A2C" fill-rule="nonzero" stroke-linecap="round" stroke-linejoin="round" points="300.766067 187.26428 306.691157 180.458948 310.653576 176.884961 321.72108 196.266893 318.715103 203.689727 312.566498 206.851308 310.380312 213.03704 311.200141 217.848128 309.532236 222.184769 305.290255 214.218622 306.503863 200.492719"></polygon>
            <polygon id="p16" stroke="#212121" stroke-width="0.5" fill="#CC8D7B" fill-rule="nonzero" stroke-linecap="round" stroke-linejoin="round" points="330.212838 217.870501 330.349614 231.423564 330.076435 234.572242 328.026691 239.637508 319.93792 240.674486 307.853792 238.623417 309.550749 222.189443"></polygon>
            <polygon id="p15" stroke="#212121" stroke-width="0.5" fill="#472040" fill-rule="nonzero" stroke-linecap="round" stroke-linejoin="round" points="320.199259 240.791107 328.346234 239.75 331.969886 248.308889 352.212365 249.863896 361.16581 274.743963 348.708868 331.890424 305.696658 283.837743 320.199372 240.791107"></polygon>
            <polygon id="p14" stroke="#212121" stroke-width="0.5" fill="#472040" fill-rule="nonzero" stroke-linecap="round" stroke-linejoin="round" points="305.527058 283.817159 304.155848 327.116087 306.719102 329.956491 305.579899 337.057443 322.454401 384.586118 337.244223 356.638686 348.53117 331.796561"></polygon>
            <path d="M305.776614,337.129177 C305.776614,337.129177 298.943494,338.832337 284.13854,348.199603 C269.333548,357.566906 269.333548,357.566906 269.333548,357.566906 L276.734412,424.194314 L277.901678,433.892031 L304.358959,413.72072 L322.645566,384.627457 L305.776614,337.129177 Z" id="p13" stroke="#212121" stroke-width="0.5" fill="#472040" fill-rule="nonzero" stroke-linecap="round" stroke-linejoin="round"></path>
            <path d="M269.118617,357.467866 L240.756702,373.111027 C240.756702,373.111027 241.608472,428.50315 240.833317,428.114478 C240.058162,427.725806 240.058162,427.725806 240.058162,427.725806 L256.724317,436.665488 L277.65392,433.944671 L269.118617,357.467866 Z" id="p12" stroke="#212121" stroke-width="0.5" fill="#472040" fill-rule="nonzero" stroke-linecap="round" stroke-linejoin="round"></path>
            <polygon id="p11" stroke="#212121" stroke-width="0.5" fill="#472040" fill-rule="nonzero" stroke-linecap="round" stroke-linejoin="round" points="201.537918 386.089845 212.948866 382.544342 218.9396 378.856967 229.779954 376.871464 240.905586 373.184126 240.982648 428.036954 228.117753 421.447473 219.541169 410.594195 204.33721 394.314297"></polygon>
            <polygon id="p10" stroke="#212121" stroke-width="0.5" fill="#494664" fill-rule="nonzero" stroke-linecap="round" stroke-linejoin="round" points="228.170678 421.565553 257.007069 436.749278 219.103149 477.651028"></polygon>
            <polygon id="p9" stroke="#212121" stroke-width="0.5" fill="#494664" fill-rule="nonzero" stroke-linecap="round" stroke-linejoin="round" points="4.93059126 476.726542 54.058561 437.020114 164.250321 427.112468 76.0969093 471.146426"></polygon>
            <polygon id="p8" stroke="#212121" stroke-width="0.5" fill="#26213A" fill-rule="nonzero" stroke-linecap="round" stroke-linejoin="round" points="377.498393 476.726542 313.400707 399.06973 357.088911 400.325315"></polygon>
            <polygon id="p7" stroke="#212121" stroke-width="0.5" fill="#494664" fill-rule="nonzero" stroke-linecap="round" stroke-linejoin="round" points="374.416774 2.46529563 331.582262 28.9406362 373.609154 52.0793702"></polygon>
            <polygon id="p6" stroke="#212121" stroke-width="0.5" fill="#584A64" fill-rule="nonzero" stroke-linecap="round" stroke-linejoin="round" points="0 5.54691517 1.57707346 38.8284062 28.0427378 22.2512234"></polygon>
            <polygon id="p5" stroke="#212121" stroke-width="0.5" fill="#826267" fill-rule="nonzero" stroke-linecap="round" stroke-linejoin="round" points="58.2705365 0 33.8978149 4.4225884 66.2548201 36.6712725"></polygon>
            <polyline id="p4" stroke="#212121" stroke-width="0.5" fill="#3C3054" fill-rule="nonzero" stroke-linecap="round" stroke-linejoin="round" points="351.303606 44.9916452 333.123072 87.2098329 372.25964 56.6057756 351.303606 44.9916452"></polyline>
            <polygon id="p3" stroke="#212121" stroke-width="0.5" fill="#A98575" fill-rule="nonzero" stroke-linecap="round" stroke-linejoin="round" points="275.804949 435.870889 318.63946 435.432841 295.534672 473.028599"></polygon>
            <path d="M118.33419,453.114981 C215.195935,479.5 215.195935,479.5 215.195935,479.5 L219.719473,451.457262 L118.33419,453.114981 Z" id="p2" stroke="#212121" stroke-width="0.5" fill="#B97E6C" fill-rule="nonzero" stroke-linecap="round" stroke-linejoin="round"></path>
            <polygon id="p1" stroke="#212121" stroke-width="0.5" fill="#494664" fill-rule="nonzero" stroke-linecap="round" stroke-linejoin="round" points="301.382391 473.028599 338.978149 466.394062 312.992823 454.23072"></polygon>
            <text id="JULIANDA" font-family="Helvetica" font-size="12" font-weight="normal" fill="#FFFFFF">
                <tspan x="232" y="477">JULIANDA</tspan>
            </text>
        </g>
    </g>
</svg>