<?xml version="1.0" encoding="UTF-8"?>
<svg width="512px" height="512px" viewBox="0 0 512 512" version="1.1" xmlns="http://www.w3.org/2000/svg" xmlns:xlink="http://www.w3.org/1999/xlink">
    <title>julianda-icon-512</title>
    <g id="Page-1" stroke="none" stroke-width="1" fill="none" fill-rule="evenodd">
        <rect id="Rectangle" x="0" y="0" width="512" height="512"></rect>
        <g id="julianda-icon" transform="translate(54.000000, 5.000000)" stroke="#212121" stroke-linecap="round" stroke-linejoin="round" stroke-width="0.5">
            <g id="Group">
                <polygon id="p153" fill="#A17C73" fill-rule="nonzero" points="191.11227 0.404966756 150.217484 5.77452523 184.889183 72.8940161"></polygon>
                <path d="M190.908247,0.404966756 C190.908247,0.404966756 184.633888,72.7092478 184.633888,72.7092478 L184.633888,72.7092478 L234.43645,76.9436836 L190.908247,0.404966756" id="p152" fill="#906A67" fill-rule="nonzero"></path>
                <polygon id="p150" fill="#805D5B" fill-rule="nonzero" points="191.11227 0.466783201 225.604728 2.33437469e-14 234.43645 76.9436836"></polygon>
                <path d="M225.933574,2.33437469e-14 C287.073304,10.7216616 287.073304,10.7216616 287.073304,10.7216616 L234.757886,76.9436836 L225.933574,2.33437469e-14" id="p149" fill="#816164" fill-rule="nonzero"></path>
                <polygon id="p148" fill="#2E254D" fill-rule="nonzero" points="234.841349 76.9516285 282.038864 107.31619 287.073304 10.5291357"></polygon>
                <path d="M287.16551,10.5291357 C332.553508,39.5067593 333.814283,38.8768112 332.553508,39.5067593 C331.292733,40.1367074 331.292733,40.1367074 331.292733,40.1367074 L284.643911,58.7201796 L287.16551,10.5291357 Z" id="p147" fill="#9C776B" fill-rule="nonzero"></path>
                <path d="M284.239012,58.9948078 C341.734653,94.7622209 341.734653,94.7622209 341.734653,94.7622209 L332.257374,39.6867421 L284.239012,58.9948078 Z" id="p146" fill="#745760" fill-rule="nonzero"></path>
                <path d="M332.421979,39.6867421 C368.862878,87.7986522 368.862878,89.6978059 368.862878,89.6978059 L341.846324,94.7622209 L332.421979,39.6867421 Z" id="p145" fill="#CAA9A0" fill-rule="nonzero"></path>
                <polygon id="p144" fill="#3C3054" fill-rule="nonzero" points="284.332772 59.1251464 281.809619 107.31619 341.734653 94.7172291"></polygon>
                <path d="M281.809619,107.433757 L290.652638,119.47172 L360.7649,134.043996 C360.7649,134.043996 341.815631,94.7622209 341.815631,94.7622209 L341.815631,94.7622209 L281.809619,107.433757 Z" id="p143" fill="#694C5D" fill-rule="nonzero"></path>
                <path d="M368.862878,89.4976531 C360.661302,133.639029 360.661302,133.639029 360.661302,133.639029 L360.661302,133.639029 C360.661302,133.639029 341.734653,94.5423845 341.734653,94.5423845 L341.734653,94.5423845 L368.862878,89.4976531 Z" id="p142" fill="#7F615D" fill-rule="nonzero"></path>
                <polygon id="p141" fill="#6C5358" fill-rule="nonzero" points="360.7649 133.639029 386.678428 131.747257 368.981403 89.4976531"></polygon>
                <polygon id="p140" fill="#282045" fill-rule="nonzero" points="290.717394 119.465193 339.308952 163.606569 360.7649 133.968793"></polygon>
                <path d="M339.30526,163.606569 C380.200046,163.606569 380.200046,163.606569 380.200046,163.606569 L360.696353,134.043996 L339.30526,163.606569 Z" id="p139" fill="#5B4358" fill-rule="nonzero"></path>
                <path d="M360.7649,133.914407 C386.678428,132.019162 386.678428,132.019162 386.678428,132.019162 L380.35803,163.606569 L360.7649,133.914407 Z" id="p138" fill="#574353" fill-rule="nonzero"></path>
                <path d="M339.30526,163.606569 C366.9879,188.714508 366.9879,188.714508 366.9879,188.714508 L380.200046,163.606569 L339.30526,163.606569 Z" id="p137" fill="#61444D" fill-rule="nonzero"></path>
                <path d="M367.243282,188.714508 C380.351841,163.606569 380.351841,163.606569 380.351841,163.606569 L380.351841,163.606569 L382.224541,186.203705 L367.243282,188.714508" id="p136" fill="#231B33" fill-rule="nonzero"></path>
                <path d="M339.30526,163.561593 L339.30526,163.561593 L324.808207,164.82147 C324.808207,164.82147 278.165529,122.61493 278.165529,123.244883 C278.165529,123.874836 278.165529,123.874836 278.165529,123.874836 L290.771668,119.465193 L339.30526,163.561593 Z" id="p135" fill="#624C68" fill-rule="nonzero"></path>
                <path d="M278.069975,123.514861 L234.43645,76.9436836 C234.43645,76.9436836 281.864186,107.15201 281.864186,107.15201 L281.864186,107.15201 L290.717394,119.109475 L278.069975,123.514861 Z" id="p134" fill="#5C4559" fill-rule="nonzero"></path>
                <path d="M185.038787,72.8940161 C234.558692,77.1206344 234.558692,77.1206344 234.558692,77.1206344 C234.558692,77.1206344 234.558692,77.1206344 234.558692,77.1206344 C234.558692,77.1206344 256.30099,100.431755 256.30099,100.431755 L256.30099,100.431755 L192.334468,90.981303 L185.038787,72.8940161 Z" id="p133" fill="#2D244D" fill-rule="nonzero"></path>
                <path d="M150.23235,5.66953458 C97.6834272,29.4667945 97.0523506,29.4667945 97.6834272,29.4667945 C98.3145039,29.4667945 185.038787,72.4890493 185.038787,72.4890493 L150.23235,5.66953458 Z" id="p132" fill="#A98575" fill-rule="nonzero"></path>
                <polygon id="p131" fill="#B08981" fill-rule="nonzero" points="97.5806295 29.5625732 98.8442583 88.2827528 185.038787 72.6817555"></polygon>
                <path d="M192.110338,90.7125533 C192.110338,90.7125533 172.494807,103.328822 173.760321,103.328822 C175.025846,103.328822 175.025846,103.328822 175.025846,103.328822 L278.165529,123.514861 L256.335328,100.174755 L192.110338,90.7125533 Z" id="p130" fill="#2A244A" fill-rule="nonzero"></path>
                <polygon id="p129" fill="#221D31" fill-rule="nonzero" points="324.7289 164.861947 367.243282 188.714508 339.323405 163.606569"></polygon>
                <polygon id="p128" fill="#45426A" fill-rule="nonzero" points="98.7953262 88.1472123 107.0136 110.960891 185.038787 72.4890493"></polygon>
                <path d="M106.893304,110.960891 C173.974544,103.356333 173.974544,103.356333 173.974544,103.356333 L192.326967,90.6820699 L185.000845,72.4890493 L106.893304,110.960891 Z" id="p127" fill="#494664" fill-rule="nonzero"></path>
                <polygon id="p126" fill="#36365E" fill-rule="nonzero" points="106.893304 111.246748 111.932047 125.134728 174.916315 103.67149"></polygon>
                <polygon id="p125" fill="#271E39" fill-rule="nonzero" points="112.156989 125.134728 226.743372 113.771839 175.28999 103.67149"></polygon>
                <path d="M98.7953262,88.2827528 C46.9682698,64.9209638 46.9682698,64.9209638 46.9682698,64.9209638 C46.9682698,64.9209638 97.5312547,29.5625732 97.5312547,29.5625732 C97.5312547,29.5625732 97.5312547,29.5625732 97.5312547,29.5625732 L98.7953262,88.2827528 Z" id="p124" fill="#826267" fill-rule="nonzero"></path>
                <polygon id="p123" fill="#302E58" fill-rule="nonzero" points="98.6780147 88.2827528 53.1779807 109.124075 39.2751911 141.333398 106.893304 111.01874"></polygon>
                <polygon id="p122" fill="#9A7A82" fill-rule="nonzero" points="46.9682698 65.1996477 53.2886466 109.341024 98.7953262 88.5315178"></polygon>
                <polygon id="p121" fill="#2D2851" fill-rule="nonzero" points="39.2751911 141.372599 55.661266 150.242666 55.661266 150.242666 111.75209 124.899589 106.710217 110.960891"></polygon>
                <path d="M7.2881798,108.936057 C53.4466519,108.936057 53.4466519,108.936057 53.4466519,108.936057 L39.5358806,141.333398 L7.2881798,108.936057 Z" id="p120" fill="#584A64" fill-rule="nonzero"></path>
                <path d="M47.12357,65.1996477 C7.2881798,109.341024 7.2881798,109.341024 7.2881798,109.341024 L53.4466519,109.341024 L47.12357,65.1996477 Z" id="p119" fill="#6A566C" fill-rule="nonzero"></path>
                <path d="M39.4834306,141.333398 C12.3725513,178.634826 11.7420675,177.370341 11.7420675,177.370341 L55.8760451,150.184571 L39.4834306,141.333398 Z" id="p118" fill="#2E2753" fill-rule="nonzero"></path>
                <polygon id="p117" fill="#5C4E66" fill-rule="nonzero" points="6.96817637 108.936057 7.00195026e-15 127.993323 39.2751911 141.333398"></polygon>
                <path d="M7.00195026e-15,128.374462 C0.633464295,147.812866 0.633464295,147.812866 0.633464295,147.812866 L39.2751911,141.54241 L7.00195026e-15,128.374462 Z" id="p116" fill="#503E58" fill-rule="nonzero"></path>
                <polygon id="p115" fill="#7C697C" fill-rule="nonzero" points="0.809797755 147.65657 11.5296622 177.375439 39.2751911 141.333398"></polygon>
                <polygon id="p114" fill="#281F3A" fill-rule="nonzero" points="6.05998299 162.391669 2.02449439 198.838677 11.3371686 177.28738"></polygon>
                <polygon id="p113" fill="#5E5375" fill-rule="nonzero" points="2.02449439 198.838677 2.02449439 198.838677 16.600854 198.207392 11.5308131 177.375439"></polygon>
                <polygon id="p112" fill="#261F3D" fill-rule="nonzero" points="16.4591399 198.028744 27.1282248 211.392647 2.02449439 198.665134"></polygon>
                <polygon id="p111" fill="#1A1A1A" fill-rule="nonzero" points="27.5331237 211.392647 47.813279 212.024654 56.6858429 294.815798"></polygon>
                <path d="M69.2250612,195.598943 L72.0720002,166.94843 C72.0720002,166.94843 66.9432811,161.379842 56.6858429,150.242666 C54.7167508,161.29548 53.0971552,171.586687 51.8270563,181.116287 L69.2250612,195.598943 Z" id="p110" fill="#2A2141" fill-rule="nonzero"></path>
                <path d="M88.2679553,183.642251 L69.2138957,195.598943 C69.2138957,195.598943 72.0719973,166.965744 72.0719973,166.965744 C72.0719973,166.965744 55.8760491,150.289287 88.2679553,183.642251 L88.2679553,183.642251 Z" id="p109" fill="#2A2043" fill-rule="nonzero"></path>
                <polygon id="p108" fill="#212121" fill-rule="nonzero" points="69.2377081 195.871678 47.7780676 212.20258 51.8806454 181.425107"></polygon>
                <path d="M87.8630565,183.854907 C131.592135,162.387321 131.592135,162.387321 131.592135,162.387321 L111.945737,125.134728 L87.8630565,183.854907 Z" id="p107" fill="#2B223E" fill-rule="nonzero"></path>
                <path d="M131.592135,162.391669 C199.615147,142.822237 199.615147,142.822237 199.615147,142.822237 L169.225245,119.465193 L131.592135,162.391669 Z" id="p106" fill="#1F1831" fill-rule="nonzero"></path>
                <path d="M200.020046,142.548298 C278.165529,123.532469 278.165529,123.532469 278.165529,123.532469 L226.803786,113.390692 L200.020046,142.548298 Z" id="p105"></path>
                <polygon id="p104" fill="#212121" fill-rule="nonzero" points="199.615147 142.797518 324.7289 164.82147 277.969195 123.919827"></polygon>
                <polygon id="p103" fill="#25213B" fill-rule="nonzero" points="200.020046 142.548298 226.803786 113.390692 278.165529 123.532469"></polygon>
                <polygon id="p102" fill="#212121" fill-rule="nonzero" points="262.374473 153.887367 307.093262 187.499608 324.7289 164.881988"></polygon>
                <polygon id="p101" fill="#251D35" fill-rule="nonzero" points="307.318248 187.457001 367.243282 188.714508 324.980404 164.82147"></polygon>
                <path d="M16.785953,198.43371 C55.8760451,150.242666 55.8760451,150.242666 55.8760451,150.242666 L11.7420675,177.508625 L16.785953,198.43371 Z" id="p100" fill="#221C37" fill-rule="nonzero"></path>
                <polygon id="p99" fill="#26213A" fill-rule="nonzero" points="55.8760451 150.242666 47.6409293 212.20258 27.369857 211.570322 16.600854 198.293236"></polygon>
                <polyline id="p98" fill="#201932" fill-rule="nonzero" points="55.8760451 150.403171 88.0913345 183.854907 112.094876 125.156611 131.676714 162.395321 169.419129 119.476134 169.419129 119.476134 199.897297 142.829212 199.897297 142.829212 226.743372 113.795658 169.419129 119.476134 112.094876 125.156611 55.8760451 150.403171"></polyline>
                <polygon id="p97" fill="#251D34" fill-rule="nonzero" points="307.318248 187.499608 347.688812 222.326749 367.243282 188.766029"></polygon>
                <polygon id="p96" fill="#212121" fill-rule="nonzero" points="347.473665 222.280047 350.642428 269.707859 306.913349 187.499608"></polygon>
                <path d="M347.403237,222.326749 C382.224541,186.284708 382.224541,186.284708 382.224541,186.284708 L367.029784,188.81398 L347.403237,222.326749 Z" id="p95" fill="#945759" fill-rule="nonzero"></path>
                <polyline id="p94" fill="#BC7C5D" fill-rule="nonzero" points="350.929221 269.707859 350.929221 269.707859 350.929221 269.707859 362.789394 257.07289 347.808136 222.326749 350.929221 269.707859"></polyline>
                <polygon id="p93" fill="#CF9379" fill-rule="nonzero" points="47.3731687 211.984092 66.5177844 196.813843 87.8317112 183.44994 145.358697 220.861402 128.352944 225.566483 113.118295 227.20233 74.5562514 231.640984"></polygon>
                <path d="M87.8630565,183.854907 L131.809653,162.087964 L199.961864,142.548298 L206.903327,198.646021 C189.762196,205.725164 176.872915,210.851467 168.235484,214.024931 C159.598053,217.198394 152.032821,219.587247 145.539788,221.191491 L87.8630565,183.854907 Z" id="p92" fill="#CF9379" fill-rule="nonzero"></path>
                <polygon id="p91" fill="#CF9379" fill-rule="nonzero" points="206.572558 198.838677 248.81036 191.144309 296.385978 177.966936 262.231556 153.616645 199.615147 142.548298"></polygon>
                <polygon id="p90" fill="#212121" fill-rule="nonzero" points="206.708849 198.838677 175.994712 209.915773 173.29672 229.211184 173.29672 229.211184 202.716739 225.751669 223.099282 214.412092"></polygon>
                <polyline id="p89" fill="#212121" fill-rule="nonzero" points="206.903327 199.03232 244.19993 191.144309 278.570428 211.551979 245.928063 208.086545 223.270369 214.632381 206.903327 199.03232"></polyline>
                <polygon id="p88" fill="#CF9379" fill-rule="nonzero" points="113.371686 227.485052 119.052559 247.134694 153.142854 252.294289 173.443813 229.362717 176.131012 210.177746 145.539788 221.191491"></polygon>
                <polygon id="p87" fill="#CF9379" fill-rule="nonzero" points="153.051776 252.361774 188.432779 267.278059 202.854338 225.97145 173.434296 229.413647"></polygon>
                <polygon id="p86" fill="#AC7067" fill-rule="nonzero" points="197.590652 241.765153 222.854044 228.888558 242.949903 228.119844 272.615217 236.960446 278.165529 211.207305 245.629364 207.747946 223.045385 214.282308 202.758135 225.621377"></polygon>
                <polygon id="p85" fill="#D6D6D6" fill-rule="nonzero" points="197.995551 255.129056 215.227264 239.74032 215.227264 239.74032 222.694383 254.744307"></polygon>
                <path d="M232.411956,234.070785 C238.903483,247.839655 238.903483,247.839655 238.903483,247.839655 L255.896091,239.694703 L232.411956,234.070785 Z" id="p84" fill="#D6D6D6" fill-rule="nonzero"></path>
                <path d="M215.406203,239.807836 C218.712828,237.689308 221.344671,236.298635 223.301731,235.635816 C225.258791,234.972997 228.273414,234.45132 232.345601,234.070785 L238.890338,247.648462 L222.913458,254.724089 L215.406203,239.807836 Z" id="p83" fill="#212121" fill-rule="nonzero"></path>
                <polygon id="p82" fill="#472241" fill-rule="nonzero" points="198.184929 255.123904 190.707371 258.36879 197.609732 241.953444 222.918291 229.164718 243.050079 228.40125 255.896091 239.662942 232.313122 234.127505 215.440733 239.853809"></polygon>
                <path d="M242.939327,227.996284 C272.556068,236.887127 272.556068,236.887127 272.556068,236.887127 L276.950832,245.004887 L255.741417,239.399793 L242.939327,227.996284 Z" id="p81" fill="#653E59" fill-rule="nonzero"></path>
                <polygon id="p80" fill="#6C3450" fill-rule="nonzero" points="190.572366 258.393721 188.277978 267.278059 220.591149 259.938845 222.694383 254.724089 198.029285 255.110247"></polygon>
                <polygon id="p79" fill="#B6736B" fill-rule="nonzero" points="220.669888 259.988657 222.775647 254.831017 255.70191 239.74032 276.950832 245.279936"></polygon>
                <polygon id="p78" fill="#D6D6D6" fill-rule="nonzero" points="124.870816 265.253225 124.303955 276.187328 135.641124 273.548045"></polygon>
                <polygon id="p77" fill="#D6D6D6" fill-rule="nonzero" points="101.673388 266.468125 102.439416 277.402228 88.2679553 276.035478"></polygon>
                <polyline id="p76" fill="#212121" fill-rule="nonzero" points="101.629618 266.301981 110.861313 263.228391 124.708854 264.957301 124.131871 276.099071 113.169231 278.212161 102.398929 277.059522 101.629618 266.301981"></polyline>
                <polygon id="p75" fill="#212121" fill-rule="nonzero" points="114.257484 232.045951 74.8473332 235.510853 63.9425808 242.825679 60.1163461 252.45049 59.9250339 265.15518 64.899132 274.972427 66.4296249 263.615191 69.1079813 255.722905 78.6735581 251.295473 95.8915844 249.370511 119.04027 246.86809"></polygon>
                <polygon id="p74" fill="#CF9379" fill-rule="nonzero" points="114.181484 232.283105 74.7803917 235.729807 63.8781458 243.006211 60.0527907 252.580465 59.8615225 265.218422 64.8344773 274.984103 56.5969476 294.815798 50.1069057 233.049006 47.7780676 212.20258 74.8646361 231.752273 113.289764 227.337824"></polygon>
                <polygon id="p73" fill="#CF9379" fill-rule="nonzero" points="119.04027 247.029721 124.772541 264.959785 135.663867 273.35256 153.051776 252.179838"></polygon>
                <path d="M124.708854,265.120925 L110.80823,263.388775 L101.541147,266.468125 C101.541147,266.468125 95.5561351,249.531672 95.5561351,249.531672 L95.5561351,249.531672 L118.916913,247.029721 L124.708854,265.120925 Z" id="p72" fill="#472241" fill-rule="nonzero"></path>
                <polygon id="p71" fill="#AC7067" fill-rule="nonzero" points="95.967652 249.459522 78.6433011 251.366637 69.0186601 255.75302 66.3237545 263.572133 64.7838204 274.824071 75.5634281 282.261829 82.8781556 266.623507 100.010023 261.283614"></polygon>
                <path d="M88.1822531,275.966421 C88.1822531,275.966421 75.3111913,282.666796 75.3111913,282.666796 L75.3111913,282.666796 L82.6111921,266.968795 L99.7085675,261.608524 L101.629618,266.585936 L88.1822531,275.966421 Z" id="p70" fill="#472241" fill-rule="nonzero"></path>
                <path d="M153.001703,252.294289 C140.932159,335.805904 142.014025,336.347461 140.932159,335.805904 C139.850302,335.264348 171.224294,351.511144 171.224294,351.511144 L195.566158,331.473402 L153.001703,252.294289" id="p69" fill="#CF9379" fill-rule="nonzero"></path>
                <path d="M213.323887,336.932341 C213.866137,336.932341 213.866137,336.932341 213.866137,336.932341 L226.338473,322.830813 C226.338473,322.830813 221.209754,317.947109 210.952315,308.179701 L195.971057,331.508665 C213.323887,336.932341 212.781588,336.932341 213.323887,336.932341 Z" id="p68" fill="#CF9379" fill-rule="nonzero"></path>
                <polygon id="p67" fill="#CF9379" fill-rule="nonzero" points="210.952315 308.323526 153.051776 252.294289 195.756349 331.667773"></polygon>
                <path d="M195.971036,331.262806 C195.971036,331.262806 171.677124,351.4577 171.677124,351.4577 L171.677124,351.4577 C171.677124,351.4577 173.735872,357.672881 173.921771,358.236713 C174.107646,358.800546 174.107646,358.800546 174.107646,358.800546 L193.254932,339.818357 L213.786607,336.720895 L195.971036,331.262806" id="p66" fill="#A76562" fill-rule="nonzero"></path>
                <polyline id="p65" fill="#CF9379" fill-rule="nonzero" points="171.272225 351.590181 144.162846 351.226126 137.802886 355.560812 124.708854 343.499025 140.850827 335.717441 171.272225 351.589932"></polyline>
                <polygon id="p64" fill="#7D415A" fill-rule="nonzero" points="174.106517 358.800546 138.070517 355.422501 144.451896 351.106177 171.652574 351.46869"></polygon>
                <path d="M174.106517,358.800546 C174.106517,358.800546 193.25435,340.00014 193.25435,340.00014 L193.25435,340.00014 L213.786607,336.932341 L174.106517,358.800546 Z" id="p63" fill="#5F2B4F" fill-rule="nonzero"></path>
                <polygon id="p62" points="153.051776 252.294289 210.906546 308.179701 249.01281 275.251211 248.91488 252.581447 188.32955 267.227246"></polygon>
                <polygon id="p61" fill="#CF9379" fill-rule="nonzero" points="153.051776 252.294289 210.906546 308.179701 249.01281 275.251211 248.91488 252.581447 188.32955 267.227246"></polygon>
                <path d="M75.3111913,282.273118 C111.379016,284.286663 111.379016,284.286663 111.379016,284.286663 L135.641124,273.35256 L113.161496,278.097548 L88.1841469,275.630135 L75.3111913,282.273118 Z" id="p60" fill="#4A2D56" fill-rule="nonzero"></path>
                <polyline id="p59" fill="#DDA788" fill-rule="nonzero" points="153.051776 252.294289 135.581626 273.547399 111.338953 284.577735 75.3000198 282.546469 64.5491506 275.079129 56.280944 294.909262 59.7337385 312.17655 118.817961 316.279036 146.116375 302.66615 153.051776 252.294289"></polyline>
                <polygon id="p58" fill="#CF9379" fill-rule="nonzero" points="210.952315 308.107163 226.338473 322.758504 264.541017 305.192179 277.355731 245.004887 249.081932 252.391223"></polygon>
                <path d="M362.798018,257.15389 C362.798018,257.15389 360.424351,274.452267 360.80165,274.826365 C361.178999,275.200464 361.178999,275.200464 361.178999,275.200464 L366.838383,285.674183 L364.574639,307.369768 L350.237529,290.536968 L350.677521,269.802998 L362.798018,257.15389 Z" id="p57" fill="#C57F5E" fill-rule="nonzero"></path>
                <polygon id="p56" fill="#CF9379" fill-rule="nonzero" points="264.174241 305.449223 312.421579 330.85784 364.40899 307.317537 350.196581 290.503007 350.632746 269.791541 306.999437 187.661895 296.249239 178.185373 243.749124 191.174258 278.118939 211.508044 272.550621 237.213005 276.966873 245.269792"></polygon>
                <polygon id="p55" fill="#CF9379" fill-rule="nonzero" points="99.9624069 261.608524 121.874562 256.165782 119.016462 247.029721 95.961034 249.556692"></polygon>
                <polyline id="p54" fill="#CF9379" fill-rule="nonzero" points="124.708854 343.411809 128.329761 323.568438 140.904809 335.753438 124.708854 343.411809"></polyline>
                <polygon id="p53" fill="#CF9379" fill-rule="nonzero" points="128.352944 323.441781 146.168495 302.510167 140.956697 335.717441"></polygon>
                <polygon id="p52" fill="#DDA788" fill-rule="nonzero" points="119.04027 316.23355 128.570951 323.568438 146.168495 302.510167"></polygon>
                <polygon id="p51" fill="#CF9379" fill-rule="nonzero" points="226.338473 322.940267 277.123664 343.805934 279.765698 397.272388 316.226023 381.920639 312.791443 330.798832 264.591567 305.344934"></polygon>
                <path d="M312.581934,330.487021 C312.581934,330.487021 364.611847,306.964801 364.611847,306.964801 L364.611847,306.964801 L380.604945,309.667537 L361.547913,366.166018 L316.022706,381.478684 L312.581934,330.487021" id="p50" fill="#CF9379" fill-rule="nonzero"></path>
                <polygon id="p49" fill="#CF9379" fill-rule="nonzero" points="173.701619 358.727668 213.620162 336.831548 226.112055 322.758504 276.950832 343.53712 265.842492 355.134726 236.749304 365.677941 210.300889 370.949548"></polygon>
                <polygon id="p48" fill="#CF9379" fill-rule="nonzero" points="173.701619 358.735254 156.366274 383.674561 141.043944 390.545734 124.136551 391.602853 105.644085 386.845868 105.644085 386.845868 104.059012 350.375861 124.759495 343.411809 137.835639 355.371542"></polygon>
                <polygon id="p47" fill="#DDA788" fill-rule="nonzero" points="128.352944 323.632435 124.758656 343.625871 104.113423 350.590411 105.694266 387.062976 90.93978 408.20649 80.9797755 384.313451 72.1591734 363.660147 64.7838204 336.932341 59.9250339 312.229369 118.796936 316.340779"></polygon>
                <path d="M276.976541,343.411809 L265.909281,355.044324 L258.004109,370.377994 L245.355853,387.297985 L236.396635,403.689218 L225.856422,415.321684 L222.694383,418.494179 C222.694383,418.494179 225.856438,434.709144 232.18055,467.139073 L256.423114,482.472792 C256.071749,483.177802 255.896066,483.530307 255.896066,483.530307 L289.097799,442.816626 L279.611582,396.81547 L276.976541,343.411809 Z" id="p46" fill="#CF9379" fill-rule="nonzero"></path>
                <path d="M105.873275,387.148219 C105.873275,387.148219 91.1022475,408.250266 91.1022475,408.250266 L91.1022475,408.250266 L105.345746,426.187004 L121.699374,443.068672 L149.658813,465.753399 L174.453038,484.745207 L200.829843,472.611577 L192.38927,428.297243 L177.618253,428.297243 L161.264626,420.911505 L143.855912,404.557446 L141.218231,402.974767 L141.218231,390.841088 L124.33706,391.896208 L105.873275,387.148219 Z" id="p45" fill="#DDA788" fill-rule="nonzero"></path>
                <polygon id="p44" fill="#8D5060" fill-rule="nonzero" points="140.904809 396.979438 154.428242 394.43762 161.959551 404.047727 152.354508 412.661124 140.904809 402.990771"></polygon>
                <path d="M152.646877,412.459961 C152.646877,412.459961 162.179571,403.751856 162.179571,403.751856 L162.179571,403.751856 L175.633821,407.488726 L192.451618,406.741333 L193.946562,414.215025 L192.551097,428.049861 L177.752185,428.049861 L161.367674,420.651258 L152.646877,412.459961 Z" id="p43" fill="#814254" fill-rule="nonzero"></path>
                <polygon id="p42" fill="#884259" fill-rule="nonzero" points="192.426822 428.049861 222.667167 418.527801 236.460945 403.715724 221.588087 393.627687 209.208399 403.353307 192.326967 406.719848 193.827565 414.201075"></polygon>
                <path d="M221.479686,393.678797 C221.479686,393.678797 231.973366,383.967617 231.973366,384.34111 C231.973366,384.714653 231.973366,384.714653 231.973366,384.714653 L240.967969,379.1121 L248.463448,372.015425 L266.018563,355.155845 L258.068398,370.474106 L245.348155,387.377094 L236.337946,403.751856 L221.479686,393.678797 Z" id="p41" fill="#884259" fill-rule="nonzero"></path>
                <polygon id="p40" fill="#743155" fill-rule="nonzero" points="141.309708 390.81586 156.634107 383.975312 186.226036 382.39675 210.533684 371.346623 236.955087 366.084686 266.018563 355.560812 257.26723 363.9583 245.938327 366.873967 234.04871 373.714515 221.102265 374.503795 217.139059 378.450297 208.684184 379.502655 204.985235 382.133624 194.152447 384.764642 190.189241 387.658688 181.205977 388.184891 176.714342 389.500375 170.637435 389.237592 166.938441 391.07928 154.7286 394.308669 141.309708 396.867421"></polygon>
                <polygon id="p39" fill="#CC9A91" fill-rule="nonzero" points="156.088517 384.313451 173.921771 358.236713 210.547416 371.137482 186.261427 382.312134"></polygon>
                <polygon id="p38" fill="#C0C0C0" fill-rule="nonzero" points="154.671371 394.05689 166.807914 390.840706 170.484702 389.006549 176.525128 389.268258 180.989798 387.958152 184.430113 407.488726 175.633821 407.488726 162.099597 403.690988"></polygon>
                <polygon id="p37" fill="#C0C0C0" fill-rule="nonzero" points="180.989798 387.958152 189.847558 387.39649 193.808134 384.508847 204.633687 381.883651 209.181897 403.346889 192.1245 406.654027 184.430113 407.488726"></polygon>
                <polygon id="p36" fill="#B3B3B3" fill-rule="nonzero" points="204.878832 381.832518 208.583064 379.196926 217.049901 378.142719 221.018713 374.189282 232.007057 384.337616 221.529928 393.655894 209.181897 403.346889"></polygon>
                <polygon id="p35" fill="#B3B3B3" fill-rule="nonzero" points="221.074787 374.194052 233.975065 373.405639 239.898674 369.989099 245.822284 366.572609 257.110787 363.660147 240.944228 379.110188 232.008477 384.313451"></polygon>
                <polygon id="p34" fill="#C3877C" fill-rule="nonzero" points="192.326967 428.263946 222.694383 418.494179 232.007057 467.435896 219.163135 485.150174 200.79204 472.72944"></polygon>
                <path d="M174.511416,484.687848 C174.511416,484.687848 201.035197,472.596204 201.035197,472.596204 C201.035197,472.596204 201.035197,472.596204 201.035197,472.596204 L219.455192,484.931881 L204.075967,496.084276 L189.446964,492.738543 L174.511416,484.687848 Z" id="p33" fill="#1A1A1A" fill-rule="nonzero"></path>
                <polygon id="p32" fill="#1A1A1A" fill-rule="nonzero" points="219.050293 484.910174 247.535733 491.224675 256.423114 482.472792 232.18055 467.139073"></polygon>
                <polygon id="p31" fill="#1A1A1A" fill-rule="nonzero" points="219.39288 484.745207 204.069034 496.084326 204.069034 496.084326 216.029094 501.753811 222.756667 501.753811 227.241683 499.863982 239.94931 496.084326 247.798113 491.170703"></polygon>
                <path d="M239.700136,496.084276 C247.533088,491.224645 247.533088,491.224645 247.533088,491.224645 L256.256012,482.50976 L288.960896,442.860679 L338.917533,435.526189 L359.432401,423.19026 L362.789394,426.928434 L361.297425,436.273794 L332.949555,450.852587 L313.553652,463.188516 L276.253913,483.748347 L261.706974,488.607929 L247.533088,491.224645 L247.533088,491.224645 L247.533088,491.224645 L239.700136,496.084276 Z" id="p30" fill="#C3877C" fill-rule="nonzero"></path>
                <polygon id="p29" fill="#B97E6C" fill-rule="nonzero" points="279.380226 397.171146 315.821125 381.883651 288.886549 443.033631"></polygon>
                <polygon id="p28" fill="#C68B83" fill-rule="nonzero" points="315.821125 381.478684 361.574698 366.521963 359.77367 423.393025 339.199309 435.710257 289.097799 443.033631"></polygon>
                <polygon id="p27" fill="#424242" fill-rule="nonzero" points="74.9062924 235.690652 114.320766 232.28377 123.089259 225.566483 113.428729 227.395622 74.9905507 231.75907"></polygon>
                <polygon id="p26" fill="#A95E4C" fill-rule="nonzero" points="386.07108 194.384043 381.880416 200.701195 380.604945 207.740352 384.431259 217.125879 388.075349 224.706491 397.914372 242.575087 398.825395 224.345537 393.541484 202.325608"></polygon>
                <polygon id="p25" fill="#CA8B79" fill-rule="nonzero" points="382.224541 186.284708 387.474661 186.501642 393.108624 190.133859 398.015597 196.853431 393.472094 202.483378 386.020731 194.49251"></polygon>
                <polygon id="p24" fill="#C87F71" fill-rule="nonzero" points="382.482207 186.284708 370.482473 199.013463 376.29069 217.872115 380.828317 207.898781 382.098906 200.826756 386.273529 194.480107"></polygon>
                <polygon id="p23" fill="#C68570" fill-rule="nonzero" points="347.403237 222.326749 376.151057 217.734748 370.341862 198.838677"></polygon>
                <polygon id="p22" fill="#C6856E" fill-rule="nonzero" points="347.403237 222.420655 355.026571 239.74032 362.898798 230.830242 368.163371 226.150947 376.151057 217.872115"></polygon>
                <polygon id="p21" fill="#CE8C72" fill-rule="nonzero" points="380.502124 207.747946 375.991643 217.703362 368.05308 226.029712 382.667218 251.551866 400.348457 255.534023 402.874383 243.587504 397.642139 242.682461 387.899413 224.762682"></polygon>
                <path d="M393.561709,202.39336 C393.561709,202.39336 398.133152,196.813843 398.133152,196.813843 L398.133152,196.813843 L400.510312,203.653279 L403.253178,212.292572 L404.898878,221.111811 L398.864563,224.351583 L393.561709,202.39336 Z" id="p20" fill="#CB9789" fill-rule="nonzero"></path>
                <polygon id="p19" fill="#CC9482" fill-rule="nonzero" points="398.897879 224.345089 404.722219 221.111849 404.898878 229.015243 404.192917 235.12241 403.133929 243.38502 398.015597 242.486906"></polygon>
                <polygon id="p18" fill="#B46F66" fill-rule="nonzero" points="382.852454 251.484355 378.903111 261.226824 370.824887 265.376448 367.952611 273.495171 369.029727 279.809723 366.838383 285.501563 393.982392 279.809723 400.44499 255.453504"></polygon>
                <polygon id="p17" fill="#A05A2C" fill-rule="nonzero" points="355.096316 239.611288 362.881385 230.668154 368.087671 225.97145 382.629439 251.441946 378.679838 261.19656 370.601089 265.351309 367.728625 273.480203 368.805811 279.802627 366.614325 285.501563 361.040719 275.032962 362.635297 256.995257"></polygon>
                <polygon id="p16" fill="#CC8D7B" fill-rule="nonzero" points="393.786895 279.832028 393.966608 297.642597 393.607673 301.780389 390.914482 308.436839 380.286518 309.799568 364.40899 307.104185 366.638649 285.507705"></polygon>
            </g>
        </g>
    </g>
</svg>