<?xml version="1.0" encoding="UTF-8"?>
<svg width="256px" height="256px" viewBox="0 0 256 256" version="1.1" xmlns="http://www.w3.org/2000/svg" xmlns:xlink="http://www.w3.org/1999/xlink">
    <title>julianda-icon-256</title>
    <g id="Page-1" stroke="none" stroke-width="1" fill="none" fill-rule="evenodd">
        <g id="julianda-icon" stroke="#212121" stroke-width="0.3">
            <g id="Group">
                <polygon id="p153" fill="#A17C73" fill-rule="nonzero" stroke-linecap="round" stroke-linejoin="round" points="122.556135 2.70248338 102.108742 5.38726262 119.444591 38.947008"></polygon>
                <path d="M122.454123,2.70248338 C122.454123,2.70248338 119.316944,38.8546239 119.316944,38.8546239 L119.316944,38.8546239 L144.218225,40.9718418 L122.454123,2.70248338" id="p152" fill="#906A67" fill-rule="nonzero" stroke-linecap="round" stroke-linejoin="round"></path>
                <polygon id="p150" fill="#805D5B" fill-rule="nonzero" stroke-linecap="round" stroke-linejoin="round" points="122.556135 2.7333916 139.802364 2.5 144.218225 40.9718418"></polygon>
                <path d="M139.966787,2.5 C170.536652,7.86083082 170.536652,7.86083082 170.536652,7.86083082 L144.378943,40.9718418 L139.966787,2.5" id="p149" fill="#816164" fill-rule="nonzero" stroke-linecap="round" stroke-linejoin="round"></path>
                <polygon id="p148" fill="#2E254D" fill-rule="nonzero" stroke-linecap="round" stroke-linejoin="round" points="144.420675 40.9758143 168.019432 56.1580952 170.536652 7.76456783"></polygon>
                <path d="M170.582755,7.76456783 C193.276754,22.2533796 193.907141,21.9384056 193.276754,22.2533796 C192.646366,22.5683537 192.646366,22.5683537 192.646366,22.5683537 L169.321956,31.8600898 L170.582755,7.76456783 Z" id="p147" fill="#9C776B" fill-rule="nonzero" stroke-linecap="round" stroke-linejoin="round"></path>
                <path d="M169.119506,31.9974039 C197.867326,49.8811104 197.867326,49.8811104 197.867326,49.8811104 L193.128687,22.343371 L169.119506,31.9974039 Z" id="p146" fill="#745760" fill-rule="nonzero" stroke-linecap="round" stroke-linejoin="round"></path>
                <path d="M193.210989,22.343371 C211.431439,46.3993261 211.431439,47.348903 211.431439,47.348903 L197.923162,49.8811104 L193.210989,22.343371 Z" id="p145" fill="#CAA9A0" fill-rule="nonzero" stroke-linecap="round" stroke-linejoin="round"></path>
                <polygon id="p144" fill="#3C3054" fill-rule="nonzero" stroke-linecap="round" stroke-linejoin="round" points="169.166386 32.0625732 167.904809 56.1580952 197.867326 49.8586145"></polygon>
                <path d="M167.904809,56.2168783 L172.326319,62.2358602 L207.38245,69.5219981 C207.38245,69.5219981 197.907815,49.8811104 197.907815,49.8811104 L197.907815,49.8811104 L167.904809,56.2168783 Z" id="p143" fill="#694C5D" fill-rule="nonzero" stroke-linecap="round" stroke-linejoin="round"></path>
                <path d="M211.431439,47.2488265 C207.330651,69.3195147 207.330651,69.3195147 207.330651,69.3195147 L207.330651,69.3195147 C207.330651,69.3195147 197.867326,49.7711922 197.867326,49.7711922 L197.867326,49.7711922 L211.431439,47.2488265 Z" id="p142" fill="#7F615D" fill-rule="nonzero" stroke-linecap="round" stroke-linejoin="round"></path>
                <polygon id="p141" fill="#6C5358" fill-rule="nonzero" stroke-linecap="round" stroke-linejoin="round" points="207.38245 69.3195147 220.339214 68.3736285 211.490701 47.2488265"></polygon>
                <polygon id="p140" fill="#282045" fill-rule="nonzero" stroke-linecap="round" stroke-linejoin="round" points="172.358697 62.2325965 196.654476 84.3032847 207.38245 69.4843965"></polygon>
                <path d="M196.65263,84.3032847 C217.100023,84.3032847 217.100023,84.3032847 217.100023,84.3032847 L207.348177,69.5219981 L196.65263,84.3032847 Z" id="p139" fill="#5B4358" fill-rule="nonzero" stroke-linecap="round" stroke-linejoin="round"></path>
                <path d="M207.38245,69.4572033 C220.339214,68.5095812 220.339214,68.5095812 220.339214,68.5095812 L217.179015,84.3032847 L207.38245,69.4572033 Z" id="p138" fill="#574353" fill-rule="nonzero" stroke-linecap="round" stroke-linejoin="round"></path>
                <path d="M196.65263,84.3032847 C210.49395,96.8572541 210.49395,96.8572541 210.49395,96.8572541 L217.100023,84.3032847 L196.65263,84.3032847 Z" id="p137" fill="#61444D" fill-rule="nonzero" stroke-linecap="round" stroke-linejoin="round"></path>
                <path d="M210.621641,96.8572541 C217.17592,84.3032847 217.17592,84.3032847 217.17592,84.3032847 L217.17592,84.3032847 L218.11227,95.6018523 L210.621641,96.8572541" id="p136" fill="#231B33" fill-rule="nonzero" stroke-linecap="round" stroke-linejoin="round"></path>
                <path d="M196.65263,84.2807963 L196.65263,84.2807963 L189.404104,84.9107348 C189.404104,84.9107348 166.082764,63.8074649 166.082764,64.1224416 C166.082764,64.4374182 166.082764,64.4374182 166.082764,64.4374182 L172.385834,62.2325965 L196.65263,84.2807963 Z" id="p135" fill="#624C68" fill-rule="nonzero" stroke-linecap="round" stroke-linejoin="round"></path>
                <path d="M166.034987,64.2574303 L144.218225,40.9718418 C144.218225,40.9718418 167.932093,56.076005 167.932093,56.076005 L167.932093,56.076005 L172.358697,62.0547377 L166.034987,64.2574303 Z" id="p134" fill="#5C4559" fill-rule="nonzero" stroke-linecap="round" stroke-linejoin="round"></path>
                <path d="M119.519394,38.947008 C144.279346,41.0603172 144.279346,41.0603172 144.279346,41.0603172 C144.279346,41.0603172 144.279346,41.0603172 144.279346,41.0603172 C144.279346,41.0603172 155.150495,52.7158777 155.150495,52.7158777 L155.150495,52.7158777 L123.167234,47.9906515 L119.519394,38.947008 Z" id="p133" fill="#2D244D" fill-rule="nonzero" stroke-linecap="round" stroke-linejoin="round"></path>
                <path d="M102.116175,5.33476729 C75.8417136,17.2333973 75.5261753,17.2333973 75.8417136,17.2333973 C76.1572519,17.2333973 119.519394,38.7445247 119.519394,38.7445247 L102.116175,5.33476729 Z" id="p132" fill="#A98575" fill-rule="nonzero" stroke-linecap="round" stroke-linejoin="round"></path>
                <polygon id="p131" fill="#B08981" fill-rule="nonzero" stroke-linecap="round" stroke-linejoin="round" points="75.7903148 17.2812866 76.4221291 46.6413764 119.519394 38.8408777"></polygon>
                <path d="M123.055169,47.8562767 C123.055169,47.8562767 113.247403,54.1644108 113.880161,54.1644108 C114.512923,54.1644108 114.512923,54.1644108 114.512923,54.1644108 L166.082764,64.2574303 L155.167664,52.5873773 L123.055169,47.8562767 Z" id="p130" fill="#2A244A" fill-rule="nonzero" stroke-linecap="round" stroke-linejoin="round"></path>
                <polygon id="p129" fill="#221D31" fill-rule="nonzero" stroke-linecap="round" stroke-linejoin="round" points="189.36445 84.9309734 210.621641 96.8572541 196.661702 84.3032847"></polygon>
                <polygon id="p128" fill="#45426A" fill-rule="nonzero" stroke-linecap="round" stroke-linejoin="round" points="76.3976631 46.5736061 80.5068002 57.9804456 119.519394 38.7445247"></polygon>
                <path d="M80.4466519,57.9804456 C113.987272,54.1781666 113.987272,54.1781666 113.987272,54.1781666 L123.163483,47.8410349 L119.500423,38.7445247 L80.4466519,57.9804456 Z" id="p127" fill="#494664" fill-rule="nonzero" stroke-linecap="round" stroke-linejoin="round"></path>
                <polygon id="p126" fill="#36365E" fill-rule="nonzero" stroke-linecap="round" stroke-linejoin="round" points="80.4466519 58.1233741 82.9660235 65.0673638 114.458158 54.3357448"></polygon>
                <polygon id="p125" fill="#271E39" fill-rule="nonzero" stroke-linecap="round" stroke-linejoin="round" points="83.0784946 65.0673638 140.371686 59.3859197 114.644995 54.3357448"></polygon>
                <path d="M76.3976631,46.6413764 C50.4841349,34.9604819 50.4841349,34.9604819 50.4841349,34.9604819 C50.4841349,34.9604819 75.7656274,17.2812866 75.7656274,17.2812866 C75.7656274,17.2812866 75.7656274,17.2812866 75.7656274,17.2812866 L76.3976631,46.6413764 Z" id="p124" fill="#826267" fill-rule="nonzero" stroke-linecap="round" stroke-linejoin="round"></path>
                <polygon id="p123" fill="#302E58" fill-rule="nonzero" stroke-linecap="round" stroke-linejoin="round" points="76.3390074 46.6413764 53.5889903 57.0620374 46.6375956 73.1666989 80.4466519 58.00937"></polygon>
                <polygon id="p122" fill="#9A7A82" fill-rule="nonzero" stroke-linecap="round" stroke-linejoin="round" points="50.4841349 35.0998239 53.6443233 57.1705121 76.3976631 46.7657589"></polygon>
                <polygon id="p121" fill="#2D2851" fill-rule="nonzero" stroke-linecap="round" stroke-linejoin="round" points="46.6375956 73.1862996 54.830633 77.6213332 54.830633 77.6213332 82.8760451 64.9497944 80.3551085 57.9804456"></polygon>
                <path d="M30.6440899,56.9680287 C53.7233259,56.9680287 53.7233259,56.9680287 53.7233259,56.9680287 L46.7679403,73.1666989 L30.6440899,56.9680287 Z" id="p120" fill="#584A64" fill-rule="nonzero" stroke-linecap="round" stroke-linejoin="round"></path>
                <path d="M50.561785,35.0998239 C30.6440899,57.1705121 30.6440899,57.1705121 30.6440899,57.1705121 L53.7233259,57.1705121 L50.561785,35.0998239 Z" id="p119" fill="#6A566C" fill-rule="nonzero" stroke-linecap="round" stroke-linejoin="round"></path>
                <path d="M46.7417153,73.1666989 C33.1862757,91.8174128 32.8710337,91.1851707 32.8710337,91.1851707 L54.9380226,77.5922854 L46.7417153,73.1666989 Z" id="p118" fill="#2E2753" fill-rule="nonzero" stroke-linecap="round" stroke-linejoin="round"></path>
                <polygon id="p117" fill="#5C4E66" fill-rule="nonzero" stroke-linecap="round" stroke-linejoin="round" points="30.4840882 56.9680287 27 66.4966613 46.6375956 73.1666989"></polygon>
                <path d="M27,66.6872308 C27.3167321,76.406433 27.3167321,76.406433 27.3167321,76.406433 L46.6375956,73.2712048 L27,66.6872308 Z" id="p116" fill="#503E58" fill-rule="nonzero" stroke-linecap="round" stroke-linejoin="round"></path>
                <polygon id="p115" fill="#7C697C" fill-rule="nonzero" stroke-linecap="round" stroke-linejoin="round" points="27.4048989 76.3282852 32.7648311 91.1877196 46.6375956 73.1666989"></polygon>
                <polygon id="p114" fill="#281F3A" fill-rule="nonzero" stroke-linecap="round" stroke-linejoin="round" points="30.0299915 83.6958346 28.0122472 101.919339 32.6685843 91.14369"></polygon>
                <polygon id="p113" fill="#5E5375" fill-rule="nonzero" stroke-linecap="round" stroke-linejoin="round" points="28.0122472 101.919339 28.0122472 101.919339 35.300427 101.603696 32.7654065 91.1877196"></polygon>
                <polygon id="p112" fill="#261F3D" fill-rule="nonzero" stroke-linecap="round" stroke-linejoin="round" points="35.2295699 101.514372 40.5641124 108.196323 28.0122472 101.832567"></polygon>
                <polygon id="p111" fill="#1A1A1A" fill-rule="nonzero" stroke-linecap="round" stroke-linejoin="round" points="40.7665618 108.196323 50.9066395 108.512327 55.3429214 149.907899"></polygon>
                <path d="M61.6125306,100.299472 L63.0360001,85.974215 C63.0360001,85.974215 60.4716406,83.1899211 55.3429214,77.6213332 C54.3583754,83.1477402 53.5485776,88.2933436 52.9135282,93.0581436 L61.6125306,100.299472 Z" id="p110" fill="#2A2141" fill-rule="nonzero" stroke-linecap="round" stroke-linejoin="round"></path>
                <path d="M71.1339777,94.3211253 L61.6069479,100.299472 C61.6069479,100.299472 63.0359986,85.9828721 63.0359986,85.9828721 C63.0359986,85.9828721 54.9380245,77.6446433 71.1339777,94.3211253 L71.1339777,94.3211253 Z" id="p109" fill="#2A2043" fill-rule="nonzero" stroke-linecap="round" stroke-linejoin="round"></path>
                <polygon id="p108" fill="#212121" fill-rule="nonzero" stroke-linecap="round" stroke-linejoin="round" points="61.618854 100.435839 50.8890338 108.60129 52.9403227 93.2125533"></polygon>
                <path d="M70.9315282,94.4274536 C92.7960676,83.6936605 92.7960676,83.6936605 92.7960676,83.6936605 L82.9728685,65.0673638 L70.9315282,94.4274536 Z" id="p107" fill="#2B223E" fill-rule="nonzero" stroke-linecap="round" stroke-linejoin="round"></path>
                <path d="M92.7960676,83.6958346 C126.807573,73.9111186 126.807573,73.9111186 126.807573,73.9111186 L111.612623,62.2325965 L92.7960676,83.6958346 Z" id="p106" fill="#1F1831" fill-rule="nonzero" stroke-linecap="round" stroke-linejoin="round"></path>
                <path d="M127.010023,73.774149 C166.082764,64.2662347 166.082764,64.2662347 166.082764,64.2662347 L140.401893,59.1953458 L127.010023,73.774149 Z" id="p105" stroke-linecap="round" stroke-linejoin="round"></path>
                <polygon id="p104" fill="#212121" fill-rule="nonzero" stroke-linecap="round" stroke-linejoin="round" points="126.807573 73.8987589 189.36445 84.9107348 165.984598 64.4599137"></polygon>
                <polygon id="p103" fill="#25213B" fill-rule="nonzero" stroke-linecap="round" stroke-linejoin="round" points="127.010023 73.774149 140.401893 59.1953458 166.082764 64.2662347"></polygon>
                <polygon id="p102" fill="#212121" fill-rule="nonzero" stroke-linecap="round" stroke-linejoin="round" points="158.187236 79.4436836 180.546631 96.249804 189.36445 84.940994"></polygon>
                <polygon id="p101" fill="#251D35" fill-rule="nonzero" stroke-linecap="round" stroke-linejoin="round" points="180.659124 96.2285003 210.621641 96.8572541 189.490202 84.9107348"></polygon>
                <path d="M35.3929765,101.716855 C54.9380226,77.6213332 54.9380226,77.6213332 54.9380226,77.6213332 L32.8710337,91.2543123 L35.3929765,101.716855 Z" id="p100" fill="#221C37" fill-rule="nonzero" stroke-linecap="round" stroke-linejoin="round"></path>
                <polygon id="p99" fill="#26213A" fill-rule="nonzero" stroke-linecap="round" stroke-linejoin="round" points="54.9380226 77.6213332 50.8204646 108.60129 40.6849285 108.285161 35.300427 101.646618"></polygon>
                <polyline id="p98" fill="#201932" fill-rule="nonzero" stroke-linecap="round" stroke-linejoin="round" points="54.9380226 77.7015853 71.0456672 94.4274536 83.0474382 65.0783053 92.8383572 83.6976606 111.709564 62.2380672 111.709564 62.2380672 126.948649 73.9146062 126.948649 73.9146062 140.371686 59.3978292 111.709564 62.2380672 83.0474382 65.0783053 54.9380226 77.7015853"></polyline>
                <polygon id="p97" fill="#251D34" fill-rule="nonzero" stroke-linecap="round" stroke-linejoin="round" points="180.659124 96.249804 200.844406 113.663375 210.621641 96.8830144"></polygon>
                <polygon id="p96" fill="#212121" fill-rule="nonzero" stroke-linecap="round" stroke-linejoin="round" points="200.736833 113.640023 202.321214 137.35393 180.456675 96.249804"></polygon>
                <path d="M200.701619,113.663375 C218.11227,95.6423539 218.11227,95.6423539 218.11227,95.6423539 L210.514892,96.9069899 L200.701619,113.663375 Z" id="p95" fill="#945759" fill-rule="nonzero" stroke-linecap="round" stroke-linejoin="round"></path>
                <polyline id="p94" fill="#BC7C5D" fill-rule="nonzero" stroke-linecap="round" stroke-linejoin="round" points="202.464611 137.35393 202.464611 137.35393 202.464611 137.35393 208.394697 131.036445 200.904068 113.663375 202.464611 137.35393"></polyline>
                <polygon id="p93" fill="#CF9379" fill-rule="nonzero" stroke-linecap="round" stroke-linejoin="round" points="50.6865843 108.492046 60.2588922 100.906922 70.9158556 94.2249702 99.6793485 112.930701 91.1764721 115.283242 83.5591474 116.101165 64.2781257 118.320492"></polygon>
                <path d="M70.9315282,94.4274536 L92.9048267,83.5439819 L126.980932,73.774149 L130.451663,101.823011 C121.881098,105.362582 115.436457,107.925734 111.117742,109.512465 C106.799026,111.099197 103.01641,112.293624 99.769894,113.095745 L70.9315282,94.4274536 Z" id="p92" fill="#CF9379" fill-rule="nonzero" stroke-linecap="round" stroke-linejoin="round"></path>
                <polygon id="p91" fill="#CF9379" fill-rule="nonzero" stroke-linecap="round" stroke-linejoin="round" points="130.286279 101.919339 151.40518 98.0721544 175.192989 91.4834678 158.115778 79.3083223 126.807573 73.774149"></polygon>
                <polygon id="p90" fill="#212121" fill-rule="nonzero" stroke-linecap="round" stroke-linejoin="round" points="130.354425 101.919339 114.997356 107.457887 113.64836 117.105592 113.64836 117.105592 128.358369 115.375835 138.549641 109.706046"></polygon>
                <polyline id="p89" fill="#212121" fill-rule="nonzero" stroke-linecap="round" stroke-linejoin="round" points="130.451663 102.01616 149.099965 98.0721544 166.285214 108.275989 149.964032 106.543272 138.635184 109.81619 130.451663 102.01616"></polyline>
                <polygon id="p88" fill="#CF9379" fill-rule="nonzero" stroke-linecap="round" stroke-linejoin="round" points="83.6858429 116.242526 86.5262793 126.067347 103.571427 128.647144 113.721906 117.181359 115.065506 107.588873 99.769894 113.095745"></polygon>
                <polygon id="p87" fill="#CF9379" fill-rule="nonzero" stroke-linecap="round" stroke-linejoin="round" points="103.525888 128.680887 121.21639 136.139029 128.427169 115.485725 113.717148 117.206823"></polygon>
                <polygon id="p86" fill="#AC7067" fill-rule="nonzero" stroke-linecap="round" stroke-linejoin="round" points="125.795326 123.382577 138.427022 116.944279 148.474952 116.559922 163.307608 120.980223 166.082764 108.103653 149.814682 106.373973 138.522692 109.641154 128.379068 115.310689"></polygon>
                <polygon id="p85" fill="#D6D6D6" fill-rule="nonzero" stroke-linecap="round" stroke-linejoin="round" points="125.997776 130.064528 134.613632 122.37016 134.613632 122.37016 138.347191 129.872153"></polygon>
                <path d="M143.205978,119.535392 C146.451742,126.419827 146.451742,126.419827 146.451742,126.419827 L154.948045,122.347352 L143.205978,119.535392 Z" id="p84" fill="#D6D6D6" fill-rule="nonzero" stroke-linecap="round" stroke-linejoin="round"></path>
                <path d="M134.703101,122.403918 C136.356414,121.344654 137.672336,120.649318 138.650866,120.317908 C139.629396,119.986499 141.136707,119.72566 143.1728,119.535392 L146.445169,126.324231 L138.456729,129.862045 L134.703101,122.403918 Z" id="p83" fill="#212121" fill-rule="nonzero" stroke-linecap="round" stroke-linejoin="round"></path>
                <polygon id="p82" fill="#472241" fill-rule="nonzero" stroke-linecap="round" stroke-linejoin="round" points="126.092465 130.061952 122.353686 131.684395 125.804866 123.476722 138.459146 117.082359 148.52504 116.700625 154.948045 122.331471 143.156561 119.563753 134.720367 122.426905"></polygon>
                <path d="M148.469663,116.498142 C163.278034,120.943563 163.278034,120.943563 163.278034,120.943563 L165.475416,125.002444 L154.870708,122.199896 L148.469663,116.498142 Z" id="p81" fill="#653E59" fill-rule="nonzero" stroke-linecap="round" stroke-linejoin="round"></path>
                <polygon id="p80" fill="#6C3450" fill-rule="nonzero" stroke-linecap="round" stroke-linejoin="round" points="122.286183 131.696861 121.138989 136.139029 137.295575 132.469422 138.347191 129.862045 126.014643 130.055123"></polygon>
                <polygon id="p79" fill="#B6736B" fill-rule="nonzero" stroke-linecap="round" stroke-linejoin="round" points="137.334944 132.494329 138.387824 129.915509 154.850955 122.37016 165.475416 125.139968"></polygon>
                <polygon id="p78" fill="#D6D6D6" fill-rule="nonzero" stroke-linecap="round" stroke-linejoin="round" points="89.435408 135.126613 89.1519777 140.593664 94.820562 139.274022"></polygon>
                <polygon id="p77" fill="#D6D6D6" fill-rule="nonzero" stroke-linecap="round" stroke-linejoin="round" points="77.836694 135.734063 78.219708 141.201114 71.1339777 140.517739"></polygon>
                <polyline id="p76" fill="#212121" fill-rule="nonzero" stroke-linecap="round" stroke-linejoin="round" points="77.8148092 135.650991 82.4306564 134.114196 89.3544272 134.978651 89.0659355 140.549536 83.5846157 141.606081 78.1994647 141.029761 77.8148092 135.650991"></polyline>
                <polygon id="p75" fill="#212121" fill-rule="nonzero" stroke-linecap="round" stroke-linejoin="round" points="84.1287421 118.522976 64.4236666 120.255427 58.9712904 123.91284 57.0581731 128.725245 56.962517 135.07759 59.449566 139.986214 60.2148125 134.307595 61.5539906 130.361453 66.336779 128.147736 74.9457922 127.185255 86.520135 125.934045"></polygon>
                <polygon id="p74" fill="#CF9379" fill-rule="nonzero" stroke-linecap="round" stroke-linejoin="round" points="84.0907418 118.641553 64.3901958 120.364904 58.9390729 124.003106 57.0263954 128.790233 56.9307612 135.109211 59.4172386 139.992051 55.2984738 149.907899 52.0534529 119.024503 50.8890338 108.60129 64.4323181 118.376136 83.644882 116.168912"></polygon>
                <polygon id="p73" fill="#CF9379" fill-rule="nonzero" stroke-linecap="round" stroke-linejoin="round" points="86.520135 126.014861 89.3862704 134.979893 94.8319336 139.17628 103.525888 128.589919"></polygon>
                <path d="M89.3544272,135.060462 L82.4041149,134.194387 L77.7705734,135.734063 C77.7705734,135.734063 74.7780676,127.265836 74.7780676,127.265836 L74.7780676,127.265836 L86.4584563,126.014861 L89.3544272,135.060462 Z" id="p72" fill="#472241" fill-rule="nonzero" stroke-linecap="round" stroke-linejoin="round"></path>
                <polygon id="p71" fill="#AC7067" fill-rule="nonzero" stroke-linecap="round" stroke-linejoin="round" points="74.983826 127.229761 66.3216506 128.183318 61.5093301 130.37651 60.1618773 134.286066 59.3919102 139.912036 64.781714 143.630914 68.4390778 135.811753 77.0050114 133.141807"></polygon>
                <path d="M71.0911265,140.48321 C71.0911265,140.48321 64.6555956,143.833398 64.6555956,143.833398 L64.6555956,143.833398 L68.305596,135.984397 L76.8542838,133.304262 L77.8148092,135.792968 L71.0911265,140.48321 Z" id="p70" fill="#472241" fill-rule="nonzero" stroke-linecap="round" stroke-linejoin="round"></path>
                <path d="M103.500852,128.647144 C97.4660794,170.402952 98.0070125,170.673731 97.4660794,170.402952 C96.9251512,170.132174 112.612147,178.255572 112.612147,178.255572 L124.783079,168.236701 L103.500852,128.647144" id="p69" fill="#CF9379" fill-rule="nonzero" stroke-linecap="round" stroke-linejoin="round"></path>
                <path d="M133.661943,170.96617 C133.933068,170.96617 133.933068,170.96617 133.933068,170.96617 L140.169236,163.915406 C140.169236,163.915406 137.604877,161.473555 132.476158,156.589851 L124.985528,168.254332 C133.661943,170.96617 133.390794,170.96617 133.661943,170.96617 Z" id="p68" fill="#CF9379" fill-rule="nonzero" stroke-linecap="round" stroke-linejoin="round"></path>
                <polygon id="p67" fill="#CF9379" fill-rule="nonzero" stroke-linecap="round" stroke-linejoin="round" points="132.476158 156.661763 103.525888 128.647144 124.878174 168.333887"></polygon>
                <path d="M124.985518,168.131403 C124.985518,168.131403 112.838562,178.22885 112.838562,178.22885 L112.838562,178.22885 C112.838562,178.22885 113.867936,181.336441 113.960886,181.618357 C114.053823,181.900273 114.053823,181.900273 114.053823,181.900273 L123.627466,172.409179 L133.893304,170.860448 L124.985518,168.131403" id="p66" fill="#A76562" fill-rule="nonzero" stroke-linecap="round" stroke-linejoin="round"></path>
                <polyline id="p65" fill="#CF9379" fill-rule="nonzero" stroke-linecap="round" stroke-linejoin="round" points="112.636113 178.29509 99.0814231 178.113063 95.9014432 180.280406 89.3544272 174.249513 97.4254133 170.35872 112.636113 178.294966"></polyline>
                <polygon id="p64" fill="#7D415A" fill-rule="nonzero" stroke-linecap="round" stroke-linejoin="round" points="114.053259 181.900273 96.0352587 180.211251 99.2259481 178.053089 112.826287 178.234345"></polygon>
                <path d="M114.053259,181.900273 C114.053259,181.900273 123.627175,172.50007 123.627175,172.50007 L123.627175,172.50007 L133.893304,170.96617 L114.053259,181.900273 Z" id="p63" fill="#5F2B4F" fill-rule="nonzero" stroke-linecap="round" stroke-linejoin="round"></path>
                <polygon id="p62" stroke-linecap="round" stroke-linejoin="round" points="103.525888 128.647144 132.453273 156.589851 151.506405 140.125605 151.45744 128.790724 121.164775 136.113623"></polygon>
                <polygon id="p61" fill="#CF9379" fill-rule="nonzero" stroke-linecap="round" stroke-linejoin="round" points="103.525888 128.647144 132.453273 156.589851 151.506405 140.125605 151.45744 128.790724 121.164775 136.113623"></polygon>
                <path d="M64.6555956,143.636559 C82.6895082,144.643331 82.6895082,144.643331 82.6895082,144.643331 L94.820562,139.17628 L83.5807481,141.548774 L71.0920735,140.315067 L64.6555956,143.636559 Z" id="p60" fill="#4A2D56" fill-rule="nonzero" stroke-linecap="round" stroke-linejoin="round"></path>
                <polyline id="p59" fill="#DDA788" fill-rule="nonzero" stroke-linecap="round" stroke-linejoin="round" points="103.525888 128.647144 94.7908131 139.273699 82.6694767 144.788868 64.6500099 143.773234 59.2745753 140.039565 55.140472 149.954631 56.8668693 158.588275 86.4089804 160.639518 100.058187 153.833075 103.525888 128.647144"></polyline>
                <polygon id="p58" fill="#CF9379" fill-rule="nonzero" stroke-linecap="round" stroke-linejoin="round" points="132.476158 156.553581 140.169236 163.879252 159.270509 155.096089 165.677866 125.002444 151.540966 128.695612"></polygon>
                <path d="M208.399009,131.076945 C208.399009,131.076945 207.212176,139.726133 207.400825,139.913183 C207.589499,140.100232 207.589499,140.100232 207.589499,140.100232 L210.419192,145.337091 L209.28732,156.184884 L202.118765,147.768484 L202.33876,137.401499 L208.399009,131.076945 Z" id="p57" fill="#C57F5E" fill-rule="nonzero" stroke-linecap="round" stroke-linejoin="round"></path>
                <polygon id="p56" fill="#CF9379" fill-rule="nonzero" stroke-linecap="round" stroke-linejoin="round" points="159.087121 155.224612 183.210789 167.92892 209.204495 156.158769 202.098291 147.751504 202.316373 137.395771 180.499719 96.3309474 175.124619 91.5926863 148.874562 98.087129 166.059469 108.254022 163.27531 121.106502 165.483436 125.134896"></polygon>
                <polygon id="p55" fill="#CF9379" fill-rule="nonzero" stroke-linecap="round" stroke-linejoin="round" points="76.9812034 133.304262 87.9372811 130.582891 86.5082309 126.014861 74.980517 127.278346"></polygon>
                <polyline id="p54" fill="#CF9379" fill-rule="nonzero" stroke-linecap="round" stroke-linejoin="round" points="89.3544272 174.205905 91.1648804 164.284219 97.4524047 170.376719 89.3544272 174.205905"></polyline>
                <polygon id="p53" fill="#CF9379" fill-rule="nonzero" stroke-linecap="round" stroke-linejoin="round" points="91.1764721 164.22089 100.084247 153.755083 97.4783485 170.35872"></polygon>
                <polygon id="p52" fill="#DDA788" fill-rule="nonzero" stroke-linecap="round" stroke-linejoin="round" points="86.520135 160.616775 91.2854755 164.284219 100.084247 153.755083"></polygon>
                <polygon id="p51" fill="#CF9379" fill-rule="nonzero" stroke-linecap="round" stroke-linejoin="round" points="140.169236 163.970134 165.561832 174.402967 166.882849 201.136194 185.113012 193.46032 183.395722 167.899416 159.295783 155.172467"></polygon>
                <path d="M183.290967,167.74351 C183.290967,167.74351 209.305924,155.982401 209.305924,155.982401 L209.305924,155.982401 L217.302473,157.333768 L207.773956,185.583009 L185.011353,193.239342 L183.290967,167.74351" id="p50" fill="#CF9379" fill-rule="nonzero" stroke-linecap="round" stroke-linejoin="round"></path>
                <polygon id="p49" fill="#CF9379" fill-rule="nonzero" stroke-linecap="round" stroke-linejoin="round" points="113.850809 181.863834 133.810081 170.915774 140.056027 163.879252 165.475416 174.26856 159.921246 180.067363 145.374652 185.33897 132.150444 187.974774"></polygon>
                <polygon id="p48" fill="#CF9379" fill-rule="nonzero" stroke-linecap="round" stroke-linejoin="round" points="113.850809 181.867627 105.183137 194.33728 97.521972 197.772867 89.0682755 198.301426 79.8220424 195.922934 79.8220424 195.922934 79.0295058 177.68793 89.3797477 174.205905 95.9178195 180.185771"></polygon>
                <polygon id="p47" fill="#DDA788" fill-rule="nonzero" stroke-linecap="round" stroke-linejoin="round" points="91.1764721 164.316218 89.379328 174.312936 79.0567116 177.795206 79.8471329 196.031488 72.46989 206.603245 67.4898878 194.656726 63.0795867 184.330073 59.3919102 170.96617 56.962517 158.614684 86.398468 160.670389"></polygon>
                <path d="M165.488271,174.205905 L159.95464,180.022162 L156.002054,187.688997 L149.677927,196.148992 L145.198318,204.344609 L139.928211,210.160842 L138.347191,211.74709 C138.347191,211.74709 139.928219,219.854572 143.090275,236.069537 L155.211557,243.736396 C155.035874,244.088901 154.948033,244.265153 154.948033,244.265153 L171.548899,223.908313 L166.805791,200.907735 L165.488271,174.205905 Z" id="p46" fill="#CF9379" fill-rule="nonzero" stroke-linecap="round" stroke-linejoin="round"></path>
                <path d="M79.9366374,196.074109 C79.9366374,196.074109 72.5511237,206.625133 72.5511237,206.625133 L72.5511237,206.625133 L79.6728731,215.593502 L87.8496868,224.034336 L101.829407,235.376699 L114.226519,244.872603 L127.414922,238.805789 L123.194635,216.648622 L115.809126,216.648622 L107.632313,212.955752 L98.927956,204.778723 L97.6091153,203.987383 L97.6091153,197.920544 L89.16853,198.448104 L79.9366374,196.074109 Z" id="p45" fill="#DDA788" fill-rule="nonzero" stroke-linecap="round" stroke-linejoin="round"></path>
                <polygon id="p44" fill="#8D5060" fill-rule="nonzero" stroke-linecap="round" stroke-linejoin="round" points="97.4524047 200.989719 104.214121 199.71881 107.979776 204.523864 103.177254 208.830562 97.4524047 203.995386"></polygon>
                <path d="M103.323438,208.729981 C103.323438,208.729981 108.089786,204.375928 108.089786,204.375928 L108.089786,204.375928 L114.816911,206.244363 L123.225809,205.870666 L123.973281,209.607512 L123.275548,216.524931 L115.876092,216.524931 L107.683837,212.825629 L103.323438,208.729981 Z" id="p43" fill="#814254" fill-rule="nonzero" stroke-linecap="round" stroke-linejoin="round"></path>
                <polygon id="p42" fill="#884259" fill-rule="nonzero" stroke-linecap="round" stroke-linejoin="round" points="123.213411 216.524931 138.333584 211.763901 145.230472 204.357862 137.794044 199.313843 131.6042 204.176654 123.163483 205.859924 123.913783 209.600538"></polygon>
                <path d="M137.739843,199.339398 C137.739843,199.339398 142.986683,194.483808 142.986683,194.670555 C142.986683,194.857327 142.986683,194.857327 142.986683,194.857327 L147.483985,192.05605 L151.231724,188.507713 L160.009281,180.077922 L156.034199,187.737053 L149.674078,196.188547 L145.168973,204.375928 L137.739843,199.339398 Z" id="p41" fill="#884259" fill-rule="nonzero" stroke-linecap="round" stroke-linejoin="round"></path>
                <polygon id="p40" fill="#743155" fill-rule="nonzero" stroke-linecap="round" stroke-linejoin="round" points="97.6548542 197.90793 105.317053 194.487656 120.113018 193.698375 132.266842 188.173312 145.477544 185.542343 160.009281 180.280406 155.633615 184.47915 149.969164 185.936983 144.024355 189.357257 137.551132 189.751898 135.56953 191.725149 131.342092 192.251328 129.492618 193.566812 124.076223 194.882321 122.094621 196.329344 117.602988 196.592446 115.357171 197.250188 112.318717 197.118796 110.469221 198.03964 104.3643 199.654334 97.6548542 200.93371"></polygon>
                <polygon id="p39" fill="#CC9A91" fill-rule="nonzero" stroke-linecap="round" stroke-linejoin="round" points="105.044259 194.656726 113.960886 181.618357 132.273708 188.068741 120.130714 193.656067"></polygon>
                <polygon id="p38" fill="#C0C0C0" fill-rule="nonzero" stroke-linecap="round" stroke-linejoin="round" points="104.335686 199.528445 110.403957 197.920353 112.242351 197.003274 115.262564 197.134129 117.494899 196.479076 119.215057 206.244363 114.816911 206.244363 108.049799 204.345494"></polygon>
                <polygon id="p37" fill="#C0C0C0" fill-rule="nonzero" stroke-linecap="round" stroke-linejoin="round" points="117.494899 196.479076 121.923779 196.198245 123.904067 194.754424 129.316843 193.441825 131.590948 204.173444 123.06225 205.827013 119.215057 206.244363"></polygon>
                <polygon id="p36" fill="#B3B3B3" fill-rule="nonzero" stroke-linecap="round" stroke-linejoin="round" points="129.439416 193.416259 131.291532 192.098463 135.52495 191.571359 137.509357 189.594641 143.003528 194.668808 137.764964 199.327947 131.590948 204.173444"></polygon>
                <polygon id="p35" fill="#B3B3B3" fill-rule="nonzero" stroke-linecap="round" stroke-linejoin="round" points="137.537394 189.597026 143.987533 189.202819 146.949337 187.49455 149.911142 185.786305 155.555394 184.330073 147.472114 192.055094 143.004238 194.656726"></polygon>
                <polygon id="p34" fill="#C3877C" fill-rule="nonzero" stroke-linecap="round" stroke-linejoin="round" points="123.163483 216.631973 138.347191 211.74709 143.003528 236.217948 136.581567 245.075087 127.39602 238.86472"></polygon>
                <path d="M114.255708,244.843924 C114.255708,244.843924 127.517598,238.798102 127.517598,238.798102 C127.517598,238.798102 127.517598,238.798102 127.517598,238.798102 L136.727596,244.96594 L129.037984,250.542138 L121.723482,248.869271 L114.255708,244.843924 Z" id="p33" fill="#1A1A1A" fill-rule="nonzero" stroke-linecap="round" stroke-linejoin="round"></path>
                <polygon id="p32" fill="#1A1A1A" fill-rule="nonzero" stroke-linecap="round" stroke-linejoin="round" points="136.525146 244.955087 150.767867 248.112337 155.211557 243.736396 143.090275 236.069537"></polygon>
                <polygon id="p31" fill="#1A1A1A" fill-rule="nonzero" stroke-linecap="round" stroke-linejoin="round" points="136.69644 244.872603 129.034517 250.542163 129.034517 250.542163 135.014547 253.376905 138.378333 253.376905 140.620841 252.431991 146.974655 250.542163 150.899057 248.085351"></polygon>
                <path d="M146.850068,250.542138 C150.766544,248.112323 150.766544,248.112323 150.766544,248.112323 L155.128006,243.75488 L171.480448,223.930339 L196.458766,220.263094 L206.7162,214.09513 L208.394697,215.964217 L207.648712,220.636897 L193.474777,227.926294 L183.776826,234.094258 L165.126957,244.374174 L157.853487,246.803964 L150.766544,248.112323 L150.766544,248.112323 L150.766544,248.112323 L146.850068,250.542138 Z" id="p30" fill="#C3877C" fill-rule="nonzero" stroke-linecap="round" stroke-linejoin="round"></path>
                <polygon id="p29" fill="#B97E6C" fill-rule="nonzero" stroke-linecap="round" stroke-linejoin="round" points="166.690113 201.085573 184.910562 193.441825 171.443275 224.016816"></polygon>
                <polygon id="p28" fill="#C68B83" fill-rule="nonzero" stroke-linecap="round" stroke-linejoin="round" points="184.910562 193.239342 207.787349 185.760982 206.886835 214.196512 196.599655 220.355128 171.548899 224.016816"></polygon>
                <polygon id="p27" fill="#424242" fill-rule="nonzero" stroke-linecap="round" stroke-linejoin="round" points="64.4531462 120.345326 84.1603832 118.641885 88.5446294 115.283242 83.7143646 116.197811 64.4952753 118.379535"></polygon>
                <polygon id="p26" fill="#A95E4C" fill-rule="nonzero" stroke-linecap="round" stroke-linejoin="round" points="220.03554 99.6920214 217.940208 102.850597 217.302473 106.370176 219.21563 111.062939 221.037675 114.853245 225.957186 123.787543 226.412697 114.672769 223.770742 103.662804"></polygon>
                <polygon id="p25" fill="#CA8B79" fill-rule="nonzero" stroke-linecap="round" stroke-linejoin="round" points="218.11227 95.6423539 220.737331 95.7508211 223.554312 97.5669297 226.007798 100.926716 223.736047 103.741689 220.010365 99.7462551"></polygon>
                <polygon id="p24" fill="#C87F71" fill-rule="nonzero" stroke-linecap="round" stroke-linejoin="round" points="218.241103 95.6423539 212.241237 102.006732 215.145345 111.436057 217.414159 106.449391 218.049453 102.913378 220.136765 99.7400536"></polygon>
                <polygon id="p23" fill="#C68570" fill-rule="nonzero" stroke-linecap="round" stroke-linejoin="round" points="200.701619 113.663375 215.075529 111.367374 212.170931 101.919339"></polygon>
                <polygon id="p22" fill="#C6856E" fill-rule="nonzero" stroke-linecap="round" stroke-linejoin="round" points="200.701619 113.710327 204.513286 122.37016 208.449399 117.915121 211.081685 115.575473 215.075529 111.436057"></polygon>
                <polygon id="p21" fill="#CE8C72" fill-rule="nonzero" stroke-linecap="round" stroke-linejoin="round" points="217.251062 106.373973 214.995821 111.351681 211.02654 115.514856 218.333609 128.275933 227.174228 130.267012 228.437192 124.293752 225.821069 123.841231 220.949707 114.881341"></polygon>
                <path d="M223.780855,103.69668 C223.780855,103.69668 226.066576,100.906922 226.066576,100.906922 L226.066576,100.906922 L227.255156,104.32664 L228.626589,108.646286 L229.449439,113.055906 L226.432282,114.675791 L223.780855,103.69668 Z" id="p20" fill="#CB9789" fill-rule="nonzero" stroke-linecap="round" stroke-linejoin="round"></path>
                <polygon id="p19" fill="#CC9482" fill-rule="nonzero" stroke-linecap="round" stroke-linejoin="round" points="226.448939 114.672544 229.36111 113.055924 229.449439 117.007622 229.096459 120.061205 228.566964 124.19251 226.007798 123.743453"></polygon>
                <polygon id="p18" fill="#B46F66" fill-rule="nonzero" stroke-linecap="round" stroke-linejoin="round" points="218.426227 128.242178 216.451555 133.113412 212.412444 135.188224 210.976305 139.247586 211.514863 142.404862 210.419192 145.250781 223.991196 142.404862 227.222495 130.226752"></polygon>
                <polygon id="p17" fill="#A05A2C" fill-rule="nonzero" stroke-linecap="round" stroke-linejoin="round" points="204.548158 122.305644 208.440693 117.834077 211.043835 115.485725 218.31472 128.220973 216.339919 133.09828 212.300544 135.175654 210.864313 139.240101 211.402906 142.401313 210.307162 145.250781 207.520359 140.016481 208.317649 130.997628"></polygon>
                <polygon id="p16" fill="#CC8D7B" fill-rule="nonzero" stroke-linecap="round" stroke-linejoin="round" points="223.893448 142.416014 223.983304 151.321299 223.803836 153.390195 222.457241 156.718419 217.143259 157.399784 209.204495 156.052092 210.319325 145.253853"></polygon>
                <rect id="Rectangle" x="0.15" y="0.15" width="255.7" height="255.7"></rect>
            </g>
        </g>
    </g>
</svg>