<?xml version="1.0" encoding="UTF-8"?>
<svg width="128px" height="128px" viewBox="0 0 128 128" version="1.1" xmlns="http://www.w3.org/2000/svg" xmlns:xlink="http://www.w3.org/1999/xlink">
    <title>julianda-icon-128</title>
    <g id="Page-1" stroke="none" stroke-width="1" fill="none" fill-rule="evenodd">
        <g id="julianda-icon" stroke="#212121" stroke-width="0.1">
            <g id="Group">
                <polygon id="p153" fill="#A17C73" fill-rule="nonzero" stroke-linecap="round" stroke-linejoin="round" points="61.2780676 1.35124169 51.0543709 2.69363131 59.7222957 19.473504"></polygon>
                <path d="M61.2270617,1.35124169 C61.2270617,1.35124169 59.6584721,19.4273119 59.6584721,19.4273119 L59.6584721,19.4273119 L72.1091125,20.4859209 L61.2270617,1.35124169" id="p152" fill="#906A67" fill-rule="nonzero" stroke-linecap="round" stroke-linejoin="round"></path>
                <polygon id="p150" fill="#805D5B" fill-rule="nonzero" stroke-linecap="round" stroke-linejoin="round" points="61.2780676 1.3666958 69.9011821 1.25 72.1091125 20.4859209"></polygon>
                <path d="M69.9833934,1.25 C85.2683261,3.93041541 85.2683261,3.93041541 85.2683261,3.93041541 L72.1894714,20.4859209 L69.9833934,1.25" id="p149" fill="#816164" fill-rule="nonzero" stroke-linecap="round" stroke-linejoin="round"></path>
                <polygon id="p148" fill="#2E254D" fill-rule="nonzero" stroke-linecap="round" stroke-linejoin="round" points="72.2103373 20.4879071 84.009716 28.0790476 85.2683261 3.88228391"></polygon>
                <path d="M85.2913775,3.88228391 C96.638377,11.1266898 96.9535707,10.9692028 96.638377,11.1266898 C96.3231832,11.2841769 96.3231832,11.2841769 96.3231832,11.2841769 L84.6609778,15.9300449 L85.2913775,3.88228391 Z" id="p147" fill="#9C776B" fill-rule="nonzero" stroke-linecap="round" stroke-linejoin="round"></path>
                <path d="M84.559753,15.9987019 C98.9336632,24.9405552 98.9336632,24.9405552 98.9336632,24.9405552 L96.5643434,11.1716855 L84.559753,15.9987019 Z" id="p146" fill="#745760" fill-rule="nonzero" stroke-linecap="round" stroke-linejoin="round"></path>
                <path d="M96.6054947,11.1716855 C105.715719,23.199663 105.715719,23.6744515 105.715719,23.6744515 L98.9615809,24.9405552 L96.6054947,11.1716855 Z" id="p145" fill="#CAA9A0" fill-rule="nonzero" stroke-linecap="round" stroke-linejoin="round"></path>
                <polygon id="p144" fill="#3C3054" fill-rule="nonzero" stroke-linecap="round" stroke-linejoin="round" points="84.583193 16.0312866 83.9524047 28.0790476 98.9336632 24.9293073"></polygon>
                <path d="M83.9524047,28.1084391 L86.1631594,31.1179301 L103.691225,34.7609991 C103.691225,34.7609991 98.9539076,24.9405552 98.9539076,24.9405552 L98.9539076,24.9405552 L83.9524047,28.1084391 Z" id="p143" fill="#694C5D" fill-rule="nonzero" stroke-linecap="round" stroke-linejoin="round"></path>
                <path d="M105.715719,23.6244133 C103.665325,34.6597574 103.665325,34.6597574 103.665325,34.6597574 L103.665325,34.6597574 C103.665325,34.6597574 98.9336632,24.8855961 98.9336632,24.8855961 L98.9336632,24.8855961 L105.715719,23.6244133 Z" id="p142" fill="#7F615D" fill-rule="nonzero" stroke-linecap="round" stroke-linejoin="round"></path>
                <polygon id="p141" fill="#6C5358" fill-rule="nonzero" stroke-linecap="round" stroke-linejoin="round" points="103.691225 34.6597574 110.169607 34.1868143 105.745351 23.6244133"></polygon>
                <polygon id="p140" fill="#282045" fill-rule="nonzero" stroke-linecap="round" stroke-linejoin="round" points="86.1793485 31.1162983 98.3272381 42.1516424 103.691225 34.7421983"></polygon>
                <path d="M98.3263149,42.1516424 C108.550012,42.1516424 108.550012,42.1516424 108.550012,42.1516424 L103.674088,34.7609991 L98.3263149,42.1516424 Z" id="p139" fill="#5B4358" fill-rule="nonzero" stroke-linecap="round" stroke-linejoin="round"></path>
                <path d="M103.691225,34.7286016 C110.169607,34.2547906 110.169607,34.2547906 110.169607,34.2547906 L108.589508,42.1516424 L103.691225,34.7286016 Z" id="p138" fill="#574353" fill-rule="nonzero" stroke-linecap="round" stroke-linejoin="round"></path>
                <path d="M98.3263149,42.1516424 C105.246975,48.4286271 105.246975,48.4286271 105.246975,48.4286271 L108.550012,42.1516424 L98.3263149,42.1516424 Z" id="p137" fill="#61444D" fill-rule="nonzero" stroke-linecap="round" stroke-linejoin="round"></path>
                <path d="M105.310821,48.4286271 C108.58796,42.1516424 108.58796,42.1516424 108.58796,42.1516424 L108.58796,42.1516424 L109.056135,47.8009262 L105.310821,48.4286271" id="p136" fill="#231B33" fill-rule="nonzero" stroke-linecap="round" stroke-linejoin="round"></path>
                <path d="M98.3263149,42.1403981 L98.3263149,42.1403981 L94.7020519,42.4553674 C94.7020519,42.4553674 83.0413822,31.9037325 83.0413822,32.0612208 C83.0413822,32.2187091 83.0413822,32.2187091 83.0413822,32.2187091 L86.1929169,31.1162983 L98.3263149,42.1403981 Z" id="p135" fill="#624C68" fill-rule="nonzero" stroke-linecap="round" stroke-linejoin="round"></path>
                <path d="M83.0174937,32.1287151 L72.1091125,20.4859209 C72.1091125,20.4859209 83.9660465,28.0380025 83.9660465,28.0380025 L83.9660465,28.0380025 L86.1793485,31.0273689 L83.0174937,32.1287151 Z" id="p134" fill="#5C4559" fill-rule="nonzero" stroke-linecap="round" stroke-linejoin="round"></path>
                <path d="M59.7596968,19.473504 C72.1396729,20.5301586 72.1396729,20.5301586 72.1396729,20.5301586 C72.1396729,20.5301586 72.1396729,20.5301586 72.1396729,20.5301586 C72.1396729,20.5301586 77.5752474,26.3579389 77.5752474,26.3579389 L77.5752474,26.3579389 L61.5836171,23.9953257 L59.7596968,19.473504 Z" id="p133" fill="#2D244D" fill-rule="nonzero" stroke-linecap="round" stroke-linejoin="round"></path>
                <path d="M51.0580875,2.66738365 C37.9208568,8.61669863 37.7630876,8.61669863 37.9208568,8.61669863 C38.078626,8.61669863 59.7596968,19.3722623 59.7596968,19.3722623 L51.0580875,2.66738365 Z" id="p132" fill="#A98575" fill-rule="nonzero" stroke-linecap="round" stroke-linejoin="round"></path>
                <polygon id="p131" fill="#B08981" fill-rule="nonzero" stroke-linecap="round" stroke-linejoin="round" points="37.8951574 8.6406433 38.2110646 23.3206882 59.7596968 19.4204389"></polygon>
                <path d="M61.5275844,23.9281383 C61.5275844,23.9281383 56.6237017,27.0822054 56.9400804,27.0822054 C57.2564615,27.0822054 57.2564615,27.0822054 57.2564615,27.0822054 L83.0413822,32.1287151 L77.583832,26.2936886 L61.5275844,23.9281383 Z" id="p130" fill="#2A244A" fill-rule="nonzero" stroke-linecap="round" stroke-linejoin="round"></path>
                <polygon id="p129" fill="#221D31" fill-rule="nonzero" stroke-linecap="round" stroke-linejoin="round" points="94.682225 42.4654867 105.310821 48.4286271 98.3308512 42.1516424"></polygon>
                <polygon id="p128" fill="#45426A" fill-rule="nonzero" stroke-linecap="round" stroke-linejoin="round" points="38.1988315 23.2868031 40.2534001 28.9902228 59.7596968 19.3722623"></polygon>
                <path d="M40.2233259,28.9902228 C56.9936359,27.0890833 56.9936359,27.0890833 56.9936359,27.0890833 L61.5817417,23.9205175 L59.7502113,19.3722623 L40.2233259,28.9902228 Z" id="p127" fill="#494664" fill-rule="nonzero" stroke-linecap="round" stroke-linejoin="round"></path>
                <polygon id="p126" fill="#36365E" fill-rule="nonzero" stroke-linecap="round" stroke-linejoin="round" points="40.2233259 29.0616871 41.4830117 32.5336819 57.2290788 27.1678724"></polygon>
                <polygon id="p125" fill="#271E39" fill-rule="nonzero" stroke-linecap="round" stroke-linejoin="round" points="41.5392473 32.5336819 70.1858429 29.6929599 57.3224975 27.1678724"></polygon>
                <path d="M38.1988315,23.3206882 C25.2420675,17.480241 25.2420675,17.480241 25.2420675,17.480241 C25.2420675,17.480241 37.8828137,8.6406433 37.8828137,8.6406433 C37.8828137,8.6406433 37.8828137,8.6406433 37.8828137,8.6406433 L38.1988315,23.3206882 Z" id="p124" fill="#826267" fill-rule="nonzero" stroke-linecap="round" stroke-linejoin="round"></path>
                <polygon id="p123" fill="#302E58" fill-rule="nonzero" stroke-linecap="round" stroke-linejoin="round" points="38.1695037 23.3206882 26.7944952 28.5310187 23.3187978 36.5833495 40.2233259 29.004685"></polygon>
                <polygon id="p122" fill="#9A7A82" fill-rule="nonzero" stroke-linecap="round" stroke-linejoin="round" points="25.2420675 17.5499119 26.8221617 28.585256 38.1988315 23.3828795"></polygon>
                <polygon id="p121" fill="#2D2851" fill-rule="nonzero" stroke-linecap="round" stroke-linejoin="round" points="23.3187978 36.5931498 27.4153165 38.8106666 27.4153165 38.8106666 41.4380226 32.4748972 40.1775542 28.9902228"></polygon>
                <path d="M15.3220449,28.4840143 C26.861663,28.4840143 26.861663,28.4840143 26.861663,28.4840143 L23.3839702,36.5833495 L15.3220449,28.4840143 Z" id="p120" fill="#584A64" fill-rule="nonzero" stroke-linecap="round" stroke-linejoin="round"></path>
                <path d="M25.2808925,17.5499119 C15.3220449,28.585256 15.3220449,28.585256 15.3220449,28.585256 L26.861663,28.585256 L25.2808925,17.5499119 Z" id="p119" fill="#6A566C" fill-rule="nonzero" stroke-linecap="round" stroke-linejoin="round"></path>
                <path d="M23.3708577,36.5833495 C16.5931378,45.9087064 16.4355169,45.5925854 16.4355169,45.5925854 L27.4690113,38.7961427 L23.3708577,36.5833495 Z" id="p118" fill="#2E2753" fill-rule="nonzero" stroke-linecap="round" stroke-linejoin="round"></path>
                <polygon id="p117" fill="#5C4E66" fill-rule="nonzero" stroke-linecap="round" stroke-linejoin="round" points="15.2420441 28.4840143 13.5 33.2483306 23.3187978 36.5833495"></polygon>
                <path d="M13.5,33.3436154 C13.6583661,38.2032165 13.6583661,38.2032165 13.6583661,38.2032165 L23.3187978,36.6356024 L13.5,33.3436154 Z" id="p116" fill="#503E58" fill-rule="nonzero" stroke-linecap="round" stroke-linejoin="round"></path>
                <polygon id="p115" fill="#7C697C" fill-rule="nonzero" stroke-linecap="round" stroke-linejoin="round" points="13.7024494 38.1641426 16.3824156 45.5938598 23.3187978 36.5833495"></polygon>
                <polygon id="p114" fill="#281F3A" fill-rule="nonzero" stroke-linecap="round" stroke-linejoin="round" points="15.0149957 41.8479173 14.0061236 50.9596693 16.3342921 45.571845"></polygon>
                <polygon id="p113" fill="#5E5375" fill-rule="nonzero" stroke-linecap="round" stroke-linejoin="round" points="14.0061236 50.9596693 14.0061236 50.9596693 17.6502135 50.8018481 16.3827033 45.5938598"></polygon>
                <polygon id="p112" fill="#261F3D" fill-rule="nonzero" stroke-linecap="round" stroke-linejoin="round" points="17.614785 50.7571859 20.2820562 54.0981617 14.0061236 50.9162835"></polygon>
                <polygon id="p111" fill="#1A1A1A" fill-rule="nonzero" stroke-linecap="round" stroke-linejoin="round" points="20.3832809 54.0981617 25.4533197 54.2561636 27.6714607 74.9539496"></polygon>
                <path d="M30.8062653,50.1497358 L31.5180001,42.9871075 C31.5180001,42.9871075 30.2358203,41.5949606 27.6714607,38.8106666 C27.1791877,41.5738701 26.7742888,44.1466718 26.4567641,46.5290718 L30.8062653,50.1497358 Z" id="p110" fill="#2A2141" fill-rule="nonzero" stroke-linecap="round" stroke-linejoin="round"></path>
                <path d="M35.5669888,47.1605627 L30.8034739,50.1497358 C30.8034739,50.1497358 31.5179993,42.991436 31.5179993,42.991436 C31.5179993,42.991436 27.4690123,38.8223217 35.5669888,47.1605627 L35.5669888,47.1605627 Z" id="p109" fill="#2A2043" fill-rule="nonzero" stroke-linecap="round" stroke-linejoin="round"></path>
                <polygon id="p108" fill="#212121" fill-rule="nonzero" stroke-linecap="round" stroke-linejoin="round" points="30.809427 50.2179195 25.4445169 54.300645 26.4701613 46.6062767"></polygon>
                <path d="M35.4657641,47.2137268 C46.3980338,41.8468303 46.3980338,41.8468303 46.3980338,41.8468303 L41.4864342,32.5336819 L35.4657641,47.2137268 Z" id="p107" fill="#2B223E" fill-rule="nonzero" stroke-linecap="round" stroke-linejoin="round"></path>
                <path d="M46.3980338,41.8479173 C63.4037867,36.9555593 63.4037867,36.9555593 63.4037867,36.9555593 L55.8063113,31.1162983 L46.3980338,41.8479173 Z" id="p106" fill="#1F1831" fill-rule="nonzero" stroke-linecap="round" stroke-linejoin="round"></path>
                <path d="M63.5050114,36.8870745 C83.0413822,32.1331173 83.0413822,32.1331173 83.0413822,32.1331173 L70.2009465,29.5976729 L63.5050114,36.8870745 Z" id="p105" stroke-linecap="round" stroke-linejoin="round"></path>
                <polygon id="p104" fill="#212121" fill-rule="nonzero" stroke-linecap="round" stroke-linejoin="round" points="63.4037867 36.9493795 94.682225 42.4553674 82.9922989 32.2299568"></polygon>
                <polygon id="p103" fill="#25213B" fill-rule="nonzero" stroke-linecap="round" stroke-linejoin="round" points="63.5050114 36.8870745 70.2009465 29.5976729 83.0413822 32.1331173"></polygon>
                <polygon id="p102" fill="#212121" fill-rule="nonzero" stroke-linecap="round" stroke-linejoin="round" points="79.0936182 39.7218418 90.2733154 48.124902 94.682225 42.470497"></polygon>
                <polygon id="p101" fill="#251D35" fill-rule="nonzero" stroke-linecap="round" stroke-linejoin="round" points="90.329562 48.1142501 105.310821 48.4286271 94.745101 42.4553674"></polygon>
                <path d="M17.6964883,50.8584276 C27.4690113,38.8106666 27.4690113,38.8106666 27.4690113,38.8106666 L16.4355169,45.6271561 L17.6964883,50.8584276 Z" id="p100" fill="#221C37" fill-rule="nonzero" stroke-linecap="round" stroke-linejoin="round"></path>
                <polygon id="p99" fill="#26213A" fill-rule="nonzero" stroke-linecap="round" stroke-linejoin="round" points="27.4690113 38.8106666 25.4102323 54.300645 20.3424642 54.1425804 17.6502135 50.823309"></polygon>
                <polyline id="p98" fill="#201932" fill-rule="nonzero" stroke-linecap="round" stroke-linejoin="round" points="27.4690113 38.8507927 35.5228336 47.2137268 41.5237191 32.5391526 46.4191786 41.8488303 55.8547822 31.1190336 55.8547822 31.1190336 63.4743243 36.9573031 63.4743243 36.9573031 70.1858429 29.6989146 55.8547822 31.1190336 41.5237191 32.5391526 27.4690113 38.8507927"></polyline>
                <polygon id="p97" fill="#251D34" fill-rule="nonzero" stroke-linecap="round" stroke-linejoin="round" points="90.329562 48.124902 100.422203 56.8316873 105.310821 48.4415072"></polygon>
                <polygon id="p96" fill="#212121" fill-rule="nonzero" stroke-linecap="round" stroke-linejoin="round" points="100.368416 56.8200117 101.160607 68.6769649 90.2283373 48.124902"></polygon>
                <path d="M100.350809,56.8316873 C109.056135,47.8211769 109.056135,47.8211769 109.056135,47.8211769 L105.257446,48.453495 L100.350809,56.8316873 Z" id="p95" fill="#945759" fill-rule="nonzero" stroke-linecap="round" stroke-linejoin="round"></path>
                <polyline id="p94" fill="#BC7C5D" fill-rule="nonzero" stroke-linecap="round" stroke-linejoin="round" points="101.232305 68.6769649 101.232305 68.6769649 101.232305 68.6769649 104.197349 65.5182225 100.452034 56.8316873 101.232305 68.6769649"></polyline>
                <polygon id="p93" fill="#CF9379" fill-rule="nonzero" stroke-linecap="round" stroke-linejoin="round" points="25.3432922 54.2460231 30.1294461 50.4534608 35.4579278 47.1124851 49.8396743 56.4653504 45.5882361 57.6416208 41.7795737 58.0505824 32.1390629 59.1602461"></polygon>
                <path d="M35.4657641,47.2137268 L46.4524133,41.7719909 L63.4904661,36.8870745 L65.2258316,50.9115054 C60.9405489,52.681291 57.7182287,53.9628668 55.5588709,54.7562326 C53.3995131,55.5495985 51.5082052,56.1468118 49.884947,56.5478727 L35.4657641,47.2137268 Z" id="p92" fill="#CF9379" fill-rule="nonzero" stroke-linecap="round" stroke-linejoin="round"></path>
                <polygon id="p91" fill="#CF9379" fill-rule="nonzero" stroke-linecap="round" stroke-linejoin="round" points="65.1431396 50.9596693 75.7025901 49.0360772 87.5964946 45.7417339 79.0578889 39.6541611 63.4037867 36.8870745"></polygon>
                <polygon id="p90" fill="#212121" fill-rule="nonzero" stroke-linecap="round" stroke-linejoin="round" points="65.1772124 50.9596693 57.4986781 53.7289434 56.8241799 58.552796 56.8241799 58.552796 64.1791846 57.6879173 69.2748204 54.8530229"></polygon>
                <polyline id="p89" fill="#212121" fill-rule="nonzero" stroke-linecap="round" stroke-linejoin="round" points="65.2258316 51.00808 74.5499826 49.0360772 83.142607 54.1379946 74.9820158 53.2716362 69.3175922 54.9080952 65.2258316 51.00808"></polyline>
                <polygon id="p88" fill="#CF9379" fill-rule="nonzero" stroke-linecap="round" stroke-linejoin="round" points="41.8429214 58.121263 43.2631397 63.0336735 51.7857135 64.3235722 56.8609532 58.5906793 57.532753 53.7944366 49.884947 56.5478727"></polygon>
                <polygon id="p87" fill="#CF9379" fill-rule="nonzero" stroke-linecap="round" stroke-linejoin="round" points="51.7629439 64.3404435 60.6081949 68.0695147 64.2135844 57.7428625 56.8585739 58.6034117"></polygon>
                <polygon id="p86" fill="#AC7067" fill-rule="nonzero" stroke-linecap="round" stroke-linejoin="round" points="62.8976631 61.6912883 69.2135109 58.4721395 74.2374758 58.2799611 81.6538042 60.4901116 83.0413822 54.0518263 74.907341 53.1869865 69.2613461 54.820577 64.1895338 57.6553443"></polygon>
                <polygon id="p85" fill="#D6D6D6" fill-rule="nonzero" stroke-linecap="round" stroke-linejoin="round" points="62.9988878 65.0322641 67.3068161 61.1850799 67.3068161 61.1850799 69.1735957 64.9360767"></polygon>
                <path d="M71.602989,59.7676962 C73.2258708,63.2099137 73.2258708,63.2099137 73.2258708,63.2099137 L77.4740227,61.1736759 L71.602989,59.7676962 Z" id="p84" fill="#D6D6D6" fill-rule="nonzero" stroke-linecap="round" stroke-linejoin="round"></path>
                <path d="M67.3515507,61.2019589 C68.1782071,60.6723271 68.8361678,60.3246588 69.3254328,60.1589541 C69.8146978,59.9932494 70.5683536,59.8628301 71.5864002,59.7676962 L73.2225845,63.1621155 L69.2283645,64.9310224 L67.3515507,61.2019589 Z" id="p83" fill="#212121" fill-rule="nonzero" stroke-linecap="round" stroke-linejoin="round"></path>
                <polygon id="p82" fill="#472241" fill-rule="nonzero" stroke-linecap="round" stroke-linejoin="round" points="63.0462323 65.0309761 61.1768429 65.8421976 62.9024331 61.7383611 69.2295728 58.5411796 74.2625198 58.3503126 77.4740227 61.1657356 71.5782806 59.7818763 67.3601833 61.2134523"></polygon>
                <path d="M74.2348317,58.2490709 C81.6390171,60.4717817 81.6390171,60.4717817 81.6390171,60.4717817 L82.7377081,62.5012218 L77.4353541,61.0999482 L74.2348317,58.2490709 Z" id="p81" fill="#653E59" fill-rule="nonzero" stroke-linecap="round" stroke-linejoin="round"></path>
                <polygon id="p80" fill="#6C3450" fill-rule="nonzero" stroke-linecap="round" stroke-linejoin="round" points="61.1430915 65.8484303 60.5694945 68.0695147 68.6477873 66.2347112 69.1735957 64.9310224 63.0073214 65.0275616"></polygon>
                <polygon id="p79" fill="#B6736B" fill-rule="nonzero" stroke-linecap="round" stroke-linejoin="round" points="68.6674721 66.2471643 69.1939118 64.9577544 77.4254775 61.1850799 82.7377081 62.569984"></polygon>
                <polygon id="p78" fill="#D6D6D6" fill-rule="nonzero" stroke-linecap="round" stroke-linejoin="round" points="44.717704 67.5633063 44.5759889 70.2968319 47.410281 69.6370112"></polygon>
                <polygon id="p77" fill="#D6D6D6" fill-rule="nonzero" stroke-linecap="round" stroke-linejoin="round" points="38.918347 67.8670314 39.109854 70.600557 35.5669888 70.2588694"></polygon>
                <polyline id="p76" fill="#212121" fill-rule="nonzero" stroke-linecap="round" stroke-linejoin="round" points="38.9074046 67.8254954 41.2153282 67.0570978 44.6772136 67.4893253 44.5329677 70.2747678 41.7923078 70.8030403 39.0997324 70.5148805 38.9074046 67.8254954"></polyline>
                <polygon id="p75" fill="#212121" fill-rule="nonzero" stroke-linecap="round" stroke-linejoin="round" points="42.064371 59.2614878 32.2118333 60.1277133 29.4856452 61.9564199 28.5290865 64.3626224 28.4812585 67.538795 29.724783 69.9931068 30.1074062 67.1537977 30.7769953 65.1807264 33.1683895 64.0738682 37.4728961 63.5926277 43.2600675 62.9670225"></polygon>
                <polygon id="p74" fill="#CF9379" fill-rule="nonzero" stroke-linecap="round" stroke-linejoin="round" points="42.0453709 59.3207763 32.1950979 60.1824518 29.4695365 62.0015528 28.5131977 64.3951164 28.4653806 67.5546055 29.7086193 69.9960256 27.6492369 74.9539496 26.0267264 59.5122516 25.4445169 54.300645 32.216159 59.1880681 41.822441 58.0844561"></polygon>
                <polygon id="p73" fill="#CF9379" fill-rule="nonzero" stroke-linecap="round" stroke-linejoin="round" points="43.2600675 63.0074303 44.6931352 67.4899463 47.4159668 69.5881401 51.7629439 64.2949594"></polygon>
                <path d="M44.6772136,67.5302312 L41.2020575,67.0971937 L38.8852867,67.8670314 C38.8852867,67.8670314 37.3890338,63.632918 37.3890338,63.632918 L37.3890338,63.632918 L43.2292282,63.0074303 L44.6772136,67.5302312 Z" id="p72" fill="#472241" fill-rule="nonzero" stroke-linecap="round" stroke-linejoin="round"></path>
                <polygon id="p71" fill="#AC7067" fill-rule="nonzero" stroke-linecap="round" stroke-linejoin="round" points="37.491913 63.6148804 33.1608253 64.0916591 30.754665 65.1882551 30.0809386 67.1430331 29.6959551 69.9560178 32.390857 71.8154572 34.2195389 67.9058766 38.5025057 66.5709036"></polygon>
                <path d="M35.5455633,70.2416052 C35.5455633,70.2416052 32.3277978,71.9166989 32.3277978,71.9166989 L32.3277978,71.9166989 L34.152798,67.9921987 L38.4271419,66.6521311 L38.9074046,67.8964839 L35.5455633,70.2416052 Z" id="p70" fill="#472241" fill-rule="nonzero" stroke-linecap="round" stroke-linejoin="round"></path>
                <path d="M51.7504258,64.3235722 C48.7330397,85.2014761 49.0035062,85.3368653 48.7330397,85.2014761 C48.4625756,85.066087 56.3060735,89.127786 56.3060735,89.127786 L62.3915395,84.1183506 L51.7504258,64.3235722" id="p69" fill="#CF9379" fill-rule="nonzero" stroke-linecap="round" stroke-linejoin="round"></path>
                <path d="M66.8309717,85.4830852 C66.9665342,85.4830852 66.9665342,85.4830852 66.9665342,85.4830852 L70.0846182,81.9577032 C70.0846182,81.9577032 68.8024384,80.7367773 66.2380788,78.2949253 L62.4927642,84.1271662 C66.8309717,85.4830852 66.695397,85.4830852 66.8309717,85.4830852 Z" id="p68" fill="#CF9379" fill-rule="nonzero" stroke-linecap="round" stroke-linejoin="round"></path>
                <polygon id="p67" fill="#CF9379" fill-rule="nonzero" stroke-linecap="round" stroke-linejoin="round" points="66.2380788 78.3308815 51.7629439 64.3235722 62.4390872 84.1669433"></polygon>
                <path d="M62.4927591,84.0657016 C62.4927591,84.0657016 56.419281,89.114425 56.419281,89.114425 L56.419281,89.114425 C56.419281,89.114425 56.933968,90.6682203 56.9804428,90.8091784 C57.0269115,90.9501364 57.0269115,90.9501364 57.0269115,90.9501364 L61.8137329,86.2045893 L66.9466519,85.4302238 L62.4927591,84.0657016" id="p66" fill="#A76562" fill-rule="nonzero" stroke-linecap="round" stroke-linejoin="round"></path>
                <polyline id="p65" fill="#CF9379" fill-rule="nonzero" stroke-linecap="round" stroke-linejoin="round" points="56.3180563 89.1475452 49.5407116 89.0565315 47.9507216 90.1402029 44.6772136 87.1247563 48.7127067 85.1793602 56.3180563 89.1474831"></polyline>
                <polygon id="p64" fill="#7D415A" fill-rule="nonzero" stroke-linecap="round" stroke-linejoin="round" points="57.0266294 90.9501364 48.0176293 90.1056254 49.6129741 89.0265444 56.4131436 89.1171725"></polygon>
                <path d="M57.0266294,90.9501364 C57.0266294,90.9501364 61.8135875,86.250035 61.8135875,86.250035 L61.8135875,86.250035 L66.9466519,85.4830852 L57.0266294,90.9501364 Z" id="p63" fill="#5F2B4F" fill-rule="nonzero" stroke-linecap="round" stroke-linejoin="round"></path>
                <polygon id="p62" stroke-linecap="round" stroke-linejoin="round" points="51.7629439 64.3235722 66.2266364 78.2949253 75.7532024 70.0628027 75.7287199 64.3953618 60.5823875 68.0568114"></polygon>
                <polygon id="p61" fill="#CF9379" fill-rule="nonzero" stroke-linecap="round" stroke-linejoin="round" points="51.7629439 64.3235722 66.2266364 78.2949253 75.7532024 70.0628027 75.7287199 64.3953618 60.5823875 68.0568114"></polygon>
                <path d="M32.3277978,71.8182795 C41.3447541,72.3216657 41.3447541,72.3216657 41.3447541,72.3216657 L47.410281,69.5881401 L41.7903741,70.774387 L35.5460367,70.1575337 L32.3277978,71.8182795 Z" id="p60" fill="#4A2D56" fill-rule="nonzero" stroke-linecap="round" stroke-linejoin="round"></path>
                <polyline id="p59" fill="#DDA788" fill-rule="nonzero" stroke-linecap="round" stroke-linejoin="round" points="51.7629439 64.3235722 47.3954066 69.6368497 41.3347383 72.3944338 32.3250049 71.8866172 29.6372876 70.0197823 27.570236 74.9773154 28.4334346 79.2941376 43.2044902 80.3197591 50.0290936 76.9165375 51.7629439 64.3235722"></polyline>
                <polygon id="p58" fill="#CF9379" fill-rule="nonzero" stroke-linecap="round" stroke-linejoin="round" points="66.2380788 78.2767907 70.0846182 81.9396261 79.6352543 77.5480447 82.8389328 62.5012218 75.7704829 64.3478059"></polygon>
                <path d="M104.199505,65.5384725 C104.199505,65.5384725 103.606088,69.8630667 103.700413,69.9565913 C103.79475,70.0501159 103.79475,70.0501159 103.79475,70.0501159 L105.209596,72.6685456 L104.64366,78.0924419 L101.059382,73.8842421 L101.16938,68.7007496 L104.199505,65.5384725 Z" id="p57" fill="#C57F5E" fill-rule="nonzero" stroke-linecap="round" stroke-linejoin="round"></path>
                <polygon id="p56" fill="#CF9379" fill-rule="nonzero" stroke-linecap="round" stroke-linejoin="round" points="79.5435603 77.6123058 91.6053946 83.9644599 104.602247 78.0793843 101.049145 73.8757518 101.158186 68.6978853 90.2498594 48.1654737 87.5623096 45.7963432 74.4372811 49.0435645 83.0297347 54.127011 81.6376552 60.5532512 82.7417182 62.5674479"></polygon>
                <polygon id="p55" fill="#CF9379" fill-rule="nonzero" stroke-linecap="round" stroke-linejoin="round" points="38.4906017 66.6521311 43.9686405 65.2914456 43.2541154 63.0074303 37.4902585 63.6391731"></polygon>
                <polyline id="p54" fill="#CF9379" fill-rule="nonzero" stroke-linecap="round" stroke-linejoin="round" points="44.6772136 87.1029523 45.5824402 82.1421095 48.7262024 85.1883596 44.6772136 87.1029523"></polyline>
                <polygon id="p53" fill="#CF9379" fill-rule="nonzero" stroke-linecap="round" stroke-linejoin="round" points="45.5882361 82.1104452 50.0421237 76.8775417 48.7391743 85.1793602"></polygon>
                <polygon id="p52" fill="#DDA788" fill-rule="nonzero" stroke-linecap="round" stroke-linejoin="round" points="43.2600675 80.3083874 45.6427378 82.1421095 50.0421237 76.8775417"></polygon>
                <polygon id="p51" fill="#CF9379" fill-rule="nonzero" stroke-linecap="round" stroke-linejoin="round" points="70.0846182 81.9850668 82.7809159 87.2014834 83.4414244 100.568097 92.5565059 96.7301598 91.6978608 83.9497081 79.6478917 77.5862335"></polygon>
                <path d="M91.6454834,83.8717552 C91.6454834,83.8717552 104.652962,77.9912003 104.652962,77.9912003 L104.652962,77.9912003 L108.651236,78.6668842 L103.886978,92.7915044 L92.5056766,96.619671 L91.6454834,83.8717552" id="p50" fill="#CF9379" fill-rule="nonzero" stroke-linecap="round" stroke-linejoin="round"></path>
                <polygon id="p49" fill="#CF9379" fill-rule="nonzero" stroke-linecap="round" stroke-linejoin="round" points="56.9254046 90.9319171 66.9050405 85.4578869 70.0280136 81.9396261 82.7377081 87.13428 79.960623 90.0336814 72.687326 92.6694852 66.0752222 93.9873871"></polygon>
                <polygon id="p48" fill="#CF9379" fill-rule="nonzero" stroke-linecap="round" stroke-linejoin="round" points="56.9254046 90.9338136 52.5915684 97.1686402 48.760986 98.8864336 44.5341377 99.1507132 39.9110212 97.9614669 39.9110212 97.9614669 39.5147529 88.8439652 44.6898739 87.1029523 47.9589097 90.0928856"></polygon>
                <polygon id="p47" fill="#DDA788" fill-rule="nonzero" stroke-linecap="round" stroke-linejoin="round" points="45.5882361 82.1581088 44.689664 87.1564678 39.5283558 88.8976029 39.9235664 98.0157441 36.234945 103.301622 33.7449439 97.3283628 31.5397933 92.1650367 29.6959551 85.4830852 28.4812585 79.3073422 43.199234 80.3351947"></polygon>
                <path d="M82.7441353,87.1029523 L79.9773202,90.0110811 L78.0010272,93.8444984 L74.8389633,98.0744962 L72.5991588,102.172305 L69.9641055,105.080421 L69.1735957,105.873545 C69.1735957,105.873545 69.9641096,109.927286 71.5451375,118.034768 L77.6057784,121.868198 C77.5179372,122.04445 77.4740165,122.132577 77.4740165,122.132577 L85.7744497,111.954157 L83.4028956,100.453868 L82.7441353,87.1029523 Z" id="p46" fill="#CF9379" fill-rule="nonzero" stroke-linecap="round" stroke-linejoin="round"></path>
                <path d="M39.9683187,98.0370547 C39.9683187,98.0370547 36.2755619,103.312567 36.2755619,103.312567 L36.2755619,103.312567 L39.8364366,107.796751 L43.9248434,112.017168 L50.9147033,117.68835 L57.1132595,122.436302 L63.7074608,119.402894 L61.5973176,108.324311 L57.9045632,108.324311 L53.8161564,106.477876 L49.463978,102.389361 L48.8045576,101.993692 L48.8045576,98.960272 L44.584265,99.2240519 L39.9683187,98.0370547 Z" id="p45" fill="#DDA788" fill-rule="nonzero" stroke-linecap="round" stroke-linejoin="round"></path>
                <polygon id="p44" fill="#8D5060" fill-rule="nonzero" stroke-linecap="round" stroke-linejoin="round" points="48.7262024 100.49486 52.1070606 99.8594051 53.9898878 102.261932 51.588627 104.415281 48.7262024 101.997693"></polygon>
                <path d="M51.6617192,104.36499 C51.6617192,104.36499 54.0448929,102.187964 54.0448929,102.187964 L54.0448929,102.187964 L57.4084554,103.122182 L61.6129045,102.935333 L61.9866406,104.803756 L61.6377742,108.262465 L57.9380462,108.262465 L53.8419185,106.412814 L51.6617192,104.36499 Z" id="p43" fill="#814254" fill-rule="nonzero" stroke-linecap="round" stroke-linejoin="round"></path>
                <polygon id="p42" fill="#884259" fill-rule="nonzero" stroke-linecap="round" stroke-linejoin="round" points="61.6067056 108.262465 69.1667918 105.88195 72.6152361 102.178931 68.8970218 99.6569217 65.8020999 102.088327 61.5817417 102.929962 61.9568913 104.800269"></polygon>
                <path d="M68.8699215,99.6696992 C68.8699215,99.6696992 71.4933414,97.2419042 71.4933414,97.3352776 C71.4933414,97.4286633 71.4933414,97.4286633 71.4933414,97.4286633 L73.7419923,96.0280251 L75.6158619,94.2538563 L80.0046407,90.0389612 L78.0170996,93.8685264 L74.8370388,98.0942734 L72.5844865,102.187964 L68.8699215,99.6696992 Z" id="p41" fill="#884259" fill-rule="nonzero" stroke-linecap="round" stroke-linejoin="round"></path>
                <polygon id="p40" fill="#743155" fill-rule="nonzero" stroke-linecap="round" stroke-linejoin="round" points="48.8274271 98.9539649 52.6585267 97.243828 60.0565089 96.8491876 66.1334209 94.0866558 72.7387719 92.7711715 80.0046407 90.1402029 77.8168076 92.2395751 74.9845818 92.9684917 72.0121776 94.6786287 68.7755662 94.8759489 67.7847648 95.8625744 65.6710461 96.1256639 64.7463088 96.783406 62.0381117 97.4411604 61.0473103 98.1646719 58.8014942 98.2962228 57.6785855 98.6250938 56.1593587 98.5593981 55.2346103 99.01982 52.18215 99.8271671 48.8274271 100.466855"></polygon>
                <polygon id="p39" fill="#CC9A91" fill-rule="nonzero" stroke-linecap="round" stroke-linejoin="round" points="52.5221293 97.3283628 56.9804428 90.8091784 66.1368541 94.0343706 60.0653568 96.8280335"></polygon>
                <polygon id="p38" fill="#C0C0C0" fill-rule="nonzero" stroke-linecap="round" stroke-linejoin="round" points="52.1678428 99.7642224 55.2019785 98.9601765 56.1211755 98.5016372 57.631282 98.5670644 58.7474496 98.239538 59.6075284 103.122182 57.4084554 103.122182 54.0248993 102.172747"></polygon>
                <polygon id="p37" fill="#C0C0C0" fill-rule="nonzero" stroke-linecap="round" stroke-linejoin="round" points="58.7474496 98.239538 60.9618894 98.0991224 61.9520335 97.3772118 64.6584216 96.7209127 65.7954741 102.086722 61.5311251 102.913507 59.6075284 103.122182"></polygon>
                <polygon id="p36" fill="#B3B3B3" fill-rule="nonzero" stroke-linecap="round" stroke-linejoin="round" points="64.719708 96.7081294 65.645766 96.0492315 67.7624752 95.7856797 68.7546784 94.7973206 71.5017642 97.3344041 68.8824819 99.6639735 65.7954741 102.086722"></polygon>
                <polygon id="p35" fill="#B3B3B3" fill-rule="nonzero" stroke-linecap="round" stroke-linejoin="round" points="68.7686968 94.798513 71.9937663 94.6014097 73.4746686 93.7472748 74.9555709 92.8931523 77.7776968 92.1650367 73.736057 96.027547 71.5021192 97.3283628"></polygon>
                <polygon id="p34" fill="#C3877C" fill-rule="nonzero" stroke-linecap="round" stroke-linejoin="round" points="61.5817417 108.315986 69.1735957 105.873545 71.5017642 118.108974 68.2907836 122.537543 63.6980099 119.43236"></polygon>
                <path d="M57.1278541,122.421962 C57.1278541,122.421962 63.7587992,119.399051 63.7587992,119.399051 C63.7587992,119.399051 63.7587992,119.399051 63.7587992,119.399051 L68.3637979,122.48297 L64.5189919,125.271069 L60.8617409,124.434636 L57.1278541,122.421962 Z" id="p33" fill="#1A1A1A" fill-rule="nonzero" stroke-linecap="round" stroke-linejoin="round"></path>
                <polygon id="p32" fill="#1A1A1A" fill-rule="nonzero" stroke-linecap="round" stroke-linejoin="round" points="68.2625732 122.477543 75.3839333 124.056169 77.6057784 121.868198 71.5451375 118.034768"></polygon>
                <polygon id="p31" fill="#1A1A1A" fill-rule="nonzero" stroke-linecap="round" stroke-linejoin="round" points="68.3482201 122.436302 64.5172586 125.271081 64.5172586 125.271081 67.5072734 126.688453 69.1891667 126.688453 70.3104207 126.215996 73.4873276 125.271081 75.4495283 124.042676"></polygon>
                <path d="M73.4250339,125.271069 C75.383272,124.056161 75.383272,124.056161 75.383272,124.056161 L77.5640031,121.87744 L85.740224,111.96517 L98.2293831,110.131547 L103.3581,107.047565 L104.197349,107.982108 L103.824356,110.318448 L96.7373887,113.963147 L91.8884129,117.047129 L82.5634784,122.187087 L78.9267434,123.401982 L75.383272,124.056161 L75.383272,124.056161 L75.383272,124.056161 L73.4250339,125.271069 Z" id="p30" fill="#C3877C" fill-rule="nonzero" stroke-linecap="round" stroke-linejoin="round"></path>
                <polygon id="p29" fill="#B97E6C" fill-rule="nonzero" stroke-linecap="round" stroke-linejoin="round" points="83.3450564 100.542786 92.4552812 96.7209127 85.7216373 112.008408"></polygon>
                <polygon id="p28" fill="#C68B83" fill-rule="nonzero" stroke-linecap="round" stroke-linejoin="round" points="92.4552812 96.619671 103.893674 92.8804909 103.443418 107.098256 98.2998273 110.177564 85.7744497 112.008408"></polygon>
                <polygon id="p27" fill="#424242" fill-rule="nonzero" stroke-linecap="round" stroke-linejoin="round" points="32.2265731 60.172663 42.0801916 59.3209425 44.2723147 57.6416208 41.8571823 58.0989055 32.2476377 59.1897675"></polygon>
                <polygon id="p26" fill="#A95E4C" fill-rule="nonzero" stroke-linecap="round" stroke-linejoin="round" points="110.01777 49.8460107 108.970104 51.4252987 108.651236 53.185088 109.607815 55.5314697 110.518837 57.4266227 112.978593 61.8937717 113.206349 57.3363844 111.885371 51.8314021"></polygon>
                <polygon id="p25" fill="#CA8B79" fill-rule="nonzero" stroke-linecap="round" stroke-linejoin="round" points="109.056135 47.8211769 110.368665 47.8754106 111.777156 48.7834649 113.003899 50.4633579 111.868024 51.8708445 110.005183 49.8731275"></polygon>
                <polygon id="p24" fill="#C87F71" fill-rule="nonzero" stroke-linecap="round" stroke-linejoin="round" points="109.120552 47.8211769 106.120618 51.0033658 107.572672 55.7180287 108.707079 53.2246953 109.024727 51.456689 110.068382 49.8700268"></polygon>
                <polygon id="p23" fill="#C68570" fill-rule="nonzero" stroke-linecap="round" stroke-linejoin="round" points="100.350809 56.8316873 107.537764 55.683687 106.085466 50.9596693"></polygon>
                <polygon id="p22" fill="#C6856E" fill-rule="nonzero" stroke-linecap="round" stroke-linejoin="round" points="100.350809 56.8551637 102.256643 61.1850799 104.2247 58.9575605 105.540843 57.7877367 107.537764 55.7180287"></polygon>
                <polygon id="p21" fill="#CE8C72" fill-rule="nonzero" stroke-linecap="round" stroke-linejoin="round" points="108.625531 53.1869865 107.497911 55.6758405 105.51327 57.757428 109.166804 64.1379666 113.587114 65.1335058 114.218596 62.1468759 112.910535 61.9206153 110.474853 57.4406706"></polygon>
                <path d="M111.890427,51.84834 C111.890427,51.84834 113.033288,50.4534608 113.033288,50.4534608 L113.033288,50.4534608 L113.627578,52.1633198 L114.313295,54.323143 L114.724719,56.5279528 L113.216141,57.3378957 L111.890427,51.84834 Z" id="p20" fill="#CB9789" fill-rule="nonzero" stroke-linecap="round" stroke-linejoin="round"></path>
                <polygon id="p19" fill="#CC9482" fill-rule="nonzero" stroke-linecap="round" stroke-linejoin="round" points="113.22447 57.3362722 114.680555 56.5279622 114.724719 58.5038108 114.548229 60.0306024 114.283482 62.0962551 113.003899 61.8717265"></polygon>
                <polygon id="p18" fill="#B46F66" fill-rule="nonzero" stroke-linecap="round" stroke-linejoin="round" points="109.213114 64.1210889 108.225778 66.5567059 106.206222 67.594112 105.488153 69.6237928 105.757432 71.2024308 105.209596 72.6253907 111.995598 71.2024308 113.611248 65.1133759"></polygon>
                <polygon id="p17" fill="#A05A2C" fill-rule="nonzero" stroke-linecap="round" stroke-linejoin="round" points="102.274079 61.1528219 104.220346 58.9170385 105.521918 57.7428625 109.15736 64.1104865 108.16996 66.54914 106.150272 67.5878271 105.432156 69.6200507 105.701453 71.2006567 105.153581 72.6253907 103.76018 70.0082406 104.158824 65.4988142"></polygon>
                <polygon id="p16" fill="#CC8D7B" fill-rule="nonzero" stroke-linecap="round" stroke-linejoin="round" points="111.946724 71.2080071 111.991652 75.6606494 111.901918 76.6950973 111.228621 78.3592097 108.57163 78.6998921 104.602247 78.0260462 105.159662 72.6269263"></polygon>
                <rect id="Rectangle" x="0.05" y="0.05" width="127.9" height="127.9"></rect>
            </g>
        </g>
    </g>
</svg>