<?xml version="1.0" encoding="UTF-8"?>
<svg width="144px" height="144px" viewBox="0 0 144 144" version="1.1" xmlns="http://www.w3.org/2000/svg" xmlns:xlink="http://www.w3.org/1999/xlink">
    <title>julianda-icon-144</title>
    <g id="Page-1" stroke="none" stroke-width="1" fill="none" fill-rule="evenodd">
        <g id="julianda-icon" stroke="#212121" stroke-width="0.1">
            <g id="Group">
                <polygon id="p153" fill="#A17C73" fill-rule="nonzero" stroke-linecap="round" stroke-linejoin="round" points="68.937826 1.5201469 57.4361673 3.03033522 67.1875827 21.907692"></polygon>
                <path d="M68.8804445,1.5201469 C68.8804445,1.5201469 67.1157811,21.8557259 67.1157811,21.8557259 L67.1157811,21.8557259 L81.1227516,23.046661 L68.8804445,1.5201469" id="p152" fill="#906A67" fill-rule="nonzero" stroke-linecap="round" stroke-linejoin="round"></path>
                <polygon id="p150" fill="#805D5B" fill-rule="nonzero" stroke-linecap="round" stroke-linejoin="round" points="68.937826 1.53753278 78.6388298 1.40625 81.1227516 23.046661"></polygon>
                <path d="M78.7313176,1.40625 C95.9268668,4.42171734 95.9268668,4.42171734 95.9268668,4.42171734 L81.2131553,23.046661 L78.7313176,1.40625" id="p149" fill="#816164" fill-rule="nonzero" stroke-linecap="round" stroke-linejoin="round"></path>
                <polygon id="p148" fill="#2E254D" fill-rule="nonzero" stroke-linecap="round" stroke-linejoin="round" points="81.2366294 23.0488955 94.5109305 31.5889285 95.9268668 4.3675694"></polygon>
                <path d="M95.9527997,4.3675694 C108.718174,12.5175261 109.072767,12.3403531 108.718174,12.5175261 C108.363581,12.694699 108.363581,12.694699 108.363581,12.694699 L95.2436,17.9213005 L95.9527997,4.3675694 Z" id="p147" fill="#9C776B" fill-rule="nonzero" stroke-linecap="round" stroke-linejoin="round"></path>
                <path d="M95.1297222,17.9985397 C111.300371,28.0581246 111.300371,28.0581246 111.300371,28.0581246 L108.634886,12.5681462 L95.1297222,17.9985397 Z" id="p146" fill="#745760" fill-rule="nonzero" stroke-linecap="round" stroke-linejoin="round"></path>
                <path d="M108.681181,12.5681462 C118.930184,26.0996209 118.930184,26.6337579 118.930184,26.6337579 L111.331779,28.0581246 L108.681181,12.5681462 Z" id="p145" fill="#CAA9A0" fill-rule="nonzero" stroke-linecap="round" stroke-linejoin="round"></path>
                <polygon id="p144" fill="#3C3054" fill-rule="nonzero" stroke-linecap="round" stroke-linejoin="round" points="95.1560921 18.0351974 94.4464553 31.5889285 111.300371 28.0454707"></polygon>
                <path d="M94.4464553,31.621994 L96.9335543,35.0076713 L116.652628,39.1061239 C116.652628,39.1061239 111.323146,28.0581246 111.323146,28.0581246 L111.323146,28.0581246 L94.4464553,31.621994 Z" id="p143" fill="#694C5D" fill-rule="nonzero" stroke-linecap="round" stroke-linejoin="round"></path>
                <path d="M118.930184,26.5774649 C116.623491,38.992227 116.623491,38.992227 116.623491,38.992227 L116.623491,38.992227 C116.623491,38.992227 111.300371,27.9962956 111.300371,27.9962956 L111.300371,27.9962956 L118.930184,26.5774649 Z" id="p142" fill="#7F615D" fill-rule="nonzero" stroke-linecap="round" stroke-linejoin="round"></path>
                <polygon id="p141" fill="#6C5358" fill-rule="nonzero" stroke-linecap="round" stroke-linejoin="round" points="116.652628 38.992227 123.940808 38.460166 118.963519 26.5774649"></polygon>
                <polygon id="p140" fill="#282045" fill-rule="nonzero" stroke-linecap="round" stroke-linejoin="round" points="96.9517671 35.0058355 110.618143 47.4205976 116.652628 39.0849731"></polygon>
                <path d="M110.617104,47.4205976 C122.118763,47.4205976 122.118763,47.4205976 122.118763,47.4205976 L116.633349,39.1061239 L110.617104,47.4205976 Z" id="p139" fill="#5B4358" fill-rule="nonzero" stroke-linecap="round" stroke-linejoin="round"></path>
                <path d="M116.652628,39.0696768 C123.940808,38.5366394 123.940808,38.5366394 123.940808,38.5366394 L122.163196,47.4205976 L116.652628,39.0696768 Z" id="p138" fill="#574353" fill-rule="nonzero" stroke-linecap="round" stroke-linejoin="round"></path>
                <path d="M110.617104,47.4205976 C118.402847,54.4822055 118.402847,54.4822055 118.402847,54.4822055 L122.118763,47.4205976 L110.617104,47.4205976 Z" id="p137" fill="#61444D" fill-rule="nonzero" stroke-linecap="round" stroke-linejoin="round"></path>
                <path d="M118.474673,54.4822055 C122.161455,47.4205976 122.161455,47.4205976 122.161455,47.4205976 L122.161455,47.4205976 L122.688152,53.7760419 L118.474673,54.4822055" id="p136" fill="#231B33" fill-rule="nonzero" stroke-linecap="round" stroke-linejoin="round"></path>
                <path d="M110.617104,47.4079479 L110.617104,47.4079479 L106.539808,47.7622883 C106.539808,47.7622883 93.421555,35.891699 93.421555,36.0688734 C93.421555,36.2460477 93.421555,36.2460477 93.421555,36.2460477 L96.9670315,35.0058355 L110.617104,47.4079479 Z" id="p135" fill="#624C68" fill-rule="nonzero" stroke-linecap="round" stroke-linejoin="round"></path>
                <path d="M93.3946805,36.1448045 L81.1227516,23.046661 C81.1227516,23.046661 94.4618023,31.5427528 94.4618023,31.5427528 L94.4618023,31.5427528 L96.9517671,34.90579 L93.3946805,36.1448045 Z" id="p134" fill="#5C4559" fill-rule="nonzero" stroke-linecap="round" stroke-linejoin="round"></path>
                <path d="M67.2296589,21.907692 C81.157132,23.0964284 81.157132,23.0964284 81.157132,23.0964284 C81.157132,23.0964284 81.157132,23.0964284 81.157132,23.0964284 C81.157132,23.0964284 87.2721533,29.6526812 87.2721533,29.6526812 L87.2721533,29.6526812 L69.2815692,26.9947415 L67.2296589,21.907692 Z" id="p133" fill="#2D244D" fill-rule="nonzero" stroke-linecap="round" stroke-linejoin="round"></path>
                <path d="M57.4403484,3.0008066 C42.6609639,9.69378596 42.4834736,9.69378596 42.6609639,9.69378596 C42.8384542,9.69378596 67.2296589,21.7937951 67.2296589,21.7937951 L57.4403484,3.0008066 Z" id="p132" fill="#A98575" fill-rule="nonzero" stroke-linecap="round" stroke-linejoin="round"></path>
                <polygon id="p131" fill="#B08981" fill-rule="nonzero" stroke-linecap="round" stroke-linejoin="round" points="42.6320521 9.72072371 42.9874476 26.2357742 67.2296589 21.8479937"></polygon>
                <path d="M69.2185325,26.9191556 C69.2185325,26.9191556 63.7016644,30.4674811 64.0575904,30.4674811 C64.4135192,30.4674811 64.4135192,30.4674811 64.4135192,30.4674811 L93.421555,36.1448045 L87.281811,29.5803997 L69.2185325,26.9191556 Z" id="p130" fill="#2A244A" fill-rule="nonzero" stroke-linecap="round" stroke-linejoin="round"></path>
                <polygon id="p129" fill="#221D31" fill-rule="nonzero" stroke-linecap="round" stroke-linejoin="round" points="106.517503 47.7736725 118.474673 54.4822055 110.622208 47.4205976"></polygon>
                <polygon id="p128" fill="#45426A" fill-rule="nonzero" stroke-linecap="round" stroke-linejoin="round" points="42.9736855 26.1976535 45.2850751 32.6140006 67.2296589 21.7937951"></polygon>
                <path d="M45.2512417,32.6140006 C64.1178404,30.4752187 64.1178404,30.4752187 64.1178404,30.4752187 L69.2794594,26.9105822 L67.2189877,21.7937951 L45.2512417,32.6140006 Z" id="p127" fill="#494664" fill-rule="nonzero" stroke-linecap="round" stroke-linejoin="round"></path>
                <polygon id="p126" fill="#36365E" fill-rule="nonzero" stroke-linecap="round" stroke-linejoin="round" points="45.2512417 32.694398 46.6683882 36.6003921 64.3827136 30.5638564"></polygon>
                <polygon id="p125" fill="#271E39" fill-rule="nonzero" stroke-linecap="round" stroke-linejoin="round" points="46.7316532 36.6003921 78.9590732 33.4045798 64.4878097 30.5638564"></polygon>
                <path d="M42.9736855,26.2357742 C28.3973259,19.6652711 28.3973259,19.6652711 28.3973259,19.6652711 C28.3973259,19.6652711 42.6181654,9.72072371 42.6181654,9.72072371 C42.6181654,9.72072371 42.6181654,9.72072371 42.6181654,9.72072371 L42.9736855,26.2357742 Z" id="p124" fill="#826267" fill-rule="nonzero" stroke-linecap="round" stroke-linejoin="round"></path>
                <polygon id="p123" fill="#302E58" fill-rule="nonzero" stroke-linecap="round" stroke-linejoin="round" points="42.9406916 26.2357742 30.1438071 32.097396 26.2336475 41.1562681 45.2512417 32.6302706"></polygon>
                <polygon id="p122" fill="#9A7A82" fill-rule="nonzero" stroke-linecap="round" stroke-linejoin="round" points="28.3973259 19.7436509 30.1749319 32.158413 42.9736855 26.3057394"></polygon>
                <polygon id="p121" fill="#2D2851" fill-rule="nonzero" stroke-linecap="round" stroke-linejoin="round" points="26.2336475 41.1672935 30.8422311 43.6619999 30.8422311 43.6619999 46.6177754 36.5342593 45.1997485 32.6140006"></polygon>
                <path d="M17.2373006,32.0445161 C30.2193708,32.0445161 30.2193708,32.0445161 30.2193708,32.0445161 L26.3069664,41.1562681 L17.2373006,32.0445161 Z" id="p120" fill="#584A64" fill-rule="nonzero" stroke-linecap="round" stroke-linejoin="round"></path>
                <path d="M28.4410041,19.7436509 C17.2373006,32.158413 17.2373006,32.158413 17.2373006,32.158413 L30.2193708,32.158413 L28.4410041,19.7436509 Z" id="p119" fill="#6A566C" fill-rule="nonzero" stroke-linecap="round" stroke-linejoin="round"></path>
                <path d="M26.2922149,41.1562681 C18.6672801,51.6472947 18.4899565,51.2916585 18.4899565,51.2916585 L30.9026377,43.6456605 L26.2922149,41.1562681 Z" id="p118" fill="#2E2753" fill-rule="nonzero" stroke-linecap="round" stroke-linejoin="round"></path>
                <polygon id="p117" fill="#5C4E66" fill-rule="nonzero" stroke-linecap="round" stroke-linejoin="round" points="17.1472996 32.0445161 15.1875 37.404372 26.2336475 41.1562681"></polygon>
                <path d="M15.1875,37.5115673 C15.3656618,42.9786185 15.3656618,42.9786185 15.3656618,42.9786185 L26.2336475,41.2150527 L15.1875,37.5115673 Z" id="p116" fill="#503E58" fill-rule="nonzero" stroke-linecap="round" stroke-linejoin="round"></path>
                <polygon id="p115" fill="#7C697C" fill-rule="nonzero" stroke-linecap="round" stroke-linejoin="round" points="15.4152556 42.9346604 18.4302175 51.2930922 26.2336475 41.1562681"></polygon>
                <polygon id="p114" fill="#281F3A" fill-rule="nonzero" stroke-linecap="round" stroke-linejoin="round" points="16.8918702 47.0789069 15.756889 57.329628 18.3760787 51.2683256"></polygon>
                <polygon id="p113" fill="#5E5375" fill-rule="nonzero" stroke-linecap="round" stroke-linejoin="round" points="15.756889 57.329628 15.756889 57.329628 19.8564902 57.1520791 18.4305412 51.2930922"></polygon>
                <polygon id="p112" fill="#261F3D" fill-rule="nonzero" stroke-linecap="round" stroke-linejoin="round" points="19.8166331 57.1018342 22.8173132 60.8604319 15.756889 57.280819"></polygon>
                <polygon id="p111" fill="#1A1A1A" fill-rule="nonzero" stroke-linecap="round" stroke-linejoin="round" points="22.931191 60.8604319 28.6349847 61.038184 31.1303933 84.3231933"></polygon>
                <path d="M34.6570485,56.4184528 L35.4577501,48.360496 C35.4577501,48.360496 34.0152978,46.7943306 31.1303933,43.6619999 C30.5765862,46.7706038 30.1210749,49.6650058 29.7638596,52.3452058 L34.6570485,56.4184528 Z" id="p110" fill="#2A2141" fill-rule="nonzero" stroke-linecap="round" stroke-linejoin="round"></path>
                <path d="M40.0128624,53.055633 L34.6539082,56.4184528 C34.6539082,56.4184528 35.4577492,48.3653655 35.4577492,48.3653655 C35.4577492,48.3653655 30.9026388,43.6751119 40.0128624,53.055633 L40.0128624,53.055633 Z" id="p109" fill="#2A2043" fill-rule="nonzero" stroke-linecap="round" stroke-linejoin="round"></path>
                <polygon id="p108" fill="#212121" fill-rule="nonzero" stroke-linecap="round" stroke-linejoin="round" points="34.6606054 56.4951594 28.6250815 61.0882257 29.7789315 52.4320612"></polygon>
                <path d="M39.8989846,53.1154426 C52.197788,47.077684 52.197788,47.077684 52.197788,47.077684 L46.6722385,36.6003921 L39.8989846,53.1154426 Z" id="p107" fill="#2B223E" fill-rule="nonzero" stroke-linecap="round" stroke-linejoin="round"></path>
                <path d="M52.197788,47.0789069 C71.32926,41.5750042 71.32926,41.5750042 71.32926,41.5750042 L62.7821002,35.0058355 L52.197788,47.0789069 Z" id="p106" fill="#1F1831" fill-rule="nonzero" stroke-linecap="round" stroke-linejoin="round"></path>
                <path d="M71.4431378,41.4979588 C93.421555,36.149757 93.421555,36.149757 93.421555,36.149757 L78.9760649,33.297382 L71.4431378,41.4979588 Z" id="p105" stroke-linecap="round" stroke-linejoin="round"></path>
                <polygon id="p104" fill="#212121" fill-rule="nonzero" stroke-linecap="round" stroke-linejoin="round" points="71.32926 41.5680519 106.517503 47.7622883 93.3663362 36.2587014"></polygon>
                <polygon id="p103" fill="#25213B" fill-rule="nonzero" stroke-linecap="round" stroke-linejoin="round" points="71.4431378 41.4979588 78.9760649 33.297382 93.421555 36.149757"></polygon>
                <polygon id="p102" fill="#212121" fill-rule="nonzero" stroke-linecap="round" stroke-linejoin="round" points="88.9803205 44.687072 101.55748 54.1405148 106.517503 47.7793091"></polygon>
                <polygon id="p101" fill="#251D35" fill-rule="nonzero" stroke-linecap="round" stroke-linejoin="round" points="101.620757 54.1285314 118.474673 54.4822055 106.588239 47.7622883"></polygon>
                <path d="M19.9085493,57.2157311 C30.9026377,43.6619999 30.9026377,43.6619999 30.9026377,43.6619999 L18.4899565,51.3305507 L19.9085493,57.2157311 Z" id="p100" fill="#221C37" fill-rule="nonzero" stroke-linecap="round" stroke-linejoin="round"></path>
                <polygon id="p99" fill="#26213A" fill-rule="nonzero" stroke-linecap="round" stroke-linejoin="round" points="30.9026377 43.6619999 28.5865114 61.0882257 22.8852723 60.9104029 19.8564902 57.1762226"></polygon>
                <polyline id="p98" fill="#201932" fill-rule="nonzero" stroke-linecap="round" stroke-linejoin="round" points="30.9026377 43.7071418 39.9631878 53.1154426 46.714184 36.6065467 52.2215759 47.0799341 62.83663 35.0089128 62.83663 35.0089128 71.4086148 41.576966 71.4086148 41.576966 78.9590732 33.4112789 62.83663 35.0089128 46.714184 36.6065467 30.9026377 43.7071418"></polyline>
                <polygon id="p97" fill="#251D34" fill-rule="nonzero" stroke-linecap="round" stroke-linejoin="round" points="101.620757 54.1405148 112.974978 63.9356482 118.474673 54.4966956"></polygon>
                <polygon id="p96" fill="#212121" fill-rule="nonzero" stroke-linecap="round" stroke-linejoin="round" points="112.914468 63.9225131 113.805683 77.2615855 101.506879 54.1405148"></polygon>
                <path d="M112.89466,63.9356482 C122.688152,53.7988241 122.688152,53.7988241 122.688152,53.7988241 L118.414627,54.5101818 L112.89466,63.9356482 Z" id="p95" fill="#945759" fill-rule="nonzero" stroke-linecap="round" stroke-linejoin="round"></path>
                <polyline id="p94" fill="#BC7C5D" fill-rule="nonzero" stroke-linecap="round" stroke-linejoin="round" points="113.886344 77.2615855 113.886344 77.2615855 113.886344 77.2615855 117.222017 73.7080003 113.008538 63.9356482 113.886344 77.2615855"></polyline>
                <polygon id="p93" fill="#CF9379" fill-rule="nonzero" stroke-linecap="round" stroke-linejoin="round" points="28.5112037 61.026776 33.8956269 56.7601435 39.8901688 53.0015457 56.0696336 63.5235192 51.2867656 64.8468234 47.0020204 65.3069052 36.1564457 66.5552769"></polygon>
                <path d="M39.8989846,53.1154426 L52.258965,46.9934898 L71.4267744,41.4979588 L73.3790606,57.2754435 C68.5581176,59.2664524 64.9330073,60.7082252 62.5037298,61.6007617 C60.0744523,62.4932983 57.9467308,63.1651633 56.1205654,63.6163567 L39.8989846,53.1154426 Z" id="p92" fill="#CF9379" fill-rule="nonzero" stroke-linecap="round" stroke-linejoin="round"></path>
                <polygon id="p91" fill="#CF9379" fill-rule="nonzero" stroke-linecap="round" stroke-linejoin="round" points="73.286032 57.329628 85.1654138 55.1655869 98.5460564 51.4594507 88.940125 44.6109313 71.32926 41.4979588"></polygon>
                <polygon id="p90" fill="#212121" fill-rule="nonzero" stroke-linecap="round" stroke-linejoin="round" points="73.3243639 57.329628 64.6860129 60.4450613 63.9272024 65.8718955 63.9272024 65.8718955 72.2015827 64.898907 77.934173 61.7096508"></polygon>
                <polyline id="p89" fill="#212121" fill-rule="nonzero" stroke-linecap="round" stroke-linejoin="round" points="73.3790606 57.38409 83.8687304 55.1655869 93.5354328 60.905244 84.3547678 59.9305907 77.9822912 61.7716071 73.3790606 57.38409"></polyline>
                <polygon id="p88" fill="#CF9379" fill-rule="nonzero" stroke-linecap="round" stroke-linejoin="round" points="47.0732866 65.3864208 48.6710321 70.9128827 58.2589277 72.3640188 63.9685724 65.9145143 64.7243471 60.5187412 56.1205654 63.6163567"></polygon>
                <polygon id="p87" fill="#CF9379" fill-rule="nonzero" stroke-linecap="round" stroke-linejoin="round" points="58.2333119 72.3829989 68.1842192 76.5782041 72.2402825 64.9607203 63.9658956 65.9288382"></polygon>
                <polygon id="p86" fill="#AC7067" fill-rule="nonzero" stroke-linecap="round" stroke-linejoin="round" points="70.759871 69.4026994 77.8651998 65.781157 83.5171602 65.5649563 91.8605297 68.0513755 93.421555 60.8083046 84.2707586 59.8353598 77.9190144 61.6731491 72.2132255 64.8622623"></polygon>
                <polygon id="p85" fill="#D6D6D6" fill-rule="nonzero" stroke-linecap="round" stroke-linejoin="round" points="70.8737488 73.1612971 75.7201681 68.8332149 75.7201681 68.8332149 77.8202951 73.0530863"></polygon>
                <path d="M80.5533626,67.2386583 C82.3791047,71.1111529 82.3791047,71.1111529 82.3791047,71.1111529 L87.1582755,68.8203854 L80.5533626,67.2386583 Z" id="p84" fill="#D6D6D6" fill-rule="nonzero" stroke-linecap="round" stroke-linejoin="round"></path>
                <path d="M75.7704946,68.8522038 C76.700483,68.256368 77.4406887,67.8652411 77.9911119,67.6788233 C78.541535,67.4924055 79.3893978,67.3456838 80.5347002,67.2386583 L82.3754075,71.05738 L77.8819101,73.0474002 L75.7704946,68.8522038 Z" id="p83" fill="#212121" fill-rule="nonzero" stroke-linecap="round" stroke-linejoin="round"></path>
                <polygon id="p82" fill="#472241" fill-rule="nonzero" stroke-linecap="round" stroke-linejoin="round" points="70.9270113 73.1598481 68.8239482 74.0724723 70.7652372 69.4556562 77.8832694 65.858827 83.5453347 65.6441017 87.1582755 68.8114525 80.5255656 67.2546109 75.7802063 68.8651339"></polygon>
                <path d="M83.5141856,65.5302048 C91.8438942,68.0307544 91.8438942,68.0307544 91.8438942,68.0307544 L93.0799216,70.3138746 L87.1147734,68.7374417 L83.5141856,65.5302048 Z" id="p81" fill="#653E59" fill-rule="nonzero" stroke-linecap="round" stroke-linejoin="round"></path>
                <polygon id="p80" fill="#6C3450" fill-rule="nonzero" stroke-linecap="round" stroke-linejoin="round" points="68.7859779 74.0794841 68.1406814 76.5782041 77.2287607 74.5140502 77.8202951 73.0474002 70.8832365 73.1560068"></polygon>
                <polygon id="p79" fill="#B6736B" fill-rule="nonzero" stroke-linecap="round" stroke-linejoin="round" points="77.2509061 74.5280599 77.8431508 73.0774737 87.1036622 68.8332149 93.0799216 70.391232"></polygon>
                <polygon id="p78" fill="#D6D6D6" fill-rule="nonzero" stroke-linecap="round" stroke-linejoin="round" points="50.307417 76.0087196 50.1479875 79.0839359 53.3365661 78.3416376"></polygon>
                <polygon id="p77" fill="#D6D6D6" fill-rule="nonzero" stroke-linecap="round" stroke-linejoin="round" points="43.7831404 76.3504103 43.9985858 79.4256266 40.0128624 79.0412281"></polygon>
                <polyline id="p76" fill="#212121" fill-rule="nonzero" stroke-linecap="round" stroke-linejoin="round" points="43.7708301 76.3036823 46.3672442 75.4392351 50.2618653 75.925491 50.0995887 79.0591138 47.0163463 79.6534204 43.9871989 79.3292405 43.7708301 76.3036823"></polyline>
                <polygon id="p75" fill="#212121" fill-rule="nonzero" stroke-linecap="round" stroke-linejoin="round" points="47.3224174 66.6691738 36.2383125 67.6436775 33.1713508 69.7009723 32.0952223 72.4079502 32.0414158 75.9811444 33.4403809 78.7422452 33.870832 75.5480224 34.6241197 73.3283172 37.3144382 72.0831018 42.1570081 71.5417062 48.667576 70.8379003"></polygon>
                <polygon id="p74" fill="#CF9379" fill-rule="nonzero" stroke-linecap="round" stroke-linejoin="round" points="47.3010422 66.7358734 36.2194852 67.7052583 33.1532285 69.7517469 32.0773474 72.4445059 32.0235532 75.9989312 33.4221967 78.7455288 31.1053915 84.3231933 29.2800672 66.951283 28.6250815 61.0882257 36.2431789 66.5865767 47.0502461 65.3450131"></polygon>
                <polygon id="p73" fill="#CF9379" fill-rule="nonzero" stroke-linecap="round" stroke-linejoin="round" points="48.667576 70.8833591 50.2797771 75.9261896 53.3429626 78.2866576 58.2333119 72.3318293"></polygon>
                <path d="M50.2618653,75.9715101 L46.3523146,75.4843429 L43.7459476,76.3504103 C43.7459476,76.3504103 42.062663,71.5870327 42.062663,71.5870327 L42.062663,71.5870327 L48.6328817,70.8833591 L50.2618653,75.9715101 Z" id="p72" fill="#472241" fill-rule="nonzero" stroke-linecap="round" stroke-linejoin="round"></path>
                <polygon id="p71" fill="#AC7067" fill-rule="nonzero" stroke-linecap="round" stroke-linejoin="round" points="42.1784021 71.5667405 37.3059284 72.1031165 34.5989982 73.336787 33.841056 75.5359123 33.4079495 78.70052 36.4397141 80.7923894 38.4969813 76.3941112 43.3153189 74.8922665"></polygon>
                <path d="M39.9887587,79.0218059 C39.9887587,79.0218059 36.3687725,80.9062863 36.3687725,80.9062863 L36.3687725,80.9062863 L38.4218978,76.4912235 L43.2305346,74.9836475 L43.7708301,76.3835444 L39.9887587,79.0218059 Z" id="p70" fill="#472241" fill-rule="nonzero" stroke-linecap="round" stroke-linejoin="round"></path>
                <path d="M58.2192291,72.3640188 C54.8246696,95.8516606 55.1289445,96.0039734 54.8246696,95.8516606 C54.5203975,95.6993478 63.3443327,100.268759 63.3443327,100.268759 L70.1904819,94.6331444 L58.2192291,72.3640188" id="p69" fill="#CF9379" fill-rule="nonzero" stroke-linecap="round" stroke-linejoin="round"></path>
                <path d="M75.1848432,96.1684709 C75.337351,96.1684709 75.337351,96.1684709 75.337351,96.1684709 L78.8451954,92.2024161 C78.8451954,92.2024161 77.4027432,90.8288744 74.5178387,88.081791 L70.3043597,94.643062 C75.1848432,96.1684709 75.0323216,96.1684709 75.1848432,96.1684709 Z" id="p68" fill="#CF9379" fill-rule="nonzero" stroke-linecap="round" stroke-linejoin="round"></path>
                <polygon id="p67" fill="#CF9379" fill-rule="nonzero" stroke-linecap="round" stroke-linejoin="round" points="74.5178387 88.1222417 58.2333119 72.3640188 70.2439731 94.6878112"></polygon>
                <path d="M70.304354,94.5739143 C70.304354,94.5739143 63.4716912,100.253728 63.4716912,100.253728 L63.4716912,100.253728 C63.4716912,100.253728 64.050714,102.001748 64.1029982,102.160326 C64.1552755,102.318903 64.1552755,102.318903 64.1552755,102.318903 L69.5404495,96.9801629 L75.3149833,96.1090017 L70.304354,94.5739143" id="p66" fill="#A76562" fill-rule="nonzero" stroke-linecap="round" stroke-linejoin="round"></path>
                <polyline id="p65" fill="#CF9379" fill-rule="nonzero" stroke-linecap="round" stroke-linejoin="round" points="63.3578134 100.290988 55.7333005 100.188598 53.9445618 101.407728 50.2618653 98.0153509 54.801795 95.8267802 63.3578134 100.290918"></polyline>
                <polygon id="p64" fill="#7D415A" fill-rule="nonzero" stroke-linecap="round" stroke-linejoin="round" points="64.154958 102.318903 54.019833 101.368829 55.8145958 100.154862 63.4647865 100.256819"></polygon>
                <path d="M64.154958,102.318903 C64.154958,102.318903 69.540286,97.0312894 69.540286,97.0312894 L69.540286,97.0312894 L75.3149833,96.1684709 L64.154958,102.318903 Z" id="p63" fill="#5F2B4F" fill-rule="nonzero" stroke-linecap="round" stroke-linejoin="round"></path>
                <polygon id="p62" stroke-linecap="round" stroke-linejoin="round" points="58.2333119 72.3640188 74.5049659 88.081791 85.2223528 78.820653 85.1948099 72.444782 68.155186 76.5639128"></polygon>
                <polygon id="p61" fill="#CF9379" fill-rule="nonzero" stroke-linecap="round" stroke-linejoin="round" points="58.2333119 72.3640188 74.5049659 88.081791 85.2223528 78.820653 85.1948099 72.444782 68.155186 76.5639128"></polygon>
                <path d="M36.3687725,80.7955644 C46.5128484,81.3618739 46.5128484,81.3618739 46.5128484,81.3618739 L53.3365661,78.2866576 L47.0141708,79.6211854 L39.9892913,78.9272255 L36.3687725,80.7955644 Z" id="p60" fill="#4A2D56" fill-rule="nonzero" stroke-linecap="round" stroke-linejoin="round"></path>
                <polyline id="p59" fill="#DDA788" fill-rule="nonzero" stroke-linecap="round" stroke-linejoin="round" points="58.2333119 72.3640188 53.3198324 78.3414559 46.5015806 81.443738 36.3656306 80.8724443 33.3419486 78.7722551 31.0165155 84.3494798 31.987614 89.2059048 48.6050515 90.359729 56.2827304 86.5311047 58.2333119 72.3640188"></polyline>
                <polygon id="p58" fill="#CF9379" fill-rule="nonzero" stroke-linecap="round" stroke-linejoin="round" points="74.5178387 88.0613895 78.8451954 92.1820794 89.589661 87.2415503 93.1937994 70.3138746 85.2417933 72.3912816"></polygon>
                <path d="M117.224443,73.7307816 C117.224443,73.7307816 116.556849,78.5959501 116.662964,78.7011652 C116.769093,78.8063804 116.769093,78.8063804 116.769093,78.8063804 L118.360795,81.7521138 L117.724117,87.8539972 L113.691805,83.1197723 L113.815553,77.2883433 L117.224443,73.7307816 Z" id="p57" fill="#C57F5E" fill-rule="nonzero" stroke-linecap="round" stroke-linejoin="round"></path>
                <polygon id="p56" fill="#CF9379" fill-rule="nonzero" stroke-linecap="round" stroke-linejoin="round" points="89.4865053 87.313844 103.056069 94.4600174 117.677528 87.8393073 113.680288 83.1102208 113.80296 77.2851209 101.531092 54.1861579 98.5075983 51.520886 83.7419412 55.1740101 93.4084515 60.8928874 91.8423621 68.1224076 93.084433 70.3883789"></polygon>
                <polygon id="p55" fill="#CF9379" fill-rule="nonzero" stroke-linecap="round" stroke-linejoin="round" points="43.3019269 74.9836475 49.4647206 73.4528763 48.6608799 70.8833591 42.1765408 71.5940697"></polygon>
                <polyline id="p54" fill="#CF9379" fill-rule="nonzero" stroke-linecap="round" stroke-linejoin="round" points="50.2618653 97.9908213 51.2802452 92.4098732 54.8169777 95.8369045 50.2618653 97.9908213"></polyline>
                <polygon id="p53" fill="#CF9379" fill-rule="nonzero" stroke-linecap="round" stroke-linejoin="round" points="51.2867656 92.3742509 56.2973892 86.4872344 54.8315711 95.8267802"></polygon>
                <polygon id="p52" fill="#DDA788" fill-rule="nonzero" stroke-linecap="round" stroke-linejoin="round" points="48.667576 90.3469358 51.34808 92.4098732 56.2973892 86.4872344"></polygon>
                <polygon id="p51" fill="#CF9379" fill-rule="nonzero" stroke-linecap="round" stroke-linejoin="round" points="78.8451954 92.2332002 93.1285304 98.1016688 93.8716025 113.139109 104.126069 108.82143 103.160093 94.4434216 89.6038782 87.2845127"></polygon>
                <path d="M103.101169,94.3557246 C103.101169,94.3557246 117.734582,87.7401003 117.734582,87.7401003 L117.734582,87.7401003 L122.232641,88.5002448 L116.87285,104.390442 L104.068886,108.69713 L103.101169,94.3557246" id="p50" fill="#CF9379" fill-rule="nonzero" stroke-linecap="round" stroke-linejoin="round"></path>
                <polygon id="p49" fill="#CF9379" fill-rule="nonzero" stroke-linecap="round" stroke-linejoin="round" points="64.0410802 102.298407 75.2681706 96.1401227 78.7815154 92.1820794 93.0799216 98.026065 89.9557009 101.287892 81.7732418 104.253171 74.334625 105.735811"></polygon>
                <polygon id="p48" fill="#CF9379" fill-rule="nonzero" stroke-linecap="round" stroke-linejoin="round" points="64.0410802 102.30054 59.1655145 109.31472 54.8561092 111.247238 50.1009049 111.544552 44.8998988 110.20665 44.8998988 110.20665 44.454097 99.9494609 50.2761081 97.9908213 53.9537735 101.354496"></polygon>
                <polygon id="p47" fill="#DDA788" fill-rule="nonzero" stroke-linecap="round" stroke-linejoin="round" points="51.2867656 92.4278724 50.275872 98.0510262 44.4694003 100.009803 44.9140122 110.267712 40.7643131 116.214325 37.9630619 109.494408 35.4822675 103.685666 33.4079495 96.1684709 32.0414158 89.22076 48.5991383 90.377094"></polygon>
                <path d="M93.0871523,97.9908213 L89.9744852,101.262466 L87.7511556,105.575061 L84.1938337,110.333808 L81.6740536,114.943843 L78.7096187,118.215474 L77.8202951,119.107738 C77.8202951,119.107738 78.7096233,123.668197 80.4882797,132.789114 L87.3065007,137.101723 C87.2076793,137.300007 87.1582686,137.399149 87.1582686,137.399149 L96.4962559,125.948426 L93.8282575,113.010601 L93.0871523,97.9908213 Z" id="p46" fill="#CF9379" fill-rule="nonzero" stroke-linecap="round" stroke-linejoin="round"></path>
                <path d="M44.9643585,110.291687 C44.9643585,110.291687 40.8100071,116.226637 40.8100071,116.226637 L40.8100071,116.226637 L44.8159911,121.271345 L49.4154488,126.019314 L57.2790412,132.399393 L64.252417,137.740839 L71.6708934,134.328256 L69.2969823,121.86485 L65.1426336,121.86485 L60.543176,119.787611 L55.6469753,115.188032 L54.9051273,114.742903 L54.9051273,111.330306 L50.1572981,111.627058 L44.9643585,110.291687 Z" id="p45" fill="#DDA788" fill-rule="nonzero" stroke-linecap="round" stroke-linejoin="round"></path>
                <polygon id="p44" fill="#8D5060" fill-rule="nonzero" stroke-linecap="round" stroke-linejoin="round" points="54.8169777 113.056717 58.6204432 112.341831 60.7386237 115.044673 58.0372053 117.467191 54.8169777 114.747404"></polygon>
                <path d="M58.1194341,117.410614 C58.1194341,117.410614 60.8005045,114.961459 60.8005045,114.961459 L60.8005045,114.961459 L64.5845123,116.012454 L69.3145175,115.80225 L69.7349707,117.904226 L69.342496,121.795273 L65.180302,121.795273 L60.5721584,119.714416 L58.1194341,117.410614 Z" id="p43" fill="#814254" fill-rule="nonzero" stroke-linecap="round" stroke-linejoin="round"></path>
                <polygon id="p42" fill="#884259" fill-rule="nonzero" stroke-linecap="round" stroke-linejoin="round" points="69.3075438 121.795273 77.8126408 119.117194 81.6921407 114.951297 77.5091495 112.114037 74.0273624 114.849368 69.2794594 115.796207 69.7015027 117.900302"></polygon>
                <path d="M77.4786617,112.128412 C77.4786617,112.128412 80.4300091,109.397142 80.4300091,109.502187 C80.4300091,109.607246 80.4300091,109.607246 80.4300091,109.607246 L82.9597414,108.031528 L85.0678447,106.035588 L90.0052207,101.293831 L87.769237,105.602092 L84.1916686,110.356058 L81.6575473,114.961459 L77.4786617,112.128412 Z" id="p41" fill="#884259" fill-rule="nonzero" stroke-linecap="round" stroke-linejoin="round"></path>
                <polygon id="p40" fill="#743155" fill-rule="nonzero" stroke-linecap="round" stroke-linejoin="round" points="54.9308555 111.323211 59.2408425 109.399306 67.5635725 108.955336 74.4000985 105.847488 81.8311184 104.367568 90.0052207 101.407728 87.5439085 103.769522 84.3576546 104.589553 81.0136998 106.513457 77.372512 106.735442 76.2578604 107.845396 73.8799269 108.141372 72.8395974 108.881332 69.7928757 109.621305 68.6782241 110.435256 66.151681 110.583251 64.8884087 110.953231 63.1792786 110.879323 62.1389366 111.397298 58.7049188 112.305563 54.9308555 113.025212"></polygon>
                <polygon id="p39" fill="#CC9A91" fill-rule="nonzero" stroke-linecap="round" stroke-linejoin="round" points="59.0873955 109.494408 64.1029982 102.160326 74.4039609 105.788667 67.5735264 108.931538"></polygon>
                <polygon id="p38" fill="#C0C0C0" fill-rule="nonzero" stroke-linecap="round" stroke-linejoin="round" points="58.6888232 112.23475 62.1022259 111.330199 63.1363224 110.814342 64.8351922 110.887947 66.0908808 110.51948 67.0584694 116.012454 64.5845123 116.012454 60.7780118 114.94434"></polygon>
                <polygon id="p37" fill="#C0C0C0" fill-rule="nonzero" stroke-linecap="round" stroke-linejoin="round" points="66.0908808 110.51948 68.5821256 110.361513 69.6960377 109.549363 72.7407243 108.811027 74.0199084 114.847563 69.2225157 115.777695 67.0584694 116.012454"></polygon>
                <polygon id="p36" fill="#B3B3B3" fill-rule="nonzero" stroke-linecap="round" stroke-linejoin="round" points="72.8096715 108.796646 73.8514867 108.055385 76.2327846 107.75889 77.3490132 106.646986 80.4394848 109.501205 77.4927922 112.12197 74.0199084 114.847563"></polygon>
                <polygon id="p35" fill="#B3B3B3" fill-rule="nonzero" stroke-linecap="round" stroke-linejoin="round" points="77.3647839 106.648327 80.9929871 106.426586 82.6590022 105.465684 84.3250172 104.504796 87.4999089 103.685666 82.9530641 108.03099 80.4398841 109.494408"></polygon>
                <polygon id="p34" fill="#C3877C" fill-rule="nonzero" stroke-linecap="round" stroke-linejoin="round" points="69.2794594 121.855485 77.8202951 119.107738 80.4394848 132.872596 76.8271316 137.854736 71.6602611 134.361405"></polygon>
                <path d="M64.2688358,137.724707 C64.2688358,137.724707 71.7286491,134.323932 71.7286491,134.323932 C71.7286491,134.323932 71.7286491,134.323932 71.7286491,134.323932 L76.9092727,137.793342 L72.5838658,140.929953 L68.4694585,139.988965 L64.2688358,137.724707 Z" id="p33" fill="#1A1A1A" fill-rule="nonzero" stroke-linecap="round" stroke-linejoin="round"></path>
                <polygon id="p32" fill="#1A1A1A" fill-rule="nonzero" stroke-linecap="round" stroke-linejoin="round" points="76.7953949 137.787236 84.806925 139.56319 87.3065007 137.101723 80.4882797 132.789114"></polygon>
                <polygon id="p31" fill="#1A1A1A" fill-rule="nonzero" stroke-linecap="round" stroke-linejoin="round" points="76.8917476 137.740839 72.5819159 140.929967 72.5819159 140.929967 75.9456826 142.524509 77.8378126 142.524509 79.0992233 141.992995 82.6732436 140.929967 84.8807193 139.54801"></polygon>
                <path d="M82.6031631,140.929953 C84.806181,139.563182 84.806181,139.563182 84.806181,139.563182 L87.2595035,137.11212 L96.457752,125.960816 L110.508056,123.897991 L116.277863,120.428511 L117.222017,121.479872 L116.802401,124.108254 L108.829562,128.20854 L103.374465,131.67802 L92.8839131,137.460473 L88.7925864,138.82723 L84.806181,139.563182 L84.806181,139.563182 L84.806181,139.563182 L82.6031631,140.929953 Z" id="p30" fill="#C3877C" fill-rule="nonzero" stroke-linecap="round" stroke-linejoin="round"></path>
                <polygon id="p29" fill="#B97E6C" fill-rule="nonzero" stroke-linecap="round" stroke-linejoin="round" points="93.7631885 113.110635 104.012191 108.811027 96.436842 126.009459"></polygon>
                <polygon id="p28" fill="#C68B83" fill-rule="nonzero" stroke-linecap="round" stroke-linejoin="round" points="104.012191 108.69713 116.880384 104.490552 116.373845 120.485538 110.587306 123.94976 96.4962559 126.009459"></polygon>
                <polygon id="p27" fill="#424242" fill-rule="nonzero" stroke-linecap="round" stroke-linejoin="round" points="36.2548947 67.6942459 47.3402155 66.7360603 49.806354 64.8468234 47.0893301 65.3612687 36.2785924 66.5884884"></polygon>
                <polygon id="p26" fill="#A95E4C" fill-rule="nonzero" stroke-linecap="round" stroke-linejoin="round" points="123.769991 56.0767621 122.591367 57.8534611 122.232641 59.8332241 123.308792 62.4729034 124.333692 64.6049505 127.100917 69.6304932 127.357142 64.5034324 125.871042 58.3103273"></polygon>
                <polygon id="p25" fill="#CA8B79" fill-rule="nonzero" stroke-linecap="round" stroke-linejoin="round" points="122.688152 53.7988241 124.164748 53.8598369 125.749301 54.881398 127.129387 56.7712776 125.851527 58.3547001 123.75583 56.1072685"></polygon>
                <polygon id="p24" fill="#C87F71" fill-rule="nonzero" stroke-linecap="round" stroke-linejoin="round" points="122.760621 53.7988241 119.385696 57.3787865 121.019256 62.6827823 122.295464 59.8777822 122.652817 57.8887751 123.82693 56.1037801"></polygon>
                <polygon id="p23" fill="#C68570" fill-rule="nonzero" stroke-linecap="round" stroke-linejoin="round" points="112.89466 63.9356482 120.979985 62.6441478 119.346149 57.329628"></polygon>
                <polygon id="p22" fill="#C6856E" fill-rule="nonzero" stroke-linecap="round" stroke-linejoin="round" points="112.89466 63.9620592 115.038723 68.8332149 117.252787 66.3272555 118.733448 65.0112038 120.979985 62.6827823"></polygon>
                <polygon id="p21" fill="#CE8C72" fill-rule="nonzero" stroke-linecap="round" stroke-linejoin="round" points="122.203722 59.8353598 120.935149 62.6353206 118.702429 64.9771065 122.812655 72.1552124 127.785503 73.275194 128.49592 69.9152354 127.024352 69.6606923 124.28421 64.6207544"></polygon>
                <path d="M125.876731,58.3293825 C125.876731,58.3293825 127.162449,56.7601435 127.162449,56.7601435 L127.162449,56.7601435 L127.831025,58.6837348 L128.602456,61.1135359 L129.065309,63.5939469 L127.368158,64.5051327 L125.876731,58.3293825 Z" id="p20" fill="#CB9789" fill-rule="nonzero" stroke-linecap="round" stroke-linejoin="round"></path>
                <polygon id="p19" fill="#CC9482" fill-rule="nonzero" stroke-linecap="round" stroke-linejoin="round" points="127.377528 64.5033063 129.015624 63.5939575 129.065309 65.8167872 128.866758 67.5344277 128.568918 69.858287 127.129387 69.6056924"></polygon>
                <polygon id="p18" fill="#B46F66" fill-rule="nonzero" stroke-linecap="round" stroke-linejoin="round" points="122.864753 72.136225 121.754 74.8762941 119.482 76.043376 118.674172 78.3267669 118.977111 80.1027346 118.360795 81.7035646 125.995048 80.1027346 127.812653 73.2525479"></polygon>
                <polygon id="p17" fill="#A05A2C" fill-rule="nonzero" stroke-linecap="round" stroke-linejoin="round" points="115.058339 68.7969247 117.24789 66.2816684 118.712157 64.9607203 122.80203 72.1242973 121.691205 74.8677825 119.419056 76.0363055 118.611176 78.3225571 118.914134 80.1007388 118.297779 81.7035646 116.730202 78.7592706 117.178677 73.686166"></polygon>
                <polygon id="p16" fill="#CC8D7B" fill-rule="nonzero" stroke-linecap="round" stroke-linejoin="round" points="125.940064 80.109008 125.990609 85.1182305 125.889658 86.2819844 125.132198 88.1541109 122.143083 88.5373786 117.677528 87.779302 118.30462 81.7052921"></polygon>
                <rect id="Rectangle" x="0.05" y="0.05" width="143.9" height="143.9"></rect>
            </g>
        </g>
    </g>
</svg>