<?xml version="1.0" encoding="UTF-8"?>
<svg width="196px" height="196px" viewBox="0 0 196 196" version="1.1" xmlns="http://www.w3.org/2000/svg" xmlns:xlink="http://www.w3.org/1999/xlink">
    <title>julianda-icon-196</title>
    <g id="Page-1" stroke="none" stroke-width="1" fill="none" fill-rule="evenodd">
        <g id="julianda-icon-512">
            <rect id="Rectangle" x="0" y="0" width="196" height="196"></rect>
            <g id="julianda-icon" stroke-linecap="round" stroke-linejoin="round" transform="translate(20.671875, 1.914063)">
                <g id="Group">
                    <polygon id="p153" fill="#A17C73" fill-rule="nonzero" points="73.1601659 0.155026336 57.5051306 2.21056044 70.7778904 27.9047405"></polygon>
                    <path d="M73.0820633,0.155026336 C73.0820633,0.155026336 70.6801602,27.8340089 70.6801602,27.8340089 L70.6801602,27.8340089 L89.7452035,29.4550039 L73.0820633,0.155026336" id="p152" fill="#906A67" fill-rule="nonzero"></path>
                    <polygon id="p150" fill="#805D5B" fill-rule="nonzero" points="73.1601659 0.178690444 86.3643099 -1.94390753e-15 89.7452035 29.4550039"></polygon>
                    <path d="M86.4901963,-1.94390753e-15 C109.895249,4.10438608 109.895249,4.10438608 109.895249,4.10438608 L89.8682532,29.4550039 L86.4901963,-1.94390753e-15" id="p149" fill="#816164" fill-rule="nonzero"></path>
                    <polygon id="p148" fill="#2E254D" fill-rule="nonzero" points="89.9002039 29.4580453 107.968003 41.081979 109.895249 4.03068476"></polygon>
                    <path d="M109.930547,4.03068476 C127.30564,15.1236813 127.78828,14.8825293 127.30564,15.1236813 C126.822999,15.3648333 126.822999,15.3648333 126.822999,15.3648333 L108.965247,22.4788188 L109.930547,4.03068476 Z" id="p147" fill="#9C776B" fill-rule="nonzero"></path>
                    <path d="M108.810247,22.5839499 C130.820297,36.2761627 130.820297,36.2761627 130.820297,36.2761627 L127.192276,15.192581 L108.810247,22.5839499 Z" id="p146" fill="#745760" fill-rule="nonzero"></path>
                    <path d="M127.255289,15.192581 C141.20532,33.6104215 141.20532,34.3374413 141.20532,34.3374413 L130.863046,36.2761627 L127.255289,15.192581 Z" id="p145" fill="#CAA9A0" fill-rule="nonzero"></path>
                    <polygon id="p144" fill="#3C3054" fill-rule="nonzero" points="108.846139 22.6338451 107.880245 41.081979 130.820297 36.2589393"></polygon>
                    <path d="M107.880245,41.1269851 L111.265463,45.7352678 L138.105313,51.3137172 C138.105313,51.3137172 130.851296,36.2761627 130.851296,36.2761627 L130.851296,36.2761627 L107.880245,41.1269851 Z" id="p143" fill="#694C5D" fill-rule="nonzero"></path>
                    <path d="M141.20532,34.2608203 C138.065655,51.1586908 138.065655,51.1586908 138.065655,51.1586908 L138.065655,51.1586908 C138.065655,51.1586908 130.820297,36.1920066 130.820297,36.1920066 L130.820297,36.1920066 L141.20532,34.2608203 Z" id="p142" fill="#7F615D" fill-rule="nonzero"></path>
                    <polygon id="p141" fill="#6C5358" fill-rule="nonzero" points="138.105313 51.1586908 148.025336 50.4344968 141.250693 34.2608203"></polygon>
                    <polygon id="p140" fill="#282045" fill-rule="nonzero" points="111.290252 45.7327692 129.891708 62.6306397 138.105313 51.2849286"></polygon>
                    <path d="M129.890295,62.6306397 C145.54533,62.6306397 145.54533,62.6306397 145.54533,62.6306397 L138.079073,51.3137172 L129.890295,62.6306397 Z" id="p139" fill="#5B4358" fill-rule="nonzero"></path>
                    <path d="M138.105313,51.2641089 C148.025336,50.5385855 148.025336,50.5385855 148.025336,50.5385855 L145.605808,62.6306397 L138.105313,51.2641089 Z" id="p138" fill="#574353" fill-rule="nonzero"></path>
                    <path d="M129.890295,62.6306397 C140.487555,72.2422726 140.487555,72.2422726 140.487555,72.2422726 L145.54533,62.6306397 L129.890295,62.6306397 Z" id="p137" fill="#61444D" fill-rule="nonzero"></path>
                    <path d="M140.585319,72.2422726 C145.603439,62.6306397 145.603439,62.6306397 145.603439,62.6306397 L145.603439,62.6306397 L146.320332,71.2811058 L140.585319,72.2422726" id="p136" fill="#231B33" fill-rule="nonzero"></path>
                    <path d="M129.890295,62.6134223 L129.890295,62.6134223 L124.340642,63.095719 C124.340642,63.095719 106.485242,46.9385279 106.485242,47.1796818 C106.485242,47.4208357 106.485242,47.4208357 106.485242,47.4208357 L111.311029,45.7327692 L129.890295,62.6134223 Z" id="p135" fill="#624C68" fill-rule="nonzero"></path>
                    <path d="M106.448662,47.2830327 L89.7452035,29.4550039 C89.7452035,29.4550039 107.901134,41.0191288 107.901134,41.0191288 L107.901134,41.0191288 L111.290252,45.5965959 L106.448662,47.2830327 Z" id="p134" fill="#5C4559" fill-rule="nonzero"></path>
                    <path d="M70.8351606,27.9047405 C89.7919993,29.5227429 89.7919993,29.5227429 89.7919993,29.5227429 C89.7919993,29.5227429 89.7919993,29.5227429 89.7919993,29.5227429 C89.7919993,29.5227429 98.1152227,38.4465312 98.1152227,38.4465312 L98.1152227,38.4465312 L73.6280385,34.8287801 L70.8351606,27.9047405 Z" id="p133" fill="#2D244D" fill-rule="nonzero"></path>
                    <path d="M57.5108215,2.17036871 C37.394437,11.2802573 37.152853,11.2802573 37.394437,11.2802573 C37.636021,11.2802573 70.8351606,27.7497142 70.8351606,27.7497142 L57.5108215,2.17036871 Z" id="p132" fill="#A98575" fill-rule="nonzero"></path>
                    <polygon id="p131" fill="#B08981" fill-rule="nonzero" points="37.3550847 11.3169226 37.8388176 33.7957413 70.8351606 27.8234845"></polygon>
                    <path d="M73.5422388,34.7258993 C73.5422388,34.7258993 66.0331683,39.5555647 66.5176229,39.5555647 C67.0020817,39.5555647 67.0020817,39.5555647 67.0020817,39.5555647 L106.485242,47.2830327 L98.1283677,38.3481484 L73.5422388,34.7258993 Z" id="p130" fill="#2A244A" fill-rule="nonzero"></path>
                    <polygon id="p129" fill="#221D31" fill-rule="nonzero" points="124.310282 63.1112141 140.585319 72.2422726 129.897241 62.6306397"></polygon>
                    <polygon id="p128" fill="#45426A" fill-rule="nonzero" points="37.8200858 33.7438547 40.9661437 42.4772161 70.8351606 27.7497142"></polygon>
                    <path d="M40.9200929,42.4772161 C66.5996301,39.5660962 66.5996301,39.5660962 66.5996301,39.5660962 L73.6251671,34.7142299 L70.820636,27.7497142 L40.9200929,42.4772161 Z" id="p127" fill="#494664" fill-rule="nonzero"></path>
                    <polygon id="p126" fill="#36365E" fill-rule="nonzero" points="40.9200929 42.5866457 42.8489867 47.9031381 66.9601518 39.6867423"></polygon>
                    <polygon id="p125" fill="#271E39" fill-rule="nonzero" points="42.9350974 47.9031381 86.8001971 43.5532821 67.1031993 39.6867423"></polygon>
                    <path d="M37.8200858,33.7957413 C17.9800408,24.8525565 17.9800408,24.8525565 17.9800408,24.8525565 C17.9800408,24.8525565 37.3361834,11.3169226 37.3361834,11.3169226 C37.3361834,11.3169226 37.3361834,11.3169226 37.3361834,11.3169226 L37.8200858,33.7957413 Z" id="p124" fill="#826267" fill-rule="nonzero"></path>
                    <polygon id="p123" fill="#302E58" fill-rule="nonzero" points="37.7751775 33.7957413 20.3571957 41.77406 15.0350341 54.1041914 40.9200929 42.4993614"></polygon>
                    <polygon id="p122" fill="#9A7A82" fill-rule="nonzero" points="17.9800408 24.9592401 20.39956 41.8571107 37.8200858 33.8909717"></polygon>
                    <polygon id="p121" fill="#2D2851" fill-rule="nonzero" points="15.0350341 54.1191981 21.3078284 57.5147706 21.3078284 57.5147706 42.780097 47.8131239 40.8500049 42.4772161"></polygon>
                    <path d="M2.79000633,41.7020843 C20.4600464,41.7020843 20.4600464,41.7020843 20.4600464,41.7020843 L15.1348293,54.1041914 L2.79000633,41.7020843 Z" id="p120" fill="#584A64" fill-rule="nonzero"></path>
                    <path d="M18.0394916,24.9592401 C2.79000633,41.8571107 2.79000633,41.8571107 2.79000633,41.8571107 L20.4600464,41.8571107 L18.0394916,24.9592401 Z" id="p119" fill="#6A566C" fill-rule="nonzero"></path>
                    <path d="M15.1147508,54.1041914 C4.73636729,68.3836443 4.49501021,67.8995837 4.49501021,67.8995837 L21.3900485,57.4925311 L15.1147508,54.1041914 Z" id="p118" fill="#2E2753" fill-rule="nonzero"></path>
                    <polygon id="p117" fill="#5C4E66" fill-rule="nonzero" points="2.66750502 41.7020843 2.68043408e-15 48.997444 15.0350341 54.1041914"></polygon>
                    <path d="M2.68043408e-15,49.1433487 C0.24249805,56.5846128 0.24249805,56.5846128 0.24249805,56.5846128 L15.0350341,54.1842038 L2.68043408e-15,49.1433487 Z" id="p116" fill="#503E58" fill-rule="nonzero"></path>
                    <polygon id="p115" fill="#7C697C" fill-rule="nonzero" points="0.310000703 56.5247807 4.41369881 67.9015352 15.0350341 54.1041914"></polygon>
                    <polygon id="p114" fill="#281F3A" fill-rule="nonzero" points="2.31983724 62.1655608 0.775001759 76.117931 4.34000985 67.8678252"></polygon>
                    <polygon id="p113" fill="#5E5375" fill-rule="nonzero" points="0.775001759 76.117931 0.775001759 76.117931 6.35501442 75.8762672 4.41413939 67.9015352"></polygon>
                    <polygon id="p112" fill="#261F3D" fill-rule="nonzero" points="6.30076449 75.8078786 10.3850236 80.9237477 0.775001759 76.0514966"></polygon>
                    <polygon id="p111" fill="#1A1A1A" fill-rule="nonzero" points="10.5400239 80.9237477 18.3035209 81.1656879 21.7000492 112.859173"></polygon>
                    <path d="M26.5002187,74.8777204 L27.5900626,63.9099459 C27.5900626,63.9099459 25.6267248,61.7782208 21.7000492,57.5147706 C20.9462562,61.7459259 20.3262547,65.6855286 19.840045,69.3335786 L26.5002187,74.8777204 Z" id="p110" fill="#2A2141" fill-rule="nonzero"></path>
                    <path d="M33.7900766,70.3005492 L26.4959444,74.8777204 C26.4959444,74.8777204 27.5900615,63.9165739 27.5900615,63.9165739 C27.5900615,63.9165739 21.39005,57.5326177 33.7900766,70.3005492 L33.7900766,70.3005492 Z" id="p109" fill="#2A2043" fill-rule="nonzero"></path>
                    <polygon id="p108" fill="#212121" fill-rule="nonzero" points="26.5050601 74.9821267 18.2900415 81.2338002 19.8605596 69.4517988"></polygon>
                    <path d="M33.6350763,70.3819566 C50.3751142,62.1638963 50.3751142,62.1638963 50.3751142,62.1638963 L42.8542274,47.9031381 L33.6350763,70.3819566 Z" id="p107" fill="#2B223E" fill-rule="nonzero"></path>
                    <path d="M50.3751142,62.1655608 C76.4151735,54.6741376 76.4151735,54.6741376 76.4151735,54.6741376 L64.7815391,45.7327692 L50.3751142,62.1655608 Z" id="p106" fill="#1F1831" fill-rule="nonzero"></path>
                    <path d="M76.5701739,54.5692703 C106.485242,47.2897733 106.485242,47.2897733 106.485242,47.2897733 L86.8233243,43.4073743 L76.5701739,54.5692703 Z" id="p105"></path>
                    <polygon id="p104" fill="#212121" fill-rule="nonzero" points="76.4151735 54.6646749 124.310282 63.095719 106.410082 47.4380588"></polygon>
                    <polygon id="p103" fill="#25213B" fill-rule="nonzero" points="76.5701739 54.5692703 86.8233243 43.4073743 106.485242 47.2897733"></polygon>
                    <polygon id="p102" fill="#212121" fill-rule="nonzero" points="100.440228 58.9100077 117.559139 71.7771937 124.310282 63.118886"></polygon>
                    <polygon id="p101" fill="#251D35" fill-rule="nonzero" points="117.645267 71.7608832 140.585319 72.2422726 124.406561 63.095719"></polygon>
                    <path d="M6.42587263,75.9629046 C21.3900485,57.5147706 21.3900485,57.5147706 21.3900485,57.5147706 L4.49501021,67.9525205 L6.42587263,75.9629046 Z" id="p100" fill="#221C37" fill-rule="nonzero"></path>
                    <polygon id="p99" fill="#26213A" fill-rule="nonzero" points="21.3900485 57.5147706 18.2375432 81.2338002 10.4775234 80.9917639 6.35501442 75.9091294"></polygon>
                    <polyline id="p98" fill="#201932" fill-rule="nonzero" points="21.3900485 57.5762139 33.722464 70.3819566 42.9113197 47.9115151 50.4074921 62.1669588 64.8557603 45.7369575 64.8557603 45.7369575 76.523184 54.6768077 76.523184 54.6768077 86.8001971 43.5624003 64.8557603 45.7369575 42.9113197 47.9115151 21.3900485 57.5762139"></polyline>
                    <polygon id="p97" fill="#251D34" fill-rule="nonzero" points="117.645267 71.7771937 133.099623 85.1094586 140.585319 72.2619955"></polygon>
                    <polygon id="p96" fill="#212121" fill-rule="nonzero" points="133.017262 85.0915805 134.230304 103.24754 117.490266 71.7771937"></polygon>
                    <path d="M132.990302,85.1094586 C146.320332,71.3121148 146.320332,71.3121148 146.320332,71.3121148 L140.503589,72.2803517 L132.990302,85.1094586 Z" id="p95" fill="#945759" fill-rule="nonzero"></path>
                    <polyline id="p94" fill="#BC7C5D" fill-rule="nonzero" points="134.340092 103.24754 134.340092 103.24754 134.340092 103.24754 138.880315 98.4107157 133.145302 85.1094586 134.340092 103.24754"></polyline>
                    <polygon id="p93" fill="#CF9379" fill-rule="nonzero" points="18.1350411 81.1501602 25.4638393 75.3427993 33.6230769 70.2269302 55.6451262 84.5485055 49.1351114 86.3496693 43.3030973 86.975892 28.541065 88.6750642"></polygon>
                    <path d="M33.6350763,70.3819566 L50.4583828,62.0492987 L76.5479011,54.5692703 L79.2051799,76.0441799 C72.6433407,78.7541643 67.7091628,80.7165772 64.4026462,81.9314189 C61.0961297,83.1462602 58.2000643,84.060743 55.7144501,84.6748676 L33.6350763,70.3819566 Z" id="p92" fill="#CF9379" fill-rule="nonzero"></path>
                    <polygon id="p91" fill="#CF9379" fill-rule="nonzero" points="79.0785574 76.117931 95.2477159 73.1724308 113.460257 68.1279677 100.385518 58.8063719 76.4151735 54.5692703"></polygon>
                    <polygon id="p90" fill="#212121" fill-rule="nonzero" points="79.1307313 76.117931 67.3729757 80.3583819 66.3401506 87.7449064 66.3401506 87.7449064 77.6025016 86.4205608 85.4051939 82.079629"></polygon>
                    <polyline id="p89" fill="#212121" fill-rule="nonzero" points="79.2051799 76.19206 93.4827857 73.1724308 106.640242 80.984742 94.1443366 79.6581305 85.4706881 82.1639584 79.2051799 76.19206"></polyline>
                    <polygon id="p88" fill="#CF9379" fill-rule="nonzero" points="43.4000985 87.0841215 45.5748077 94.60625 58.6249988 96.5814075 66.3964597 87.8029151 67.425153 80.4586684 55.7144501 84.6748676"></polygon>
                    <polygon id="p87" fill="#CF9379" fill-rule="nonzero" points="58.590133 96.6072416 72.1344232 102.317382 77.6551763 86.5046957 66.3928164 87.8224117"></polygon>
                    <polygon id="p86" fill="#AC7067" fill-rule="nonzero" points="75.6401715 92.5507226 85.3113137 87.6214011 93.0042597 87.3271278 104.360513 90.7114207 106.485242 80.8527964 94.0299909 79.5285106 85.3845614 82.029946 77.6183486 86.3706834"></polygon>
                    <polygon id="p85" fill="#D6D6D6" fill-rule="nonzero" points="75.7951719 97.6665917 82.391687 91.7755912 82.391687 91.7755912 85.2501935 97.519305"></polygon>
                    <path d="M88.9702019,89.6052224 C91.4552396,94.8761179 91.4552396,94.8761179 91.4552396,94.8761179 L97.9602223,91.7581285 L88.9702019,89.6052224 Z" id="p84" fill="#D6D6D6" fill-rule="nonzero"></path>
                    <path d="M82.4601871,91.8014372 C83.7260045,90.9904382 84.7335069,90.4580712 85.4826939,90.2043358 C86.2318809,89.9506004 87.3859163,89.7508959 88.9448004,89.6052224 L91.4502075,94.8029269 L85.3340581,97.5115653 L82.4601871,91.8014372 Z" id="p83" fill="#212121" fill-rule="nonzero"></path>
                    <polygon id="p82" fill="#472241" fill-rule="nonzero" points="75.8676681 97.6646195 73.0051655 98.9068024 75.6474755 92.6228028 85.3359083 87.7271186 93.0426084 87.4348535 97.9602223 91.74597 88.932367 89.6269355 82.4734056 91.8190363"></polygon>
                    <path d="M93.0002111,87.2798275 C104.33787,90.6833533 104.33787,90.6833533 104.33787,90.6833533 L106.02024,93.7909333 L97.9010112,91.6452333 L93.0002111,87.2798275 Z" id="p81" fill="#653E59" fill-rule="nonzero"></path>
                    <polygon id="p80" fill="#6C3450" fill-rule="nonzero" points="72.9534839 98.9163463 72.0751635 102.317382 84.4450492 99.5078391 85.2501935 97.5115653 75.8080857 97.6593914"></polygon>
                    <polygon id="p79" fill="#B6736B" fill-rule="nonzero" points="84.4751915 99.5269078 85.2813024 97.5524987 97.8858874 91.7755912 106.02024 93.8962255"></polygon>
                    <polygon id="p78" fill="#D6D6D6" fill-rule="nonzero" points="47.8021092 101.54225 47.5851078 105.727961 51.9251178 104.717611"></polygon>
                    <polygon id="p77" fill="#D6D6D6" fill-rule="nonzero" points="38.9218438 102.007329 39.2150889 106.19304 33.7900766 105.669831"></polygon>
                    <polyline id="p76" fill="#212121" fill-rule="nonzero" points="38.9050881 101.943727 42.4390964 100.767118 47.7401082 101.428967 47.5192319 105.694176 43.3225962 106.503093 39.19959 106.061848 38.9050881 101.943727"></polyline>
                    <polygon id="p75" fill="#212121" fill-rule="nonzero" points="43.7391931 88.8300906 28.6524947 90.1564984 24.4780192 92.9567052 23.0132887 96.6412032 22.940052 101.504717 24.844199 105.262882 25.4300908 100.91519 26.4553991 97.8939246 30.1172215 96.1990483 36.7084972 95.4621487 45.5701034 94.5041907"></polygon>
                    <polygon id="p74" fill="#CF9379" fill-rule="nonzero" points="43.7100993 88.9208761 28.6268687 90.2403167 24.4533527 93.0258151 22.9889589 96.6909593 22.9157391 101.528927 24.8194483 105.267352 21.666019 112.859173 19.1815498 89.2140726 18.2900415 81.2338002 28.6591185 88.717667 43.3687378 87.0277607"></polygon>
                    <polygon id="p73" fill="#CF9379" fill-rule="nonzero" points="45.5701034 94.5660651 47.7644884 101.429918 51.9338241 104.642777 58.590133 96.5375942"></polygon>
                    <path d="M47.7401082,101.491604 L42.4187755,100.828515 L38.8712203,102.007329 C38.8712203,102.007329 36.580083,95.5238432 36.580083,95.5238432 L36.580083,95.5238432 L45.5228808,94.5660651 L47.7401082,101.491604 Z" id="p72" fill="#472241" fill-rule="nonzero"></path>
                    <polygon id="p71" fill="#AC7067" fill-rule="nonzero" points="36.7376168 95.4962233 30.1056387 96.2262907 26.4212058 97.905453 25.3895623 100.898707 24.8000562 105.20609 28.9266248 108.053356 31.7267939 102.066811 38.2850869 100.022633"></polygon>
                    <path d="M33.7572688,105.643396 C33.7572688,105.643396 28.8300654,108.208383 28.8300654,108.208383 L28.8300654,108.208383 L31.624597,102.198992 L38.169686,100.147013 L38.9050881,102.052429 L33.7572688,105.643396 Z" id="p70" fill="#472241" fill-rule="nonzero"></path>
                    <path d="M58.5709644,96.5814075 C53.9505921,128.550698 54.3647439,128.758012 53.9505921,128.550698 C53.5364437,128.343383 65.5468,134.56286 65.5468,134.56286 L74.8651699,126.892162 L58.5709644,96.5814075" id="p69" fill="#CF9379" fill-rule="nonzero"></path>
                    <path d="M81.6630505,128.981912 C81.8706306,128.981912 81.8706306,128.981912 81.8706306,128.981912 L86.6451967,123.583671 C86.6451967,123.583671 84.681859,121.714128 80.7551831,117.975042 L75.0201703,126.905661 C81.6630505,128.981912 81.4554517,128.981912 81.6630505,128.981912 Z" id="p68" fill="#CF9379" fill-rule="nonzero"></path>
                    <polygon id="p67" fill="#CF9379" fill-rule="nonzero" points="80.7551831 118.0301 58.590133 96.5814075 74.9379774 126.966569"></polygon>
                    <path d="M75.0201622,126.811543 C75.0201622,126.811543 65.720149,134.542401 65.720149,134.542401 L65.720149,134.542401 C65.720149,134.542401 66.5082635,136.92165 66.579428,137.137492 C66.6505832,137.353334 66.6505832,137.353334 66.6505832,137.353334 L73.9804037,130.086715 L81.8401855,128.900968 L75.0201622,126.811543" id="p66" fill="#A76562" fill-rule="nonzero"></path>
                    <polyline id="p65" fill="#CF9379" fill-rule="nonzero" points="65.5651486 134.593116 55.1873395 134.453751 52.7526673 136.113123 47.7401082 131.495721 53.9194572 128.516833 65.5651486 134.593021"></polyline>
                    <polygon id="p64" fill="#7D415A" fill-rule="nonzero" points="66.650151 137.353334 52.8551198 136.060176 55.2979914 134.407833 65.710751 134.546608"></polygon>
                    <path d="M66.650151,137.353334 C66.650151,137.353334 73.9801809,130.156304 73.9801809,130.156304 L73.9801809,130.156304 L81.8401855,128.981912 L66.650151,137.353334 Z" id="p63" fill="#5F2B4F" fill-rule="nonzero"></path>
                    <polygon id="p62" points="58.590133 96.5814075 80.7376621 117.975042 95.3252163 105.369604 95.2877275 96.6913352 72.0949059 102.29793"></polygon>
                    <polygon id="p61" fill="#CF9379" fill-rule="nonzero" points="58.590133 96.5814075 80.7376621 117.975042 95.3252163 105.369604 95.2877275 96.6913352 72.0949059 102.29793"></polygon>
                    <path d="M28.8300654,108.057678 C42.6372796,108.828488 42.6372796,108.828488 42.6372796,108.828488 L51.9251178,104.642777 L43.3196352,106.459218 L33.7579937,105.514661 L28.8300654,108.057678 Z" id="p60" fill="#4A2D56" fill-rule="nonzero"></path>
                    <polyline id="p59" fill="#DDA788" fill-rule="nonzero" points="58.590133 96.5814075 51.9023412 104.717364 42.6219429 108.939914 28.8257888 108.16232 24.7102217 105.303729 21.5450489 112.894952 22.8668218 119.505086 45.4850007 121.075568 55.9351748 115.864386 58.590133 96.5814075"></polyline>
                    <polygon id="p58" fill="#CF9379" fill-rule="nonzero" points="80.7551831 117.947273 86.6451967 123.55599 101.269608 116.831381 106.175241 93.7909333 95.3516771 96.6185151"></polygon>
                    <path d="M138.883616,98.4417235 C138.883616,98.4417235 137.974947,105.063758 138.119382,105.206968 C138.263836,105.350178 138.263836,105.350178 138.263836,105.350178 L140.430318,109.359648 L139.563729,117.664989 L134.075304,111.221183 L134.243739,103.28396 L138.883616,98.4417235 Z" id="p57" fill="#C57F5E" fill-rule="nonzero"></path>
                    <polygon id="p56" fill="#CF9379" fill-rule="nonzero" points="101.129202 116.929781 119.598886 126.656517 139.500316 117.644995 134.059629 111.208182 134.226598 103.279574 117.523222 71.8393192 113.407912 68.2115881 93.3102115 73.1838956 106.467406 80.9679231 104.335785 90.8081035 106.026381 93.8923422"></polygon>
                    <polygon id="p55" fill="#CF9379" fill-rule="nonzero" points="38.2668589 100.147013 46.6551058 98.0634634 45.5609894 94.5660651 36.7350833 95.5334212"></polygon>
                    <polyline id="p54" fill="#CF9379" fill-rule="nonzero" points="47.7401082 131.462333 49.1262366 123.866043 53.9401222 128.530613 47.7401082 131.462333"></polyline>
                    <polygon id="p53" fill="#CF9379" fill-rule="nonzero" points="49.1351114 123.817557 55.955127 115.804673 53.9599856 128.516833"></polygon>
                    <polygon id="p52" fill="#DDA788" fill-rule="nonzero" points="45.5701034 121.058156 49.2185672 123.866043 55.955127 115.804673"></polygon>
                    <polygon id="p51" fill="#CF9379" fill-rule="nonzero" points="86.6451967 123.625571 106.086403 131.613209 107.097806 152.080836 121.055274 146.203995 119.740474 126.633928 101.288959 116.889858"></polygon>
                    <path d="M119.660272,126.514563 C119.660272,126.514563 139.577973,117.509963 139.577973,117.509963 L139.577973,117.509963 L145.700331,118.544604 L138.40506,140.172929 L120.977442,146.034809 L119.660272,126.514563" id="p50" fill="#CF9379" fill-rule="nonzero"></path>
                    <polygon id="p49" fill="#CF9379" fill-rule="nonzero" points="66.495151 137.325435 81.7764683 128.943327 86.5585211 123.55599 106.02024 131.510304 101.767829 135.950012 90.6305929 139.986087 80.5058091 142.004124"></polygon>
                    <polygon id="p48" fill="#CF9379" fill-rule="nonzero" points="66.495151 137.328339 59.8589643 146.875418 53.9933848 149.505789 47.5210234 149.910467 40.4418763 148.089434 40.4418763 148.089434 39.8350905 134.128259 47.7594942 131.462333 52.7652056 136.040668"></polygon>
                    <polygon id="p47" fill="#DDA788" fill-rule="nonzero" points="49.1351114 123.890542 47.759173 131.544279 39.8559197 134.210392 40.4610862 148.172545 34.8128845 156.266547 31.0000703 147.119993 27.6234336 139.21365 24.8000562 128.981912 22.940052 119.525305 45.4769521 121.099204"></polygon>
                    <path d="M106.030082,131.462333 L101.793397,135.915405 L98.767198,141.785326 L93.9252875,148.26251 L90.4955868,154.537279 L86.4606615,158.990332 L85.2501935,160.204803 C85.2501935,160.204803 86.4606677,166.412094 88.8816168,178.826676 L98.1619733,184.696616 C98.0274664,184.966502 97.9602128,185.101446 97.9602128,185.101446 L110.670251,169.51574 L107.038809,151.905922 L106.030082,131.462333 Z" id="p46" fill="#CF9379" fill-rule="nonzero"></path>
                    <path d="M40.5296131,148.205178 C40.5296131,148.205178 34.8750791,156.283305 34.8750791,156.283305 L34.8750791,156.283305 L40.3276684,163.149712 L46.5880416,169.612226 L57.2912644,178.296223 L66.7828036,185.566525 L76.8801743,180.921619 L73.6490174,163.957538 L67.9944875,163.957538 L61.7341146,161.130186 L55.0698413,154.869647 L54.0601041,154.263778 L54.0601041,149.618854 L47.5977808,150.022767 L40.5296131,148.205178 Z" id="p45" fill="#DDA788" fill-rule="nonzero"></path>
                    <polygon id="p44" fill="#8D5060" fill-rule="nonzero" points="53.9401222 151.968691 59.1170614 150.995651 62.0001406 154.67452 58.3232101 157.971837 53.9401222 154.269905"></polygon>
                    <path d="M58.4351326,157.894829 C58.4351326,157.894829 62.084367,154.561257 62.084367,154.561257 L62.084367,154.561257 L67.2348221,155.991778 L73.672885,155.705667 L74.2451683,158.566689 L73.7109668,163.862837 L68.0457583,163.862837 L61.7735627,161.03056 L58.4351326,157.894829 Z" id="p43" fill="#814254" fill-rule="nonzero"></path>
                    <polygon id="p42" fill="#884259" fill-rule="nonzero" points="73.6633928 163.862837 85.2397749 160.217674 90.5202055 154.547426 84.8266896 150.685599 80.0875902 154.408688 73.6251671 155.697442 74.1996147 158.561349"></polygon>
                    <path d="M84.7851923,150.705164 C84.7851923,150.705164 88.8023042,146.987603 88.8023042,147.130581 C88.8023042,147.273578 88.8023042,147.273578 88.8023042,147.273578 L92.2455506,145.128851 L95.1149137,142.412155 L101.835231,135.958097 L98.7918086,141.822119 L93.9223406,148.292794 L90.47312,154.561257 L84.7851923,150.705164 Z" id="p41" fill="#884259" fill-rule="nonzero"></path>
                    <polygon id="p40" fill="#743155" fill-rule="nonzero" points="54.0951226 149.609196 59.9614941 146.990549 71.2896544 146.386256 80.5949259 142.156129 90.7093692 140.141794 101.835231 136.113123 98.4851115 139.327787 94.1482658 140.44394 89.5967718 143.062588 84.6407108 143.364734 83.123546 144.875504 79.8869142 145.27836 78.4709103 146.285528 74.3239836 147.292715 72.8068188 148.400591 69.3679131 148.602029 67.648459 149.105612 65.3221431 149.005016 63.9061219 149.710037 59.2320422 150.946287 54.0951226 151.92581"></polygon>
                    <polygon id="p39" fill="#CC9A91" fill-rule="nonzero" points="59.7526354 147.119993 66.579428 137.137492 80.6001827 142.076067 71.3032025 146.353864"></polygon>
                    <polygon id="p38" fill="#C0C0C0" fill-rule="nonzero" points="59.2101342 150.849903 63.8561546 149.618708 65.263675 148.91657 67.5760256 149.016755 69.285157 148.51523 70.6021526 155.991778 67.2348221 155.991778 62.053752 154.537956"></polygon>
                    <polygon id="p37" fill="#C0C0C0" fill-rule="nonzero" points="69.285157 148.51523 72.6760183 148.300219 74.1921763 147.194793 78.3363333 146.189835 80.0774449 154.406231 73.5476602 155.672245 70.6021526 155.991778"></polygon>
                    <polygon id="p36" fill="#B3B3B3" fill-rule="nonzero" points="78.4301779 146.170261 79.8482042 145.161323 83.0894152 144.75776 84.6087261 143.244335 88.8152015 147.129244 84.8044256 150.696397 80.0774449 154.406231"></polygon>
                    <polygon id="p35" fill="#B3B3B3" fill-rule="nonzero" points="84.6301919 143.246161 89.5685796 142.944346 91.8362111 141.636452 94.1038431 140.328577 98.4252231 139.21365 92.2364623 145.128119 88.8157451 147.119993"></polygon>
                    <polygon id="p34" fill="#C3877C" fill-rule="nonzero" points="73.6251671 163.944792 85.2501935 160.204803 88.8152015 178.940304 83.8983876 185.721551 76.8657028 180.966739"></polygon>
                    <path d="M66.8051514,185.544567 C66.8051514,185.544567 76.9587864,180.915734 76.9587864,180.915734 C76.9587864,180.915734 76.9587864,180.915734 76.9587864,180.915734 L84.0101907,185.637986 L78.1228311,189.907262 L72.5226659,188.626473 L66.8051514,185.544567 Z" id="p33" fill="#1A1A1A" fill-rule="nonzero"></path>
                    <polygon id="p32" fill="#1A1A1A" fill-rule="nonzero" points="83.8551903 185.629676 94.7597728 188.046946 98.1619733 184.696616 88.8816168 178.826676"></polygon>
                    <polygon id="p31" fill="#1A1A1A" fill-rule="nonzero" points="83.9863369 185.566525 78.1201771 189.907281 78.1201771 189.907281 82.6986375 192.077631 85.2740366 192.077631 86.9909568 191.354181 91.8555952 189.907281 94.8602151 188.026285"></polygon>
                    <path d="M91.7602083,189.907262 C94.7587602,188.046934 94.7587602,188.046934 94.7587602,188.046934 L98.0980046,184.710767 L110.617843,169.532604 L129.741868,166.724869 L137.595216,162.002521 L138.880315,163.433541 L138.309171,167.011062 L127.457252,172.592006 L120.032257,177.314354 L105.753451,185.184914 L100.184701,187.045223 L94.7587602,188.046934 L94.7587602,188.046934 L94.7587602,188.046934 L91.7602083,189.907262 Z" id="p30" fill="#C3877C" fill-rule="nonzero"></path>
                    <polygon id="p29" fill="#B97E6C" fill-rule="nonzero" points="106.950243 152.042079 120.900274 146.189835 110.589382 169.598812"></polygon>
                    <polygon id="p28" fill="#C68B83" fill-rule="nonzero" points="120.900274 146.034809 138.415314 140.309189 137.725858 162.080142 129.849735 166.795333 110.670251 169.598812"></polygon>
                    <polygon id="p27" fill="#424242" fill-rule="nonzero" points="28.6750651 90.2253277 43.7634182 88.9211307 47.120107 86.3496693 43.4219353 87.0498865 28.7073202 88.720269"></polygon>
                    <polygon id="p26" fill="#A95E4C" fill-rule="nonzero" points="147.792835 74.4126415 146.188597 76.8309262 145.700331 79.5256035 147.165091 83.1185006 148.560095 86.0204536 152.326596 92.8607755 152.675347 85.8822759 150.652599 77.4527718"></polygon>
                    <polygon id="p25" fill="#CA8B79" fill-rule="nonzero" points="146.320332 71.3121148 148.330144 71.3951598 150.486895 72.7856179 152.365346 75.3579541 150.626036 77.5131681 147.773561 74.454164"></polygon>
                    <polygon id="p24" fill="#C87F71" fill-rule="nonzero" points="146.41897 71.3121148 141.825322 76.1848413 144.04878 83.404169 145.78584 79.5862521 146.272237 76.8789925 147.870335 74.449416"></polygon>
                    <polygon id="p23" fill="#C68570" fill-rule="nonzero" points="132.990302 85.1094586 143.995327 83.3515832 141.771494 76.117931"></polygon>
                    <polygon id="p22" fill="#C6856E" fill-rule="nonzero" points="132.990302 85.145407 135.908609 91.7755912 138.922196 88.364702 140.93754 86.5734094 143.995327 83.404169"></polygon>
                    <polygon id="p21" fill="#CE8C72" fill-rule="nonzero" points="145.660969 79.5285106 143.934301 83.3395683 140.89532 86.5269991 146.489794 96.2971987 153.258394 97.8216182 154.22535 93.2483414 152.222381 92.9018796 148.492744 86.0419642"></polygon>
                    <path d="M150.660342,77.4787081 C150.660342,77.4787081 152.410347,75.3427993 152.410347,75.3427993 L152.410347,75.3427993 L153.320354,77.9610209 L154.370357,81.2682502 L155.000352,84.6443651 L152.690341,85.8845904 L150.660342,77.4787081 Z" id="p20" fill="#CB9789" fill-rule="nonzero"></path>
                    <polygon id="p19" fill="#CC9482" fill-rule="nonzero" points="152.703094 85.8821044 154.932724 84.6443797 155.000352 87.6698977 154.730101 90.0077976 154.324707 93.170828 152.365346 92.8270187"></polygon>
                    <polygon id="p18" fill="#B46F66" fill-rule="nonzero" points="146.560705 96.2713546 145.048847 100.000894 141.956402 101.589421 140.856859 104.69737 141.269192 107.11466 140.430318 109.293567 150.821384 107.11466 153.295348 97.7907945"></polygon>
                    <polygon id="p17" fill="#A05A2C" fill-rule="nonzero" points="135.935308 91.7261962 138.91553 88.3026527 140.908562 86.5046957 146.475332 96.25512 144.963375 99.9893081 141.870729 101.579798 140.771114 104.69164 141.183475 107.111943 140.344546 109.293567 138.2109 105.286056 138.821325 98.3809968"></polygon>
                    <polygon id="p16" fill="#CC8D7B" fill-rule="nonzero" points="150.746546 107.123198 150.815342 113.941307 150.677937 115.525305 149.64695 118.073477 145.578433 118.595147 139.500316 117.563321 140.353858 109.295918"></polygon>
                </g>
            </g>
        </g>
    </g>
</svg>