<?xml version="1.0" encoding="UTF-8"?>
<svg width="48px" height="48px" viewBox="0 0 48 48" version="1.1" xmlns="http://www.w3.org/2000/svg" xmlns:xlink="http://www.w3.org/1999/xlink">
    <title>julianda-favicon</title>
    <g id="Page-1" stroke="none" stroke-width="1" fill="none" fill-rule="evenodd">
        <g id="Group">
            <polygon id="p153" fill="#A17C73" fill-rule="nonzero" stroke-linecap="round" stroke-linejoin="round" points="22.9792753 0.506715633 19.1453891 1.01011174 22.3958609 7.30256401"></polygon>
            <path d="M22.9601482,0.506715633 C22.9601482,0.506715633 22.371927,7.28524198 22.371927,7.28524198 L22.371927,7.28524198 L27.0409172,7.68222034 L22.9601482,0.506715633" id="p152" fill="#906A67" fill-rule="nonzero" stroke-linecap="round" stroke-linejoin="round"></path>
            <polygon id="p150" fill="#805D5B" fill-rule="nonzero" stroke-linecap="round" stroke-linejoin="round" points="22.9792753 0.512510925 26.2129433 0.46875 27.0409172 7.68222034"></polygon>
            <path d="M26.2437725,0.46875 C31.9756223,1.47390578 31.9756223,1.47390578 31.9756223,1.47390578 L27.0710518,7.68222034 L26.2437725,0.46875" id="p149" fill="#816164" fill-rule="nonzero" stroke-linecap="round" stroke-linejoin="round"></path>
            <polygon id="p148" fill="#2E254D" fill-rule="nonzero" stroke-linecap="round" stroke-linejoin="round" points="27.0788765 7.68296517 31.5036435 10.5296428 31.9756223 1.45585647"></polygon>
            <path d="M31.9842666,1.45585647 C36.2393914,4.17250868 36.357589,4.11345105 36.2393914,4.17250868 C36.1211937,4.23156632 36.1211937,4.23156632 36.1211937,4.23156632 L31.7478667,5.97376684 L31.9842666,1.45585647 Z" id="p147" fill="#9C776B" fill-rule="nonzero" stroke-linecap="round" stroke-linejoin="round"></path>
            <path d="M31.7099074,5.99951323 C37.1001237,9.35270821 37.1001237,9.35270821 37.1001237,9.35270821 L36.2116288,4.18938207 L31.7099074,5.99951323 Z" id="p146" fill="#745760" fill-rule="nonzero" stroke-linecap="round" stroke-linejoin="round"></path>
            <path d="M36.2270605,4.18938207 C39.6433948,8.69987364 39.6433948,8.87791931 39.6433948,8.87791931 L37.1105928,9.35270821 L36.2270605,4.18938207 Z" id="p145" fill="#CAA9A0" fill-rule="nonzero" stroke-linecap="round" stroke-linejoin="round"></path>
            <polygon id="p144" fill="#3C3054" fill-rule="nonzero" stroke-linecap="round" stroke-linejoin="round" points="31.7186974 6.01173247 31.4821518 10.5296428 37.1001237 9.34849023"></polygon>
            <path d="M31.4821518,10.5406647 L32.3111848,11.6692238 L38.8842094,13.0353746 C38.8842094,13.0353746 37.1077154,9.35270821 37.1077154,9.35270821 L37.1077154,9.35270821 L31.4821518,10.5406647 Z" id="p143" fill="#694C5D" fill-rule="nonzero" stroke-linecap="round" stroke-linejoin="round"></path>
            <path d="M39.6433948,8.85915497 C38.874497,12.997409 38.874497,12.997409 38.874497,12.997409 L38.874497,12.997409 C38.874497,12.997409 37.1001237,9.33209854 37.1001237,9.33209854 L37.1001237,9.33209854 L39.6433948,8.85915497 Z" id="p142" fill="#7F615D" fill-rule="nonzero" stroke-linecap="round" stroke-linejoin="round"></path>
            <polygon id="p141" fill="#6C5358" fill-rule="nonzero" stroke-linecap="round" stroke-linejoin="round" points="38.8842094 12.997409 41.3136026 12.8200553 39.6545065 8.85915497"></polygon>
            <polygon id="p140" fill="#282045" fill-rule="nonzero" stroke-linecap="round" stroke-linejoin="round" points="32.3172557 11.6686118 36.8727143 15.8068659 38.8842094 13.0283244"></polygon>
            <path d="M36.8723681,15.8068659 C40.7062543,15.8068659 40.7062543,15.8068659 40.7062543,15.8068659 L38.8777831,13.0353746 L36.8723681,15.8068659 Z" id="p139" fill="#5B4358" fill-rule="nonzero" stroke-linecap="round" stroke-linejoin="round"></path>
            <path d="M38.8842094,13.0232256 C41.3136026,12.8455465 41.3136026,12.8455465 41.3136026,12.8455465 L40.7210653,15.8068659 L38.8842094,13.0232256 Z" id="p138" fill="#574353" fill-rule="nonzero" stroke-linecap="round" stroke-linejoin="round"></path>
            <path d="M36.8723681,15.8068659 C39.4676156,18.1607352 39.4676156,18.1607352 39.4676156,18.1607352 L40.7062543,15.8068659 L36.8723681,15.8068659 Z" id="p137" fill="#61444D" fill-rule="nonzero" stroke-linecap="round" stroke-linejoin="round"></path>
            <path d="M39.4915577,18.1607352 C40.7204851,15.8068659 40.7204851,15.8068659 40.7204851,15.8068659 L40.7204851,15.8068659 L40.8960507,17.9253473 L39.4915577,18.1607352" id="p136" fill="#231B33" fill-rule="nonzero" stroke-linecap="round" stroke-linejoin="round"></path>
            <path d="M36.8723681,15.8026493 L36.8723681,15.8026493 L35.5132695,15.9207628 C35.5132695,15.9207628 31.1405183,11.9638997 31.1405183,12.0229578 C31.1405183,12.0820159 31.1405183,12.0820159 31.1405183,12.0820159 L32.3223438,11.6686118 L36.8723681,15.8026493 Z" id="p135" fill="#624C68" fill-rule="nonzero" stroke-linecap="round" stroke-linejoin="round"></path>
            <path d="M31.1315602,12.0482682 L27.0409172,7.68222034 C27.0409172,7.68222034 31.4872674,10.5142509 31.4872674,10.5142509 L31.4872674,10.5142509 L32.3172557,11.6352633 L31.1315602,12.0482682 Z" id="p134" fill="#5C4559" fill-rule="nonzero" stroke-linecap="round" stroke-linejoin="round"></path>
            <path d="M22.4098863,7.30256401 C27.0523773,7.69880947 27.0523773,7.69880947 27.0523773,7.69880947 C27.0523773,7.69880947 27.0523773,7.69880947 27.0523773,7.69880947 C27.0523773,7.69880947 29.0907178,9.88422708 29.0907178,9.88422708 L29.0907178,9.88422708 L23.0938564,8.99824715 L22.4098863,7.30256401 Z" id="p133" fill="#2D244D" fill-rule="nonzero" stroke-linecap="round" stroke-linejoin="round"></path>
            <path d="M19.1467828,1.00026887 C14.2203213,3.23126199 14.1611579,3.23126199 14.2203213,3.23126199 C14.2794847,3.23126199 22.4098863,7.26459837 22.4098863,7.26459837 L19.1467828,1.00026887 Z" id="p132" fill="#A98575" fill-rule="nonzero" stroke-linecap="round" stroke-linejoin="round"></path>
            <polygon id="p131" fill="#B08981" fill-rule="nonzero" stroke-linecap="round" stroke-linejoin="round" points="14.210684 3.24024124 14.3291492 8.74525807 22.4098863 7.28266458"></polygon>
            <path d="M23.0728442,8.97305187 C23.0728442,8.97305187 21.2338881,10.155827 21.3525301,10.155827 C21.4711731,10.155827 21.4711731,10.155827 21.4711731,10.155827 L31.1405183,12.0482682 L29.093937,9.86013323 L23.0728442,8.97305187 Z" id="p130" fill="#2A244A" fill-rule="nonzero" stroke-linecap="round" stroke-linejoin="round"></path>
            <polygon id="p129" fill="#221D31" fill-rule="nonzero" stroke-linecap="round" stroke-linejoin="round" points="35.5058344 15.9245575 39.4915577 18.1607352 36.8740692 15.8068659"></polygon>
            <polygon id="p128" fill="#45426A" fill-rule="nonzero" stroke-linecap="round" stroke-linejoin="round" points="14.3245618 8.73255115 15.095025 10.8713335 22.4098863 7.26459837"></polygon>
            <path d="M15.0837472,10.8713335 C21.3726135,10.1584062 21.3726135,10.1584062 21.3726135,10.1584062 L23.0931531,8.97019405 L22.4063292,7.26459837 L15.0837472,10.8713335 Z" id="p127" fill="#494664" fill-rule="nonzero" stroke-linecap="round" stroke-linejoin="round"></path>
            <polygon id="p126" fill="#36365E" fill-rule="nonzero" stroke-linecap="round" stroke-linejoin="round" points="15.0837472 10.8981327 15.5561294 12.2001307 21.4609045 10.1879521"></polygon>
            <polygon id="p125" fill="#271E39" fill-rule="nonzero" stroke-linecap="round" stroke-linejoin="round" points="15.5772177 12.2001307 26.3196911 11.1348599 21.4959366 10.1879521"></polygon>
            <path d="M14.3245618,8.74525807 C9.4657753,6.55509036 9.4657753,6.55509036 9.4657753,6.55509036 C9.4657753,6.55509036 14.2060551,3.24024124 14.2060551,3.24024124 C14.2060551,3.24024124 14.2060551,3.24024124 14.2060551,3.24024124 L14.3245618,8.74525807 Z" id="p124" fill="#826267" fill-rule="nonzero" stroke-linecap="round" stroke-linejoin="round"></path>
            <polygon id="p123" fill="#302E58" fill-rule="nonzero" stroke-linecap="round" stroke-linejoin="round" points="14.3135639 8.74525807 10.0479357 10.699132 8.74454917 13.718756 15.0837472 10.8767569"></polygon>
            <polygon id="p122" fill="#9A7A82" fill-rule="nonzero" stroke-linecap="round" stroke-linejoin="round" points="9.4657753 6.58121697 10.0583106 10.719471 14.3245618 8.76857979"></polygon>
            <polygon id="p121" fill="#2D2851" fill-rule="nonzero" stroke-linecap="round" stroke-linejoin="round" points="8.74454917 13.7224312 10.2807437 14.554 10.2807437 14.554 15.5392585 12.1780864 15.0665828 10.8713335"></polygon>
            <path d="M5.74576686,10.6815054 C10.0731236,10.6815054 10.0731236,10.6815054 10.0731236,10.6815054 L8.76898881,13.718756 L5.74576686,10.6815054 Z" id="p120" fill="#584A64" fill-rule="nonzero" stroke-linecap="round" stroke-linejoin="round"></path>
            <path d="M9.48033469,6.58121697 C5.74576686,10.719471 5.74576686,10.719471 5.74576686,10.719471 L10.0731236,10.719471 L9.48033469,6.58121697 Z" id="p119" fill="#6A566C" fill-rule="nonzero" stroke-linecap="round" stroke-linejoin="round"></path>
            <path d="M8.76407162,13.718756 C6.22242668,17.2157649 6.16331882,17.0972195 6.16331882,17.0972195 L10.3008792,14.5485535 L8.76407162,13.718756 Z" id="p118" fill="#2E2753" fill-rule="nonzero" stroke-linecap="round" stroke-linejoin="round"></path>
            <polygon id="p117" fill="#5C4E66" fill-rule="nonzero" stroke-linecap="round" stroke-linejoin="round" points="5.71576653 10.6815054 5.0625 12.468124 8.74454917 13.718756"></polygon>
            <path d="M5.0625,12.5038558 C5.12188728,14.3262062 5.12188728,14.3262062 5.12188728,14.3262062 L8.74454917,13.7383509 L5.0625,12.5038558 Z" id="p116" fill="#503E58" fill-rule="nonzero" stroke-linecap="round" stroke-linejoin="round"></path>
            <polygon id="p115" fill="#7C697C" fill-rule="nonzero" stroke-linecap="round" stroke-linejoin="round" points="5.13841854 14.3115535 6.14340583 17.0976974 8.74454917 13.718756"></polygon>
            <polygon id="p114" fill="#281F3A" fill-rule="nonzero" stroke-linecap="round" stroke-linejoin="round" points="5.63062341 15.692969 5.25229635 19.109876 6.12535955 17.0894419"></polygon>
            <polygon id="p113" fill="#5E5375" fill-rule="nonzero" stroke-linecap="round" stroke-linejoin="round" points="5.25229635 19.109876 5.25229635 19.109876 6.61883006 19.050693 6.14351373 17.0976974"></polygon>
            <polygon id="p112" fill="#261F3D" fill-rule="nonzero" stroke-linecap="round" stroke-linejoin="round" points="6.60554436 19.0339447 7.60577108 20.2868106 5.25229635 19.0936063"></polygon>
            <polygon id="p111" fill="#1A1A1A" fill-rule="nonzero" stroke-linecap="round" stroke-linejoin="round" points="7.64373035 20.2868106 9.5449949 20.3460613 10.3767978 28.1077311"></polygon>
            <path d="M11.5523495,18.8061509 L11.81925,16.1201653 C11.81925,16.1201653 11.3384326,15.5981102 10.3767978,14.554 C10.1921954,15.5902013 10.0403583,16.5550019 9.92128653,17.4484019 L11.5523495,18.8061509 Z" id="p110" fill="#2A2141" fill-rule="nonzero" stroke-linecap="round" stroke-linejoin="round"></path>
            <path d="M13.3376208,17.685211 L11.5513027,18.8061509 C11.5513027,18.8061509 11.8192497,16.1217885 11.8192497,16.1217885 C11.8192497,16.1217885 10.3008796,14.5583706 13.3376208,17.685211 L13.3376208,17.685211 Z" id="p109" fill="#2A2043" fill-rule="nonzero" stroke-linecap="round" stroke-linejoin="round"></path>
            <polygon id="p108" fill="#212121" fill-rule="nonzero" stroke-linecap="round" stroke-linejoin="round" points="11.5535351 18.8317198 9.54169383 20.3627419 9.92631051 17.4773537"></polygon>
            <path d="M13.2996615,17.7051475 C17.3992627,15.6925613 17.3992627,15.6925613 17.3992627,15.6925613 L15.5574128,12.2001307 L13.2996615,17.7051475 Z" id="p107" fill="#2B223E" fill-rule="nonzero" stroke-linecap="round" stroke-linejoin="round"></path>
            <path d="M17.3992627,15.692969 C23.77642,13.8583347 23.77642,13.8583347 23.77642,13.8583347 L20.9273667,11.6686118 L17.3992627,15.692969 Z" id="p106" fill="#1F1831" fill-rule="nonzero" stroke-linecap="round" stroke-linejoin="round"></path>
            <path d="M23.8143793,13.8326529 C31.1405183,12.049919 31.1405183,12.049919 31.1405183,12.049919 L26.325355,11.0991273 L23.8143793,13.8326529 Z" id="p105" stroke-linecap="round" stroke-linejoin="round"></path>
            <polygon id="p104" fill="#212121" fill-rule="nonzero" stroke-linecap="round" stroke-linejoin="round" points="23.77642 13.8560173 35.5058344 15.9207628 31.1221121 12.0862338"></polygon>
            <polygon id="p103" fill="#25213B" fill-rule="nonzero" stroke-linecap="round" stroke-linejoin="round" points="23.8143793 13.8326529 26.325355 11.0991273 31.1405183 12.049919"></polygon>
            <polygon id="p102" fill="#212121" fill-rule="nonzero" stroke-linecap="round" stroke-linejoin="round" points="29.6601068 14.8956907 33.8524933 18.0468383 35.5058344 15.9264364"></polygon>
            <polygon id="p101" fill="#251D35" fill-rule="nonzero" stroke-linecap="round" stroke-linejoin="round" points="33.8735858 18.0428438 39.4915577 18.1607352 35.5294129 15.9207628"></polygon>
            <path d="M6.63618309,19.0719104 C10.3008792,14.554 10.3008792,14.554 10.3008792,14.554 L6.16331882,17.1101836 L6.63618309,19.0719104 Z" id="p100" fill="#221C37" fill-rule="nonzero" stroke-linecap="round" stroke-linejoin="round"></path>
            <polygon id="p99" fill="#26213A" fill-rule="nonzero" stroke-linecap="round" stroke-linejoin="round" points="10.3008792 14.554 9.52883712 20.3627419 7.62842409 20.3034676 6.61883006 19.0587409"></polygon>
            <polyline id="p98" fill="#201932" fill-rule="nonzero" stroke-linecap="round" stroke-linejoin="round" points="10.3008792 14.5690473 13.3210626 17.7051475 15.5713947 12.2021822 17.407192 15.6933114 20.9455433 11.6696376 20.9455433 11.6696376 23.8028716 13.8589887 23.8028716 13.8589887 26.3196911 11.137093 20.9455433 11.6696376 15.5713947 12.2021822 10.3008792 14.5690473"></polyline>
            <polygon id="p97" fill="#251D34" fill-rule="nonzero" stroke-linecap="round" stroke-linejoin="round" points="33.8735858 18.0468383 37.6583262 21.3118827 39.4915577 18.1655652"></polygon>
            <polygon id="p96" fill="#212121" fill-rule="nonzero" stroke-linecap="round" stroke-linejoin="round" points="37.6381561 21.3075044 37.9352276 25.7538618 33.8356265 18.0468383"></polygon>
            <path d="M37.6315535,21.3118827 C40.8960507,17.9329414 40.8960507,17.9329414 40.8960507,17.9329414 L39.4715422,18.1700606 L37.6315535,21.3118827 Z" id="p95" fill="#945759" fill-rule="nonzero" stroke-linecap="round" stroke-linejoin="round"></path>
            <polyline id="p94" fill="#BC7C5D" fill-rule="nonzero" stroke-linecap="round" stroke-linejoin="round" points="37.9621145 25.7538618 37.9621145 25.7538618 37.9621145 25.7538618 39.0740057 24.5693334 37.6695127 21.3118827 37.9621145 25.7538618"></polyline>
            <polygon id="p93" fill="#CF9379" fill-rule="nonzero" stroke-linecap="round" stroke-linejoin="round" points="9.50373456 20.3422587 11.2985423 18.9200478 13.2967229 17.6671819 18.6898779 21.1745064 17.0955885 21.6156078 15.6673401 21.7689684 12.0521486 22.1850923"></polygon>
            <path d="M13.2996615,17.7051475 L17.419655,15.6644966 L23.8089248,13.8326529 L24.4596869,19.0918145 C22.8527059,19.7554841 21.6443358,20.2360751 20.8345766,20.5335872 C20.0248174,20.8310994 19.3155769,21.0550544 18.7068551,21.2054522 L13.2996615,17.7051475 Z" id="p92" fill="#CF9379" fill-rule="nonzero" stroke-linecap="round" stroke-linejoin="round"></path>
            <polygon id="p91" fill="#CF9379" fill-rule="nonzero" stroke-linecap="round" stroke-linejoin="round" points="24.4286773 19.109876 28.3884713 18.388529 32.8486855 17.1531502 29.6467083 14.8703104 23.77642 13.8326529"></polygon>
            <polygon id="p90" fill="#212121" fill-rule="nonzero" stroke-linecap="round" stroke-linejoin="round" points="24.4414546 19.109876 21.5620043 20.1483538 21.3090675 21.9572985 21.3090675 21.9572985 24.0671942 21.632969 25.9780577 20.5698836"></polygon>
            <polyline id="p89" fill="#212121" fill-rule="nonzero" stroke-linecap="round" stroke-linejoin="round" points="24.4596869 19.12803 27.9562435 18.388529 31.1784776 20.301748 28.1182559 19.9768636 25.9940971 20.5905357 24.4596869 19.12803"></polyline>
            <polygon id="p88" fill="#CF9379" fill-rule="nonzero" stroke-linecap="round" stroke-linejoin="round" points="15.6910955 21.7954736 16.2236774 23.6376276 19.4196426 24.1213396 21.3228575 21.9715048 21.5747824 20.1729137 18.7068551 21.2054522"></polygon>
            <polygon id="p87" fill="#CF9379" fill-rule="nonzero" stroke-linecap="round" stroke-linejoin="round" points="19.411104 24.1276663 22.7280731 25.526068 24.0800942 21.6535734 21.3219652 21.9762794"></polygon>
            <polygon id="p86" fill="#AC7067" fill-rule="nonzero" stroke-linecap="round" stroke-linejoin="round" points="23.5866237 23.1342331 25.9550666 21.9270523 27.8390534 21.8549854 30.6201766 22.6837918 31.1405183 20.2694349 28.0902529 19.9451199 25.9730048 20.5577164 24.0710752 21.6207541"></polygon>
            <polygon id="p85" fill="#D6D6D6" fill-rule="nonzero" stroke-linecap="round" stroke-linejoin="round" points="23.6245829 24.387099 25.240056 22.944405 25.240056 22.944405 25.9400984 24.3510288"></polygon>
            <path d="M26.8511209,22.4128861 C27.4597016,23.7037176 27.4597016,23.7037176 27.4597016,23.7037176 L29.0527585,22.9401285 L26.8511209,22.4128861 Z" id="p84" fill="#D6D6D6" fill-rule="nonzero" stroke-linecap="round" stroke-linejoin="round"></path>
            <path d="M25.2568315,22.9507346 C25.5668277,22.7521227 25.8135629,22.621747 25.9970373,22.5596078 C26.1805117,22.4974685 26.4631326,22.4485613 26.8449001,22.4128861 L27.4584692,23.6857933 L25.9606367,24.3491334 L25.2568315,22.9507346 Z" id="p83" fill="#212121" fill-rule="nonzero" stroke-linecap="round" stroke-linejoin="round"></path>
            <polygon id="p82" fill="#472241" fill-rule="nonzero" stroke-linecap="round" stroke-linejoin="round" points="23.6423371 24.386616 22.9413161 24.6908241 23.5884124 23.1518854 25.9610898 21.9529423 27.8484449 21.8813672 29.0527585 22.9371508 26.8418552 22.4182036 25.2600688 22.9550446"></polygon>
            <path d="M27.8380619,21.8434016 C30.6146314,22.6769181 30.6146314,22.6769181 30.6146314,22.6769181 L31.0266405,23.4379582 L29.0382578,22.9124806 L27.8380619,21.8434016 Z" id="p81" fill="#653E59" fill-rule="nonzero" stroke-linecap="round" stroke-linejoin="round"></path>
            <polygon id="p80" fill="#6C3450" fill-rule="nonzero" stroke-linecap="round" stroke-linejoin="round" points="22.9286593 24.6931614 22.7135605 25.526068 25.7429202 24.8380167 25.9400984 24.3491334 23.6277455 24.3853356"></polygon>
            <polygon id="p79" fill="#B6736B" fill-rule="nonzero" stroke-linecap="round" stroke-linejoin="round" points="25.750302 24.8426866 25.9477169 24.3591579 29.0345541 22.944405 31.0266405 23.463744"></polygon>
            <polygon id="p78" fill="#D6D6D6" fill-rule="nonzero" stroke-linecap="round" stroke-linejoin="round" points="16.769139 25.3362399 16.7159958 26.361312 17.7788554 26.1138792"></polygon>
            <polygon id="p77" fill="#D6D6D6" fill-rule="nonzero" stroke-linecap="round" stroke-linejoin="round" points="14.5943801 25.4501368 14.6661953 26.4752089 13.3376208 26.347076"></polygon>
            <polyline id="p76" fill="#212121" fill-rule="nonzero" stroke-linecap="round" stroke-linejoin="round" points="14.5902767 25.4345608 15.4557481 25.1464117 16.7539551 25.308497 16.6998629 26.3530379 15.6721154 26.5511401 14.6623996 26.4430802 14.5902767 25.4345608"></polyline>
            <polygon id="p75" fill="#212121" fill-rule="nonzero" stroke-linecap="round" stroke-linejoin="round" points="15.7741391 22.2230579 12.0794375 22.5478925 11.0571169 23.2336574 10.6984074 24.1359834 10.6804719 25.3270481 11.1467936 26.2474151 11.2902773 25.1826741 11.5413732 24.4427724 12.4381461 24.0277006 14.052336 23.8472354 16.2225253 23.6126334"></polygon>
            <polygon id="p74" fill="#CF9379" fill-rule="nonzero" stroke-linecap="round" stroke-linejoin="round" points="15.7670141 22.2452911 12.0731617 22.5684194 11.0510762 23.2505823 10.6924491 24.1481686 10.6745177 25.3329771 11.1407322 26.2485096 10.3684638 28.1077311 9.76002241 22.3170943 9.54169383 20.3627419 12.0810596 22.1955256 15.6834154 21.781671"></polygon>
            <polygon id="p73" fill="#CF9379" fill-rule="nonzero" stroke-linecap="round" stroke-linejoin="round" points="16.2225253 23.6277864 16.7599257 25.3087299 17.7809875 26.0955525 19.411104 24.1106098"></polygon>
            <path d="M16.7539551,25.3238367 L15.4507715,25.1614476 L14.5819825,25.4501368 C14.5819825,25.4501368 14.0208877,23.8623442 14.0208877,23.8623442 L14.0208877,23.8623442 L16.2109606,23.6277864 L16.7539551,25.3238367 Z" id="p72" fill="#472241" fill-rule="nonzero" stroke-linecap="round" stroke-linejoin="round"></path>
            <polygon id="p71" fill="#AC7067" fill-rule="nonzero" stroke-linecap="round" stroke-linejoin="round" points="14.0594674 23.8555802 12.4353095 24.0343722 11.5329994 24.4455957 11.280352 25.1786374 11.1359832 26.2335067 12.1465714 26.9307965 12.8323271 25.4647037 14.4384396 24.9640888"></polygon>
            <path d="M13.3295862,26.340602 C13.3295862,26.340602 12.1229242,26.9687621 12.1229242,26.9687621 L12.1229242,26.9687621 L12.8072993,25.4970745 L14.4101782,24.9945492 L14.5902767,25.4611815 L13.3295862,26.340602 Z" id="p70" fill="#472241" fill-rule="nonzero" stroke-linecap="round" stroke-linejoin="round"></path>
            <path d="M19.4064097,24.1213396 C18.2748899,31.9505535 18.3763148,32.0013245 18.2748899,31.9505535 C18.1734658,31.8997826 21.1147776,33.4229198 21.1147776,33.4229198 L23.3968273,31.5443815 L19.4064097,24.1213396" id="p69" fill="#CF9379" fill-rule="nonzero" stroke-linecap="round" stroke-linejoin="round"></path>
            <path d="M25.0616144,32.056157 C25.1124503,32.056157 25.1124503,32.056157 25.1124503,32.056157 L26.2817318,30.7341387 C26.2817318,30.7341387 25.8009144,30.2762915 24.8392796,29.360597 L23.4347866,31.5476873 C25.0616144,32.056157 25.0107739,32.056157 25.0616144,32.056157 Z" id="p68" fill="#CF9379" fill-rule="nonzero" stroke-linecap="round" stroke-linejoin="round"></path>
            <polygon id="p67" fill="#CF9379" fill-rule="nonzero" stroke-linecap="round" stroke-linejoin="round" points="24.8392796 29.3740806 19.411104 24.1213396 23.4146577 31.5626037"></polygon>
            <path d="M23.4347847,31.5246381 C23.4347847,31.5246381 21.1572304,33.4179094 21.1572304,33.4179094 L21.1572304,33.4179094 C21.1572304,33.4179094 21.350238,34.0005826 21.3676661,34.0534419 C21.3850918,34.1063012 21.3850918,34.1063012 21.3850918,34.1063012 L23.1801498,32.326721 L25.1049944,32.0363339 L23.4347847,31.5246381" id="p66" fill="#A76562" fill-rule="nonzero" stroke-linecap="round" stroke-linejoin="round"></path>
            <polyline id="p65" fill="#CF9379" fill-rule="nonzero" stroke-linecap="round" stroke-linejoin="round" points="21.1192711 33.4303294 18.5777668 33.3961993 17.9815206 33.8025761 16.7539551 32.6717836 18.267265 31.9422601 21.1192711 33.4303062"></polyline>
            <polygon id="p64" fill="#7D415A" fill-rule="nonzero" stroke-linecap="round" stroke-linejoin="round" points="21.384986 34.1063012 18.006611 33.7896095 18.6048653 33.3849541 21.1549288 33.4189397"></polygon>
            <path d="M21.384986,34.1063012 C21.384986,34.1063012 23.1800953,32.3437631 23.1800953,32.3437631 L23.1800953,32.3437631 L25.1049944,32.056157 L21.384986,34.1063012 Z" id="p63" fill="#5F2B4F" fill-rule="nonzero" stroke-linecap="round" stroke-linejoin="round"></path>
            <polygon id="p62" stroke-linecap="round" stroke-linejoin="round" points="19.411104 24.1213396 24.8349886 29.360597 28.4074509 26.273551 28.39827 24.1482607 22.7183953 25.5213043"></polygon>
            <polygon id="p61" fill="#CF9379" fill-rule="nonzero" stroke-linecap="round" stroke-linejoin="round" points="19.411104 24.1213396 24.8349886 29.360597 28.4074509 26.273551 28.39827 24.1482607 22.7183953 25.5213043"></polygon>
            <path d="M12.1229242,26.9318548 C15.5042828,27.1206246 15.5042828,27.1206246 15.5042828,27.1206246 L17.7788554,26.0955525 L15.6713903,26.5403951 L13.3297638,26.3090752 L12.1229242,26.9318548 Z" id="p60" fill="#4A2D56" fill-rule="nonzero" stroke-linecap="round" stroke-linejoin="round"></path>
            <polyline id="p59" fill="#DDA788" fill-rule="nonzero" stroke-linecap="round" stroke-linejoin="round" points="19.411104 24.1213396 17.7732775 26.1138186 15.5005269 27.1479127 12.1218769 26.9574814 11.1139829 26.2574184 10.3388385 28.1164933 10.662538 29.7353016 16.2016838 30.1199097 18.7609101 28.8437016 19.411104 24.1213396"></polyline>
            <polygon id="p58" fill="#CF9379" fill-rule="nonzero" stroke-linecap="round" stroke-linejoin="round" points="24.8392796 29.3537965 26.2817318 30.7273598 29.8632203 29.0805168 31.0645998 23.4379582 28.4139311 24.1304272"></polygon>
            <path d="M39.0748142,24.5769272 C39.0748142,24.5769272 38.8522829,26.19865 38.8876547,26.2337217 C38.9230311,26.2687935 38.9230311,26.2687935 38.9230311,26.2687935 L39.4535984,27.2507046 L39.2413724,29.2846657 L37.8972684,27.7065908 L37.9385176,25.7627811 L39.0748142,24.5769272 Z" id="p57" fill="#C57F5E" fill-rule="nonzero" stroke-linecap="round" stroke-linejoin="round"></path>
            <polygon id="p56" fill="#CF9379" fill-rule="nonzero" stroke-linecap="round" stroke-linejoin="round" points="29.8288351 29.1046147 34.352023 31.4866725 39.2258428 29.2797691 37.8934295 27.7034069 37.9343199 25.761707 33.8436973 18.0620526 32.8358661 17.1736287 27.9139804 18.3913367 31.1361505 20.2976291 30.6141207 22.7074692 31.0281443 23.462793"></polygon>
            <polygon id="p55" fill="#CF9379" fill-rule="nonzero" stroke-linecap="round" stroke-linejoin="round" points="14.4339756 24.9945492 16.4882402 24.4842921 16.2202933 23.6277864 14.0588469 23.8646899"></polygon>
            <polyline id="p54" fill="#CF9379" fill-rule="nonzero" stroke-linecap="round" stroke-linejoin="round" points="16.7539551 32.6636071 17.0934151 30.8032911 18.2723259 31.9456348 16.7539551 32.6636071"></polyline>
            <polygon id="p53" fill="#CF9379" fill-rule="nonzero" stroke-linecap="round" stroke-linejoin="round" points="17.0955885 30.791417 18.7657964 28.8290781 18.2771904 31.9422601"></polygon>
            <polygon id="p52" fill="#DDA788" fill-rule="nonzero" stroke-linecap="round" stroke-linejoin="round" points="16.2225253 30.1156453 17.1160267 30.8032911 18.7657964 28.8290781"></polygon>
            <polygon id="p51" fill="#CF9379" fill-rule="nonzero" stroke-linecap="round" stroke-linejoin="round" points="26.2817318 30.7444001 31.0428435 32.7005563 31.2905342 37.7130363 34.7086897 36.2738099 34.3866978 31.4811405 29.8679594 29.0948376"></polygon>
            <path d="M34.3670563,31.4519082 C34.3670563,31.4519082 39.2448607,29.2467001 39.2448607,29.2467001 L39.2448607,29.2467001 L40.7442136,29.5000816 L38.9576168,34.7968142 L34.6896287,36.2323766 L34.3670563,31.4519082" id="p50" fill="#CF9379" fill-rule="nonzero" stroke-linecap="round" stroke-linejoin="round"></path>
            <polygon id="p49" fill="#CF9379" fill-rule="nonzero" stroke-linecap="round" stroke-linejoin="round" points="21.3470267 34.0994689 25.0893902 32.0467076 26.2605051 30.7273598 31.0266405 32.675355 29.9852336 33.7626305 27.2577473 34.751057 24.7782083 35.2452702"></polygon>
            <polygon id="p48" fill="#CF9379" fill-rule="nonzero" stroke-linecap="round" stroke-linejoin="round" points="21.3470267 34.1001801 19.7218382 36.4382401 18.2853697 37.0824126 16.7003016 37.1815175 14.9666329 36.7355501 14.9666329 36.7355501 14.8180323 33.316487 16.7587027 32.6636071 17.9845912 33.7848321"></polygon>
            <polygon id="p47" fill="#DDA788" fill-rule="nonzero" stroke-linecap="round" stroke-linejoin="round" points="17.0955885 30.8092908 16.758624 32.6836754 14.8231334 33.3366011 14.9713374 36.755904 13.5881044 38.7381084 12.654354 36.4981361 11.8274225 34.5618888 11.1359832 32.056157 10.6804719 29.7402533 16.1997128 30.125698"></polygon>
            <path d="M31.0290508,32.6636071 L29.9914951,33.7541554 L29.2503852,35.1916869 L28.0646112,36.7779361 L27.2246845,38.3146142 L26.2365396,39.4051579 L25.9400984,39.7025793 C25.9400984,39.7025793 26.2365411,41.2227322 26.8294266,44.2630381 L29.1021669,45.7005742 C29.0692264,45.7666689 29.0527562,45.7997162 29.0527562,45.7997162 L32.1654186,41.9828087 L31.2760858,37.6702003 L31.0290508,32.6636071 Z" id="p46" fill="#CF9379" fill-rule="nonzero" stroke-linecap="round" stroke-linejoin="round"></path>
            <path d="M14.9881195,36.7638955 C14.9881195,36.7638955 13.6033357,38.7422125 13.6033357,38.7422125 L13.6033357,38.7422125 L14.9386637,40.4237816 L16.4718163,42.006438 L19.0930137,44.1331311 L21.4174723,45.9136131 L23.8902978,44.7760854 L23.0989941,40.6216166 L21.7142112,40.6216166 L20.1810587,39.9292036 L18.5489918,38.3960106 L18.3017091,38.2476344 L18.3017091,37.110102 L16.7190994,37.2090195 L14.9881195,36.7638955 Z" id="p45" fill="#DDA788" fill-rule="nonzero" stroke-linecap="round" stroke-linejoin="round"></path>
            <polygon id="p44" fill="#8D5060" fill-rule="nonzero" stroke-linecap="round" stroke-linejoin="round" points="18.2723259 37.6855723 19.5401477 37.4472769 20.2462079 38.3482244 19.3457351 39.1557304 18.2723259 38.2491348"></polygon>
            <path d="M19.3731447,39.1368714 C19.3731447,39.1368714 20.2668348,38.3204865 20.2668348,38.3204865 L20.2668348,38.3204865 L21.5281708,38.6708181 L23.1048392,38.6007499 L23.2449902,39.3014086 L23.1141653,40.5984245 L21.7267673,40.5984245 L20.1907195,39.9048054 L19.3731447,39.1368714 Z" id="p43" fill="#814254" fill-rule="nonzero" stroke-linecap="round" stroke-linejoin="round"></path>
            <polygon id="p42" fill="#884259" fill-rule="nonzero" stroke-linecap="round" stroke-linejoin="round" points="23.1025146 40.5984245 25.9375469 39.7057314 27.2307136 38.3170992 25.8363832 37.3713456 24.6757875 38.2831226 23.0931531 38.5987357 23.2338342 39.3001008"></polygon>
            <path d="M25.8262206,37.3761372 C25.8262206,37.3761372 26.810003,36.4657141 26.810003,36.5007291 C26.810003,36.5357487 26.810003,36.5357487 26.810003,36.5357487 L27.6532471,36.0105094 L28.3559482,35.3451961 L30.0017402,33.7646105 L29.2564123,35.2006974 L28.0638895,36.7853525 L27.2191824,38.3204865 L25.8262206,37.3761372 Z" id="p41" fill="#884259" fill-rule="nonzero" stroke-linecap="round" stroke-linejoin="round"></path>
            <polygon id="p40" fill="#743155" fill-rule="nonzero" stroke-linecap="round" stroke-linejoin="round" points="18.3102852 37.1077368 19.7469475 36.4664355 22.5211908 36.3184453 24.8000328 35.2824959 27.2770395 34.7891893 30.0017402 33.8025761 29.1813028 34.5898407 28.1192182 34.8631844 27.0045666 35.5044858 25.7908373 35.5784808 25.4192868 35.9484654 24.6266423 36.0471239 24.2798658 36.2937773 23.2642919 36.5404352 22.8927414 36.811752 22.0505603 36.8610835 21.6294696 36.9844102 21.0597595 36.9597743 20.7129789 37.1324325 19.5683063 37.4351877 18.3102852 37.6750707"></polygon>
            <polygon id="p39" fill="#CC9A91" fill-rule="nonzero" stroke-linecap="round" stroke-linejoin="round" points="19.6957985 36.4981361 21.3676661 34.0534419 24.8013203 35.262889 22.5245088 36.3105126"></polygon>
            <polygon id="p38" fill="#C0C0C0" fill-rule="nonzero" stroke-linecap="round" stroke-linejoin="round" points="19.5629411 37.4115834 20.700742 37.1100662 21.0454408 36.938114 21.6117307 36.9626491 22.0302936 36.8398268 22.3528231 38.6708181 21.5281708 38.6708181 20.2593373 38.3147801"></polygon>
            <polygon id="p37" fill="#C0C0C0" fill-rule="nonzero" stroke-linecap="round" stroke-linejoin="round" points="22.0302936 36.8398268 22.8607085 36.7871709 23.2320126 36.5164544 24.2469081 36.2703423 24.6733028 38.2825208 23.0741719 38.592565 22.3528231 38.6708181"></polygon>
            <polygon id="p36" fill="#B3B3B3" fill-rule="nonzero" stroke-linecap="round" stroke-linejoin="round" points="24.2698905 36.2655485 24.6171622 36.0184618 25.4109282 35.9196299 25.7830044 35.5489952 26.8131616 36.5004015 25.8309307 37.3739901 24.6733028 38.2825208"></polygon>
            <polygon id="p35" fill="#B3B3B3" fill-rule="nonzero" stroke-linecap="round" stroke-linejoin="round" points="25.7882613 35.5494424 26.9976624 35.4755286 27.5530007 35.1552281 28.1083391 34.8349321 29.1666363 34.5618888 27.6510214 36.0103301 26.8132947 36.4981361"></polygon>
            <polygon id="p34" fill="#C3877C" fill-rule="nonzero" stroke-linecap="round" stroke-linejoin="round" points="23.0931531 40.6184949 25.9400984 39.7025793 26.8131616 44.2908652 25.6090439 45.9515788 23.8867537 44.787135"></polygon>
            <path d="M21.4229453,45.9082357 C21.4229453,45.9082357 23.9095497,44.7746441 23.9095497,44.7746441 C23.9095497,44.7746441 23.9095497,44.7746441 23.9095497,44.7746441 L25.6364242,45.9311138 L24.1946219,46.9766509 L22.8231528,46.6629884 L21.4229453,45.9082357 Z" id="p33" fill="#1A1A1A" fill-rule="nonzero" stroke-linecap="round" stroke-linejoin="round"></path>
            <polygon id="p32" fill="#1A1A1A" fill-rule="nonzero" stroke-linecap="round" stroke-linejoin="round" points="25.598465 45.9290788 28.268975 46.5210633 29.1021669 45.7005742 26.8294266 44.2630381"></polygon>
            <polygon id="p31" fill="#1A1A1A" fill-rule="nonzero" stroke-linecap="round" stroke-linejoin="round" points="25.6305825 45.9136131 24.193972 46.9766555 24.193972 46.9766555 25.3152275 47.5081697 25.9459375 47.5081697 26.3664078 47.3309983 27.5577479 46.9766555 28.2935731 46.5160034"></polygon>
            <path d="M27.5343877,46.9766509 C28.268727,46.5210605 28.268727,46.5210605 28.268727,46.5210605 L29.0865012,45.70404 L32.152584,41.9869387 L36.8360187,41.2993302 L38.7592876,40.1428369 L39.0740057,40.4932906 L38.9341336,41.3694182 L36.2765208,42.73618 L34.4581548,43.8926733 L30.9613044,45.8201576 L29.5975288,46.2757433 L28.268727,46.5210605 L28.268727,46.5210605 L28.268727,46.5210605 L27.5343877,46.9766509 Z" id="p30" fill="#C3877C" fill-rule="nonzero" stroke-linecap="round" stroke-linejoin="round"></path>
            <polygon id="p29" fill="#B97E6C" fill-rule="nonzero" stroke-linecap="round" stroke-linejoin="round" points="31.2543962 37.7035449 34.6707304 36.2703423 32.145614 42.0031529"></polygon>
            <polygon id="p28" fill="#C68B83" fill-rule="nonzero" stroke-linecap="round" stroke-linejoin="round" points="34.6707304 36.2323766 38.9601279 34.8301841 38.7912816 40.1618461 36.8624352 41.3165866 32.1654186 42.0031529"></polygon>
            <polygon id="p27" fill="#424242" fill-rule="nonzero" stroke-linecap="round" stroke-linejoin="round" points="12.0849649 22.5647486 15.7800718 22.2453534 16.602118 21.6156078 15.6964434 21.7870896 12.0928641 22.1961628"></polygon>
            <polygon id="p26" fill="#A95E4C" fill-rule="nonzero" stroke-linecap="round" stroke-linejoin="round" points="41.2566637 18.692254 40.863789 19.284487 40.7442136 19.944408 41.1029306 20.8243011 41.444564 21.5349835 42.3669724 23.2101644 42.4523807 21.5011441 41.9570141 19.4367758"></polygon>
            <polygon id="p25" fill="#CA8B79" fill-rule="nonzero" stroke-linecap="round" stroke-linejoin="round" points="40.8960507 17.9329414 41.3882495 17.953279 41.9164335 18.2937993 42.3764622 18.9237592 41.9505088 19.4515667 41.2519435 18.7024228"></polygon>
            <polygon id="p24" fill="#C87F71" fill-rule="nonzero" stroke-linecap="round" stroke-linejoin="round" points="40.9202069 17.9329414 39.7952319 19.1262622 40.3397522 20.8942608 40.7651547 19.9592607 40.8842725 19.2962584 41.2756434 18.70126"></polygon>
            <polygon id="p23" fill="#C68570" fill-rule="nonzero" stroke-linecap="round" stroke-linejoin="round" points="37.6315535 21.3118827 40.3266616 20.8813826 39.7820496 19.109876"></polygon>
            <polygon id="p22" fill="#C6856E" fill-rule="nonzero" stroke-linecap="round" stroke-linejoin="round" points="37.6315535 21.3206864 38.3462411 22.944405 39.0842623 22.1090852 39.577816 21.6704013 40.3266616 20.8942608"></polygon>
            <polygon id="p21" fill="#CE8C72" fill-rule="nonzero" stroke-linecap="round" stroke-linejoin="round" points="40.7345741 19.9451199 40.3117165 20.8784402 39.5674762 21.6590355 40.9375516 24.0517375 42.5951678 24.4250647 42.8319734 23.3050785 42.3414505 23.2202308 41.42807 21.5402515"></polygon>
            <path d="M41.9589102,19.4431275 C41.9589102,19.4431275 42.387483,18.9200478 42.387483,18.9200478 L42.387483,18.9200478 L42.6103418,19.5612449 L42.8674855,20.3711786 L43.0217698,21.1979823 L42.4560528,21.5017109 L41.9589102,19.4431275 Z" id="p20" fill="#CB9789" fill-rule="nonzero" stroke-linecap="round" stroke-linejoin="round"></path>
            <polygon id="p19" fill="#CC9482" fill-rule="nonzero" stroke-linecap="round" stroke-linejoin="round" points="42.4591761 21.5011021 43.005208 21.1979858 43.0217698 21.9389291 42.955586 22.5114759 42.8563058 23.2860957 42.3764622 23.2018975"></polygon>
            <polygon id="p18" fill="#B46F66" fill-rule="nonzero" stroke-linecap="round" stroke-linejoin="round" points="40.9549176 24.0454083 40.5846666 24.9587647 39.8273332 25.347792 39.5580573 26.1089223 39.6590369 26.7009115 39.4535984 27.2345215 41.9983492 26.7009115 42.6042178 24.417516"></polygon>
            <polygon id="p17" fill="#A05A2C" fill-rule="nonzero" stroke-linecap="round" stroke-linejoin="round" points="38.3527796 22.9323082 39.0826299 22.0938895 39.5707191 21.6535734 40.9340099 24.0414324 40.5637348 24.9559275 39.8063521 25.3454352 39.5370586 26.107519 39.6380448 26.7002463 39.432593 27.2345215 38.9100674 26.2530902 39.0595591 24.5620553"></polygon>
            <polygon id="p16" fill="#CC8D7B" fill-rule="nonzero" stroke-linecap="round" stroke-linejoin="round" points="41.9800215 26.7030027 41.9968695 28.3727435 41.9632193 28.7606615 41.7107327 29.3847036 40.7143611 29.5124595 39.2258428 29.2597673 39.4348734 27.2350974"></polygon>
            <rect id="Rectangle" x="0" y="0" width="48" height="48"></rect>
        </g>
    </g>
</svg>