<?xml version="1.0" encoding="UTF-8"?>
<svg width="152px" height="152px" viewBox="0 0 152 152" version="1.1" xmlns="http://www.w3.org/2000/svg" xmlns:xlink="http://www.w3.org/1999/xlink">
    <title>julianda-icon-152</title>
    <g id="Page-1" stroke="none" stroke-width="1" fill="none" fill-rule="evenodd">
        <g id="julianda-icon" stroke="#212121" stroke-width="0.1">
            <g id="Group">
                <polygon id="p153" fill="#A17C73" fill-rule="nonzero" stroke-linecap="round" stroke-linejoin="round" points="72.7677052 1.60459951 60.6270655 3.19868718 70.9202262 23.124786"></polygon>
                <path d="M72.7071358,1.60459951 C72.7071358,1.60459951 70.8444356,23.0699329 70.8444356,23.0699329 L70.8444356,23.0699329 L85.6295712,24.3270311 L72.7071358,1.60459951" id="p152" fill="#906A67" fill-rule="nonzero" stroke-linecap="round" stroke-linejoin="round"></path>
                <polygon id="p150" fill="#805D5B" fill-rule="nonzero" stroke-linecap="round" stroke-linejoin="round" points="72.7677052 1.62295126 83.0076537 1.484375 85.6295712 24.3270311"></polygon>
                <path d="M83.1052797,1.484375 C101.256137,4.6673683 101.256137,4.6673683 101.256137,4.6673683 L85.7249973,24.3270311 L83.1052797,1.484375" id="p149" fill="#816164" fill-rule="nonzero" stroke-linecap="round" stroke-linejoin="round"></path>
                <polygon id="p148" fill="#2E254D" fill-rule="nonzero" stroke-linecap="round" stroke-linejoin="round" points="85.7497755 24.3293897 99.7615378 33.343869 101.256137 4.61021215"></polygon>
                <path d="M101.283511,4.61021215 C114.758073,13.2129442 115.132365,13.0259283 114.758073,13.2129442 C114.38378,13.39996 114.38378,13.39996 114.38378,13.39996 L100.534911,18.9169283 L101.283511,4.61021215 Z" id="p147" fill="#9C776B" fill-rule="nonzero" stroke-linecap="round" stroke-linejoin="round"></path>
                <path d="M100.414707,18.9984586 C117.483725,29.6169093 117.483725,29.6169093 117.483725,29.6169093 L114.670158,13.2663766 L100.414707,18.9984586 Z" id="p146" fill="#745760" fill-rule="nonzero" stroke-linecap="round" stroke-linejoin="round"></path>
                <path d="M114.719025,13.2663766 C125.537417,27.5495999 125.537417,28.1134111 125.537417,28.1134111 L117.516877,29.6169093 L114.719025,13.2663766 Z" id="p145" fill="#CAA9A0" fill-rule="nonzero" stroke-linecap="round" stroke-linejoin="round"></path>
                <polygon id="p144" fill="#3C3054" fill-rule="nonzero" stroke-linecap="round" stroke-linejoin="round" points="100.442542 19.0371528 99.6934806 33.343869 117.483725 29.6035524"></polygon>
                <path d="M99.6934806,33.3787715 L102.318752,36.952542 L123.13333,41.2786864 C123.13333,41.2786864 117.507765,29.6169093 117.507765,29.6169093 L117.507765,29.6169093 L99.6934806,33.3787715 Z" id="p143" fill="#694C5D" fill-rule="nonzero" stroke-linecap="round" stroke-linejoin="round"></path>
                <path d="M125.537417,28.0539908 C123.102574,41.1584619 123.102574,41.1584619 123.102574,41.1584619 L123.102574,41.1584619 C123.102574,41.1584619 117.483725,29.5516454 117.483725,29.5516454 L117.483725,29.5516454 L125.537417,28.0539908 Z" id="p142" fill="#7F615D" fill-rule="nonzero" stroke-linecap="round" stroke-linejoin="round"></path>
                <polygon id="p141" fill="#6C5358" fill-rule="nonzero" stroke-linecap="round" stroke-linejoin="round" points="123.13333 41.1584619 130.826408 40.5968419 125.572604 28.0539908"></polygon>
                <polygon id="p140" fill="#282045" fill-rule="nonzero" stroke-linecap="round" stroke-linejoin="round" points="102.337976 36.9506042 116.763595 50.0550753 123.13333 41.2563604"></polygon>
                <path d="M116.762499,50.0550753 C128.903139,50.0550753 128.903139,50.0550753 128.903139,50.0550753 L123.11298,41.2786864 L116.762499,50.0550753 Z" id="p139" fill="#5B4358" fill-rule="nonzero" stroke-linecap="round" stroke-linejoin="round"></path>
                <path d="M123.13333,41.2402144 C130.826408,40.6775638 130.826408,40.6775638 130.826408,40.6775638 L128.95004,50.0550753 L123.13333,41.2402144 Z" id="p138" fill="#574353" fill-rule="nonzero" stroke-linecap="round" stroke-linejoin="round"></path>
                <path d="M116.762499,50.0550753 C124.980783,57.5089946 124.980783,57.5089946 124.980783,57.5089946 L128.903139,50.0550753 L116.762499,50.0550753 Z" id="p137" fill="#61444D" fill-rule="nonzero" stroke-linecap="round" stroke-linejoin="round"></path>
                <path d="M125.056599,57.5089946 C128.948203,50.0550753 128.948203,50.0550753 128.948203,50.0550753 L128.948203,50.0550753 L129.50416,56.7635998 L125.056599,57.5089946" id="p136" fill="#231B33" fill-rule="nonzero" stroke-linecap="round" stroke-linejoin="round"></path>
                <path d="M116.762499,50.0417228 L116.762499,50.0417228 L112.458687,50.4157488 C112.458687,50.4157488 98.6116414,37.8856823 98.6116414,38.0726997 C98.6116414,38.2597171 98.6116414,38.2597171 98.6116414,38.2597171 L102.354089,36.9506042 L116.762499,50.0417228 Z" id="p135" fill="#624C68" fill-rule="nonzero" stroke-linecap="round" stroke-linejoin="round"></path>
                <path d="M98.5832738,38.1528492 L85.6295712,24.3270311 C85.6295712,24.3270311 99.7096802,33.295128 99.7096802,33.295128 L99.7096802,33.295128 L102.337976,36.8450005 L98.5832738,38.1528492 Z" id="p134" fill="#5C4559" fill-rule="nonzero" stroke-linecap="round" stroke-linejoin="round"></path>
                <path d="M70.9646399,23.124786 C85.6658616,24.3795633 85.6658616,24.3795633 85.6658616,24.3795633 C85.6658616,24.3795633 85.6658616,24.3795633 85.6658616,24.3795633 C85.6658616,24.3795633 92.1206063,31.3000524 92.1206063,31.3000524 L92.1206063,31.3000524 L73.1305453,28.4944493 L70.9646399,23.124786 Z" id="p133" fill="#2D244D" fill-rule="nonzero" stroke-linecap="round" stroke-linejoin="round"></path>
                <path d="M60.6314789,3.16751808 C45.0310175,10.2323296 44.8436666,10.2323296 45.0310175,10.2323296 C45.2183683,10.2323296 70.9646399,23.0045615 70.9646399,23.0045615 L60.6314789,3.16751808 Z" id="p132" fill="#A98575" fill-rule="nonzero" stroke-linecap="round" stroke-linejoin="round"></path>
                <polygon id="p131" fill="#B08981" fill-rule="nonzero" stroke-linecap="round" stroke-linejoin="round" points="45.0004994 10.2607639 45.3756392 27.6933172 70.9646399 23.0617712"></polygon>
                <path d="M73.0640065,28.4146643 C73.0640065,28.4146643 67.2406458,32.1601189 67.6163454,32.1601189 C67.992048,32.1601189 67.992048,32.1601189 67.992048,32.1601189 L98.6116414,38.1528492 L92.1308005,31.2237552 L73.0640065,28.4146643 Z" id="p130" fill="#2A244A" fill-rule="nonzero" stroke-linecap="round" stroke-linejoin="round"></path>
                <polygon id="p129" fill="#221D31" fill-rule="nonzero" stroke-linecap="round" stroke-linejoin="round" points="112.435142 50.4277654 125.056599 57.5089946 116.767886 50.0550753"></polygon>
                <polygon id="p128" fill="#45426A" fill-rule="nonzero" stroke-linecap="round" stroke-linejoin="round" points="45.3611125 27.6530786 47.8009126 34.4258896 70.9646399 23.0045615"></polygon>
                <path d="M47.7651995,34.4258896 C67.6799427,32.1682864 67.6799427,32.1682864 67.6799427,32.1682864 L73.1283183,28.4056145 L70.953376,23.0045615 L47.7651995,34.4258896 Z" id="p127" fill="#494664" fill-rule="nonzero" stroke-linecap="round" stroke-linejoin="round"></path>
                <polygon id="p126" fill="#36365E" fill-rule="nonzero" stroke-linecap="round" stroke-linejoin="round" points="47.7651995 34.5107534 49.2610764 38.6337473 67.9595311 32.2618485"></polygon>
                <polygon id="p125" fill="#271E39" fill-rule="nonzero" stroke-linecap="round" stroke-linejoin="round" points="49.3278561 38.6337473 83.3456884 35.2603898 68.0704658 32.2618485"></polygon>
                <path d="M45.3611125,27.6933172 C29.9749551,20.7577861 29.9749551,20.7577861 29.9749551,20.7577861 C29.9749551,20.7577861 44.9858413,10.2607639 44.9858413,10.2607639 C44.9858413,10.2607639 44.9858413,10.2607639 44.9858413,10.2607639 L45.3611125,27.6933172 Z" id="p124" fill="#826267" fill-rule="nonzero" stroke-linecap="round" stroke-linejoin="round"></path>
                <polygon id="p123" fill="#302E58" fill-rule="nonzero" stroke-linecap="round" stroke-linejoin="round" points="45.3262856 27.6933172 31.818463 33.8805847 27.6910724 43.4427275 47.7651995 34.4430634"></polygon>
                <polygon id="p122" fill="#9A7A82" fill-rule="nonzero" stroke-linecap="round" stroke-linejoin="round" points="29.9749551 20.8405204 31.851317 33.9449915 45.3611125 27.7671693"></polygon>
                <polygon id="p121" fill="#2D2851" fill-rule="nonzero" stroke-linecap="round" stroke-linejoin="round" points="27.6910724 43.4543654 32.5556883 46.0876666 32.5556883 46.0876666 49.2076518 38.5639404 47.7108456 34.4258896"></polygon>
                <path d="M18.1949284,33.824767 C31.8982248,33.824767 31.8982248,33.824767 31.8982248,33.824767 L27.7684646,43.4427275 L18.1949284,33.824767 Z" id="p120" fill="#584A64" fill-rule="nonzero" stroke-linecap="round" stroke-linejoin="round"></path>
                <path d="M30.0210598,20.8405204 C18.1949284,33.9449915 18.1949284,33.9449915 18.1949284,33.9449915 L31.8982248,33.9449915 L30.0210598,20.8405204 Z" id="p119" fill="#6A566C" fill-rule="nonzero" stroke-linecap="round" stroke-linejoin="round"></path>
                <path d="M27.7528935,43.4427275 C19.7043512,54.5165889 19.5171763,54.1411951 19.5171763,54.1411951 L32.6194509,46.0704194 L27.7528935,43.4427275 Z" id="p118" fill="#2E2753" fill-rule="nonzero" stroke-linecap="round" stroke-linejoin="round"></path>
                <polygon id="p117" fill="#5C4E66" fill-rule="nonzero" stroke-linecap="round" stroke-linejoin="round" points="18.0999274 33.824767 16.03125 39.4823926 27.6910724 43.4427275"></polygon>
                <path d="M16.03125,39.5955433 C16.2193097,45.3663196 16.2193097,45.3663196 16.2193097,45.3663196 L27.6910724,43.5047779 L16.03125,39.5955433 Z" id="p116" fill="#503E58" fill-rule="nonzero" stroke-linecap="round" stroke-linejoin="round"></path>
                <polygon id="p115" fill="#7C697C" fill-rule="nonzero" stroke-linecap="round" stroke-linejoin="round" points="16.2716587 45.3199194 19.4541185 54.1427085 27.6910724 43.4427275"></polygon>
                <polygon id="p114" fill="#281F3A" fill-rule="nonzero" stroke-linecap="round" stroke-linejoin="round" points="17.8303074 49.6944018 16.6322718 60.5146073 19.3969719 54.116566"></polygon>
                <polygon id="p113" fill="#5E5375" fill-rule="nonzero" stroke-linecap="round" stroke-linejoin="round" points="16.6322718 60.5146073 16.6322718 60.5146073 20.9596285 60.3271946 19.4544601 54.1427085"></polygon>
                <polygon id="p112" fill="#261F3D" fill-rule="nonzero" stroke-linecap="round" stroke-linejoin="round" points="20.9175571 60.2741583 24.0849417 64.241567 16.6322718 60.4630867"></polygon>
                <polygon id="p111" fill="#1A1A1A" fill-rule="nonzero" stroke-linecap="round" stroke-linejoin="round" points="24.2051461 64.241567 30.2258172 64.4291943 32.8598596 89.0078151"></polygon>
                <path d="M36.5824401,59.5528112 L37.4276251,51.0471902 C37.4276251,51.0471902 35.9050366,49.3940157 32.8598596,46.0876666 C32.2752854,49.3689707 31.794468,52.4241728 31.4174074,55.2532728 L36.5824401,59.5528112 Z" id="p110" fill="#2A2141" fill-rule="nonzero" stroke-linecap="round" stroke-linejoin="round"></path>
                <path d="M42.2357992,56.0031682 L36.5791253,59.5528112 C36.5791253,59.5528112 37.4276242,51.0523303 37.4276242,51.0523303 C37.4276242,51.0523303 32.6194521,46.101507 42.2357992,56.0031682 L42.2357992,56.0031682 Z" id="p109" fill="#2A2043" fill-rule="nonzero" stroke-linecap="round" stroke-linejoin="round"></path>
                <polygon id="p108" fill="#212121" fill-rule="nonzero" stroke-linecap="round" stroke-linejoin="round" points="36.5861946 59.6337794 30.2153638 64.482016 31.4333166 55.3449535"></polygon>
                <path d="M42.1155949,56.0663006 C55.0976652,49.6931109 55.0976652,49.6931109 55.0976652,49.6931109 L49.2651407,38.6337473 L42.1155949,56.0663006 Z" id="p107" fill="#2B223E" fill-rule="nonzero" stroke-linecap="round" stroke-linejoin="round"></path>
                <path d="M55.0976652,49.6944018 C75.2919967,43.8847267 75.2919967,43.8847267 75.2919967,43.8847267 L66.2699947,36.9506042 L55.0976652,49.6944018 Z" id="p106" fill="#1F1831" fill-rule="nonzero" stroke-linecap="round" stroke-linejoin="round"></path>
                <path d="M75.412201,43.803401 C98.6116414,38.1580768 98.6116414,38.1580768 98.6116414,38.1580768 L83.363624,35.1472366 L75.412201,43.803401 Z" id="p105" stroke-linecap="round" stroke-linejoin="round"></path>
                <polygon id="p104" fill="#212121" fill-rule="nonzero" stroke-linecap="round" stroke-linejoin="round" points="75.2919967 43.8773881 112.435142 50.4157488 98.5533549 38.2730737"></polygon>
                <polygon id="p103" fill="#25213B" fill-rule="nonzero" stroke-linecap="round" stroke-linejoin="round" points="75.412201 43.803401 83.363624 35.1472366 98.6116414 38.1580768"></polygon>
                <polygon id="p102" fill="#212121" fill-rule="nonzero" stroke-linecap="round" stroke-linejoin="round" points="93.9236716 47.1696872 107.199562 57.1483211 112.435142 50.4337152"></polygon>
                <polygon id="p101" fill="#251D35" fill-rule="nonzero" stroke-linecap="round" stroke-linejoin="round" points="107.266355 57.135672 125.056599 57.5089946 112.509807 50.4157488"></polygon>
                <path d="M21.0145798,60.3943828 C32.6194509,46.0876666 32.6194509,46.0876666 32.6194509,46.0876666 L19.5171763,54.1822479 L21.0145798,60.3943828 Z" id="p100" fill="#221C37" fill-rule="nonzero" stroke-linecap="round" stroke-linejoin="round"></path>
                <polygon id="p99" fill="#26213A" fill-rule="nonzero" stroke-linecap="round" stroke-linejoin="round" points="32.6194509 46.0876666 30.1746509 64.482016 24.1566763 64.2943142 20.9596285 60.3526794"></polygon>
                <polyline id="p98" fill="#201932" fill-rule="nonzero" stroke-linecap="round" stroke-linejoin="round" points="32.6194509 46.1353163 42.1833649 56.0663006 49.3094165 38.6402437 55.1227746 49.695486 66.3275539 36.9538524 66.3275539 36.9538524 75.3757601 43.8867975 75.3757601 43.8867975 83.3456884 35.2674611 66.3275539 36.9538524 49.3094165 38.6402437 32.6194509 46.1353163"></polyline>
                <polygon id="p97" fill="#251D34" fill-rule="nonzero" stroke-linecap="round" stroke-linejoin="round" points="107.266355 57.1483211 119.251366 67.4876286 125.056599 57.5242898"></polygon>
                <polygon id="p96" fill="#212121" fill-rule="nonzero" stroke-linecap="round" stroke-linejoin="round" points="119.187494 67.4737639 120.128221 81.5538958 107.146151 57.1483211"></polygon>
                <path d="M119.166586,67.4876286 C129.50416,56.7876476 129.50416,56.7876476 129.50416,56.7876476 L124.993217,57.5385253 L119.166586,67.4876286 Z" id="p95" fill="#945759" fill-rule="nonzero" stroke-linecap="round" stroke-linejoin="round"></path>
                <polyline id="p94" fill="#BC7C5D" fill-rule="nonzero" stroke-linecap="round" stroke-linejoin="round" points="120.213363 81.5538958 120.213363 81.5538958 120.213363 81.5538958 123.734351 77.8028893 119.28679 67.4876286 120.213363 81.5538958"></polyline>
                <polygon id="p93" fill="#CF9379" fill-rule="nonzero" stroke-linecap="round" stroke-linejoin="round" points="30.0951595 64.4171524 35.7787173 59.9134848 42.1062893 55.9460761 59.1846132 67.0526036 54.1360303 68.4494247 49.6132437 68.9350666 38.1651371 70.2527922"></polygon>
                <path d="M42.1155949,56.0663006 L55.1622409,49.6042392 L75.3949285,43.803401 L77.4556751,60.4574126 C72.3669019,62.5590331 68.5403966,64.0809043 65.9761592,65.0230262 C63.4119218,65.9651482 61.1659936,66.674339 59.2383746,67.1505988 L42.1155949,56.0663006 Z" id="p92" fill="#CF9379" fill-rule="nonzero" stroke-linecap="round" stroke-linejoin="round"></path>
                <polygon id="p91" fill="#CF9379" fill-rule="nonzero" stroke-linecap="round" stroke-linejoin="round" points="77.3574783 60.5146073 89.8968257 58.2303417 104.020837 54.318309 93.8812431 47.0893163 75.2919967 43.803401"></polygon>
                <polygon id="p90" fill="#212121" fill-rule="nonzero" stroke-linecap="round" stroke-linejoin="round" points="77.3979397 60.5146073 68.2796803 63.8031202 67.4787136 69.5314452 67.4787136 69.5314452 76.2127817 68.5044018 82.2638492 65.1379647"></polygon>
                <polyline id="p89" fill="#212121" fill-rule="nonzero" stroke-linecap="round" stroke-linejoin="round" points="77.4556751 60.5720951 88.5281043 58.2303417 98.7318458 64.2888686 89.0411438 63.260068 82.3146407 65.203363 77.4556751 60.5720951"></polyline>
                <polygon id="p88" fill="#CF9379" fill-rule="nonzero" stroke-linecap="round" stroke-linejoin="round" points="49.6884692 69.0189998 51.3749783 74.8524873 61.4955348 76.384242 67.522382 69.5764317 68.3201441 63.8808934 59.2383746 67.1505988"></polygon>
                <polygon id="p87" fill="#CF9379" fill-rule="nonzero" stroke-linecap="round" stroke-linejoin="round" points="61.4684959 76.4042766 71.9722314 80.8325487 76.2536315 68.5696492 67.5195565 69.5915514"></polygon>
                <polygon id="p86" fill="#AC7067" fill-rule="nonzero" stroke-linecap="round" stroke-linejoin="round" points="74.6909749 73.2584049 82.1910442 69.4356657 88.1570025 69.2074538 96.9638925 71.8320075 98.6116414 64.1865438 88.9524674 63.1595464 82.2478486 65.0994352 76.2250714 68.4657213"></polygon>
                <polygon id="p85" fill="#D6D6D6" fill-rule="nonzero" stroke-linecap="round" stroke-linejoin="round" points="74.8111793 77.2258136 79.9268441 72.6572824 79.9268441 72.6572824 82.1436449 77.1115911"></polygon>
                <path d="M85.0285494,70.9741393 C86.9557216,75.0617725 86.9557216,75.0617725 86.9557216,75.0617725 L92.0004019,72.6437401 L85.0285494,70.9741393 Z" id="p84" fill="#D6D6D6" fill-rule="nonzero" stroke-linecap="round" stroke-linejoin="round"></path>
                <path d="M79.9799665,72.6773263 C80.9616209,72.0483884 81.7429492,71.6355323 82.3239514,71.438758 C82.9049536,71.2419836 83.7999199,71.0871107 85.0088502,70.9741393 L86.951819,75.0050122 L82.2086828,77.1055891 L79.9799665,72.6773263 Z" id="p83" fill="#212121" fill-rule="nonzero" stroke-linecap="round" stroke-linejoin="round"></path>
                <polygon id="p82" fill="#472241" fill-rule="nonzero" stroke-linecap="round" stroke-linejoin="round" points="74.8674009 77.2242841 72.6475009 78.1876096 74.6966393 73.3143038 82.2101177 69.5176508 88.1867422 69.2909962 92.0004019 72.634311 84.9992082 70.9909781 79.9902177 72.6909746"></polygon>
                <path d="M88.1538626,69.1707717 C96.9463328,71.8102407 96.9463328,71.8102407 96.9463328,71.8102407 L98.2510284,74.2202009 L91.954483,72.5561885 L88.1538626,69.1707717 Z" id="p81" fill="#653E59" fill-rule="nonzero" stroke-linecap="round" stroke-linejoin="round"></path>
                <polygon id="p80" fill="#6C3450" fill-rule="nonzero" stroke-linecap="round" stroke-linejoin="round" points="72.6074211 78.195011 71.9262748 80.8325487 81.5192474 78.6537196 82.1436449 77.1055891 74.8211941 77.2202294"></polygon>
                <polygon id="p79" fill="#B6736B" fill-rule="nonzero" stroke-linecap="round" stroke-linejoin="round" points="81.5426231 78.6685076 82.1677702 77.1373333 91.9427545 72.6572824 98.2510284 74.301856"></polygon>
                <polygon id="p78" fill="#D6D6D6" fill-rule="nonzero" stroke-linecap="round" stroke-linejoin="round" points="53.1022735 80.2314262 52.9339868 83.4774879 56.2997087 82.6939508"></polygon>
                <polygon id="p77" fill="#D6D6D6" fill-rule="nonzero" stroke-linecap="round" stroke-linejoin="round" points="46.2155371 80.5920997 46.4429516 83.8381614 42.2357992 83.4324074"></polygon>
                <polyline id="p76" fill="#212121" fill-rule="nonzero" stroke-linecap="round" stroke-linejoin="round" points="46.2025429 80.5427757 48.9432022 79.6303037 53.0541911 80.1435738 52.8828992 83.4512868 49.6283656 84.0786104 46.4309322 83.7364206 46.2025429 80.5427757"></polyline>
                <polygon id="p75" fill="#212121" fill-rule="nonzero" stroke-linecap="round" stroke-linejoin="round" points="49.9514406 70.3730167 38.2515521 71.4016596 35.0142037 73.5732486 33.8782903 76.4306141 33.8214944 80.2023191 35.2981798 83.1168144 35.7525449 79.7451347 36.5476819 77.4021126 39.3874625 76.0877185 44.4990641 75.5162454 51.3713302 74.7733392"></polygon>
                <polygon id="p74" fill="#CF9379" fill-rule="nonzero" stroke-linecap="round" stroke-linejoin="round" points="49.9288779 70.4434219 38.2316788 71.4666616 34.9950745 73.6268439 33.8594222 76.4692007 33.8026395 80.2210941 35.2789854 83.1202804 32.8334688 89.0078151 30.9067376 70.6707988 30.2153638 64.482016 38.2566889 70.2858309 49.6641487 68.9752916"></polygon>
                <polygon id="p73" fill="#CF9379" fill-rule="nonzero" stroke-linecap="round" stroke-linejoin="round" points="51.3713302 74.8213235 53.0730981 80.1443112 56.3064605 82.6359163 61.4684959 76.3502643"></polygon>
                <path d="M53.0541911,80.1921496 L48.9274432,79.6779175 L46.176278,80.5920997 C46.176278,80.5920997 44.3994776,75.5640901 44.3994776,75.5640901 L44.3994776,75.5640901 L51.3347084,74.8213235 L53.0541911,80.1921496 Z" id="p72" fill="#472241" fill-rule="nonzero" stroke-linecap="round" stroke-linejoin="round"></path>
                <polygon id="p71" fill="#AC7067" fill-rule="nonzero" stroke-linecap="round" stroke-linejoin="round" points="44.5216467 75.5426705 39.37848 76.1088452 36.5211647 77.4110529 35.7211146 79.7323518 35.2639467 83.0727711 38.4641427 85.2808555 40.6357025 80.6382285 45.7217255 79.052948"></polygon>
                <path d="M42.2103564,83.4119062 C42.2103564,83.4119062 38.3892599,85.40108 38.3892599,85.40108 L38.3892599,85.40108 L40.5564476,80.7407359 L45.632231,79.1494057 L46.2025429,80.6270747 L42.2103564,83.4119062 Z" id="p70" fill="#472241" fill-rule="nonzero" stroke-linecap="round" stroke-linejoin="round"></path>
                <path d="M61.4536307,76.384242 C57.8704846,101.176753 58.1916636,101.337527 57.8704846,101.176753 C57.5493085,101.015978 66.8634623,105.839246 66.8634623,105.839246 L74.0899531,99.8905414 L61.4536307,76.384242" id="p69" fill="#CF9379" fill-rule="nonzero" stroke-linecap="round" stroke-linejoin="round"></path>
                <path d="M79.3617789,101.511164 C79.5227593,101.511164 79.5227593,101.511164 79.5227593,101.511164 L83.2254841,97.3247726 C83.2254841,97.3247726 81.7028956,95.874923 78.6577186,92.9752238 L74.2101575,99.9010099 C79.3617789,101.511164 79.2007839,101.511164 79.3617789,101.511164 Z" id="p68" fill="#CF9379" fill-rule="nonzero" stroke-linecap="round" stroke-linejoin="round"></path>
                <polygon id="p67" fill="#CF9379" fill-rule="nonzero" stroke-linecap="round" stroke-linejoin="round" points="78.6577186 93.0179218 61.4684959 76.384242 74.146416 99.9482451"></polygon>
                <path d="M74.2101514,99.8280206 C74.2101514,99.8280206 66.9978962,105.82338 66.9978962,105.82338 L66.9978962,105.82338 C66.9978962,105.82338 67.609087,107.668512 67.6642758,107.835899 C67.7194574,108.003287 67.7194574,108.003287 67.7194574,108.003287 L73.4038078,102.36795 L79.4991491,101.448391 L74.2101514,99.8280206" id="p66" fill="#A76562" fill-rule="nonzero" stroke-linecap="round" stroke-linejoin="round"></path>
                <polyline id="p65" fill="#CF9379" fill-rule="nonzero" stroke-linecap="round" stroke-linejoin="round" points="66.8776919 105.86271 58.829595 105.754631 56.9414819 107.041491 53.0541911 103.460648 57.8463392 101.15049 66.8776919 105.862636"></polyline>
                <polygon id="p64" fill="#7D415A" fill-rule="nonzero" stroke-linecap="round" stroke-linejoin="round" points="67.7191224 108.003287 57.0209348 107.00043 58.9154067 105.719021 66.990608 105.826642"></polygon>
                <path d="M67.7191224,108.003287 C67.7191224,108.003287 73.4036352,102.421917 73.4036352,102.421917 L73.4036352,102.421917 L79.4991491,101.511164 L67.7191224,108.003287 Z" id="p63" fill="#5F2B4F" fill-rule="nonzero" stroke-linecap="round" stroke-linejoin="round"></path>
                <polygon id="p62" stroke-linecap="round" stroke-linejoin="round" points="61.4684959 76.384242 78.6441307 92.9752238 89.9569279 83.1995782 89.9278549 76.4694921 71.9415852 80.8174636"></polygon>
                <polygon id="p61" fill="#CF9379" fill-rule="nonzero" stroke-linecap="round" stroke-linejoin="round" points="61.4684959 76.384242 78.6441307 92.9752238 89.9569279 83.1995782 89.9278549 76.4694921 71.9415852 80.8174636"></polygon>
                <path d="M38.3892599,85.2842069 C49.0968955,85.881978 49.0968955,85.881978 49.0968955,85.881978 L56.2997087,82.6359163 L49.6260692,84.0445846 L42.2109186,83.3120713 L38.3892599,85.2842069 Z" id="p60" fill="#4A2D56" fill-rule="nonzero" stroke-linecap="round" stroke-linejoin="round"></path>
                <polyline id="p59" fill="#DDA788" fill-rule="nonzero" stroke-linecap="round" stroke-linejoin="round" points="61.4684959 76.384242 56.2820453 82.693759 49.0850018 85.9683901 38.3859434 85.3653579 35.1942791 83.1484915 32.7396553 89.035562 33.7647036 94.1617884 51.3053321 95.3797139 59.4095487 91.3383883 61.4684959 76.384242"></polyline>
                <polygon id="p58" fill="#CF9379" fill-rule="nonzero" stroke-linecap="round" stroke-linejoin="round" points="78.6577186 92.9536889 83.2254841 97.303306 94.5668644 92.0883031 98.3712327 74.2202009 89.9774485 76.4130195"></polygon>
                <path d="M123.736912,77.8269361 C123.736912,77.8269361 123.032229,82.9623918 123.14424,83.0734522 C123.256265,83.1845127 123.256265,83.1845127 123.256265,83.1845127 L124.936395,86.2938979 L124.264346,92.7347748 L120.008016,87.7375375 L120.138639,81.5821401 L123.736912,77.8269361 Z" id="p57" fill="#C57F5E" fill-rule="nonzero" stroke-linecap="round" stroke-linejoin="round"></path>
                <polygon id="p56" fill="#CF9379" fill-rule="nonzero" stroke-linecap="round" stroke-linejoin="round" points="94.4579778 92.1646132 108.781406 99.7077961 124.215169 92.7192689 119.99586 87.7274553 120.125346 81.5787387 107.171708 57.1965 103.980243 54.3831575 88.3942713 58.2392329 98.5978099 64.2758256 96.9447155 71.9069858 98.2557904 74.2988444"></polygon>
                <polygon id="p55" fill="#CF9379" fill-rule="nonzero" stroke-linecap="round" stroke-linejoin="round" points="45.7075895 79.1494057 52.2127607 77.5335917 51.3642621 74.8213235 44.519682 75.5715181"></polygon>
                <polyline id="p54" fill="#CF9379" fill-rule="nonzero" stroke-linecap="round" stroke-linejoin="round" points="53.0541911 103.434756 54.1291478 97.543755 57.8623653 101.161177 53.0541911 103.434756"></polyline>
                <polygon id="p53" fill="#CF9379" fill-rule="nonzero" stroke-linecap="round" stroke-linejoin="round" points="54.1360303 97.5061537 59.4250219 91.2920807 57.8777695 101.15049"></polygon>
                <polygon id="p52" fill="#DDA788" fill-rule="nonzero" stroke-linecap="round" stroke-linejoin="round" points="51.3713302 95.36621 54.2007511 97.543755 59.4250219 91.2920807"></polygon>
                <polygon id="p51" fill="#CF9379" fill-rule="nonzero" stroke-linecap="round" stroke-linejoin="round" points="83.2254841 97.3572668 98.3023377 103.551762 99.0866915 119.424615 109.910851 114.867065 108.89121 99.6902783 94.5818714 92.1336523"></polygon>
                <path d="M108.829012,99.5977093 C108.829012,99.5977093 124.275392,92.6145503 124.275392,92.6145503 L124.275392,92.6145503 L129.023343,93.416925 L123.365787,110.189912 L109.850491,114.735859 L108.829012,99.5977093" id="p50" fill="#CF9379" fill-rule="nonzero" stroke-linecap="round" stroke-linejoin="round"></path>
                <polygon id="p49" fill="#CF9379" fill-rule="nonzero" stroke-linecap="round" stroke-linejoin="round" points="67.598918 107.981652 79.4497356 101.481241 83.1582662 97.303306 98.2510284 103.471958 94.9532398 106.914997 86.3161997 110.045014 78.4643263 111.610022"></polygon>
                <polygon id="p48" fill="#CF9379" fill-rule="nonzero" stroke-linecap="round" stroke-linejoin="round" points="67.598918 107.983904 62.4524875 115.38776 57.9036709 117.42764 52.8842886 117.741472 47.3943377 116.329242 47.3943377 116.329242 46.9237691 105.502209 53.0692252 103.434756 56.9512053 106.985302"></polygon>
                <polygon id="p47" fill="#DDA788" fill-rule="nonzero" stroke-linecap="round" stroke-linejoin="round" points="54.1360303 97.5627542 53.068976 103.498305 46.9399225 105.565903 47.4092351 116.393696 43.0289972 122.670677 40.0721209 115.577431 37.4535046 109.445981 35.2639467 101.511164 33.8214944 94.1774689 51.2990904 95.3980437"></polygon>
                <path d="M98.2586607,103.434756 L94.9730678,106.888159 L92.6262198,111.440342 L88.8712689,116.463464 L86.2115011,121.329612 L83.0823753,124.783 L82.1436449,125.724834 C82.1436449,125.724834 83.0823802,130.538652 84.9598508,140.166287 L92.1568619,144.718485 C92.0525504,144.927785 92.0003946,145.032435 92.0003946,145.032435 L101.857159,132.945561 L99.0409385,119.288968 L98.2586607,103.434756 Z" id="p46" fill="#CF9379" fill-rule="nonzero" stroke-linecap="round" stroke-linejoin="round"></path>
                <path d="M47.4623784,116.419002 C47.4623784,116.419002 43.0772297,122.683673 43.0772297,122.683673 L43.0772297,122.683673 L47.3057684,128.008642 L52.1607515,133.020387 L60.4612102,139.754915 L67.8219957,145.393108 L75.6526097,141.790937 L73.1468146,128.635119 L68.7616689,128.635119 L63.9066857,126.442478 L58.7384739,121.587367 L57.9554122,121.117509 L57.9554122,117.515323 L52.9438147,117.828562 L47.4623784,116.419002 Z" id="p45" fill="#DDA788" fill-rule="nonzero" stroke-linecap="round" stroke-linejoin="round"></path>
                <polygon id="p44" fill="#8D5060" fill-rule="nonzero" stroke-linecap="round" stroke-linejoin="round" points="57.8623653 119.337646 61.8771345 118.583044 64.1129917 121.436044 61.2614945 123.993146 57.8623653 121.12226"></polygon>
                <path d="M61.3482916,123.933426 C61.3482916,123.933426 64.1783103,121.348207 64.1783103,121.348207 L64.1783103,121.348207 L68.1725407,122.457591 L73.1653241,122.235708 L73.6091357,124.45446 L73.1948569,128.561677 L68.8014299,128.561677 L63.9372783,126.365217 L61.3482916,123.933426 Z" id="p43" fill="#814254" fill-rule="nonzero" stroke-linecap="round" stroke-linejoin="round"></path>
                <polygon id="p42" fill="#884259" fill-rule="nonzero" stroke-linecap="round" stroke-linejoin="round" points="73.1579629 128.561677 82.1355653 125.734816 86.2305929 121.337481 81.8152133 118.342595 78.1399936 121.229888 73.1283183 122.22933 73.5738084 124.450319"></polygon>
                <path d="M81.7830318,118.357768 C81.7830318,118.357768 84.8983429,115.474761 84.8983429,115.585642 C84.8983429,115.696538 84.8983429,115.696538 84.8983429,115.696538 L87.5686159,114.03328 L89.7938361,111.926454 L95.0055108,106.921266 L92.6453058,111.468875 L88.8689836,116.48695 L86.1940777,121.348207 L81.7830318,118.357768 Z" id="p41" fill="#884259" fill-rule="nonzero" stroke-linecap="round" stroke-linejoin="round"></path>
                <polygon id="p40" fill="#743155" fill-rule="nonzero" stroke-linecap="round" stroke-linejoin="round" points="57.9825697 117.507833 62.5320004 115.477046 71.3171043 115.00841 78.5334374 111.727904 86.3772916 110.165766 95.0055108 107.041491 92.407459 109.534495 89.0441909 110.400084 85.5144609 112.430872 81.6709849 112.665189 80.4944082 113.836807 77.9843673 114.149226 76.8862417 114.930295 73.6702577 115.711378 72.493681 116.570548 69.8267744 116.726765 68.4933203 117.117299 66.6892385 117.039285 65.5910998 117.586036 61.9663032 118.544761 57.9825697 119.304391"></polygon>
                <polygon id="p39" fill="#CC9A91" fill-rule="nonzero" stroke-linecap="round" stroke-linejoin="round" points="62.3700286 115.577431 67.6642758 107.835899 78.5375142 111.665815 71.3276112 114.98329"></polygon>
                <polygon id="p38" fill="#C0C0C0" fill-rule="nonzero" stroke-linecap="round" stroke-linejoin="round" points="61.9493134 118.470014 65.5523495 117.51521 66.6438959 116.970694 68.4371474 117.048389 69.7625964 116.659451 70.7839399 122.457591 68.1725407 122.457591 64.154568 121.330137"></polygon>
                <polygon id="p37" fill="#C0C0C0" fill-rule="nonzero" stroke-linecap="round" stroke-linejoin="round" points="69.7625964 116.659451 72.3922436 116.492708 73.5680398 115.635439 76.7818757 114.856084 78.1321255 121.227983 73.068211 122.209789 70.7839399 122.457591"></polygon>
                <polygon id="p36" fill="#B3B3B3" fill-rule="nonzero" stroke-linecap="round" stroke-linejoin="round" points="76.8546533 114.840904 77.9543471 114.058462 80.4679393 113.745495 81.6461806 112.571818 84.908345 115.584605 81.7979473 118.350969 78.1321255 121.227983"></polygon>
                <polygon id="p35" fill="#B3B3B3" fill-rule="nonzero" stroke-linecap="round" stroke-linejoin="round" points="81.6628275 112.573234 85.4925975 112.339174 87.251169 111.324889 89.0097404 110.310618 92.361015 109.445981 87.5615677 114.032712 84.9087666 115.577431"></polygon>
                <polygon id="p34" fill="#C3877C" fill-rule="nonzero" stroke-linecap="round" stroke-linejoin="round" points="73.1283183 128.625234 82.1436449 125.724834 84.908345 140.254406 81.0953056 145.513333 75.6413868 141.825927"></polygon>
                <path d="M67.8393267,145.37608 C67.8393267,145.37608 75.713574,141.786373 75.713574,141.786373 C75.713574,141.786373 75.713574,141.786373 75.713574,141.786373 L81.18201,145.448527 L76.6163028,148.759394 L72.2733173,147.76613 L67.8393267,145.37608 Z" id="p33" fill="#1A1A1A" fill-rule="nonzero" stroke-linecap="round" stroke-linejoin="round"></path>
                <polygon id="p32" fill="#1A1A1A" fill-rule="nonzero" stroke-linecap="round" stroke-linejoin="round" points="81.0618057 145.442083 89.5184208 147.3167 92.1568619 144.718485 84.9598508 140.166287"></polygon>
                <polygon id="p31" fill="#1A1A1A" fill-rule="nonzero" stroke-linecap="round" stroke-linejoin="round" points="81.1635113 145.393108 76.6142446 148.759409 76.6142446 148.759409 80.1648872 150.442538 82.1621355 150.442538 83.4936246 149.881495 87.2662015 148.759409 89.5963148 147.300677"></polygon>
                <path d="M87.1922278,148.759394 C89.5176355,147.316692 89.5176355,147.316692 89.5176355,147.316692 L92.1072537,144.72946 L101.816516,132.958639 L116.647392,130.781212 L122.737744,127.118983 L123.734351,128.228754 L123.291423,131.003158 L114.875649,135.331237 L109.11749,138.993466 L98.0441305,145.097166 L93.7255078,146.539854 L89.5176355,147.316692 L89.5176355,147.316692 L89.5176355,147.316692 L87.1922278,148.759394 Z" id="p30" fill="#C3877C" fill-rule="nonzero" stroke-linecap="round" stroke-linejoin="round"></path>
                <polygon id="p29" fill="#B97E6C" fill-rule="nonzero" stroke-linecap="round" stroke-linejoin="round" points="98.9722545 119.394559 109.790646 114.856084 101.794444 133.009984"></polygon>
                <polygon id="p28" fill="#C68B83" fill-rule="nonzero" stroke-linecap="round" stroke-linejoin="round" points="109.790646 114.735859 123.373738 110.295583 122.839058 127.179179 116.731045 130.835858 101.857159 133.009984"></polygon>
                <polygon id="p27" fill="#424242" fill-rule="nonzero" stroke-linecap="round" stroke-linejoin="round" points="38.2690555 71.4550373 49.9702275 70.4436192 52.5733737 68.4494247 49.705404 68.9924502 38.2940697 70.2878489"></polygon>
                <polygon id="p26" fill="#A95E4C" fill-rule="nonzero" stroke-linecap="round" stroke-linejoin="round" points="130.646102 59.1921377 129.401999 61.0675422 129.023343 63.1572921 130.15928 65.9436203 131.241119 68.1941145 134.162079 73.4988539 134.432539 68.0869564 132.863878 61.5497899"></polygon>
                <polygon id="p25" fill="#CA8B79" fill-rule="nonzero" stroke-linecap="round" stroke-linejoin="round" points="129.50416 56.7876476 131.06279 56.85205 132.735373 57.9303645 134.19213 59.9252375 132.843278 61.5966278 130.631154 59.2243389"></polygon>
                <polygon id="p24" fill="#C87F71" fill-rule="nonzero" stroke-linecap="round" stroke-linejoin="round" points="129.580655 56.7876476 126.018234 60.5664968 127.742548 66.1651591 129.089657 63.2043257 129.466863 61.1048182 130.706204 59.2206568"></polygon>
                <polygon id="p23" fill="#C68570" fill-rule="nonzero" stroke-linecap="round" stroke-linejoin="round" points="119.166586 67.4876286 127.701095 66.1243783 125.97649 60.5146073"></polygon>
                <polygon id="p22" fill="#C6856E" fill-rule="nonzero" stroke-linecap="round" stroke-linejoin="round" points="119.166586 67.5155069 121.429763 72.6572824 123.766831 70.0121031 125.329751 68.6229373 127.701095 66.1651591"></polygon>
                <polygon id="p21" fill="#CE8C72" fill-rule="nonzero" stroke-linecap="round" stroke-linejoin="round" points="128.992818 63.1595464 127.653769 66.1150606 125.297008 68.5869458 129.63558 76.1638353 134.884698 77.3460381 135.634583 73.7994152 134.08126 73.5307307 131.188888 68.2107963"></polygon>
                <path d="M132.869882,61.5699038 C132.869882,61.5699038 134.22703,59.9134848 134.22703,59.9134848 L134.22703,59.9134848 L134.932749,61.9439423 L135.747037,64.5087323 L136.235604,67.126944 L134.444167,68.0887511 L132.869882,61.5699038 Z" id="p20" fill="#CB9789" fill-rule="nonzero" stroke-linecap="round" stroke-linejoin="round"></path>
                <polygon id="p19" fill="#CC9482" fill-rule="nonzero" stroke-linecap="round" stroke-linejoin="round" points="134.454058 68.0868233 136.183159 67.1269551 136.235604 69.4732753 136.026022 71.2863403 135.711635 73.7393029 134.19213 73.4726753"></polygon>
                <polygon id="p18" fill="#B46F66" fill-rule="nonzero" stroke-linecap="round" stroke-linejoin="round" points="129.690572 76.143793 128.518111 79.0360882 126.119888 80.268008 125.267181 82.678254 125.58695 84.5528865 124.936395 86.2426515 132.994773 84.5528865 134.913356 77.3221339"></polygon>
                <polygon id="p17" fill="#A05A2C" fill-rule="nonzero" stroke-linecap="round" stroke-linejoin="round" points="121.450469 72.6189761 123.761661 69.9639833 125.307277 68.5696492 129.624365 76.1312027 128.451827 79.0271038 126.053448 80.2605447 125.200686 82.6738102 125.520475 84.5507799 124.869878 86.2426515 123.215213 83.1347857 123.688604 77.7798419"></polygon>
                <polygon id="p16" fill="#CC8D7B" fill-rule="nonzero" stroke-linecap="round" stroke-linejoin="round" points="132.936735 84.5595084 132.990087 89.8470211 132.883528 91.075428 132.083987 93.0515615 128.92881 93.4561218 124.215169 92.6559299 124.877099 86.244475"></polygon>
                <rect id="Rectangle" x="0.05" y="0.05" width="151.9" height="151.9"></rect>
            </g>
        </g>
    </g>
</svg>