<?xml version="1.0" encoding="UTF-8"?>
<svg width="192px" height="192px" viewBox="0 0 192 192" version="1.1" xmlns="http://www.w3.org/2000/svg" xmlns:xlink="http://www.w3.org/1999/xlink">
    <title>julianda-icon-192</title>
    <g id="Page-1" stroke="none" stroke-width="1" fill="none" fill-rule="evenodd">
        <g id="julianda-icon" stroke="#212121" stroke-width="0.2">
            <g id="Group">
                <polygon id="p153" fill="#A17C73" fill-rule="nonzero" stroke-linecap="round" stroke-linejoin="round" points="91.9171014 2.02686253 76.5815564 4.04044696 89.5834436 29.210256"></polygon>
                <path d="M91.8405926,2.02686253 C91.8405926,2.02686253 89.4877081,29.1409679 89.4877081,29.1409679 L89.4877081,29.1409679 L108.163669,30.7288814 L91.8405926,2.02686253" id="p152" fill="#906A67" fill-rule="nonzero" stroke-linecap="round" stroke-linejoin="round"></path>
                <polygon id="p150" fill="#805D5B" fill-rule="nonzero" stroke-linecap="round" stroke-linejoin="round" points="91.9171014 2.0500437 104.851773 1.875 108.163669 30.7288814"></polygon>
                <path d="M104.97509,1.875 C127.902489,5.89562311 127.902489,5.89562311 127.902489,5.89562311 L108.284207,30.7288814 L104.97509,1.875" id="p149" fill="#816164" fill-rule="nonzero" stroke-linecap="round" stroke-linejoin="round"></path>
                <polygon id="p148" fill="#2E254D" fill-rule="nonzero" stroke-linecap="round" stroke-linejoin="round" points="108.315506 30.7318607 126.014574 42.1185714 127.902489 5.82342587"></polygon>
                <path d="M127.937066,5.82342587 C144.957565,16.6900347 145.430356,16.4538042 144.957565,16.6900347 C144.484775,16.9262653 144.484775,16.9262653 144.484775,16.9262653 L126.991467,23.8950674 L127.937066,5.82342587 Z" id="p147" fill="#9C776B" fill-rule="nonzero" stroke-linecap="round" stroke-linejoin="round"></path>
                <path d="M126.83963,23.9980529 C148.400495,37.4108328 148.400495,37.4108328 148.400495,37.4108328 L144.846515,16.7575283 L126.83963,23.9980529 Z" id="p146" fill="#745760" fill-rule="nonzero" stroke-linecap="round" stroke-linejoin="round"></path>
                <path d="M144.908242,16.7575283 C158.573579,34.7994946 158.573579,35.5116772 158.573579,35.5116772 L148.442371,37.4108328 L144.908242,16.7575283 Z" id="p145" fill="#CAA9A0" fill-rule="nonzero" stroke-linecap="round" stroke-linejoin="round"></path>
                <polygon id="p144" fill="#3C3054" fill-rule="nonzero" stroke-linecap="round" stroke-linejoin="round" points="126.87479 24.0469299 125.928607 42.1185714 148.400495 37.3939609"></polygon>
                <path d="M125.928607,42.1626587 L129.244739,46.6768951 L155.536838,52.1414986 C155.536838,52.1414986 148.430861,37.4108328 148.430861,37.4108328 L148.430861,37.4108328 L125.928607,42.1626587 Z" id="p143" fill="#694C5D" fill-rule="nonzero" stroke-linecap="round" stroke-linejoin="round"></path>
                <path d="M158.573579,35.4366199 C155.497988,51.989636 155.497988,51.989636 155.497988,51.989636 L155.497988,51.989636 C155.497988,51.989636 148.400495,37.3283942 148.400495,37.3283942 L148.400495,37.3283942 L158.573579,35.4366199 Z" id="p142" fill="#7F615D" fill-rule="nonzero" stroke-linecap="round" stroke-linejoin="round"></path>
                <polygon id="p141" fill="#6C5358" fill-rule="nonzero" stroke-linecap="round" stroke-linejoin="round" points="155.536838 51.989636 165.254411 51.2802214 158.618026 35.4366199"></polygon>
                <polygon id="p140" fill="#282045" fill-rule="nonzero" stroke-linecap="round" stroke-linejoin="round" points="129.269023 46.6744474 147.490857 63.2274635 155.536838 52.1132974"></polygon>
                <path d="M147.489472,63.2274635 C162.825017,63.2274635 162.825017,63.2274635 162.825017,63.2274635 L155.511132,52.1414986 L147.489472,63.2274635 Z" id="p139" fill="#5B4358" fill-rule="nonzero" stroke-linecap="round" stroke-linejoin="round"></path>
                <path d="M155.536838,52.0929025 C165.254411,51.3821859 165.254411,51.3821859 165.254411,51.3821859 L162.884261,63.2274635 L155.536838,52.0929025 Z" id="p138" fill="#574353" fill-rule="nonzero" stroke-linecap="round" stroke-linejoin="round"></path>
                <path d="M147.489472,63.2274635 C157.870463,72.6429406 157.870463,72.6429406 157.870463,72.6429406 L162.825017,63.2274635 L147.489472,63.2274635 Z" id="p137" fill="#61444D" fill-rule="nonzero" stroke-linecap="round" stroke-linejoin="round"></path>
                <path d="M157.966231,72.6429406 C162.88194,63.2274635 162.88194,63.2274635 162.88194,63.2274635 L162.88194,63.2274635 L163.584203,71.7013892 L157.966231,72.6429406" id="p136" fill="#231B33" fill-rule="nonzero" stroke-linecap="round" stroke-linejoin="round"></path>
                <path d="M147.489472,63.2105972 L147.489472,63.2105972 L142.053078,63.6830511 C142.053078,63.6830511 124.562073,47.8555987 124.562073,48.0918312 C124.562073,48.3280636 124.562073,48.3280636 124.562073,48.3280636 L129.289375,46.6744474 L147.489472,63.2105972 Z" id="p135" fill="#624C68" fill-rule="nonzero" stroke-linecap="round" stroke-linejoin="round"></path>
                <path d="M124.526241,48.1930727 L108.163669,30.7288814 C108.163669,30.7288814 125.94907,42.0570037 125.94907,42.0570037 L125.94907,42.0570037 L129.269023,46.5410533 L124.526241,48.1930727 Z" id="p134" fill="#5C4559" fill-rule="nonzero" stroke-linecap="round" stroke-linejoin="round"></path>
                <path d="M89.6395452,29.210256 C108.209509,30.7952379 108.209509,30.7952379 108.209509,30.7952379 C108.209509,30.7952379 108.209509,30.7952379 108.209509,30.7952379 C108.209509,30.7952379 116.362871,39.5369083 116.362871,39.5369083 L116.362871,39.5369083 L92.3754256,35.9929886 L89.6395452,29.210256 Z" id="p133" fill="#2D244D" fill-rule="nonzero" stroke-linecap="round" stroke-linejoin="round"></path>
                <path d="M76.5871312,4.00107547 C56.8812852,12.925048 56.6446315,12.925048 56.8812852,12.925048 C57.117939,12.925048 89.6395452,29.0583935 89.6395452,29.0583935 L76.5871312,4.00107547 Z" id="p132" fill="#A98575" fill-rule="nonzero" stroke-linecap="round" stroke-linejoin="round"></path>
                <polygon id="p131" fill="#B08981" fill-rule="nonzero" stroke-linecap="round" stroke-linejoin="round" points="56.8427361 12.9609649 57.3165969 34.9810323 89.6395452 29.1306583"></polygon>
                <path d="M92.2913766,35.8922075 C92.2913766,35.8922075 84.9355526,40.6233081 85.4101205,40.6233081 C85.8846922,40.6233081 85.8846922,40.6233081 85.8846922,40.6233081 L124.562073,48.1930727 L116.375748,39.4405329 L92.2913766,35.8922075 Z" id="p130" fill="#2A244A" fill-rule="nonzero" stroke-linecap="round" stroke-linejoin="round"></path>
                <polygon id="p129" fill="#221D31" fill-rule="nonzero" stroke-linecap="round" stroke-linejoin="round" points="142.023337 63.69823 157.966231 72.6429406 147.496277 63.2274635"></polygon>
                <polygon id="p128" fill="#45426A" fill-rule="nonzero" stroke-linecap="round" stroke-linejoin="round" points="57.2982473 34.9302046 60.3801002 43.4853342 89.6395452 29.0583935"></polygon>
                <path d="M60.3349889,43.4853342 C85.4904539,40.6336249 85.4904539,40.6336249 85.4904539,40.6336249 L92.3726126,35.8807762 L89.625317,29.0583935 L60.3349889,43.4853342 Z" id="p127" fill="#494664" fill-rule="nonzero" stroke-linecap="round" stroke-linejoin="round"></path>
                <polygon id="p126" fill="#36365E" fill-rule="nonzero" stroke-linecap="round" stroke-linejoin="round" points="60.3349889 43.5925306 62.2245176 48.8005228 85.8436182 40.7518086"></polygon>
                <polygon id="p125" fill="#271E39" fill-rule="nonzero" stroke-linecap="round" stroke-linejoin="round" points="62.3088709 48.8005228 105.278764 44.5394398 85.9837463 40.7518086"></polygon>
                <path d="M57.2982473,34.9810323 C37.8631012,26.2203614 37.8631012,26.2203614 37.8631012,26.2203614 C37.8631012,26.2203614 56.8242205,12.9609649 56.8242205,12.9609649 C56.8242205,12.9609649 56.8242205,12.9609649 56.8242205,12.9609649 L57.2982473,34.9810323 Z" id="p124" fill="#826267" fill-rule="nonzero" stroke-linecap="round" stroke-linejoin="round"></path>
                <polygon id="p123" fill="#302E58" fill-rule="nonzero" stroke-linecap="round" stroke-linejoin="round" points="57.2542555 34.9810323 40.1917428 42.7965281 34.9781967 54.8750242 60.3349889 43.5070275"></polygon>
                <polygon id="p122" fill="#9A7A82" fill-rule="nonzero" stroke-linecap="round" stroke-linejoin="round" points="37.8631012 26.3248679 40.2332425 42.877884 57.2982473 35.0743192"></polygon>
                <polygon id="p121" fill="#2D2851" fill-rule="nonzero" stroke-linecap="round" stroke-linejoin="round" points="34.9781967 54.8897247 41.1229747 58.2159999 41.1229747 58.2159999 62.1570338 48.7123458 60.2663313 43.4853342"></polygon>
                <path d="M22.9830674,42.7260215 C40.2924944,42.7260215 40.2924944,42.7260215 40.2924944,42.7260215 L35.0759552,54.8750242 L22.9830674,42.7260215 Z" id="p120" fill="#584A64" fill-rule="nonzero" stroke-linecap="round" stroke-linejoin="round"></path>
                <path d="M37.9213387,26.3248679 C22.9830674,42.877884 22.9830674,42.877884 22.9830674,42.877884 L40.2924944,42.877884 L37.9213387,26.3248679 Z" id="p119" fill="#6A566C" fill-rule="nonzero" stroke-linecap="round" stroke-linejoin="round"></path>
                <path d="M35.0562865,54.8750242 C24.8897067,68.8630596 24.6532753,68.388878 24.6532753,68.388878 L41.2035169,58.194214 L35.0562865,54.8750242 Z" id="p118" fill="#2E2753" fill-rule="nonzero" stroke-linecap="round" stroke-linejoin="round"></path>
                <polygon id="p117" fill="#5C4E66" fill-rule="nonzero" stroke-linecap="round" stroke-linejoin="round" points="22.8630661 42.7260215 20.25 49.872496 34.9781967 54.8750242"></polygon>
                <path d="M20.25,50.0154231 C20.4875491,57.3048247 20.4875491,57.3048247 20.4875491,57.3048247 L34.9781967,54.9534036 L20.25,50.0154231 Z" id="p116" fill="#503E58" fill-rule="nonzero" stroke-linecap="round" stroke-linejoin="round"></path>
                <polygon id="p115" fill="#7C697C" fill-rule="nonzero" stroke-linecap="round" stroke-linejoin="round" points="20.5536742 57.2462139 24.5736233 68.3907897 34.9781967 54.8750242"></polygon>
                <polygon id="p114" fill="#281F3A" fill-rule="nonzero" stroke-linecap="round" stroke-linejoin="round" points="22.5224936 62.7718759 21.0091854 76.4395039 24.5014382 68.3577675"></polygon>
                <polygon id="p113" fill="#5E5375" fill-rule="nonzero" stroke-linecap="round" stroke-linejoin="round" points="21.0091854 76.4395039 21.0091854 76.4395039 26.4753202 76.2027722 24.5740549 68.3907897"></polygon>
                <polygon id="p112" fill="#261F3D" fill-rule="nonzero" stroke-linecap="round" stroke-linejoin="round" points="26.4221775 76.1357789 30.4230843 81.1472425 21.0091854 76.3744253"></polygon>
                <polygon id="p111" fill="#1A1A1A" fill-rule="nonzero" stroke-linecap="round" stroke-linejoin="round" points="30.5749214 81.1472425 38.1799796 81.3842454 41.5071911 112.430924"></polygon>
                <path d="M46.209398,75.2246037 L47.2770001,64.4806613 C47.2770001,64.4806613 45.3537304,62.3924408 41.5071911,58.2159999 C40.7687815,62.3608051 40.1614332,66.2200077 39.6851461,69.7936077 L46.209398,75.2246037 Z" id="p110" fill="#2A2141" fill-rule="nonzero" stroke-linecap="round" stroke-linejoin="round"></path>
                <path d="M53.3504833,70.740844 L46.2052109,75.2246037 C46.2052109,75.2246037 47.276999,64.4871541 47.276999,64.4871541 C47.276999,64.4871541 41.2035184,58.2334825 53.3504833,70.740844 L53.3504833,70.740844 Z" id="p109" fill="#2A2043" fill-rule="nonzero" stroke-linecap="round" stroke-linejoin="round"></path>
                <polygon id="p108" fill="#212121" fill-rule="nonzero" stroke-linecap="round" stroke-linejoin="round" points="46.2141405 75.3268792 38.1667753 81.4509675 39.705242 69.909415"></polygon>
                <path d="M53.1986462,70.8205902 C69.5970507,62.7702454 69.5970507,62.7702454 69.5970507,62.7702454 L62.2296514,48.8005228 L53.1986462,70.8205902 Z" id="p107" fill="#2B223E" fill-rule="nonzero" stroke-linecap="round" stroke-linejoin="round"></path>
                <path d="M69.5970507,62.7718759 C95.10568,55.433339 95.10568,55.433339 95.10568,55.433339 L83.709467,46.6744474 L69.5970507,62.7718759 Z" id="p106" fill="#1F1831" fill-rule="nonzero" stroke-linecap="round" stroke-linejoin="round"></path>
                <path d="M95.2575171,55.3306118 C124.562073,48.199676 124.562073,48.199676 124.562073,48.199676 L105.30142,44.3965094 L95.2575171,55.3306118 Z" id="p105" stroke-linecap="round" stroke-linejoin="round"></path>
                <polygon id="p104" fill="#212121" fill-rule="nonzero" stroke-linecap="round" stroke-linejoin="round" points="95.10568 55.4240692 142.023337 63.6830511 124.488448 48.3449352"></polygon>
                <polygon id="p103" fill="#25213B" fill-rule="nonzero" stroke-linecap="round" stroke-linejoin="round" points="95.2575171 55.3306118 105.30142 44.3965094 124.562073 48.199676"></polygon>
                <polygon id="p102" fill="#212121" fill-rule="nonzero" stroke-linecap="round" stroke-linejoin="round" points="118.640427 59.5827627 135.409973 72.187353 142.023337 63.7057455"></polygon>
                <polygon id="p101" fill="#251D35" fill-rule="nonzero" stroke-linecap="round" stroke-linejoin="round" points="135.494343 72.1713752 157.966231 72.6429406 142.117651 63.6830511"></polygon>
                <path d="M26.5447324,76.2876414 C41.2035169,58.2159999 41.2035169,58.2159999 41.2035169,58.2159999 L24.6532753,68.4407342 L26.5447324,76.2876414 Z" id="p100" fill="#221C37" fill-rule="nonzero" stroke-linecap="round" stroke-linejoin="round"></path>
                <polygon id="p99" fill="#26213A" fill-rule="nonzero" stroke-linecap="round" stroke-linejoin="round" points="41.2035169 58.2159999 38.1153485 81.4509675 30.5136964 81.2138706 26.4753202 76.2349635"></polygon>
                <polyline id="p98" fill="#201932" fill-rule="nonzero" stroke-linecap="round" stroke-linejoin="round" points="41.2035169 58.276189 53.2842504 70.8205902 62.2855787 48.8087289 69.6287679 62.7732455 83.7821733 46.6785504 83.7821733 46.6785504 95.2114864 55.4359547 95.2114864 55.4359547 105.278764 44.5483719 83.7821733 46.6785504 62.2855787 48.8087289 41.2035169 58.276189"></polyline>
                <polygon id="p97" fill="#251D34" fill-rule="nonzero" stroke-linecap="round" stroke-linejoin="round" points="135.494343 72.187353 150.633305 85.2475309 157.966231 72.6622608"></polygon>
                <polygon id="p96" fill="#212121" fill-rule="nonzero" stroke-linecap="round" stroke-linejoin="round" points="150.552624 85.2300175 151.740911 103.015447 135.342506 72.187353"></polygon>
                <path d="M150.526214,85.2475309 C163.584203,71.7317654 163.584203,71.7317654 163.584203,71.7317654 L157.886169,72.6802424 L150.526214,85.2475309 Z" id="p95" fill="#945759" fill-rule="nonzero" stroke-linecap="round" stroke-linejoin="round"></path>
                <polyline id="p94" fill="#BC7C5D" fill-rule="nonzero" stroke-linecap="round" stroke-linejoin="round" points="151.848458 103.015447 151.848458 103.015447 151.848458 103.015447 156.296023 98.2773338 150.678051 85.2475309 151.848458 103.015447"></polyline>
                <polygon id="p93" fill="#CF9379" fill-rule="nonzero" stroke-linecap="round" stroke-linejoin="round" points="38.0149383 81.3690346 45.1941692 75.6801913 53.1868917 70.6687277 74.7595114 84.6980256 68.3823541 86.4624311 62.6693605 87.0758737 48.2085943 88.7403692"></polygon>
                <path d="M53.1986462,70.8205902 L69.67862,62.6579864 L95.2356992,55.3306118 L97.8387474,76.3672581 C91.4108234,79.0219366 86.5773431,80.9443002 83.3383064,82.1343489 C80.0992697,83.3243977 77.2623077,84.2202177 74.8274205,84.821809 L53.1986462,70.8205902 Z" id="p92" fill="#CF9379" fill-rule="nonzero" stroke-linecap="round" stroke-linejoin="round"></path>
                <polygon id="p91" fill="#CF9379" fill-rule="nonzero" stroke-linecap="round" stroke-linejoin="round" points="97.7147094 76.4395039 113.553885 73.5541158 131.394742 68.6126009 118.586833 59.4812417 95.10568 55.3306118"></polygon>
                <polygon id="p90" fill="#212121" fill-rule="nonzero" stroke-linecap="round" stroke-linejoin="round" points="97.7658185 76.4395039 86.2480172 80.593415 85.2362699 87.8291939 85.2362699 87.8291939 96.2687769 86.531876 103.912231 82.2795344"></polygon>
                <polyline id="p89" fill="#212121" fill-rule="nonzero" stroke-linecap="round" stroke-linejoin="round" points="97.8387474 76.5121201 111.824974 73.5541158 124.71391 81.206992 112.473024 79.9074543 103.976388 82.3621427 97.8387474 76.5121201"></polyline>
                <polygon id="p88" fill="#CF9379" fill-rule="nonzero" stroke-linecap="round" stroke-linejoin="round" points="62.7643822 87.1818944 64.8947095 94.5505102 77.6785703 96.4853584 85.2914299 87.886019 86.2991294 80.6916549 74.8274205 84.821809"></polygon>
                <polygon id="p87" fill="#CF9379" fill-rule="nonzero" stroke-linecap="round" stroke-linejoin="round" points="77.6444159 96.5106652 90.9122923 102.104272 96.3203767 86.6142937 85.2878608 87.9051175"></polygon>
                <polygon id="p86" fill="#AC7067" fill-rule="nonzero" stroke-linecap="round" stroke-linejoin="round" points="94.3464946 92.5369325 103.820266 87.7082093 111.356214 87.4199417 122.480706 90.7351673 124.562073 81.0777395 112.361012 79.7804797 103.892019 82.2308655 96.2843007 86.4830164"></polygon>
                <polygon id="p85" fill="#D6D6D6" fill-rule="nonzero" stroke-linecap="round" stroke-linejoin="round" points="94.4983317 97.5483961 100.960224 91.7776198 100.960224 91.7776198 103.760394 97.4041151"></polygon>
                <path d="M107.404483,89.6515444 C109.838806,94.8148705 109.838806,94.8148705 109.838806,94.8148705 L116.211034,91.7605138 L107.404483,89.6515444 Z" id="p84" fill="#D6D6D6" fill-rule="nonzero" stroke-linecap="round" stroke-linejoin="round"></path>
                <path d="M101.027326,91.8029384 C102.267311,91.0084906 103.254252,90.4869882 103.988149,90.2384311 C104.722047,89.989874 105.85253,89.7942451 107.3796,89.6515444 L109.833877,94.7431733 L103.842547,97.3965336 L101.027326,91.8029384 Z" id="p83" fill="#212121" fill-rule="nonzero" stroke-linecap="round" stroke-linejoin="round"></path>
                <polygon id="p82" fill="#472241" fill-rule="nonzero" stroke-linecap="round" stroke-linejoin="round" points="94.5693484 97.5464641 91.7652643 98.7632964 94.3536497 92.6075416 103.844359 87.8117694 111.39378 87.5254689 116.211034 91.7486034 107.367421 89.6728145 101.040275 91.8201785"></polygon>
                <path d="M111.352247,87.3736063 C122.458526,90.7076725 122.458526,90.7076725 122.458526,90.7076725 L124.106562,93.7518328 L116.153031,91.6499223 L111.352247,87.3736063 Z" id="p81" fill="#653E59" fill-rule="nonzero" stroke-linecap="round" stroke-linejoin="round"></path>
                <polygon id="p80" fill="#6C3450" fill-rule="nonzero" stroke-linecap="round" stroke-linejoin="round" points="91.7146372 98.7726455 90.8542418 102.104272 102.971681 99.3520669 103.760394 97.3965336 94.510982 97.5413424"></polygon>
                <polygon id="p79" fill="#B6736B" fill-rule="nonzero" stroke-linecap="round" stroke-linejoin="round" points="103.001208 99.3707465 103.790868 97.4366315 116.138216 91.7776198 124.106562 93.854976"></polygon>
                <polygon id="p78" fill="#D6D6D6" fill-rule="nonzero" stroke-linecap="round" stroke-linejoin="round" points="67.076556 101.344959 66.8639833 105.445248 71.1154215 104.455517"></polygon>
                <polygon id="p77" fill="#D6D6D6" fill-rule="nonzero" stroke-linecap="round" stroke-linejoin="round" points="58.3775205 101.800547 58.664781 105.900835 53.3504833 105.388304"></polygon>
                <polyline id="p76" fill="#212121" fill-rule="nonzero" stroke-linecap="round" stroke-linejoin="round" points="58.3611069 101.738243 61.8229923 100.585647 67.0158204 101.233988 66.7994516 105.412152 62.6884618 106.204561 58.6495985 105.772321 58.3611069 101.738243"></polyline>
                <polygon id="p75" fill="#212121" fill-rule="nonzero" stroke-linecap="round" stroke-linejoin="round" points="63.0965565 88.8922317 48.31775 90.19157 44.2284678 92.9346298 42.7936298 96.5439336 42.7218877 101.308193 44.5871745 104.98966 45.1611093 100.730696 46.165493 97.7710896 49.7525843 96.1108024 56.2093442 95.3889416 64.8901013 94.4505337"></polygon>
                <polygon id="p74" fill="#CF9379" fill-rule="nonzero" stroke-linecap="round" stroke-linejoin="round" points="63.0680563 88.9811645 48.2926469 90.2736778 44.2043047 93.0023292 42.7697965 96.5926745 42.6980709 101.331908 44.562929 104.994038 41.4738554 112.430924 39.0400897 89.2683774 38.1667753 81.4509675 48.3242385 88.7821022 62.7336615 87.1266841"></polygon>
                <polygon id="p73" fill="#CF9379" fill-rule="nonzero" stroke-linecap="round" stroke-linejoin="round" points="64.8901013 94.5111454 67.0397028 101.234919 71.1239502 104.38221 77.6444159 96.4424391"></polygon>
                <path d="M67.0158204,101.295347 L61.8030862,100.645791 L58.3279301,101.800547 C58.3279301,101.800547 56.0835507,95.449377 56.0835507,95.449377 L56.0835507,95.449377 L64.8438422,94.5111454 L67.0158204,101.295347 Z" id="p72" fill="#472241" fill-rule="nonzero" stroke-linecap="round" stroke-linejoin="round"></path>
                <polygon id="p71" fill="#AC7067" fill-rule="nonzero" stroke-linecap="round" stroke-linejoin="round" points="56.2378695 95.4223206 49.7412379 96.1374887 46.1319975 97.7823826 45.1214079 100.71455 44.5439327 104.934027 48.5862855 107.723186 51.3293084 101.858815 57.7537585 99.8563554"></polygon>
                <path d="M53.3183449,105.362408 C53.3183449,105.362408 48.4916967,107.875048 48.4916967,107.875048 L48.4916967,107.875048 L51.229197,101.988298 L57.6407128,99.9781966 L58.3611069,101.844726 L53.3183449,105.362408 Z" id="p70" fill="#472241" fill-rule="nonzero" stroke-linecap="round" stroke-linejoin="round"></path>
                <path d="M77.6256387,96.4853584 C73.0995595,127.802214 73.5052593,128.005298 73.0995595,127.802214 C72.6938634,127.59913 84.4591103,133.691679 84.4591103,133.691679 L93.5873092,126.177526 L77.6256387,96.4853584" id="p69" fill="#CF9379" fill-rule="nonzero" stroke-linecap="round" stroke-linejoin="round"></path>
                <path d="M100.246458,128.224628 C100.449801,128.224628 100.449801,128.224628 100.449801,128.224628 L105.126927,122.936555 C105.126927,122.936555 103.203658,121.105166 99.3571182,117.442388 L93.7391463,126.190749 C100.246458,128.224628 100.043095,128.224628 100.246458,128.224628 Z" id="p68" fill="#CF9379" fill-rule="nonzero" stroke-linecap="round" stroke-linejoin="round"></path>
                <polygon id="p67" fill="#CF9379" fill-rule="nonzero" stroke-linecap="round" stroke-linejoin="round" points="99.3571182 117.496322 77.6444159 96.4853584 93.6586308 126.250415"></polygon>
                <path d="M93.7391387,126.098552 C93.7391387,126.098552 84.6289216,133.671638 84.6289216,133.671638 L84.6289216,133.671638 C84.6289216,133.671638 85.400952,136.00233 85.4706642,136.213768 C85.5403673,136.425205 85.5403673,136.425205 85.5403673,136.425205 L92.7205993,129.306884 L100.419978,128.145336 L93.7391387,126.098552" id="p66" fill="#A76562" fill-rule="nonzero" stroke-linecap="round" stroke-linejoin="round"></path>
                <polyline id="p65" fill="#CF9379" fill-rule="nonzero" stroke-linecap="round" stroke-linejoin="round" points="84.4770845 133.721318 74.3110673 133.584797 71.9260824 135.210304 67.0158204 130.687134 73.06906 127.76904 84.4770845 133.721225"></polyline>
                <polygon id="p64" fill="#7D415A" fill-rule="nonzero" stroke-linecap="round" stroke-linejoin="round" points="85.539944 136.425205 72.026444 135.158438 74.4194611 133.539817 84.6197154 133.675759"></polygon>
                <path d="M85.539944,136.425205 C85.539944,136.425205 92.7203813,129.375053 92.7203813,129.375053 L92.7203813,129.375053 L100.419978,128.224628 L85.539944,136.425205 Z" id="p63" fill="#5F2B4F" fill-rule="nonzero" stroke-linecap="round" stroke-linejoin="round"></path>
                <polygon id="p62" stroke-linecap="round" stroke-linejoin="round" points="77.6444159 96.4853584 99.3399546 117.442388 113.629804 105.094204 113.59308 96.5930426 90.8735813 102.085217"></polygon>
                <polygon id="p61" fill="#CF9379" fill-rule="nonzero" stroke-linecap="round" stroke-linejoin="round" points="77.6444159 96.4853584 99.3399546 117.442388 113.629804 105.094204 113.59308 96.5930426 90.8735813 102.085217"></polygon>
                <path d="M48.4916967,107.727419 C62.0171312,108.482499 62.0171312,108.482499 62.0171312,108.482499 L71.1154215,104.38221 L62.6855611,106.161581 L53.3190551,105.236301 L48.4916967,107.727419 Z" id="p60" fill="#4A2D56" fill-rule="nonzero" stroke-linecap="round" stroke-linejoin="round"></path>
                <polyline id="p59" fill="#DDA788" fill-rule="nonzero" stroke-linecap="round" stroke-linejoin="round" points="77.6444159 96.4853584 71.0931098 104.455275 62.0021075 108.591651 48.4875074 107.829926 44.4559315 105.029673 41.355354 112.465973 42.6501519 118.941206 64.8067353 120.479639 75.0436405 115.374806 77.6444159 96.4853584"></polyline>
                <polygon id="p58" fill="#CF9379" fill-rule="nonzero" stroke-linecap="round" stroke-linejoin="round" points="99.3571182 117.415186 105.126927 122.909439 119.452881 116.322067 124.258399 93.7518328 113.655724 96.5217088"></polygon>
                <path d="M156.299257,98.3077088 C156.299257,98.3077088 155.409132,104.7946 155.550619,104.934887 C155.692125,105.075174 155.692125,105.075174 155.692125,105.075174 L157.814394,109.002818 L156.96549,117.138663 L151.589073,110.826363 L151.75407,103.051124 L156.299257,98.3077088 Z" id="p57" fill="#C57F5E" fill-rule="nonzero" stroke-linecap="round" stroke-linejoin="round"></path>
                <polygon id="p56" fill="#CF9379" fill-rule="nonzero" stroke-linecap="round" stroke-linejoin="round" points="119.31534 116.418459 137.408092 125.94669 156.903371 117.119076 151.573718 110.813628 151.73728 103.046828 135.374789 72.2482106 131.343464 68.6945147 111.655922 73.5653468 124.544602 81.1905165 122.456483 90.8298768 124.112577 93.8511719"></polygon>
                <polygon id="p55" fill="#CF9379" fill-rule="nonzero" stroke-linecap="round" stroke-linejoin="round" points="57.7359026 99.9781966 65.9529608 97.9371684 64.8811732 94.5111454 56.2353878 95.4587596"></polygon>
                <polyline id="p54" fill="#CF9379" fill-rule="nonzero" stroke-linecap="round" stroke-linejoin="round" points="67.0158204 130.654428 68.3736603 123.213164 73.0893035 127.782539 67.0158204 130.654428"></polyline>
                <polygon id="p53" fill="#CF9379" fill-rule="nonzero" stroke-linecap="round" stroke-linejoin="round" points="68.3823541 123.165668 75.0631856 115.316313 73.1087614 127.76904"></polygon>
                <polygon id="p52" fill="#DDA788" fill-rule="nonzero" stroke-linecap="round" stroke-linejoin="round" points="64.8901013 120.462581 68.4641066 123.213164 75.0631856 115.316313"></polygon>
                <polygon id="p51" fill="#CF9379" fill-rule="nonzero" stroke-linecap="round" stroke-linejoin="round" points="105.126927 122.9776 124.171374 130.802225 125.162137 150.852145 138.834759 145.09524 137.546791 125.924562 119.471838 116.37935"></polygon>
                <path d="M137.468225,125.807633 C137.468225,125.807633 156.979443,116.9868 156.979443,116.9868 L156.979443,116.9868 L162.976854,118.000326 L155.830467,139.187257 L138.758515,144.929507 L137.468225,125.807633" id="p50" fill="#CF9379" fill-rule="nonzero" stroke-linecap="round" stroke-linejoin="round"></path>
                <polygon id="p49" fill="#CF9379" fill-rule="nonzero" stroke-linecap="round" stroke-linejoin="round" points="85.388107 136.397876 100.357561 128.18683 105.04202 122.909439 124.106562 130.70142 119.940934 135.050522 109.030989 139.004228 99.1128333 140.981081"></polygon>
                <polygon id="p48" fill="#CF9379" fill-rule="nonzero" stroke-linecap="round" stroke-linejoin="round" points="85.388107 136.40072 78.8873526 145.75296 73.141479 148.32965 66.8012066 148.72607 59.8665318 146.9422 59.8665318 146.9422 59.2721293 133.265948 67.0348108 130.654428 71.9383646 135.139328"></polygon>
                <polygon id="p47" fill="#DDA788" fill-rule="nonzero" stroke-linecap="round" stroke-linejoin="round" points="68.3823541 123.237163 67.034496 130.734702 59.2925337 133.346404 59.8853496 147.023616 54.3524175 154.952434 50.6174158 145.992544 47.30969 138.247555 44.5439327 128.224628 42.7218877 118.961013 64.798851 120.502792"></polygon>
                <path d="M124.116203,130.654428 L119.96598,135.016622 L117.001541,140.766748 L112.258445,147.111744 L108.898738,153.258457 L104.946158,157.620632 L103.760394,158.810317 C103.760394,158.810317 104.946164,164.890929 107.317706,177.052152 L116.408668,182.802297 C116.276906,183.066676 116.211025,183.198865 116.211025,183.198865 L128.661675,167.931235 L125.104343,150.680801 L124.116203,130.654428 Z" id="p46" fill="#CF9379" fill-rule="nonzero" stroke-linecap="round" stroke-linejoin="round"></path>
                <path d="M59.952478,147.055582 C59.952478,147.055582 54.4133428,154.96885 54.4133428,154.96885 L54.4133428,154.96885 L59.7546549,161.695127 L65.8872651,168.025752 L76.372055,176.532524 L85.6698893,183.654453 L95.5611913,179.104342 L92.3959764,162.486466 L86.8568449,162.486466 L80.7242346,159.716814 L74.195967,153.584042 L73.2068364,152.990537 L73.2068364,148.440408 L66.8763975,148.836078 L59.952478,147.055582 Z" id="p45" fill="#DDA788" fill-rule="nonzero" stroke-linecap="round" stroke-linejoin="round"></path>
                <polygon id="p44" fill="#8D5060" fill-rule="nonzero" stroke-linecap="round" stroke-linejoin="round" points="73.0893035 150.742289 78.1605909 149.789108 80.9848317 153.392898 77.3829404 156.622922 73.0893035 152.996539"></polygon>
                <path d="M77.4925788,156.547486 C77.4925788,156.547486 81.0673393,153.281946 81.0673393,153.281946 L81.0673393,153.281946 L86.112683,154.683272 L92.4193567,154.403 L92.9799609,157.205634 L92.4566614,162.393698 L86.9070693,162.393698 L80.7628778,159.619222 L77.4925788,156.547486 Z" id="p43" fill="#814254" fill-rule="nonzero" stroke-linecap="round" stroke-linejoin="round"></path>
                <polygon id="p42" fill="#884259" fill-rule="nonzero" stroke-linecap="round" stroke-linejoin="round" points="92.4100583 162.393698 103.750188 158.822925 108.922854 153.268397 103.345533 149.485383 98.7031498 153.13249 92.3726126 154.394943 92.9353369 157.200403"></polygon>
                <path d="M103.304882,149.504549 C103.304882,149.504549 107.240012,145.862856 107.240012,146.002916 C107.240012,146.142995 107.240012,146.142995 107.240012,146.142995 L110.612989,144.042038 L113.423793,141.380784 L120.006961,135.058442 L117.025649,140.80279 L112.255558,147.14141 L108.87673,153.281946 L103.304882,149.504549 Z" id="p41" fill="#884259" fill-rule="nonzero" stroke-linecap="round" stroke-linejoin="round"></path>
                <polygon id="p40" fill="#743155" fill-rule="nonzero" stroke-linecap="round" stroke-linejoin="round" points="73.2411406 148.430947 78.98779 145.865742 90.0847634 145.273781 99.2001314 141.129984 109.108158 139.156757 120.006961 135.210304 116.725211 138.359363 112.476873 139.452738 108.018266 142.017943 103.163349 142.313923 101.677147 143.793862 98.5065692 144.188496 97.1194632 145.175109 93.0571676 146.161741 91.5709655 147.247008 88.2022413 147.444334 86.5178783 147.937641 84.2390381 147.839097 82.8519155 148.52973 78.273225 149.740751 73.2411406 150.700283"></polygon>
                <polygon id="p39" fill="#CC9A91" fill-rule="nonzero" stroke-linecap="round" stroke-linejoin="round" points="78.783194 145.992544 85.4706642 136.213768 99.2052812 141.051556 90.0980352 145.24205"></polygon>
                <polygon id="p38" fill="#C0C0C0" fill-rule="nonzero" stroke-linecap="round" stroke-linejoin="round" points="78.2517642 149.646334 82.8029678 148.440265 84.1817632 147.752456 86.446923 147.850597 88.1211744 147.359307 89.4112925 154.683272 86.112683 154.683272 81.037349 153.25912"></polygon>
                <polygon id="p37" fill="#C0C0C0" fill-rule="nonzero" stroke-linecap="round" stroke-linejoin="round" points="88.1211744 147.359307 91.4428341 147.148684 92.9280502 146.065818 96.9876324 145.081369 98.6932112 153.130083 92.2966876 154.37026 89.4112925 154.683272"></polygon>
                <polygon id="p36" fill="#B3B3B3" fill-rule="nonzero" stroke-linecap="round" stroke-linejoin="round" points="97.079562 145.062194 98.468649 144.073847 101.643713 143.67852 103.132018 142.195981 107.252646 146.001606 103.323723 149.49596 98.6932112 153.130083"></polygon>
                <polygon id="p35" fill="#B3B3B3" fill-rule="nonzero" stroke-linecap="round" stroke-linejoin="round" points="103.153045 142.19777 107.99065 141.902115 110.212003 140.620912 112.433356 139.339728 116.666545 138.247555 110.604085 144.04132 107.253179 145.992544"></polygon>
                <polygon id="p34" fill="#C3877C" fill-rule="nonzero" stroke-linecap="round" stroke-linejoin="round" points="92.3726126 162.47398 103.760394 158.810317 107.252646 177.163461 102.436175 183.806315 95.5470149 179.14854"></polygon>
                <path d="M85.6917811,183.632943 C85.6917811,183.632943 95.6381988,179.098577 95.6381988,179.098577 C95.6381988,179.098577 95.6381988,179.098577 95.6381988,179.098577 L102.545697,183.724455 L96.7784878,187.906604 L91.2926114,186.651954 L85.6917811,183.632943 Z" id="p33" fill="#1A1A1A" fill-rule="nonzero" stroke-linecap="round" stroke-linejoin="round"></path>
                <polygon id="p32" fill="#1A1A1A" fill-rule="nonzero" stroke-linecap="round" stroke-linejoin="round" points="102.39386 183.716315 113.0759 186.084253 116.408668 182.802297 107.317706 177.052152"></polygon>
                <polygon id="p31" fill="#1A1A1A" fill-rule="nonzero" stroke-linecap="round" stroke-linejoin="round" points="102.52233 183.654453 96.7758879 187.906622 96.7758879 187.906622 101.26091 190.032679 103.78375 190.032679 105.465631 189.323993 110.230991 187.906622 113.174292 186.064013"></polygon>
                <path d="M110.137551,187.906604 C113.074908,186.084242 113.074908,186.084242 113.074908,186.084242 L116.346005,182.81616 L128.610336,167.947755 L147.344075,165.197321 L155.03715,160.571347 L156.296023,161.973163 L155.736534,165.477673 L145.106083,170.94472 L137.832619,175.570693 L123.845218,183.28063 L118.390115,185.102973 L113.074908,186.084242 L113.074908,186.084242 L113.074908,186.084242 L110.137551,187.906604 Z" id="p30" fill="#C3877C" fill-rule="nonzero" stroke-linecap="round" stroke-linejoin="round"></path>
                <polygon id="p29" fill="#B97E6C" fill-rule="nonzero" stroke-linecap="round" stroke-linejoin="round" points="125.017585 150.81418 138.682922 145.081369 128.582456 168.012612"></polygon>
                <polygon id="p28" fill="#C68B83" fill-rule="nonzero" stroke-linecap="round" stroke-linejoin="round" points="138.682922 144.929507 155.840512 139.320736 155.165126 160.647384 147.449741 165.266346 128.661675 168.012612"></polygon>
                <polygon id="p27" fill="#424242" fill-rule="nonzero" stroke-linecap="round" stroke-linejoin="round" points="48.3398596 90.2589945 63.1202874 88.9814137 66.4084721 86.4624311 62.7857735 87.1483582 48.3714565 88.7846512"></polygon>
                <polygon id="p26" fill="#A95E4C" fill-rule="nonzero" stroke-linecap="round" stroke-linejoin="round" points="165.026655 74.7690161 163.455156 77.1379481 162.976854 79.7776321 164.411722 83.2972046 165.778256 86.1399341 169.46789 92.8406576 169.809523 86.0045765 167.828057 77.7471031"></polygon>
                <polygon id="p25" fill="#CA8B79" fill-rule="nonzero" stroke-linecap="round" stroke-linejoin="round" points="163.584203 71.7317654 165.552998 71.8131159 167.665734 73.1751973 169.505849 75.6950368 167.802035 77.8062667 165.007774 74.8096913"></polygon>
                <polygon id="p24" fill="#C87F71" fill-rule="nonzero" stroke-linecap="round" stroke-linejoin="round" points="163.680827 71.7317654 159.180927 76.5050487 161.359009 83.577043 163.060619 79.837043 163.53709 77.1850335 165.102574 74.8050402"></polygon>
                <polygon id="p23" fill="#C68570" fill-rule="nonzero" stroke-linecap="round" stroke-linejoin="round" points="150.526214 85.2475309 161.306647 83.5255305 159.128198 76.4395039"></polygon>
                <polygon id="p22" fill="#C6856E" fill-rule="nonzero" stroke-linecap="round" stroke-linejoin="round" points="150.526214 85.2827456 153.384964 91.7776198 156.337049 88.4363407 158.311264 86.6816051 161.306647 83.577043"></polygon>
                <polygon id="p21" fill="#CE8C72" fill-rule="nonzero" stroke-linecap="round" stroke-linejoin="round" points="162.938296 79.7804797 161.246866 83.5137608 158.269905 86.636142 163.750207 96.2069499 170.380671 97.7002586 171.327894 93.2203139 169.365802 92.880923 165.71228 86.1610059"></polygon>
                <path d="M167.835641,77.77251 C167.835641,77.77251 169.549932,75.6801913 169.549932,75.6801913 L169.549932,75.6801913 L170.441367,78.2449798 L171.469942,81.4847145 L172.087079,84.7919292 L169.824211,86.0068435 L167.835641,77.77251 Z" id="p20" fill="#CB9789" fill-rule="nonzero" stroke-linecap="round" stroke-linejoin="round"></path>
                <polygon id="p19" fill="#CC9482" fill-rule="nonzero" stroke-linecap="round" stroke-linejoin="round" points="169.836704 86.0044084 172.020832 84.7919433 172.087079 87.7557162 171.822344 90.0459036 171.425223 93.1443826 169.505849 92.8075898"></polygon>
                <polygon id="p18" fill="#B46F66" fill-rule="nonzero" stroke-linecap="round" stroke-linejoin="round" points="163.81967 96.1816333 162.338666 99.8350588 159.309333 101.391168 158.232229 104.435689 158.636148 106.803646 157.814394 108.938086 167.993397 106.803646 170.416871 97.6700639"></polygon>
                <polygon id="p17" fill="#A05A2C" fill-rule="nonzero" stroke-linecap="round" stroke-linejoin="round" points="153.411118 91.7292329 156.330519 88.3755578 158.282877 86.6142937 163.73604 96.1657297 162.254939 99.82371 159.225408 101.381741 158.148234 104.430076 158.552179 106.800985 157.730372 108.938086 155.64027 105.012361 156.238236 98.2482213"></polygon>
                <polygon id="p16" fill="#CC8D7B" fill-rule="nonzero" stroke-linecap="round" stroke-linejoin="round" points="167.920086 106.812011 167.987478 113.490974 167.852877 115.042646 166.842931 117.538815 162.857444 118.049838 156.903371 117.039069 157.739494 108.940389"></polygon>
                <rect id="Rectangle" x="0.1" y="0.1" width="191.8" height="191.8"></rect>
            </g>
        </g>
    </g>
</svg>