<?xml version="1.0" encoding="UTF-8"?>
<svg width="1000px" height="1000px" viewBox="0 0 1000 1000" version="1.1" xmlns="http://www.w3.org/2000/svg" xmlns:xlink="http://www.w3.org/1999/xlink">
    <title>linkedin-icons</title>
    <g id="Page-1" stroke="none" stroke-width="1" fill="none" fill-rule="evenodd">
        <circle id="Oval" fill="#000000" cx="500" cy="500" r="500"></circle>
        <circle id="Oval" stroke="#32FF32" stroke-width="20" cx="500" cy="500" r="490"></circle>
        <g id="linkedin-icon" transform="translate(206.000000, 210.000000)" fill="#FFFFFF" fill-rule="nonzero">
            <path d="M0,65.979798 C0,46.8548364 6.70064189,31.0770586 20.1013514,18.6464646 C33.5020608,6.21529697 50.9236149,0 72.3648649,0 C93.4236149,0 110.46152,6.11948283 123.47973,18.359596 C136.880439,30.9818182 143.581081,47.4285737 143.581081,67.7010101 C143.581081,86.0606061 137.072264,101.359887 124.054054,113.6 C110.653345,126.222222 93.0405405,132.533333 71.2162162,132.533333 L70.6418919,132.533333 C49.5831419,132.533333 32.5452365,126.222222 19.527027,113.6 C6.50881757,100.977778 0,85.1041859 0,65.979798 Z M7.46621622,568 L7.46621622,184.743434 L134.966216,184.743434 L134.966216,568 L7.46621622,568 Z M205.608108,568 L333.108108,568 L333.108108,353.99596 C333.108108,340.608372 334.639831,330.281099 337.702703,323.014141 C343.062872,310.009236 351.199324,299.012412 362.111486,290.024242 C373.023649,281.035499 386.71152,276.541414 403.175676,276.541414 C446.05875,276.541414 467.5,305.419337 467.5,363.175758 L467.5,568 L595,568 L595,348.258586 C595,291.64964 581.599291,248.715152 554.797297,219.454545 C527.995304,190.193939 492.57902,175.563636 448.547297,175.563636 C399.155405,175.563636 360.675676,196.791919 333.108108,239.248485 L333.108108,240.39596 L332.533784,240.39596 L333.108108,239.248485 L333.108108,184.743434 L205.608108,184.743434 C206.373682,196.982974 206.756757,235.040695 206.756757,298.917172 C206.756757,362.793075 206.373682,452.48716 205.608108,568 Z" id="Shape"></path>
        </g>
    </g>
</svg>